<?xml version="1.0" encoding="utf-8"?>
<!-- Generator: Adobe Illustrator 22.0.0, SVG Export Plug-In . SVG Version: 6.00 Build 0)  -->
<svg version="1.1" id="Camada_1" xmlns="http://www.w3.org/2000/svg" xmlns:xlink="http://www.w3.org/1999/xlink" x="0px" y="0px"
	 viewBox="0 0 128 128" style="enable-background:new 0 0 128 128;" xml:space="preserve">
<style type="text/css">
	.st0{fill:#F0F4F9;}
	.st1{filter:url(#Adobe_OpacityMaskFilter);}
	.st2{fill:#FFFFFF;}
	.st3{mask:url(#mask-2_1_);}
	.st4{fill:#76899F;}
	.st5{fill:#D1DCE7;}
	.st6{fill:#98A9BC;}
	.st7{fill:#BCC8D5;}
</style>
<g id="Artboards">
	<g id="alertas">
		<g id="Mask">
			<circle id="path-1_1_" class="st0" cx="64" cy="64" r="64"/>
		</g>
		<defs>
			<filter id="Adobe_OpacityMaskFilter" filterUnits="userSpaceOnUse" x="25.2" y="28" width="84.8" height="84.3">
				<feColorMatrix  type="matrix" values="1 0 0 0 0  0 1 0 0 0  0 0 1 0 0  0 0 0 1 0"/>
			</filter>
		</defs>
		<mask maskUnits="userSpaceOnUse" x="25.2" y="28" width="84.8" height="84.3" id="mask-2_1_">
			<g class="st1">
				<circle id="path-1_2_" class="st2" cx="64" cy="64" r="64"/>
			</g>
		</mask>
		<g id="Group-8" class="st3">
			<g id="Path" transform="translate(25.199789, 28.000230)">
				<path class="st4" d="M37.5,79.3c-1.5-2.3-3.4-1.2-4.9-3.5c-1.5-2.3,0.3-3.5-1.2-5.9c-1.5-2.3-3.4-1.2-4.9-3.5
					c-1.5-2.3,0.3-3.5-1.2-5.9c-0.9-1.4-2.6-4.4-3.6-4.8l-8.2,4l14.2,22.4c1.4,2.2,4.3,2.8,6.4,1.4l2.7-1.8
					C37.8,81.2,38,80.1,37.5,79.3C37.5,79.3,37.5,79.3,37.5,79.3z"/>
				<path class="st4" d="M14,63.2l-6.4,4c-1.2,0.8-2.8,0.4-3.6-0.8l-3.6-5.9c-0.8-1.2-0.4-2.8,0.8-3.6l6.4-4
					c0.8-0.5,1.7-0.2,2.2,0.5l4.7,7.6C15,61.7,14.8,62.7,14,63.2z"/>
				<path class="st5" d="M17.9,42.2l-13,8c-1.7,1.1-2.2,3.3-1.2,5l6.4,10.4c1.1,1.7,3.3,2.2,5,1.2l13-8l41.2-9l-25-40.5L17.9,42.2z"
					/>
				<path class="st6" d="M28.2,58.8l-13,8c-1.7,1.1-4,0.5-5-1.2L3.7,55.2c-1.1-1.7-0.5-4,1.2-5l13-8L28.2,58.8z"/>
				<path class="st6" d="M71.9,52.7l-1.8,1.1c-0.9,0.6-2.1,0.3-2.7-0.6L40.6,9.7C40,8.8,40.3,7.5,41.2,7L43,5.9
					c0.9-0.6,2.1-0.3,2.7,0.6L72.5,50C73.1,50.9,72.8,52.1,71.9,52.7z"/>
				<path class="st7" d="M64.7,25c-0.5,0-1-0.3-1.3-0.7c-0.4-0.7-0.2-1.6,0.5-2l8.1-5c0.7-0.4,1.6-0.2,2,0.5c0.4,0.7,0.2,1.6-0.5,2
					l-8.1,5C65.3,25,65,25,64.7,25z"/>
				<path class="st7" d="M83.3,37.2c0,0-0.1,0-0.1,0L71.4,36c-0.8-0.1-1.4-0.8-1.3-1.6c0.1-0.8,0.8-1.4,1.6-1.3l11.8,1.1
					c0.8,0.1,1.4,0.8,1.3,1.6C84.7,36.6,84.1,37.2,83.3,37.2z"/>
				<path class="st7" d="M58,14c-0.2,0-0.4,0-0.5-0.1c-0.8-0.3-1.1-1.2-0.8-1.9l4.3-11.1c0.3-0.8,1.2-1.1,1.9-0.8
					C63.6,0.4,64,1.3,63.7,2l-4.3,11.1C59.1,13.7,58.6,14,58,14z"/>
			</g>
		</g>
	</g>
</g>
</svg>
