<?xml version="1.0" encoding="utf-8"?>
<!-- Generator: Adobe Illustrator 22.0.0, SVG Export Plug-In . SVG Version: 6.00 Build 0)  -->
<svg version="1.1" id="Camada_1" xmlns="http://www.w3.org/2000/svg" xmlns:xlink="http://www.w3.org/1999/xlink" x="0px" y="0px"
	 viewBox="0 0 128 128" style="enable-background:new 0 0 128 128;" xml:space="preserve">
<style type="text/css">
	.st0{fill:#F0F4F9;}
	.st1{filter:url(#Adobe_OpacityMaskFilter);}
	.st2{fill:#FFFFFF;}
	.st3{mask:url(#mask-2_1_);}
	.st4{fill:#98A9BC;}
	.st5{fill:#BCC8D5;}
	.st6{fill:#76899F;}
</style>
<g id="Artboards">
	<g id="busca">
		<g id="Oval">
			<circle id="path-1_1_" class="st0" cx="64" cy="64" r="64"/>
		</g>
		<defs>
			<filter id="Adobe_OpacityMaskFilter" filterUnits="userSpaceOnUse" x="27" y="27" width="95.9" height="101">
				<feColorMatrix  type="matrix" values="1 0 0 0 0  0 1 0 0 0  0 0 1 0 0  0 0 0 1 0"/>
			</filter>
		</defs>
		<mask maskUnits="userSpaceOnUse" x="27" y="27" width="95.9" height="101" id="mask-2_1_">
			<g class="st1">
				<circle id="path-1_2_" class="st2" cx="64" cy="64" r="64"/>
			</g>
		</mask>
		<g id="search-_x28_1_x29_" class="st3">
			<g transform="translate(27.000000, 27.000000)">
				<polygon id="Rectangle" class="st4" points="68.1,68.5 63.2,73.4 57.1,67.3 62.1,62.4 				"/>
				<polygon id="Rectangle_1_" class="st5" points="78.6,71.8 66.6,83.8 59.7,76.8 71.7,64.9 				"/>
				<polygon id="Rectangle_2_" class="st6" points="95.9,89.1 83.9,101 66.6,83.7 78.6,71.8 				"/>
				<path id="Combined-Shape" class="st5" d="M37,0c20.4,0,37,16.6,37,37S57.4,74,37,74S0,57.4,0,37S16.6,0,37,0z M37,8
					C21,8,8,21,8,37s13,29,29,29s29-13,29-29S53,8,37,8z"/>
			</g>
		</g>
	</g>
</g>
</svg>
