<?xml version="1.0" encoding="utf-8"?>
<!-- Generator: Adobe Illustrator 22.0.0, SVG Export Plug-In . SVG Version: 6.00 Build 0)  -->
<svg version="1.1" id="Camada_1" xmlns="http://www.w3.org/2000/svg" xmlns:xlink="http://www.w3.org/1999/xlink" x="0px" y="0px"
	 viewBox="0 0 128 128" style="enable-background:new 0 0 128 128;" xml:space="preserve">
<style type="text/css">
	.st0{fill:#F0F4F9;}
	.st1{filter:url(#Adobe_OpacityMaskFilter);}
	.st2{fill:#FFFFFF;}
	.st3{mask:url(#mask-2_1_);}
	.st4{fill:#98A9BC;}
</style>
<g id="Artboards">
	<g id="mapa">
		<g id="Group-8">
			<g id="Oval">
				<circle id="path-1_1_" class="st0" cx="64" cy="64" r="64"/>
			</g>
			<defs>
				<filter id="Adobe_OpacityMaskFilter" filterUnits="userSpaceOnUse" x="14" y="14" width="100" height="100">
					<feColorMatrix  type="matrix" values="1 0 0 0 0  0 1 0 0 0  0 0 1 0 0  0 0 0 1 0"/>
				</filter>
			</defs>
			<mask maskUnits="userSpaceOnUse" x="14" y="14" width="100" height="100" id="mask-2_1_">
				<g class="st1">
					<circle id="path-1_2_" class="st2" cx="64" cy="64" r="64"/>
				</g>
			</mask>
			<g id="world" class="st3">
				<g id="Combined-Shape" transform="translate(14.000000, 14.000000)">
					<path class="st4" d="M25,6.7c11.6-6.7,25-8.4,37.9-5C75.8,5.2,86.6,13.5,93.3,25c6.1,10.5,8.1,22.8,5.8,34.7
						c-2.3,11.7-8.8,22.3-18.1,29.6c-0.8,0.7-2.1,0.5-2.7-0.3c-0.7-0.8-0.5-2.1,0.3-2.7c13-10.2,19.1-26.4,17.2-42.1
						c-0.3,1.1-0.8,2.1-1.6,2.9l0,0l-1.3,1.3c-0.4,0.4-0.9,0.6-1.4,0.6c-0.1,0-0.3,0-0.4,0c-0.7-0.1-1.2-0.6-1.4-1.2l0,0l-2.7-7.3
						c0-0.1-0.1-0.2-0.2-0.3l0,0l-2.4-2.8c-0.2-0.2-0.5-0.3-0.8-0.3l0,0h-0.9l0.1,0.2c0.5,0.8,0.4,1.8-0.2,2.5
						c-2.6,2.6-5.7,4.6-9.2,5.9l0,0l-1.5,0.5c-0.9,0.3-2-0.1-2.4-0.9l0,0l-5.1-9.7c-0.1-0.3-0.2-0.6-0.2-0.9l0,0V33l-2.7-2.6l-2.9-1
						c-1-0.4-1.6-1.5-1.2-2.5c0.4-1,1.5-1.6,2.5-1.2l0,0l3.3,1.2c0.3,0.1,0.5,0.2,0.7,0.4l0,0l3.6,3.5c0.4,0.4,0.6,0.9,0.6,1.4l0,0
						v1.7l4,7.7c2.3-0.9,4.5-2.2,6.4-3.8l0,0l-0.3-0.4c-0.6-0.9-0.6-2-0.1-2.9c0.5-0.9,1.4-1.5,2.5-1.5l0,0h2.9
						c1.4,0,2.8,0.6,3.7,1.7l0,0l2.4,2.8c0.4,0.4,0.7,1,0.9,1.5l0,0l1.3,3.7c0,0,0,0,0,0c0-1.4,0.7-2.8,1.7-3.8l0,0l0.8-0.7
						c-1-3.8-2.5-7.6-4.6-11.2C82.2,13.6,68.7,5.5,54.3,4.1l0,0l-5.6,7c-0.2,0.3-0.5,0.5-0.9,0.6l0,0l-12.6,4.4l-2.9,6.9l2.9,4.1
						c1.6-2.6,4.4-4.2,7.6-4.2l0,0h1.1c1.1,0,2,0.9,2,2c0,1.1-0.9,2-2,2l0,0h-1.1c-2.1,0-4,1.3-4.7,3.3l0,0l0,0.1
						c0.9-0.1,1.9-0.1,2.7-0.2c0.5,0,1.1,0,1.5-0.1c0.7-0.1,4.3-0.2,5.4,2.1c0.2,0.4,0.4,1.1,0.2,1.9l0,0l0,0
						c0.6,0.4,1.6,1.1,2.3,1.4c0.2-0.5,0.6-0.8,0.7-0.9c0.5-0.4,1.1-0.6,2.1-0.9c0.4-0.1,0.8-0.1,1.1,0.1c0.4,0.2,1.1,0.3,1.8,0.5
						c2,0.6,4.4,1.2,5.6,2.5c1.4,1.5,2.2,3.5,2.9,5.4c0.3,0.7,0.5,1.4,0.8,1.9c0.1,0.3,0.3,0.6,0.4,0.9c0.7,1.6,1.5,3.2,2.7,4
						c0.3,0.2,1.1,0.3,1.7,0.4c1.4,0.2,3.2,0.5,3.9,2.1c0.7,1.7-0.4,3.4-0.8,3.9c-0.9,1.3-2,2.3-3.1,3.3c-2.5,2.4-3.6,3.6-3,5.5
						c0.7,2.3,1.4,4.5-1.2,7.3c-0.2,0.2-0.3,0.3-0.4,0.5c-0.8,0.8-1,1.1-1.3,2.1c-0.4,1.3-1.1,2.1-1.6,2.7c-0.3,0.3-0.5,0.5-0.6,0.8
						c-0.1,0.2-0.2,0.5-0.2,0.9c-0.2,0.8-0.4,1.8-1.2,2.8c-1.3,1.7-4.3,4.3-7.1,4.3c-0.6,0-1.2-0.1-1.7-0.4
						c-1.1-0.5-2.4-1.7-4.1-6.9c-0.2-0.6-0.6-1.4-0.9-2.2c-1.1-2.4-2.3-5.1-1.4-7.8c0.1-0.2,0.1-0.3,0.2-0.5c0.6-1.8,0.8-2.6,0.2-4
						c-0.1-0.2-0.4-0.6-0.7-0.9c-0.6-0.7-1.4-1.5-1.7-2.7c-0.2-0.8-0.2-1.4-0.2-1.9c0-0.8,0-0.9-0.3-1.1c-0.5-0.5-1.1-0.5-2.7,0
						c-0.6,0.2-1.2,0.3-1.9,0.4c-4.1,0.5-8-1.2-10.3-4.4c-2.4-3.4-2.8-7.9-1-11.8c0.8-1.8,2-3.1,3.1-4.4c0.2-0.2,0.4-0.5,0.7-0.7
						c0.3-0.3,0.6-0.8,1-1.4c0.9-1.2,1.6-2.3,2.4-2.9l0,0l-5.3-7.4c-0.4-0.5-0.5-1.3-0.2-1.9l0,0l3.6-8.8c0.2-0.5,0.6-0.9,1.2-1.1
						l0,0L46,8.3l3.5-4.4C41.8,4,34.1,6,27,10.1c-1.9,1.1-3.8,2.4-5.5,3.7c1.6,1,2.8,2.4,3.6,4.2c1.2,3,0.6,6.4-1.6,8.7l0,0L21.3,29
						L16,38.3c-0.1,0.2-0.3,0.5-0.6,0.6l0,0L12,41.4l2.4,3.5c0.4,0.6,0.4,1.3,0.2,1.9c-0.3,0.6-0.8,1-1.5,1.2c0,0-1.7,0.3-3.3,0.5
						c-1.7,0.3-2.8,0.4-3.5,0.4c-0.8,0-1.1-0.2-1.5-0.5c-0.1-0.1-0.3-0.3-0.4-0.4c-0.1-0.1-0.2-0.2-0.4-0.4c-0.1,1.8-0.1,3.6,0,5.3
						l0,0l5-1.6c0.6-0.2,1.3-0.1,1.8,0.3l0,0l8.5,6.5l4.4,0.9c1.7,0.3,3.2,1.4,4.1,2.9c0.9,1.5,1.1,3.3,0.5,5
						c-0.1,0.4-0.1,0.9,0,1.3l0,0l0.6,1.9c1,3.2-0.7,6.6-3.9,7.7l0,0l-0.8,0.3L22.4,87c12.3,9.3,28.8,11.9,44.1,6.1
						c1-0.4,2.1,0.1,2.5,1.1s-0.1,2.1-1.1,2.5C62.2,98.9,56.1,100,50,100c-5.6,0-11.2-0.9-16.5-2.8C22.2,93.3,12.7,85.4,6.7,75
						C0,63.4-1.7,50,1.7,37.1S13.5,13.4,25,6.7z M73,89.9c0.9-0.5,2.1-0.2,2.7,0.7c0.5,0.9,0.2,2.1-0.7,2.7l0,0l-0.1,0
						c-0.3,0.2-0.6,0.3-1,0.3c-0.7,0-1.3-0.3-1.7-1C71.7,91.7,72,90.5,73,89.9L73,89.9L73,89.9z M9.2,55.2l-4.8,1.6
						c0.8,5.6,2.7,11.1,5.7,16.3c2.4,4.2,5.5,8,8.9,11.1l0,0l1.6-8.2c0.1-0.7,0.6-1.3,1.3-1.5l0,0l1.9-0.6c1.1-0.4,1.8-1.6,1.4-2.7
						l0,0l-0.6-1.9c-0.4-1.2-0.4-2.5,0-3.8c0.2-0.6,0.1-1.2-0.2-1.8c-0.3-0.5-0.8-0.9-1.5-1l0,0l-4.9-0.9c-0.3-0.1-0.6-0.2-0.8-0.4
						l0,0L9.2,55.2z M77.3,62.2l0.2,0c0.8,0.1,1.5,0.7,1.7,1.4l0,0l0.9,3.5c0.1,0.3,0.1,0.7,0,1.1l0,0L77.8,76
						c-1.2,4.1-2.7,6.2-4.7,6.5c-0.2,0-0.3,0-0.5,0c-0.9,0-2.2-0.4-3.3-2.1c-1.6-2.3-0.5-5,0.2-6.5l0,0l0,0c0.2-0.4,0.1-0.6,0-1.2
						c-0.1-0.7-0.2-1.6,0.1-2.8c0.6-1.9,2.1-2.6,3.3-3.2c0.5-0.2,1-0.5,1.1-0.7c0.3-0.4,0.7-1.1,1-1.8c0.2-0.4,0.4-0.8,0.6-1.2
						c0.4-0.7,1.2-1.1,1.9-1L77.3,62.2z M42.8,34l-0.3,0c-0.5,0-1.1,0.1-1.6,0.1c-1.5,0.1-3.5,0.1-4.4,0.6c-0.4,0.3-1.4,1.7-1.9,2.4
						c-0.4,0.6-0.9,1.2-1.2,1.7c-0.2,0.3-0.5,0.5-0.7,0.8c-1,1.2-1.9,2.2-2.5,3.4c-1.2,2.6-1,5.6,0.6,7.8c1.5,2.1,4,3.2,6.7,2.8
						c0.4-0.1,0.9-0.2,1.4-0.3c1.7-0.4,4.2-1,6.3,1c1.4,1.3,1.5,2.7,1.5,3.7l0,0.3c0,0.4,0,0.7,0.1,1c0.1,0.2,0.4,0.6,0.7,1
						c0.5,0.6,1.1,1.2,1.4,2c1.2,2.8,0.5,4.7-0.1,6.8c0,0.1-0.1,0.3-0.1,0.4c-0.4,1.3,0.4,3.2,1.3,5c0.4,0.8,0.8,1.7,1,2.5
						c1.1,3.4,1.9,4.4,2.1,4.6c0.2,0,0.7-0.1,1.6-0.7c1-0.6,1.9-1.5,2.5-2.2c0.2-0.3,0.3-0.6,0.4-1.1c0.1-0.6,0.3-1.3,0.7-2.1
						c0.4-0.6,0.8-1.1,1.1-1.4c0.4-0.5,0.6-0.7,0.8-1.2c0.6-1.9,1.3-2.6,2.2-3.6c0.1-0.1,0.3-0.3,0.4-0.4c1.1-1.1,1-1.4,0.4-3.5
						c-1.4-4.5,1.6-7.3,4-9.5c0.9-0.9,1.8-1.7,2.5-2.6c-0.1,0-0.3,0-0.4-0.1c-1.1-0.2-2.3-0.3-3.2-1c-2.2-1.4-3.2-3.7-4.1-5.7
						c-0.1-0.3-0.3-0.6-0.4-0.9c-0.3-0.7-0.6-1.4-0.9-2.1c-0.6-1.5-1.2-3.2-2.1-4.1c-0.5-0.5-2.6-1.1-3.8-1.4
						c-0.3-0.1-0.7-0.2-1-0.3c-0.1,0.3-0.3,0.5-0.5,0.6c0,0-0.1,0.1-0.1,0.1c-0.4,0.4-1.2,1.2-2.7,1.1c-1.6-0.1-3.4-1.3-4.9-2.3
						c-0.5-0.4-1-0.7-1.4-0.9c-0.5-0.3-0.9-0.8-1-1.4c-0.1-0.3,0-0.7,0.1-1c-0.3,0-0.6,0-0.8,0L42.8,34z M75.5,69.9
						c-0.3,0.2-0.7,0.4-1,0.5c-0.7,0.3-1.1,0.6-1.2,0.8c-0.1,0.3-0.1,0.5,0,1c0.1,0.8,0.3,1.9-0.3,3.3l0,0l0,0
						c-0.4,0.9-0.9,2.2-0.6,2.7c0,0.1,0.1,0.1,0.1,0.2c0.3-0.4,0.9-1.4,1.5-3.5l0,0L75.5,69.9z M18.3,16.6
						C10.8,23.6,6.1,32.9,4.5,42.7c1,0.8,1.6,1.4,2.1,1.8c0.1,0.1,0.2,0.2,0.4,0.3c0.6-0.1,1.5-0.2,2.5-0.3l0,0L7.7,42
						c-0.6-0.9-0.4-2.1,0.5-2.7l0,0l4.6-3.3l5.2-9.1c0.1-0.1,0.2-0.3,0.3-0.4l0,0l2.3-2.5c1.2-1.2,1.5-3,0.8-4.6
						C20.9,18.1,19.7,17,18.3,16.6z M50.1,24.4c0.4-1,1.5-1.6,2.5-1.2l0,0l0.1,0c1,0.4,1.6,1.5,1.2,2.5c-0.3,0.8-1,1.3-1.8,1.3
						c-0.2,0-0.4,0-0.6-0.1l0,0l-0.1,0C50.3,26.5,49.8,25.4,50.1,24.4z"/>
				</g>
			</g>
		</g>
	</g>
</g>
</svg>
