<?xml version="1.0" encoding="utf-8"?>
<!-- Generator: Adobe Illustrator 22.0.0, SVG Export Plug-In . SVG Version: 6.00 Build 0)  -->
<svg version="1.1" id="Camada_1" xmlns="http://www.w3.org/2000/svg" xmlns:xlink="http://www.w3.org/1999/xlink" x="0px" y="0px"
	 viewBox="0 0 128 128" style="enable-background:new 0 0 128 128;" xml:space="preserve">
<style type="text/css">
	.st0{fill:#F0F4F9;}
	.st1{filter:url(#Adobe_OpacityMaskFilter);}
	.st2{fill:#FFFFFF;}
	.st3{mask:url(#mask-2_1_);}
	.st4{fill:#98A9BC;}
	.st5{fill:#BCC8D5;}
</style>
<g id="Artboards">
	<g id="twitter">
		<g id="Mask">
			<circle id="path-1_1_" class="st0" cx="64" cy="64" r="64"/>
		</g>
		<defs>
			<filter id="Adobe_OpacityMaskFilter" filterUnits="userSpaceOnUse" x="31" y="32" width="73" height="64">
				<feColorMatrix  type="matrix" values="1 0 0 0 0  0 1 0 0 0  0 0 1 0 0  0 0 0 1 0"/>
			</filter>
		</defs>
		<mask maskUnits="userSpaceOnUse" x="31" y="32" width="73" height="64" id="mask-2_1_">
			<g class="st1">
				<circle id="path-1_2_" class="st2" cx="64" cy="64" r="64"/>
			</g>
		</mask>
		<g id="Group-8" class="st3">
			<g id="Group-10" transform="translate(31.000000, 32.000000)">
				<g>
					<path id="Path" class="st4" d="M50,27.9c-1.9,0.8-3.8,1.4-5.9,1.6c2.1-1.3,3.7-3.3,4.5-5.7c-2,1.2-4.2,2-6.5,2.5
						c-1.9-2-4.6-3.3-7.5-3.3c-5.7,0-10.2,4.6-10.2,10.3c0,0.8,0.1,1.6,0.2,2.4c-8.5-0.4-16.1-4.5-21.1-10.8
						c-0.9,1.5-1.4,3.3-1.4,5.2c0,3.6,1.8,6.8,4.6,8.6c-1.6,0-3.3-0.5-4.6-1.3c0,0,0,0.1,0,0.1c0,5,3.6,9.2,8.2,10.2
						c-0.8,0.2-1.7,0.3-2.7,0.3c-0.7,0-1.3,0-1.9-0.2c1.3,4.1,5.1,7.1,9.6,7.2c-3.5,2.8-7.9,4.4-12.7,4.4c-0.8,0-1.6,0-2.5-0.1
						c4.5,3,9.9,4.6,15.7,4.6c18.9,0,29.2-15.8,29.2-29.4c0-0.5,0-0.9,0-1.3C46.9,31.8,48.6,29.9,50,27.9z"/>
					<path id="Combined-Shape" class="st5" d="M61.5,0C67.9,0,73,5.1,73,11.5c0,6.3-5,11.4-11.4,11.5c-1.7,0-3.3-0.3-4.7-0.9
						c-0.3-0.1-0.6-0.2-0.9-0.1l0,0l-4,0.8c-1,0.2-1.9-0.7-1.7-1.7l0,0l0.8-4c0.1-0.3,0-0.6-0.1-0.9c-0.6-1.4-1-3-0.9-4.7
						C50.1,5,55.2,0,61.5,0z M65.6,7.4c-0.5-0.5-1.3-0.5-1.8,0l0,0l-2.4,2.4l-2.4-2.4L59,7.3c-0.5-0.4-1.2-0.4-1.7,0.1
						c-0.5,0.5-0.5,1.3,0,1.8l0,0l2.4,2.4l-2.4,2.4L57.3,14c-0.4,0.5-0.4,1.2,0.1,1.7c0.5,0.5,1.3,0.5,1.8,0l0,0l2.4-2.4l2.4,2.4
						l0.1,0.1c0.5,0.4,1.2,0.4,1.7-0.1c0.5-0.5,0.5-1.3,0-1.8l0,0l-2.4-2.4l2.4-2.4L65.7,9C66.1,8.6,66.1,7.8,65.6,7.4z"/>
				</g>
			</g>
		</g>
	</g>
</g>
</svg>
