<svg xmlns="http://www.w3.org/2000/svg" viewBox="0 0 162 16"><path d="M6.8 15.3c1 0 2-.2 2.8-.6.8-.4 1.5-.9 2.1-1.6l-2.1-1.9c-.6 1-1.5 1.4-2.6 1.4-.6 0-1.2-.1-1.7-.4s-.9-.7-1.1-1.2c-.2-.4-.4-1-.4-1.7 0-.6.1-1.2.4-1.7s.6-.9 1.1-1.2S6.3 6 7 6c1.1 0 2 .4 2.7 1.3l2.1-1.9c-.6-.5-1.3-1.1-2.1-1.4-.9-.4-1.8-.6-2.9-.6-1.2 0-2.3.3-3.2.8S1.9 5.4 1.4 6.3s-.8 1.9-.8 3 .3 2.2.8 3.1c.5.9 1.3 1.6 2.2 2.1 1 .5 2 .8 3.2.8zm11.5 0c1.2 0 2.3-.3 3.3-.8s1.7-1.2 2.3-2.1.8-1.9.8-3.1-.3-2.1-.8-3.1-1.3-1.6-2.3-2.1c-1-.5-2-.8-3.3-.8-1.2 0-2.3.3-3.3.8s-1.7 1.2-2.3 2.1-.8 1.9-.8 3.1.3 2.1.8 3.1S14 14 15 14.5s2.1.8 3.3.8zm0-2.7c-.6 0-1.1-.1-1.6-.4-.5-.3-.8-.7-1.1-1.2-.3-.5-.4-1.1-.4-1.7 0-.6.1-1.2.4-1.7s.6-.9 1.1-1.2c.5-.3 1-.4 1.6-.4.6 0 1.1.1 1.6.4.5.3.8.7 1.1 1.2.3.5.4 1.1.4 1.7 0 .6-.1 1.2-.4 1.7-.3.5-.6.9-1.1 1.2-.5.3-1 .4-1.6.4zm10.8 2.5v-3h1.8l2.1 3h3.5L34 11.5c.7-.3 1.3-.8 1.7-1.4s.6-1.3.6-2.2c0-.9-.2-1.6-.6-2.2-.4-.6-1-1.1-1.8-1.5-.8-.3-1.7-.5-2.7-.5H26v11.4h3.1zm1.8-5.6h-1.8V6.2h1.8c.7 0 1.2.1 1.5.4.4.3.6.7.6 1.3s-.2.9-.5 1.2-.9.4-1.6.4zm12.4 5.8c1.2 0 2.3-.3 3.3-.8s1.7-1.2 2.3-2.1.8-1.9.8-3.1-.3-2.1-.8-3.1-1.3-1.6-2.3-2.1-2-.8-3.3-.8-2.3.4-3.2.9-1.7 1.2-2.3 2.1-.8 1.9-.8 3 .3 2.1.8 3.1 1.3 1.6 2.3 2.1 2 .8 3.2.8zm0-2.7c-.6 0-1.1-.1-1.6-.4-.5-.3-.8-.7-1.1-1.2-.3-.5-.4-1.1-.4-1.7 0-.6.1-1.2.4-1.7.3-.5.6-.9 1.1-1.2.5-.3 1-.4 1.6-.4s1.1.1 1.6.4c.5.3.8.7 1.1 1.2.3.5.4 1.1.4 1.7 0 .6-.1 1.2-.4 1.7-.3.5-.6.9-1.1 1.2-.5.3-1 .4-1.6.4zm10.8 2.5V9l5 6.1h2.7V3.6h-3.2v6.1l-5-6.1H51V15h3.1zm11.5 0l.9-2.2h4.8l.9 2.2h3.4l-5-11.5h-3.2l-5 11.4h3.2zm4.8-4.6h-2.9L69 6.8l1.4 3.7zm11.8 4.6l4.9-11.4h-3.2l-3.2 7.4-3.1-7.4h-3.5L79 15.1h3.2zm7.4-12.4L92.7.2h-3.1l-2.2 2.5h2.2zm1 12.4V3.6h-3.2V15h3.2zm5.1 0v-3h1.8l2.1 3h3.5l-2.5-3.6c.7-.3 1.3-.8 1.7-1.4s.6-1.3.6-2.2c0-.9-.2-1.6-.6-2.2-.4-.6-1-1.1-1.8-1.5-.8-.3-1.7-.5-2.7-.5h-5.2v11.4h3.1zm1.8-5.6h-1.8V6.2h1.8c.7 0 1.2.1 1.5.4.3.3.5.7.5 1.2s-.2 1-.5 1.3-.9.4-1.5.4zm11.9 5.8c1.7 0 3-.5 4-1.4.9-.9 1.4-2.2 1.4-3.9V3.6h-3.2v6.2c0 1.8-.7 2.7-2.2 2.7-1.4 0-2.2-.9-2.2-2.7V3.6H104V10c0 1.7.5 3 1.4 3.9 1 .9 2.3 1.4 4 1.4zm11.1 0c1.1 0 2-.2 2.8-.5s1.3-.8 1.7-1.3.6-1.2.6-1.9c0-.8-.2-1.4-.6-1.9s-.9-.8-1.5-1c-.6-.2-1.3-.4-2.2-.6-.8-.2-1.3-.3-1.7-.5-.3-.2-.5-.4-.5-.7s.1-.6.4-.7c.3-.2.8-.3 1.4-.3 1 0 2.1.3 3.2.9l1-2.4c-.6-.3-1.2-.6-1.9-.7-.7-.2-1.5-.3-2.2-.3-1.1 0-2 .2-2.8.5-.8.3-1.3.8-1.7 1.3s-.6 1.2-.6 1.9c0 .8.2 1.4.6 1.9.4.5.9.8 1.5 1 .6.2 1.3.4 2.2.6.8.2 1.4.3 1.7.5.4.2.5.4.5.7 0 .6-.6.9-1.9.9-.7 0-1.3-.1-2-.3-.7-.2-1.3-.5-1.8-.8l-1.1 2.4c.5.4 1.3.7 2.1.9 1 .3 1.9.4 2.8.4zm14.4-.1c1 0 1.9-.2 2.5-.5.7-.3 1.2-.7 1.6-1.2s.5-1.1.5-1.7c0-.7-.2-1.3-.6-1.8s-.9-.8-1.4-1c-.5-.2-1.2-.4-2.1-.6-.6-.2-1.1-.3-1.5-.4-.4-.1-.7-.3-.9-.5-.2-.2-.4-.5-.4-.8 0-.5.2-.8.6-1.1.4-.3 1-.4 1.9-.4.5 0 1 .1 1.6.2.5.2 1.1.4 1.6.7l.7-1.6c-.5-.3-1.1-.6-1.7-.8-.7-.2-1.4-.3-2.1-.3-1 0-1.8.2-2.5.5s-1.2.7-1.6 1.2-.5 1.1-.5 1.7c0 .8.2 1.3.6 1.8s.8.8 1.4 1c.5.2 1.2.4 2.1.6.6.2 1.1.3 1.5.4.4.1.7.3.9.5.2.2.4.5.4.8 0 .4-.2.8-.6 1.1-.4.3-1.1.4-1.9.4-.7 0-1.4-.1-2-.4-.7-.2-1.3-.5-1.7-.9l-.7 1.6c.5.4 1.1.7 2 1s1.4.5 2.3.5zm11.2 0c1.6 0 2.8-.4 3.7-1.3s1.3-2.2 1.3-3.8V3.6H149V10c0 2.2-1 3.4-2.9 3.4s-2.9-1.1-2.9-3.4V3.6h-2.1V10c0 1.7.4 2.9 1.3 3.8s2.2 1.4 3.7 1.4zm11.1 0c1 0 1.9-.2 2.5-.5.7-.3 1.2-.7 1.6-1.2.3-.5.5-1.1.5-1.7 0-.7-.2-1.3-.6-1.8s-.9-.8-1.4-1c-.5-.2-1.2-.4-2.1-.6-.6-.2-1.1-.3-1.5-.4-.4-.1-.7-.3-.9-.5-.2-.2-.4-.5-.4-.8 0-.5.2-.8.6-1.1.4-.3 1-.4 1.9-.4.5 0 1 .1 1.6.2.5.2 1.1.4 1.6.7l.7-1.6c-.5-.3-1.1-.6-1.7-.8-.7-.2-1.4-.3-2.1-.3-1 0-1.8.2-2.5.5s-1.2.7-1.6 1.2-.4 1.2-.4 1.8c0 .8.2 1.3.6 1.8.4.4.8.8 1.4 1 .5.2 1.2.4 2.1.6.6.2 1.1.3 1.5.4.4.1.7.3.9.5.2.2.4.5.4.8 0 .4-.2.8-.6 1.1-.4.3-1.1.4-1.9.4-.7 0-1.4-.1-2-.4s-1.3-.5-1.7-.9l-.7 1.6c.5.4 1.1.7 2 1s1.3.4 2.2.4z" fill="currentColor"/></svg>