<?xml version="1.0" encoding="UTF-8"?>
<svg width="81px" height="81px" viewBox="0 0 81 81" version="1.1" xmlns="http://www.w3.org/2000/svg" xmlns:xlink="http://www.w3.org/1999/xlink">
    <!-- Generator: Sketch 64 (93537) - https://sketch.com -->
    <title>Group 8</title>
    <desc>Created with Sketch.</desc>
    <g id="Artboards" stroke="none" stroke-width="1" fill="none" fill-rule="evenodd">
        <g id="Atendimento---3" transform="translate(-147.000000, -97.000000)">
            <g id="Group-7" transform="translate(0.000000, 70.000000)">
                <g id="Group" transform="translate(147.000000, 27.000000)">
                    <g id="Group-2">
                        <g id="Group-8" transform="translate(-0.000150, 0.000000)">
                            <circle id="Oval" fill="#F6EEFF" cx="40.5001498" cy="40.5" r="40.5"></circle>
                            <path d="M31.5792336,26.0008314 L31.8270639,26.0029883 C32.9873959,26.0448242 34.0703256,26.5282227 34.8762826,27.3640625 C36.4544467,29.0006445 37.3654037,30.3718555 37.7432162,31.6792578 C38.2638803,33.4808984 37.7903842,35.1495313 36.3360287,36.6386328 C36.3338022,36.640918 36.3316342,36.6431445 36.3294076,36.6453711 L36.3294076,36.6453711 L34.75681,38.2298047 C35.3143881,39.2188672 36.5398764,41.1446094 38.6204232,43.2250977 L38.6204232,43.2250977 L38.774642,43.3791992 C40.8689584,45.4735742 42.7838022,46.6913281 43.7688217,47.2446875 L43.7688217,47.2446875 L45.3547201,45.6705664 C45.3569467,45.6683398 45.3592318,45.6661133 45.3614584,45.6639453 C46.8506186,44.2095898 48.5191342,43.7360352 50.320892,44.2567578 C51.6283529,44.6345703 52.9995053,45.5455859 54.6360873,47.1236914 C55.4719272,47.9296484 55.9553256,49.0125781 55.9971615,50.1730273 C56.0389975,51.333418 55.6348764,52.4483398 54.8593295,53.3124219 L54.8593295,53.3124219 L54.8289193,53.3462305 C54.8149154,53.361875 54.8005014,53.3770508 54.7856186,53.3919336 C53.0787826,55.0988281 50.6943686,55.9999414 47.8869076,55.9999414 L47.8869076,55.9999414 L47.8211654,55.9999414 C45.7526303,55.9894531 43.4987045,55.4644531 41.1220248,54.4392969 C40.527767,54.1829492 40.2537826,53.4933594 40.5101303,52.8991016 C40.7664779,52.3047852 41.4560678,52.0308008 42.0503256,52.287207 C44.1064389,53.174082 46.1060678,53.6474609 47.8328842,53.6560742 L47.8328842,53.6560742 L47.8863217,53.6561914 C50.0467318,53.6561914 51.8503061,52.999707 53.107142,51.7558203 L53.107142,51.7558203 L53.1154037,51.7466211 C53.8798178,50.8949609 53.8332943,49.6053125 53.009349,48.8107813 C49.8628647,45.7766211 48.3773959,45.9966406 47.002435,47.3374414 L47.002435,47.3374414 L44.8141928,49.5093945 C44.4709506,49.8500586 43.953685,49.9449805 43.5118881,49.7481641 C43.3880209,49.6929688 40.4399936,48.3589648 37.1178451,45.0367578 L37.1178451,45.0367578 L36.9636264,44.8827148 C33.6410678,41.5601563 32.3070053,38.6121289 32.2518686,38.4882617 C32.0551107,38.0464648 32.149974,37.5291992 32.4906381,37.185957 L32.4906381,37.185957 L34.6629428,34.9973047 C36.0035678,33.6225781 36.2232943,32.137168 33.1892514,28.9908008 C32.3947201,28.1668555 31.1050717,28.120332 30.2532357,28.8848633 L30.2532357,28.8848633 L30.2442709,28.8929492 C28.9901303,30.1600391 28.3331186,31.9830664 28.344017,34.167207 C28.3650522,38.3772852 30.75181,43.266582 34.7294467,47.2487305 C34.7331381,47.2523047 34.7367709,47.2559375 34.7404037,47.2595703 C35.4999545,48.0191211 36.367435,48.7741016 37.3187631,49.5034766 C37.8323959,49.8972852 37.9294857,50.6328711 37.5356772,51.1465039 C37.14181,51.6600781 36.406224,51.7572266 35.8926498,51.363418 C34.8647982,50.5752734 33.9233139,49.7558984 33.0940951,48.9278516 C33.0904037,48.9242188 33.0867709,48.9206445 33.0830795,48.9169531 C28.672142,44.5060742 26.024349,38.9965625 26.0001609,34.1789844 C25.9861459,31.3429883 26.8879037,28.934668 28.6082162,27.2144727 C28.6230404,27.1996484 28.6382748,27.1851758 28.6539193,27.1711719 L28.6539193,27.1711719 L28.6875522,27.1409375 C29.5517514,26.3651563 30.6669662,25.9612109 31.8270639,26.0029883 Z M41.7621029,27.2357422 C45.2440951,27.2357422 48.5080014,28.5832812 50.9592123,31.0345508 C53.429642,33.5050391 54.7809897,36.7963672 54.7642904,40.3024414 C54.761185,40.9477344 54.2370639,41.46875 53.5925912,41.46875 L53.5925912,41.46875 C52.9396811,41.4656445 52.4175522,40.9384766 52.420599,40.2913086 C52.43431,37.4155859 51.3267709,34.7166992 49.3019467,32.691875 C47.2937045,30.6836328 44.6176107,29.5794922 41.7617514,29.5794922 L41.7617514,29.5794922 L41.7031576,29.5796094 C41.0585678,29.5796094 40.5345053,29.0585937 40.5313865,28.4133008 C40.5283529,27.7661328 41.0504818,27.2389648 41.6977084,27.2357422 L41.6977084,27.2357422 Z M43.1629037,33.4186133 C43.3354037,32.7947656 43.9807553,32.4289062 44.6047201,32.6014648 C45.1845639,32.7618359 46.3910092,33.0954102 47.6480209,34.3524805 C48.8599154,35.564375 49.1963607,36.7076562 49.3771225,37.3218359 L49.3771225,37.3218359 L49.3930014,37.375625 C49.5767514,37.9961914 49.2225522,38.6482227 48.6019857,38.8319141 C48.4910092,38.8647852 48.3789779,38.8804299 48.2688217,38.8804299 C47.763099,38.8804299 47.2964584,38.5504297 47.1456381,38.0408398 L47.1456381,38.0408398 L47.1287045,37.9834766 C46.9898959,37.5118555 46.7801889,36.7991797 45.9907553,36.0097461 C45.1706772,35.1897266 44.4541928,34.9915625 43.9800522,34.8604297 C43.3562045,34.6879297 42.9904037,34.0424023 43.1629037,33.4186133 Z" id="Combined-Shape" fill="#943CFD" fill-rule="nonzero"></path>
                        </g>
                    </g>
                </g>
            </g>
        </g>
    </g>
</svg>