<?xml version="1.0" encoding="UTF-8"?>
<svg width="361px" height="149px" viewBox="0 0 361 149" version="1.1" xmlns="http://www.w3.org/2000/svg" xmlns:xlink="http://www.w3.org/1999/xlink">
    <!-- Generator: Sketch 63.1 (92452) - https://sketch.com -->
    <title>Group 4</title>
    <desc>Created with Sketch.</desc>
    <defs>
        <radialGradient cx="70.9430908%" cy="50%" fx="70.9430908%" fy="50%" r="285.917672%" gradientTransform="translate(0.709431,0.500000),scale(0.367164,1.000000),rotate(-154.906366),translate(-0.709431,-0.500000)" id="radialGradient-1">
            <stop stop-color="#FB8B24" offset="0%"></stop>
            <stop stop-color="#FB3B24" offset="100%"></stop>
            <stop stop-color="#2C56D0" offset="100%"></stop>
        </radialGradient>
        <rect id="path-2" x="0" y="0" width="335" height="123" rx="10"></rect>
        <filter x="-6.9%" y="-13.0%" width="113.7%" height="137.4%" filterUnits="objectBoundingBox" id="filter-4">
            <feOffset dx="0" dy="7" in="SourceAlpha" result="shadowOffsetOuter1"></feOffset>
            <feGaussianBlur stdDeviation="6.5" in="shadowOffsetOuter1" result="shadowBlurOuter1"></feGaussianBlur>
            <feColorMatrix values="0 0 0 0 0.984313725   0 0 0 0 0.545098039   0 0 0 0 0.141176471  0 0 0 0.3 0" type="matrix" in="shadowBlurOuter1"></feColorMatrix>
        </filter>
    </defs>
    <g id="Artboards" stroke="none" stroke-width="1" fill="none" fill-rule="evenodd">
        <g id="Teste---Isolamento" transform="translate(-7.000000, -115.000000)">
            <g id="Group-6-Copy" transform="translate(20.000000, 121.000000)">
                <g id="Group-30">
                    <g id="Oval-Copy-2-+-Oval-Copy-3-Mask">
                        <g id="Group-3">
                            <g id="Group-4">
                                <mask id="mask-3" fill="white">
                                    <use xlink:href="#path-2"></use>
                                </mask>
                                <g id="Mask">
                                    <use fill="black" fill-opacity="1" filter="url(#filter-4)" xlink:href="#path-2"></use>
                                    <use fill="url(#radialGradient-1)" fill-rule="evenodd" xlink:href="#path-2"></use>
                                </g>
                                <g id="house" mask="url(#mask-3)">
                                    <g transform="translate(196.000000, 20.000000)">
                                        <polygon id="Path" fill="#FBF4F1" fill-rule="nonzero" points="62.3622047 4.1152126 14.5511811 40.9691969 14.5511811 41.1417323 14.5511811 103.503937 110.173228 103.503937 110.173228 41.1417323 110.173228 40.9691969"></polygon>
                                        <g id="Group" stroke-width="1" fill="none" fill-rule="evenodd" transform="translate(0.000000, 82.622047)">
                                            <path d="M122.645669,0.094488189 C121.496126,0.094488189 120.566929,1.02576378 120.566929,2.17322835 L120.566929,4.2519685 L118.488189,4.2519685 L118.488189,2.17322835 C118.488189,1.02576378 117.558992,0.094488189 116.409449,0.094488189 C115.259906,0.094488189 114.330709,1.02576378 114.330709,2.17322835 L114.330709,4.2519685 L110.173228,4.2519685 C109.023685,4.2519685 108.094488,5.18324409 108.094488,6.33070866 C108.094488,7.47817323 109.023685,8.40944882 110.173228,8.40944882 L114.330709,8.40944882 L114.330709,14.6456693 L110.173228,14.6456693 C109.023685,14.6456693 108.094488,15.5769449 108.094488,16.7244094 C108.094488,17.871874 109.023685,18.8031496 110.173228,18.8031496 L114.330709,18.8031496 L114.330709,20.8818898 C114.330709,22.0293543 115.259906,22.9606299 116.409449,22.9606299 C117.558992,22.9606299 118.488189,22.0293543 118.488189,20.8818898 L118.488189,18.8031496 L120.566929,18.8031496 L120.566929,20.8818898 C120.566929,22.0293543 121.496126,22.9606299 122.645669,22.9606299 C123.795213,22.9606299 124.724409,22.0293543 124.724409,20.8818898 L124.724409,2.17322835 C124.724409,1.02576378 123.795213,0.094488189 122.645669,0.094488189 Z M118.488189,14.6456693 L118.488189,8.40944882 L120.566929,8.40944882 L120.566929,14.6456693 L118.488189,14.6456693 Z" id="Shape" fill="#7D451B" fill-rule="nonzero"></path>
                                            <path d="M14.5511811,8.40944882 C15.7007244,8.40944882 16.6299213,7.47817323 16.6299213,6.33070866 C16.6299213,5.18324409 15.7007244,4.2519685 14.5511811,4.2519685 L10.3937008,4.2519685 L10.3937008,2.17322835 C10.3937008,1.02576378 9.46450394,0.094488189 8.31496063,0.094488189 C7.16541732,0.094488189 6.23622047,1.02576378 6.23622047,2.17322835 L6.23622047,4.2519685 L4.15748031,4.2519685 L4.15748031,2.17322835 C4.15748031,1.02576378 3.22828346,0.094488189 2.07874016,0.094488189 C0.92919685,0.094488189 0,1.02576378 0,2.17322835 L0,20.8818898 C0,22.0293543 0.92919685,22.9606299 2.07874016,22.9606299 C3.22828346,22.9606299 4.15748031,22.0293543 4.15748031,20.8818898 L4.15748031,18.8031496 L6.23622047,18.8031496 L6.23622047,20.8818898 C6.23622047,22.0293543 7.16541732,22.9606299 8.31496063,22.9606299 C9.46450394,22.9606299 10.3937008,22.0293543 10.3937008,20.8818898 L10.3937008,18.8031496 L14.5511811,18.8031496 C15.7007244,18.8031496 16.6299213,17.871874 16.6299213,16.7244094 C16.6299213,15.5769449 15.7007244,14.6456693 14.5511811,14.6456693 L10.3937008,14.6456693 L10.3937008,8.40944882 L14.5511811,8.40944882 Z M6.23622047,14.6456693 L4.15748031,14.6456693 L4.15748031,8.40944882 L6.23622047,8.40944882 L6.23622047,14.6456693 Z" id="Shape" fill="#7D451B" fill-rule="nonzero"></path>
                                        </g>
                                        <rect id="Rectangle" fill="#472C1B" fill-rule="nonzero" x="27" y="53" width="31" height="26"></rect>
                                        <rect id="Rectangle" fill="#472C1B" fill-rule="nonzero" x="68.5984252" y="52.503937" width="24.9448819" height="51"></rect>
                                        <polygon id="Path" fill="#7D451B" fill-rule="nonzero" points="45.0833333 63.4 45.0833333 53 39.9166667 53 39.9166667 63.4 27 63.4 27 68.6 39.9166667 68.6 39.9166667 79 45.0833333 79 45.0833333 68.6 58 68.6 58 63.4"></polygon>
                                        <path d="M111.819591,55.1448189 L62.3622047,17.0207244 L12.9048189,55.1448189 C10.352126,57.1113071 6.72264567,56.8098898 4.53165354,54.4484409 L4.53165354,54.4484409 C2.04755906,51.7731024 2.38431496,47.5470236 5.2592126,45.2978268 L58.1215748,3.94129134 L62.3622047,1.95399252e-13 L66.6049134,3.94129134 L119.467276,45.2978268 C122.342173,47.5470236 122.678929,51.7731024 120.194835,54.4484409 L120.194835,54.4484409 C118.001764,56.8098898 114.372283,57.1113071 111.819591,55.1448189 Z" id="Path" fill="#7D451B" fill-rule="nonzero"></path>
                                    </g>
                                </g>
                                <ellipse id="Oval-Copy-2" fill="#FFFFFF" opacity="0.132138207" mask="url(#mask-3)" cx="52" cy="-76.9148936" rx="153" ry="154.085106"></ellipse>
                                <ellipse id="Oval-Copy-3" fill="#FFFFFF" opacity="0.132138207" mask="url(#mask-3)" cx="8.5" cy="-47" rx="190.5" ry="192"></ellipse>
                            </g>
                        </g>
                    </g>
                </g>
            </g>
        </g>
    </g>
</svg>