<?xml version="1.0" encoding="UTF-8"?>
<svg width="361px" height="149px" viewBox="0 0 361 149" version="1.1" xmlns="http://www.w3.org/2000/svg" xmlns:xlink="http://www.w3.org/1999/xlink">
    <!-- Generator: Sketch 63.1 (92452) - https://sketch.com -->
    <title>Group 6 Copy</title>
    <desc>Created with Sketch.</desc>
    <defs>
        <radialGradient cx="70.9430908%" cy="50%" fx="70.9430908%" fy="50%" r="285.917672%" gradientTransform="translate(0.709431,0.500000),scale(0.367164,1.000000),rotate(-154.906366),translate(-0.709431,-0.500000)" id="radialGradient-1">
            <stop stop-color="#D41717" offset="0%"></stop>
            <stop stop-color="#E91010" offset="100%"></stop>
        </radialGradient>
        <rect id="path-2" x="0" y="0" width="335" height="123" rx="10"></rect>
        <filter x="-6.9%" y="-13.0%" width="113.7%" height="137.4%" filterUnits="objectBoundingBox" id="filter-4">
            <feOffset dx="0" dy="7" in="SourceAlpha" result="shadowOffsetOuter1"></feOffset>
            <feGaussianBlur stdDeviation="6.5" in="shadowOffsetOuter1" result="shadowBlurOuter1"></feGaussianBlur>
            <feColorMatrix values="0 0 0 0 0.898039216   0 0 0 0 0.4   0 0 0 0 0.345098039  0 0 0 0.22388549 0" type="matrix" in="shadowBlurOuter1"></feColorMatrix>
        </filter>
    </defs>
    <g id="Artboards" stroke="none" stroke-width="1" fill="none" fill-rule="evenodd">
        <g id="Teste---Grave" transform="translate(-7.000000, -115.000000)">
            <g id="Group-6-Copy" transform="translate(20.000000, 121.000000)">
                <g id="Group-30">
                    <g id="Oval-Copy-2-+-Oval-Copy-3-Mask">
                        <g id="Group-3">
                            <g id="Group-4">
                                <mask id="mask-3" fill="white">
                                    <use xlink:href="#path-2"></use>
                                </mask>
                                <g id="Mask">
                                    <use fill="black" fill-opacity="1" filter="url(#filter-4)" xlink:href="#path-2"></use>
                                    <use fill="url(#radialGradient-1)" fill-rule="evenodd" xlink:href="#path-2"></use>
                                </g>
                                <ellipse id="Oval-Copy-2" fill="#FFFFFF" opacity="0.132138207" mask="url(#mask-3)" cx="52" cy="-76.9148936" rx="153" ry="154.085106"></ellipse>
                                <ellipse id="Oval-Copy-3" fill="#FFFFFF" opacity="0.132138207" mask="url(#mask-3)" cx="8.5" cy="-47" rx="190.5" ry="192"></ellipse>
                            </g>
                        </g>
                    </g>
                </g>
                <g id="emergency" transform="translate(151.000000, 19.000000)">
                    <polygon id="Path" fill="#D8E6EE" fill-rule="nonzero" points="34.137931 0 102.413793 0 102.413793 96.2068966 34.137931 96.2068966"></polygon>
                    <polygon id="Path" fill="#37A3C8" fill-rule="nonzero" points="46.5517241 27.9310345 93.1034483 27.9310345 93.1034483 52.7586207 46.5517241 52.7586207"></polygon>
                    <path d="M65.1724138,52.7586207 L65.1724138,96.2068966 L0,96.2068966 L0,68.6521552 C0,59.8745937 7.11597299,52.759092 15.8935345,52.7586207 L65.1724138,52.7586207 Z" id="Path" fill="#D8E6EE" fill-rule="nonzero"></path>
                    <polygon id="Path" fill="#C9D9E5" fill-rule="nonzero" points="65.1724138 52.7586207 93.1034483 52.7586207 93.1034483 96.2068966 65.1724138 96.2068966"></polygon>
                    <polygon id="Path" fill="#C9D9E5" fill-rule="nonzero" points="101.793103 0 173.793103 0 173.793103 96.2068966 101.793103 96.2068966"></polygon>
                    <path d="M149.945711,33.8826034 L147.624151,28.0427414 C147.516772,27.7730517 147.2863,27.686569 147.108956,27.8498621 L142.119004,32.437431 L142.119004,23.5706724 C142.119004,23.2554655 141.951014,23 141.743738,23 L137.256262,23 C137.048986,23 136.880996,23.2554655 136.880996,23.5706724 L136.880996,32.437431 L131.891418,27.8498621 C131.714074,27.686569 131.483602,27.7730517 131.376223,28.0427414 L129.054289,33.8826034 C128.946909,34.1522931 129.003779,34.5027759 129.181123,34.666069 L134.438587,39.5 L129.181123,44.333931 C129.003779,44.4972241 128.946909,44.8477069 129.054289,45.1173966 L131.376223,50.9572586 C131.483602,51.2269483 131.714074,51.313431 131.891418,51.1501379 L136.880996,46.562569 L136.880996,55.4293276 C136.880996,55.7445345 137.048986,56 137.256262,56 L141.743738,56 C141.951014,56 142.119004,55.7445345 142.119004,55.4293276 L142.119004,46.562569 L147.108956,51.1501379 C147.2863,51.313431 147.516772,51.2269483 147.624151,50.9572586 L149.945711,45.1173966 C150.053091,44.8477069 149.996221,44.4972241 149.818877,44.333931 L144.561787,39.5 L149.818877,34.666069 C149.996221,34.5027759 150.053091,34.1522931 149.945711,33.8826034 Z" id="Path" fill="#DE3535" fill-rule="nonzero"></path>
                    <polygon id="Path" fill="#808B94" fill-rule="nonzero" points="0 83.7931034 55.862069 83.7931034 55.862069 96.2068966 0 96.2068966"></polygon>
                    <path d="M15.5172414,74.4827586 L0,74.4827586 L0,68.6521552 C0.000488911598,66.381013 0.487261977,64.1363013 1.42758621,62.0689655 L3.10344828,62.0689655 C9.95904197,62.0698223 15.5163846,67.6271649 15.5172414,74.4827586 L15.5172414,74.4827586 Z" id="Path" fill="#E6B652" fill-rule="nonzero"></path>
                    <path d="M37.2413793,62.0689655 L55.862069,62.0689655 C55.862069,68.9249141 50.3042245,74.4827586 43.4482759,74.4827586 L37.2413793,74.4827586 L37.2413793,62.0689655 Z" id="Path" fill="#E6B652" fill-rule="nonzero" transform="translate(46.551724, 68.275862) rotate(-180.000000) translate(-46.551724, -68.275862) "></path>
                    <path d="M75.3281185,36.9633879 C76.6552123,31.6550085 81.4247997,27.9310345 86.8965517,27.9310345 L37.2413793,27.9310345 C31.7696301,27.9310345 27.000047,31.6550113 25.6729539,36.9633879 L21.7241379,52.7586207 L71.3793103,52.7586207 L75.3281185,36.9633879 Z" id="Path" fill="#8FD1EC" fill-rule="nonzero"></path>
                    <g id="Group" transform="translate(15.517241, 96.206897)">
                        <path d="M27.9310345,0 L27.9310345,15.5172414 L12.4137931,15.5172414 C5.55905172,15.5172414 0,8.56939655 0,0 L27.9310345,0 Z" id="Path" fill="#262D43" fill-rule="nonzero"></path>
                        <path d="M105.517241,0 L105.517241,15.5172414 L90,15.5172414 C83.1452586,15.5172414 77.5862069,8.56939655 77.5862069,0 L105.517241,0 Z" id="Path" fill="#262D43" fill-rule="nonzero"></path>
                        <path d="M40.3448276,0 C40.3448276,6.50172414 37.1443966,12.0724138 32.6056034,14.3806306 C31.1594037,15.1243231 29.5572451,15.5138843 27.9310345,15.5172414 C21.0762931,15.5172414 15.5172414,8.56939655 15.5172414,0 L40.3448276,0 Z" id="Path" fill="#14252D"></path>
                        <path d="M40.3448276,0 C40.3448276,6.50172414 37.1443966,12.0724138 32.6056034,14.3806306 C29.5250138,10.2229858 27.8839014,5.17434262 27.9310345,0 L40.3448276,0 Z" id="Path" fill="#14252D"></path>
                        <path d="M62.0689655,0 L62.0689655,15.5172414 L46.5517241,15.5172414 C39.6969828,15.5172414 34.137931,8.56939655 34.137931,0 L62.0689655,0 Z" id="Path" fill="#262D43" fill-rule="nonzero"></path>
                    </g>
                    <ellipse id="Oval" fill="#2F4054" fill-rule="nonzero" cx="77.5862069" cy="96.2068966" rx="12.4137931" ry="15.5172414"></ellipse>
                    <path d="M133.448276,96.2068966 C133.448276,102.708621 130.247845,108.27931 125.709071,110.587527 C124.262864,111.331219 122.660699,111.72078 121.034483,111.724138 C114.179772,111.724138 108.62069,104.776293 108.62069,96.2068966 L133.448276,96.2068966 Z" id="Path" fill="#14252D"></path>
                    <path d="M133.448276,96.2068966 C133.448276,102.708621 130.247845,108.27931 125.709071,110.587527 C122.628476,106.429884 120.987356,101.381241 121.034483,96.2068966 L133.448276,96.2068966 Z" id="Path" fill="#14252D"></path>
                    <path d="M155.172414,96.2068966 L155.172414,111.724138 L139.655172,111.724138 C132.800431,111.724138 127.241379,104.776293 127.241379,96.2068966 L155.172414,96.2068966 Z" id="Path" fill="#262D43" fill-rule="nonzero"></path>
                    <ellipse id="Oval" fill="#2F4054" fill-rule="nonzero" cx="155.172414" cy="96.2068966" rx="12.4137931" ry="15.5172414"></ellipse>
                    <ellipse id="Oval" fill="#262D43" fill-rule="nonzero" cx="77.5862069" cy="96.2068966" rx="3.10344828" ry="6.20689655"></ellipse>
                    <ellipse id="Oval" fill="#262D43" fill-rule="nonzero" cx="155.172414" cy="96.2068966" rx="3.10344828" ry="6.20689655"></ellipse>
                    <polygon id="Path" fill="#DE3535" fill-rule="nonzero" points="65.1724138 65.0689655 93.1034483 65.0689655 93.1034483 74.3793103 65.1724138 74.3793103"></polygon>
                    <polygon id="Path" fill="#D91616" fill-rule="nonzero" points="108.62069 6.20689655 114.827586 6.20689655 114.827586 12.4137931 108.62069 12.4137931"></polygon>
                    <polygon id="Path" fill="#E6B652" fill-rule="nonzero" points="117.931034 6.20689655 124.137931 6.20689655 124.137931 12.4137931 117.931034 12.4137931"></polygon>
                    <polygon id="Path" fill="#E6B652" fill-rule="nonzero" points="148.965517 6.20689655 155.172414 6.20689655 155.172414 12.4137931 148.965517 12.4137931"></polygon>
                    <polygon id="Path" fill="#D91616" fill-rule="nonzero" points="158.275862 6.20689655 164.482759 6.20689655 164.482759 12.4137931 158.275862 12.4137931"></polygon>
                    <polygon id="Path" fill="#D91616" fill-rule="nonzero" points="43.4482759 9.31034483 62.0689655 9.31034483 62.0689655 18.6206897 43.4482759 18.6206897"></polygon>
                    <polygon id="Path" fill="#D91616" fill-rule="nonzero" points="74.4827586 9.31034483 93.1034483 9.31034483 93.1034483 18.6206897 74.4827586 18.6206897"></polygon>
                    <polygon id="Path" fill="#E6B652" fill-rule="nonzero" points="62.0689655 9.31034483 74.4827586 9.31034483 74.4827586 18.6206897 62.0689655 18.6206897"></polygon>
                    <polygon id="Path" fill="#DE3535" fill-rule="nonzero" points="102 65 174 65 174 74.3103448 102 74.3103448"></polygon>
                    <polygon id="Path" fill="#808B94" fill-rule="nonzero" points="167.586207 83.7931034 180 83.7931034 180 96.2068966 167.586207 96.2068966"></polygon>
                    <polygon id="Path" fill="#DA1616" fill-rule="nonzero" points="114.413793 65 133.034483 65 133.034483 74.3103448 114.413793 74.3103448"></polygon>
                </g>
            </g>
        </g>
    </g>
</svg>