<?xml version="1.0" encoding="UTF-8"?>
<svg width="364px" height="151px" viewBox="0 0 364 151" version="1.1" xmlns="http://www.w3.org/2000/svg" xmlns:xlink="http://www.w3.org/1999/xlink">
    <!-- Generator: Sketch 63.1 (92452) - https://sketch.com -->
    <title>Group 3</title>
    <desc>Created with Sketch.</desc>
    <defs>
        <radialGradient cx="70.9430908%" cy="50%" fx="70.9430908%" fy="50%" r="339.482818%" gradientTransform="translate(0.709431,0.500000),scale(0.367164,1.000000),rotate(-152.525875),translate(-0.709431,-0.500000)" id="radialGradient-1">
            <stop stop-color="#0088FF" offset="0%"></stop>
            <stop stop-color="#7715C5" offset="100%"></stop>
        </radialGradient>
        <rect id="path-2" x="0" y="0" width="335" height="123" rx="10"></rect>
        <filter x="-6.9%" y="-13.0%" width="113.7%" height="137.4%" filterUnits="objectBoundingBox" id="filter-4">
            <feOffset dx="0" dy="7" in="SourceAlpha" result="shadowOffsetOuter1"></feOffset>
            <feGaussianBlur stdDeviation="6.5" in="shadowOffsetOuter1" result="shadowBlurOuter1"></feGaussianBlur>
            <feColorMatrix values="0 0 0 0 0   0 0 0 0 0.533333333   0 0 0 0 1  0 0 0 0.257675918 0" type="matrix" in="shadowBlurOuter1"></feColorMatrix>
        </filter>
        <filter x="-5.9%" y="-8.7%" width="111.8%" height="117.4%" filterUnits="objectBoundingBox" id="filter-5">
            <feOffset dx="0" dy="2" in="SourceAlpha" result="shadowOffsetOuter1"></feOffset>
            <feGaussianBlur stdDeviation="2" in="shadowOffsetOuter1" result="shadowBlurOuter1"></feGaussianBlur>
            <feColorMatrix values="0 0 0 0 0   0 0 0 0 0   0 0 0 0 0  0 0 0 0.0851453234 0" type="matrix" in="shadowBlurOuter1" result="shadowMatrixOuter1"></feColorMatrix>
            <feMerge>
                <feMergeNode in="shadowMatrixOuter1"></feMergeNode>
                <feMergeNode in="SourceGraphic"></feMergeNode>
            </feMerge>
        </filter>
        <rect id="path-6" x="0" y="0" width="202.400004" height="138"></rect>
        <path d="M3.42554051,0.047079996 C5.27484275,0.047079996 6.77292822,1.54610707 6.77292822,3.39446771 C6.77292822,5.24376995 5.27484275,6.74185542 3.42554051,6.74185542 C1.57717987,6.74185542 0.0781527933,5.24376995 0.0781527933,3.39446771 C0.0781527933,1.54610707 1.57717987,0.047079996 3.42554051,0.047079996 Z" id="path-8"></path>
        <radialGradient cx="86.7059069%" cy="44.8312325%" fx="86.7059069%" fy="44.8312325%" r="0.826147582%" gradientTransform="translate(0.867059,0.448312),scale(0.981739,1.000000),translate(-0.867059,-0.448312)" id="radialGradient-10">
            <stop stop-color="#671519" offset="0%"></stop>
            <stop stop-color="#67252C" offset="100%"></stop>
        </radialGradient>
        <path d="M3.36621971,0.047079996 C5.21458035,0.047079996 6.71360743,1.54610707 6.71360743,3.39446771 C6.71360743,5.24376995 5.21458035,6.74185542 3.36621971,6.74185542 C1.51691747,6.74185542 0.0188319984,5.24376995 0.0188319984,3.39446771 C0.0188319984,1.54610707 1.51691747,0.047079996 3.36621971,0.047079996 Z" id="path-11"></path>
        <radialGradient cx="82.8129135%" cy="44.8312325%" fx="82.8129135%" fy="44.8312325%" r="0.826149906%" gradientTransform="translate(0.828129,0.448312),scale(0.981739,1.000000),translate(-0.828129,-0.448312)" id="radialGradient-13">
            <stop stop-color="#671519" offset="0%"></stop>
            <stop stop-color="#67252C" offset="100%"></stop>
        </radialGradient>
        <path d="M3.66659009,0.0357807969 C5.65901552,0.0357807969 7.27385938,1.65062466 7.27385938,3.64305009 C7.27385938,5.63453392 5.65901552,7.25031938 3.66659009,7.25031938 C2.74382217,7.25031938 1.90203184,6.90381061 1.26456869,6.33414266 C1.41804948,5.92266349 1.50185187,5.49988513 1.50185187,5.08558117 C1.50185187,5.07616517 1.50185187,5.06674917 1.50091027,5.05827477 C1.50185187,5.02720197 1.50185187,4.99612917 1.50185187,4.96505638 L1.47360387,4.96505638 C1.35402068,4.7287148 0.872863125,4.58088361 0.159130386,4.49143162 C0.094159992,4.21930924 0.0593207949,3.93494606 0.0593207949,3.64305009 C0.0593207949,1.65062466 1.67416466,0.0357807969 3.66659009,0.0357807969 Z" id="path-14"></path>
        <radialGradient cx="86.741499%" cy="78.6135614%" fx="86.741499%" fy="78.6135614%" r="0.890308067%" gradientTransform="translate(0.867415,0.786136),scale(0.981739,1.000000),translate(-0.867415,-0.786136)" id="radialGradient-16">
            <stop stop-color="#F16A5C" offset="0%"></stop>
            <stop stop-color="#F1B99D" offset="100%"></stop>
        </radialGradient>
        <path d="M0.0649703945,0.0659119944 C0.778703133,0.155363987 1.25986069,0.303195174 1.37944388,0.539536754 L0.214684782,0.539536754 C0.154422387,0.386997567 0.104517591,0.227867181 0.0649703945,0.0659119944 Z" id="path-17"></path>
        <radialGradient cx="86.741499%" cy="78.6135614%" fx="86.741499%" fy="78.6135614%" r="0.890308067%" gradientTransform="translate(0.867415,0.786136),scale(0.981739,1.000000),translate(-0.867415,-0.786136)" id="radialGradient-19">
            <stop stop-color="#C92928" offset="0%"></stop>
            <stop stop-color="#C94845" offset="100%"></stop>
        </radialGradient>
        <path d="M0.371931968,0.00094159992 C0.371931968,0.415245565 0.288129575,0.838023928 0.134648788,1.24950309 L0.0753279936,1.1958319 C0.250465579,0.82389993 0.35309997,0.420895164 0.370048768,0.00094159992 L0.371931968,0.00094159992 Z" id="path-20"></path>
        <path d="M0.93689192,0.0687367941 C0.93689192,0.0998095915 0.93689192,0.130882389 0.93595032,0.161955186 C0.93500872,0.171371185 0.93500872,0.179845585 0.93500872,0.189261584 C0.918059922,0.609215148 0.81542553,1.01221991 0.640287945,1.38415188 C0.407712765,1.1666423 0.204327183,0.919001521 0.034839197,0.647820745 C0.151597587,0.46703356 0.215626382,0.272122377 0.215626382,0.0687367941 L0.93689192,0.0687367941 Z" id="path-22"></path>
        <radialGradient cx="86.741499%" cy="78.6135614%" fx="86.741499%" fy="78.6135614%" r="0.890308067%" gradientTransform="translate(0.867415,0.786136),scale(0.981739,1.000000),translate(-0.867415,-0.786136)" id="radialGradient-24">
            <stop stop-color="#822B2A" offset="0%"></stop>
            <stop stop-color="#824A49" offset="100%"></stop>
        </radialGradient>
        <path d="M0.498106357,0.0687367941 C0.498106357,0.272122377 0.434077563,0.46703356 0.317319173,0.647820745 C0.204327183,0.46515036 0.106400791,0.271180777 0.0263647977,0.0687367941 L0.498106357,0.0687367941 Z" id="path-25"></path>
        <radialGradient cx="86.741499%" cy="78.6135614%" fx="86.741499%" fy="78.6135614%" r="0.890308067%" gradientTransform="translate(0.867415,0.786136),scale(0.981739,1.000000),translate(-0.867415,-0.786136)" id="radialGradient-27">
            <stop stop-color="#F68C8E" offset="0%"></stop>
            <stop stop-color="#F6F4F4" offset="100%"></stop>
        </radialGradient>
        <path d="M3.64399169,0.0357807969 C5.63641712,0.0357807969 7.25126098,1.65062466 7.25126098,3.64305009 C7.25126098,5.63453392 5.63641712,7.25031938 3.64399169,7.25031938 C1.65156626,7.25031938 0.0367223969,5.63453392 0.0367223969,3.64305009 C0.0367223969,1.65062466 1.65156626,0.0357807969 3.64399169,0.0357807969 Z" id="path-28"></path>
        <radialGradient cx="83.2452658%" cy="78.6135614%" fx="83.2452658%" fy="78.6135614%" r="0.890310391%" gradientTransform="translate(0.832453,0.786136),scale(0.981739,1.000000),translate(-0.832453,-0.786136)" id="radialGradient-30">
            <stop stop-color="#F16A5C" offset="0%"></stop>
            <stop stop-color="#F1B99D" offset="100%"></stop>
        </radialGradient>
        <path d="M0.139827588,3.13176133 C0.163273426,3.13176133 0.186719264,3.13270293 0.210259262,3.13270293 L7.62564111,3.13270293 C7.67573422,3.37940211 7.70200486,3.63457569 7.70200486,3.89634047 C7.70200486,6.00552429 5.99205941,7.71546974 3.88268727,7.71546974 C1.77322097,7.71546974 0.0631813546,6.00552429 0.0631813546,3.89634047 C0.0631813546,3.63457569 0.0896403123,3.37846051 0.139827588,3.13176133 Z M3.88268727,0.0772111934 C5.13228452,0.0772111934 6.24167755,0.677010342 6.93846149,1.60448626 L0.826818889,1.60448626 C1.52360283,0.677010342 2.63299586,0.0772111934 3.88268727,0.0772111934 Z" id="path-31"></path>
        <radialGradient cx="17.7315514%" cy="79.1408681%" fx="17.7315514%" fy="79.1408681%" r="0.942667373%" gradientTransform="translate(0.177316,0.791409),scale(0.981739,1.000000),translate(-0.177316,-0.791409)" id="radialGradient-33">
            <stop stop-color="#F06F4B" offset="0%"></stop>
            <stop stop-color="#F0A790" offset="100%"></stop>
        </radialGradient>
        <path d="M7.60210111,3.13270293 C7.65219423,3.37940211 7.67846486,3.63457569 7.67846486,3.89634047 C7.67846486,6.00552429 5.96851941,7.71546974 3.85914727,7.71546974 C1.74958681,7.71546974 0.0396413566,6.00552429 0.0396413566,3.89634047 C0.0396413566,3.63457569 0.0659119944,3.37940211 0.11600511,3.13270293 L7.60210111,3.13270293 Z M3.85914727,0.0772111934 C5.10874452,0.0772111934 6.21804339,0.677010342 6.91492149,1.60448626 L0.803184731,1.60448626 C1.50006283,0.677010342 2.60945586,0.0772111934 3.85914727,0.0772111934 Z" id="path-34"></path>
        <radialGradient cx="14.0297513%" cy="79.1408681%" fx="14.0297513%" fy="79.1408681%" r="0.942667373%" gradientTransform="translate(0.140298,0.791409),scale(0.981739,1.000000),translate(-0.140298,-0.791409)" id="radialGradient-36">
            <stop stop-color="#F06F4B" offset="0%"></stop>
            <stop stop-color="#F0A790" offset="100%"></stop>
        </radialGradient>
    </defs>
    <g id="Artboards" stroke="none" stroke-width="1" fill="none" fill-rule="evenodd">
        <g id="Teste---Não-Suspeito" transform="translate(-7.000000, -117.000000)">
            <g id="Group-30" transform="translate(20.000000, 110.000000)">
                <g id="Oval-Copy-2-+-Oval-Copy-3-Mask">
                    <g id="Group-3">
                        <g id="Group-4" transform="translate(0.000000, 15.000000)">
                            <mask id="mask-3" fill="white">
                                <use xlink:href="#path-2"></use>
                            </mask>
                            <g id="Mask">
                                <use fill="black" fill-opacity="1" filter="url(#filter-4)" xlink:href="#path-2"></use>
                                <use fill="url(#radialGradient-1)" fill-rule="evenodd" xlink:href="#path-2"></use>
                            </g>
                            <ellipse id="Oval-Copy-2" fill="#FFFFFF" opacity="0.132138207" mask="url(#mask-3)" cx="52" cy="-76.9148936" rx="153" ry="154.085106"></ellipse>
                            <ellipse id="Oval-Copy-3" fill="#FFFFFF" opacity="0.132138207" mask="url(#mask-3)" cx="8.5" cy="-47" rx="190.5" ry="192"></ellipse>
                        </g>
                        <g id="Group-30" filter="url(#filter-5)" transform="translate(147.000000, 0.000000)">
                            <mask id="mask-7" fill="white">
                                <use xlink:href="#path-6"></use>
                            </mask>
                            <use id="Mask" fill-opacity="0" fill="#D8D8D8" xlink:href="#path-6"></use>
                            <g id="Group-23" mask="url(#mask-7)">
                                <g transform="translate(22.000000, 9.000000)">
                                    <g id="Group-19" transform="translate(43.596076, 0.000000)">
                                        <g id="Group-444">
                                            <path d="M22.8168493,31.4645029 L22.8168493,31.4645029 C20.6078558,31.4645029 18.799984,29.6575727 18.799984,27.4476377 L18.799984,22.7612949 C18.799984,20.5523014 20.6078558,18.7453712 22.8168493,18.7453712 C25.0258427,18.7453712 26.8337145,20.5523014 26.8337145,22.7612949 L26.8337145,27.4476377 C26.8337145,29.6575727 25.0258427,31.4645029 22.8168493,31.4645029" id="Fill-421" fill="#5E212A"></path>
                                            <path d="M55.6203072,31.4645029 L55.6203072,31.4645029 C53.4113138,31.4645029 51.603442,29.6575727 51.603442,27.4476377 L51.603442,22.7612949 C51.603442,20.5523014 53.4113138,18.7453712 55.6203072,18.7453712 C57.8293007,18.7453712 59.6371725,20.5523014 59.6371725,22.7612949 L59.6371725,27.4476377 C59.6371725,29.6575727 57.8293007,31.4645029 55.6203072,31.4645029" id="Fill-423" fill="#5E212A"></path>
                                            <path d="M26.164237,26.1086826 C26.164237,27.587936 24.9655803,28.7865927 23.4863268,28.7865927 C22.0070733,28.7865927 20.8084166,27.587936 20.8084166,26.1086826 C20.8084166,24.6303707 22.0070733,23.4307724 23.4863268,23.4307724 C24.9655803,23.4307724 26.164237,24.6303707 26.164237,26.1086826" id="Fill-424" fill="#561B26"></path>
                                            <path d="M57.6287399,26.1086826 C57.6287399,27.587936 56.4300832,28.7865927 54.9508297,28.7865927 C53.4715762,28.7865927 52.2729195,27.587936 52.2729195,26.1086826 C52.2729195,24.6303707 53.4715762,23.4307724 54.9508297,23.4307724 C56.4300832,23.4307724 57.6287399,24.6303707 57.6287399,26.1086826" id="Fill-425" fill="#561B26"></path>
                                            <path d="M27.5031921,58.242663 L12.7746861,65.606916 C12.7746861,65.606916 6.08085228,68.2848262 4.07241965,86.3597782 C2.06398702,104.435672 0.0555543953,170.711124 0.0555543953,170.711124 L12.1061502,172.050079 L12.1061502,176.736422 L27.5031921,176.066944 L63.6540378,172.050079 L83.0679449,167.363736 L75.0342144,140.585576 L85.0763775,123.849579 L73.0257818,71.6322139 C73.0257818,71.6322139 69.0098581,66.2763935 48.9255318,55.5647529 C39.5537878,57.5731855 26.8337145,58.9121406 26.8337145,58.9121406 L27.5031921,58.242663" id="Fill-426" fill="#2D1E25"></path>
                                            <path d="M31.5200573,52.8868427 C31.5200573,52.8868427 29.5116247,56.9037079 26.8337145,58.9121406 C24.1558043,60.9205732 38.2148327,68.2848262 42.9002339,66.9458711 C47.5865767,65.606916 48.9255318,55.5647529 48.9255318,55.5647529 C48.9255318,55.5647529 47.5865767,55.5647529 46.2476216,52.8868427 C44.9086666,50.2098741 31.5200573,52.8868427 31.5200573,52.8868427" id="Fill-427" fill="#67252C"></path>
                                            <polygon id="Fill-428" fill="#67252C" points="31.5200573 58.9121406 47.5865767 58.9121406 47.5865767 41.5066661 31.5200573 41.5066661"></polygon>
                                            <polyline id="Fill-429" fill="#471A23" points="47.5865767 47.5319639 31.5200573 50.2098741 31.5200573 42.1761436 47.5865767 42.1761436 47.5865767 47.5319639"></polyline>
                                            <path d="M39.2185782,46.8624864 C30.9343822,46.8624864 24.1558043,40.0839086 24.1558043,31.7997125 L24.1558043,15.7322515 C24.1558043,7.44805536 30.9343822,0.669477543 39.2185782,0.669477543 C47.5027743,0.669477543 54.2813522,7.44805536 54.2813522,15.7322515 L54.2813522,31.7997125 C54.2813522,40.0839086 47.5027743,46.8624864 39.2185782,46.8624864" id="Fill-430" fill="#67252C"></path>
                                            <path d="M23.4863268,18.0758937 C23.4863268,18.0758937 24.1558043,22.0927589 24.8252819,20.0833847 C24.8252819,18.0758937 25.4947594,9.3726856 32.1895349,6.69477543 C34.1979675,11.3811182 42.9002339,12.0505958 46.9170992,6.02529789 C48.9255318,6.69477543 52.9423971,12.7200733 52.9423971,20.0833847 C52.9423971,20.0833847 54.029945,23.012702 54.4903873,18.870604 C54.9508297,14.7285059 54.9508297,0 38.8843103,0 C22.8168493,0 22.8168493,16.067461 23.4863268,18.0758937" id="Fill-431" fill="#2D1E25"></path>
                                            <path d="M35.9192121,24.1247315 C35.9192121,25.5107666 34.7949418,26.2762874 33.4089067,26.2762874 C32.0219301,26.2762874 30.1811022,25.5107666 30.1811022,24.1247315 C30.1811022,22.7377549 32.0219301,21.2556766 33.4089067,21.2556766 C34.7949418,21.2556766 35.9192121,22.7377549 35.9192121,24.1247315" id="Fill-432" fill="#000000"></path>
                                            <path d="M44.526377,24.1247315 C44.526377,25.5107666 45.6506473,26.2762874 47.0366824,26.2762874 C48.4236591,26.2762874 50.2644869,25.5107666 50.2644869,24.1247315 C50.2644869,22.7377549 48.4236591,21.2556766 47.0366824,21.2556766 C45.6506473,21.2556766 44.526377,22.7377549 44.526377,24.1247315" id="Fill-433" fill="#000000"></path>
                                            <path d="M35.8975553,24.4354595 C35.8975553,25.8290274 34.7676354,26.9589473 33.3740675,26.9589473 C31.9804997,26.9589473 30.8505798,25.8290274 30.8505798,24.4354595 C30.8505798,23.0418916 31.9804997,21.9119717 33.3740675,21.9119717 C34.7676354,21.9119717 35.8975553,23.0418916 35.8975553,24.4354595" id="Fill-434" fill="#F6F4F4"></path>
                                            <path d="M44.5489754,24.4354595 C44.5489754,25.8290274 45.6779537,26.9589473 47.0715216,26.9589473 C48.4650895,26.9589473 49.5950094,25.8290274 49.5950094,24.4354595 C49.5950094,23.0418916 48.4650895,21.9119717 47.0715216,21.9119717 C45.6779537,21.9119717 44.5489754,23.0418916 44.5489754,24.4354595" id="Fill-435" fill="#F6F4F4"></path>
                                            <path d="M45.2184529,24.4354595 C45.2184529,25.4589786 46.0480025,26.2894698 47.0715216,26.2894698 C48.0959823,26.2894698 48.9255318,25.4589786 48.9255318,24.4354595 C48.9255318,23.4119404 48.0959823,22.5814493 47.0715216,22.5814493 C46.0480025,22.5814493 45.2184529,23.4119404 45.2184529,24.4354595" id="Fill-436" fill="#2C1D24"></path>
                                            <path d="M35.1762898,24.4354595 C35.1762898,25.4307306 34.3693387,26.2376818 33.3740675,26.2376818 C32.3787964,26.2376818 31.5718453,25.4307306 31.5718453,24.4354595 C31.5718453,23.4401884 32.3787964,22.6332373 33.3740675,22.6332373 C34.3693387,22.6332373 35.1762898,23.4401884 35.1762898,24.4354595" id="Fill-437" fill="#2C1D24"></path>
                                            <path d="M46.3173,23.9674844 L46.2692784,23.9853748 C46.0960241,24.0484619 45.9029961,23.9580684 45.8399089,23.7857556 L45.5762609,23.059782 C45.5131737,22.8865276 45.6035673,22.6934997 45.7758801,22.6304125 L45.8248433,22.6125221 C45.9980977,22.5494349 46.1911257,22.6398285 46.2532712,22.8130829 L46.5178608,23.5390564 C46.580948,23.7123108 46.4905544,23.9053388 46.3173,23.9674844" id="Fill-438" fill="#F6F4F4"></path>
                                            <path d="M32.619846,23.9674844 L32.5708828,23.9853748 C32.3976284,24.0484619 32.2046004,23.9580684 32.1424549,23.7857556 L31.8778653,23.059782 C31.8147781,22.8865276 31.9051717,22.6934997 32.0784261,22.6304125 L32.1264477,22.6125221 C32.299702,22.5494349 32.49273,22.6398285 32.5558172,22.8130829 L32.8194652,23.5390564 C32.8825524,23.7123108 32.7921588,23.9053388 32.619846,23.9674844" id="Fill-439" fill="#F6F4F4"></path>
                                            <path d="M50.7550605,21.3036982 L46.2287897,20.0890343 C45.3399193,19.8498679 44.8079154,18.9271 45.0461402,18.0382297 C45.2853065,17.1493593 46.2080745,16.6173554 47.0969448,16.8555802 L51.622274,18.0702441 C52.5120859,18.3094104 53.0440899,19.2321784 52.8049235,20.1210487 C52.5666987,21.009919 51.6439308,21.541923 50.7550605,21.3036982" id="Fill-440" fill="#2D1E25"></path>
                                            <path d="M29.0210511,21.3036982 L33.5473219,20.0890343 C34.4361923,19.8498679 34.9681962,18.9271 34.7299714,18.0382297 C34.4917467,17.1493593 33.5689787,16.6173554 32.6801084,16.8555802 L28.1538376,18.0702441 C27.2649673,18.3094104 26.7320217,19.2321784 26.9711881,20.1210487 C27.2094129,21.009919 28.1321808,21.541923 29.0210511,21.3036982" id="Fill-441" fill="#2D1E25"></path>
                                            <path d="M41.1968797,24.9166171 C41.5622204,25.9749754 41.8870724,27.0455745 42.1450708,28.1359472 C42.2495884,28.5794408 42.5132364,29.3826255 42.4463828,29.8148199 C42.2109828,31.3543357 40.8155317,30.9211998 39.9210118,30.621771 C39.3070886,30.4155606 39.0434407,31.3854085 39.654539,31.5897357 C40.8739109,31.9983901 42.5810316,32.1754109 43.2448595,30.7761934 C43.6120835,30.0012566 43.3917491,29.1321599 43.2203779,28.336508 C42.9501387,27.0851217 42.5829148,25.8591586 42.1648444,24.6492027 C41.9548676,24.0418707 40.9850197,24.3026939 41.1968797,24.9166171" id="Fill-442" fill="#47151D"></path>
                                            <path d="M36.3608225,35.6376738 C38.9690543,38.9963607 43.919045,38.5754655 45.9679665,34.8749778 C46.2805776,34.3090763 45.4143057,33.8015539 45.1007529,34.3674555 C43.3418443,37.5444136 39.2891982,37.78358 37.0707888,34.9277074 C36.6753169,34.4183019 35.9691169,35.1329762 36.3608225,35.6376738" id="Fill-443" fill="#510614"></path>
                                        </g>
                                        <g id="Group-447" transform="translate(44.161036, 27.400558)">
                                            <mask id="mask-9" fill="white">
                                                <use xlink:href="#path-8"></use>
                                            </mask>
                                            <g id="Clip-446"></g>
                                            <polygon id="Fill-445" fill="url(#radialGradient-10)" mask="url(#mask-9)" points="-354.41256 226.919931 58.2906846 226.919931 58.2906846 -178.246748 -354.41256 -178.246748"></polygon>
                                        </g>
                                        <g id="Group-450" transform="translate(28.153838, 27.400558)">
                                            <mask id="mask-12" fill="white">
                                                <use xlink:href="#path-11"></use>
                                            </mask>
                                            <g id="Clip-449"></g>
                                            <polygon id="Fill-448" fill="url(#radialGradient-13)" mask="url(#mask-12)" points="-338.405361 226.919931 74.2978833 226.919931 74.2978833 -178.246748 -338.405361 -178.246748"></polygon>
                                        </g>
                                        <g id="Group-460" transform="translate(14.218159, 1.224080)">
                                            <path d="M15.2934659,132.667662 L41.4021485,131.998185 L34.707373,54.340673 C34.707373,54.340673 24.8328147,70.742402 14.6239884,55.679628 C12.4479509,57.3537927 11.9460782,57.6880607 11.9460782,57.6880607 L15.2934659,132.667662" id="Fill-451" fill="#6EB434"></path>
                                            <path d="M32.0294629,3.12799493 C32.0294629,3.68259729 31.5803197,4.13174045 31.0257173,4.13174045 C30.471115,4.13174045 30.0210302,3.68259729 30.0210302,3.12799493 C30.0210302,2.57339258 30.471115,2.12330782 31.0257173,2.12330782 C31.5803197,2.12330782 32.0294629,2.57339258 32.0294629,3.12799493" id="Fill-453" fill="#1C1217"></path>
                                            <path d="M36.7158057,4.46695002 C36.7158057,4.6515036 36.5660913,4.80121799 36.3815377,4.80121799 C36.1960425,4.80121799 36.0463281,4.6515036 36.0463281,4.46695002 C36.0463281,4.28145483 36.1960425,4.13174045 36.3815377,4.13174045 C36.5660913,4.13174045 36.7158057,4.28145483 36.7158057,4.46695002" id="Fill-454" fill="#1C1217"></path>
                                            <path d="M14.6239884,6.14017308 C14.6239884,6.51022184 14.3245596,6.80965062 13.9545108,6.80965062 C13.584462,6.80965062 13.2850333,6.51022184 13.2850333,6.14017308 C13.2850333,5.77012431 13.584462,5.47069553 13.9545108,5.47069553 C14.3245596,5.47069553 14.6239884,5.77012431 14.6239884,6.14017308" id="Fill-455" fill="#1C1217"></path>
                                            <path d="M17.0806225,3.5065181 C16.6550194,3.5065181 16.2576642,3.23345412 16.1220738,2.80879256 C15.9535274,2.28243821 16.246365,1.71465345 16.7727194,1.54610707 L21.235903,0.11864159 C21.3366542,0.0856855927 21.4392886,0.070619994 21.5400398,0.070619994 C21.9647013,0.070619994 22.3620565,0.343683971 22.4985885,0.768345534 C22.6661933,1.29469989 22.3733557,1.86248464 21.8479429,2.03103103 L17.3847593,3.4594381 C17.2840081,3.4914525 17.1813737,3.5065181 17.0806225,3.5065181" id="Fill-456" fill="#5A3C4A"></path>
                                            <path d="M15.3556115,17.9694929 C15.0627739,17.9694929 14.7915931,17.7755233 14.7096739,17.4798609 C14.610806,17.1248777 14.8207827,16.7538874 15.1748243,16.655961 L18.399804,15.7576747 C18.4591248,15.7407259 18.5193872,15.7331931 18.5777664,15.7331931 C18.8715456,15.7331931 19.1417848,15.9281042 19.2246456,16.222825 C19.3235135,16.5778082 19.1135368,16.9487986 18.7585536,17.0476665 L15.5345155,17.9450113 C15.4751947,17.9619601 15.4149323,17.9694929 15.3556115,17.9694929" id="Fill-457" fill="#5A3C4A"></path>
                                            <path d="M35.9587593,18.0514121 C35.8890809,18.0514121 35.8175193,18.0401129 35.7478409,18.0175145 L32.5737076,16.9553898 C32.224374,16.8386314 32.0341709,16.4572834 32.1509293,16.1079498 C32.2441476,15.8292362 32.506854,15.6512739 32.7874508,15.6512739 C32.8571292,15.6512739 32.9277492,15.6625731 32.9983692,15.6861131 L36.1725025,16.7472962 C36.5218361,16.8640546 36.7120393,17.2454025 36.5952809,17.5947361 C36.5020625,17.8734497 36.2384145,18.0514121 35.9587593,18.0514121" id="Fill-458" fill="#5A3C4A"></path>
                                            <path d="M0.731623138,111.254738 C0.513171956,111.169053 0.295662375,111.083367 0.0781527933,110.995799 L0.564959952,91.8304738 L0.731623138,111.254738" id="Fill-459" fill="#20151A"></path>
                                        </g>
                                    </g>
                                    <g id="Group-20" transform="translate(89.263672, 17.325439)">
                                        <g id="Group-120">
                                            <path d="M26.9043345,25.2734834 L22.5757997,25.2734834 L24.0183307,12.2869374 L41.3334117,1.46512947 C41.3334117,1.46512947 51.4330124,2.18639501 54.3190162,12.2869374 C57.2050199,22.3874797 56.4837544,60.6239692 56.4837544,60.6239692 C56.4837544,60.6239692 39.889939,61.3452348 39.889939,60.6239692 C39.889939,59.9027037 34.1188731,33.9305531 34.1188731,33.9305531 L26.9043345,25.2734834" id="Fill-82" fill="#0D2C3A"></path>
                                            <path d="M24.3789635,31.7658149 C22.1963349,31.7658149 20.4110615,29.9805414 20.4110615,27.7979128 L20.4110615,26.3553817 C20.4110615,24.1727531 22.1963349,22.3874797 24.3789635,22.3874797 C26.5615921,22.3874797 28.3468656,24.1727531 28.3468656,26.3553817 L28.3468656,27.7979128 C28.3468656,29.9805414 26.5615921,31.7658149 24.3789635,31.7658149" id="Fill-84" fill="#EAAA94"></path>
                                            <path d="M51.7936452,31.7658149 C49.6119582,31.7658149 47.8257431,29.9805414 47.8257431,27.7979128 L47.8257431,26.3553817 C47.8257431,24.1727531 49.6119582,22.3874797 51.7936452,22.3874797 C53.9762738,22.3874797 55.7615472,24.1727531 55.7615472,26.3553817 L55.7615472,27.7979128 C55.7615472,29.9805414 53.9762738,31.7658149 51.7936452,31.7658149" id="Fill-85" fill="#EAAA94"></path>
                                            <polygon id="Fill-86" fill="#E5AC93" points="32.6754004 57.7379655 45.6619465 57.7379655 45.6619465 38.9803535 32.6754004 38.9803535"></polygon>
                                            <path d="M32.6754004,47.6383647 L32.6754004,43.4058731 C34.4220683,44.262729 36.3532897,44.752361 38.3287663,44.752361 C40.9633629,44.752361 43.5179235,43.9868402 45.6619465,42.6620092 L45.6619465,45.4736265 L32.6754004,47.6383647" id="Fill-87" fill="#D58A71"></path>
                                            <path d="M24.7395963,29.6020183 C23.544706,29.6020183 22.5757997,28.4711568 22.5757997,27.0766473 C22.5757997,25.6821378 23.544706,24.5522179 24.7395963,24.5522179 C25.0512659,24.5522179 25.3478698,24.6284875 25.6152842,24.7669027 L25.368585,29.4937343 C25.1699075,29.5643543 24.9580475,29.6020183 24.7395963,29.6020183" id="Fill-88" fill="#E68C7D"></path>
                                            <path d="M51.4330124,29.6020183 C51.377458,29.6020183 51.3219036,29.5991935 51.2672908,29.5944855 L51.0187084,24.5983563 C51.1533572,24.5672835 51.2917724,24.5522179 51.4330124,24.5522179 C52.6288443,24.5522179 53.5977506,25.6821378 53.5977506,27.0766473 C53.5977506,28.4711568 52.6288443,29.6020183 51.4330124,29.6020183" id="Fill-89" fill="#E68C7D"></path>
                                            <path d="M38.3287663,44.752361 C31.5115829,44.752361 25.2254618,38.9295071 25.2254618,32.238498 L25.933545,18.6813424 C25.933545,11.9903334 31.5115829,6.51587144 38.3287663,6.51587144 C45.1468913,6.51587144 50.7249293,11.9903334 50.7249293,18.6813424 L51.4330124,32.9333988 C51.4330124,39.6253494 45.1468913,44.752361 38.3287663,44.752361" id="Fill-90" fill="#F1B99D"></path>
                                            <path d="M49.1430414,21.3743182 L43.9181034,20.1012751 C43.5320475,20.0071151 43.2938227,19.6154095 43.3879827,19.2293536 C43.4821427,18.8442392 43.8738483,18.6050728 44.2599042,18.6992328 L49.4848422,19.9722759 C49.8699565,20.0664359 50.1091229,20.4581415 50.0149629,20.8441974 C49.9208029,21.2302534 49.5290974,21.4684782 49.1430414,21.3743182" id="Fill-91" fill="#0D2C3A"></path>
                                            <path d="M32.7902756,19.9995823 L27.8977224,21.4176318 C27.5163744,21.5287406 27.1143113,21.306523 27.0041441,20.9261166 C26.8930353,20.5447686 27.1152529,20.1427055 27.4956593,20.0325383 L32.389154,18.6144888 C32.7695604,18.50338 33.1716236,18.7255976 33.2827324,19.106004 C33.3928995,19.4873519 33.1716236,19.8894151 32.7902756,19.9995823" id="Fill-92" fill="#0D2C3A"></path>
                                            <path d="M25.7762978,21.6935205 C25.6717802,21.6841045 25.5672626,21.6756301 25.4608618,21.6662141 C25.4608618,21.6662141 23.8215364,21.1191446 23.8723828,19.0739896 C24.4665323,19.3479951 25.1275355,19.5014759 25.8214946,19.5014759 L25.8902314,19.5014759 L25.7772394,21.6680973 L25.7762978,21.6935205 M46.6816992,9.71166157 C45.9378353,9.04406723 45.1111105,8.46215848 44.2184738,7.98570892 L44.2184738,4.711766 C44.2184738,4.00368286 44.0593434,3.33043892 43.7749803,2.72687337 C45.4011233,3.95848606 45.8926385,5.76447471 46.383212,7.23713698 C46.5941304,7.86989213 46.6816992,8.74840485 46.6816992,9.71166157" id="Fill-93" fill="#0B232D"></path>
                                            <path d="M29.5097415,21.8564173 C28.3440408,21.8564173 27.1001873,21.8055709 25.7762978,21.6935205 L25.7772394,21.6680973 L25.8902314,19.5014759 L29.3270711,19.5014759 L27.4956593,20.0325383 C27.1152529,20.1427055 26.8930353,20.5447686 27.0041441,20.9261166 C27.0945377,21.240611 27.3854921,21.4468214 27.6981032,21.4468214 C27.7640152,21.4468214 27.8308688,21.4374054 27.8977224,21.4176318 L32.7902756,19.9995823 C33.0379164,19.9280207 33.217762,19.7331095 33.283674,19.5014759 L33.6979779,19.5014759 C39.4841094,19.5014759 44.2184738,14.7671115 44.2184738,8.98003843 L44.2184738,7.98570892 C45.1111105,8.46215848 45.9378353,9.04406723 46.6817104,9.71166157 C46.6826408,10.5007223 46.6242616,11.346279 46.5272768,12.1598214 C46.1911257,14.9761467 44.6082962,17.5137585 42.165786,18.9562896 C39.6884366,20.4195359 35.6828706,21.8564173 29.5097415,21.8564173" id="Fill-94" fill="#D1937A"></path>
                                            <path d="M27.6981032,21.4468214 C27.3854921,21.4468214 27.0945377,21.240611 27.0041441,20.9261166 C26.8930353,20.5447686 27.1152529,20.1427055 27.4956593,20.0325383 L29.3270711,19.5014759 L33.283674,19.5014759 C33.217762,19.7331095 33.0379164,19.9280207 32.7902756,19.9995823 L27.8977224,21.4176318 C27.8308688,21.4374054 27.7640152,21.4468214 27.6981032,21.4468214" id="Fill-95" fill="#0B232D"></path>
                                            <path d="M33.6979779,19.5014759 L25.8214946,19.5014759 C23.2424524,19.5014759 21.132327,17.3913505 21.132327,14.8123083 L21.132327,13.6098852 C21.132327,6.13640668 27.2470769,0.0225983981 34.7196138,0.0225983981 L39.5293062,0.0225983981 C42.1083484,0.0225983981 44.2184738,2.13272382 44.2184738,4.711766 L44.2184738,8.98003843 C44.2184738,14.7671115 39.4841094,19.5014759 33.6979779,19.5014759" id="Fill-96" fill="#012339"></path>
                                            <path d="M65.140824,54.8529033 C65.140824,60.4309412 60.7802748,64.9525041 55.4009145,64.9525041 C50.0224957,64.9525041 45.6619465,60.4309412 45.6619465,54.8529033 C45.6619465,49.2739238 50.0224957,44.752361 55.4009145,44.752361 C60.7802748,44.752361 65.140824,49.2739238 65.140824,54.8529033" id="Fill-97" fill="#0D2C3A"></path>
                                            <polyline id="Fill-98" fill="#FFFFFF" points="26.1821274 58.459231 32.6754004 53.7700634 32.6754004 49.6223158 37.7261424 49.6223158 38.6272535 53.2295851 39.889939 49.8021613 45.6619465 49.8021613 45.6619465 53.4094306 51.4330124 57.7379655 41.3334117 90.2033891 26.1821274 58.459231"></polyline>
                                            <path d="M61.5335547,123.390078 C61.5335547,123.390078 66.5833551,139.982952 65.8620896,161.626568 C65.140824,183.270184 63.698293,266.236436 63.698293,266.236436 C63.698293,266.236436 57.9262855,269.843705 52.8764851,266.236436 C52.1542779,256.8581 46.0583601,147.593904 44.2184738,145.75496 C39.1686735,140.704218 31.9541349,264.793905 31.9541349,264.793905 C31.9541349,264.793905 26.9043345,269.122439 21.132327,264.793905 C18.9685304,256.135893 14.6390539,145.75496 24.7395963,123.390078 C52.8764851,119.782809 61.5335547,123.390078 61.5335547,123.390078" id="Fill-99" fill="#652129"></path>
                                            <path d="M54.317133,91.9707721 L58.5213766,80.2939915 C58.887659,79.276122 60.2341469,79.0670868 60.8923252,79.9248844 L75.3778984,98.81997 C75.7187575,99.2634635 75.6999255,99.8858611 75.3345848,100.309581 L62.2548203,115.454274 L66.5833551,120.504075 L87.8503309,101.583566 C88.9152804,100.412215 89.0301556,98.6608396 88.1280087,97.3604901 L65.9016368,65.3282024 C65.4007056,64.6059953 64.7462937,64.0024297 63.9854809,63.561761 L51.4330124,56.2954344 L41.3334117,86.5961198 L26.9043345,57.7379655 L16.5467354,65.0494888 C15.3009987,65.9280016 14.3339756,67.1454903 13.758658,68.5569485 L0.451026361,101.222933 C-0.909585522,104.560905 1.00186231,108.40734 4.52344601,109.172861 C9.84631036,110.331029 16.0458042,108.262334 32.6754004,98.1391932 C29.7903383,104.231345 30.5219614,102.99879 29.7903383,105.353732 C29.0031607,107.884752 28.6886663,110.507108 27.7272928,113.233982 C26.1821274,117.618071 25.6633058,120.639665 24.0183307,124.111344 C24.0183307,124.111344 38.4474079,134.211886 62.2548203,124.111344 L54.2220314,100.012035 C53.3501098,97.3972125 53.3840074,94.5648799 54.317133,91.9707721" id="Fill-100" fill="#E6B652"></path>
                                            <path d="M29.7903383,105.353732 L30.1924014,100.335004 L30.5116038,101.025197 L31.8816317,99.8255987 C29.9268702,104.012894 30.4456918,103.24549 29.7903383,105.353732" id="Fill-101" fill="#8C2126"></path>
                                            <path d="M28.4673904,111.125739 L29.7903383,105.353732 C30.4456918,103.24549 29.9268702,104.012894 31.8816317,99.8255987 L36.2826697,95.9753966 L36.2826697,94.5319239 L36.1197729,94.2051888 C36.3024433,94.079956 36.4775809,93.9594312 36.6433025,93.844556 L40.6112045,102.467728 L28.4673904,111.125739 M33.4324467,87.0188982 L33.0115516,85.9501823 L33.4861179,86.9831174 C33.4682275,86.9944166 33.4503371,87.0066574 33.4324467,87.0188982" id="Fill-102" fill="#C79140"></path>
                                            <path d="M48.2956015,118.717859 L48.0667927,116.656697 L56.4837544,116.17554 C56.4837544,116.17554 51.4330124,112.56827 52.1542779,111.847005 C52.8764851,111.125739 53.5977506,110.403532 53.5977506,110.403532 L57.2050199,115.454274 L57.6390975,116.178364 C54.6222113,117.249905 51.5008076,118.102995 48.2956015,118.717859" id="Fill-103" fill="#C79140"></path>
                                            <path d="M46.0225793,29.6020183 C44.229773,29.6020183 42.7759427,28.148188 42.7759427,26.3553817 C42.7759427,24.5625755 44.229773,23.1087452 46.0225793,23.1087452 C47.8153855,23.1087452 49.2692158,24.5625755 49.2692158,26.3553817 C49.2692158,28.148188 47.8153855,29.6020183 46.0225793,29.6020183" id="Fill-104" fill="#D1937A"></path>
                                            <path d="M30.8722366,29.6020183 C29.0794303,29.6020183 27.6256,28.148188 27.6256,26.3553817 C27.6256,24.5625755 29.0794303,23.1087452 30.8722366,23.1087452 C32.6650428,23.1087452 34.1188731,24.5625755 34.1188731,26.3553817 C34.1188731,28.148188 32.6650428,29.6020183 30.8722366,29.6020183" id="Fill-105" fill="#D1937A"></path>
                                            <path d="M1.65344946,75.7743119 L11.7539918,98.8604588 L34.1188731,88.760858 L25.5719706,67.0654543 C25.1209443,65.9204688 23.7970548,65.3941144 22.6831421,65.9167024 L1.65344946,75.7743119" id="Fill-106" fill="#9F4FDE"></path>
                                            <path d="M14.6390539,107.51847 L16.8037922,111.847005 L37.0792632,102.689946 C38.2477887,102.16265 38.7929751,100.807687 38.3174671,99.6175051 L36.2826697,94.5319239 C36.2826697,94.5319239 28.3468656,102.467728 14.6390539,107.51847" id="Fill-107" fill="#9F4FDE"></path>
                                            <path d="M33.8090867,26.0201722 C33.8090867,27.5144912 32.5981892,28.3393328 31.1038701,28.3393328 C29.6095511,28.3393328 27.6256,27.5144912 27.6256,26.0201722 C27.6256,24.5258531 29.6095511,22.9288996 31.1038701,22.9288996 C32.5981892,22.9288996 33.8090867,24.5258531 33.8090867,26.0201722" id="Fill-108" fill="#444242"></path>
                                            <path d="M43.0847875,26.0201722 C43.0847875,27.5144912 44.2966266,28.3393328 45.7900041,28.3393328 C47.2843232,28.3393328 49.2692158,27.5144912 49.2692158,26.0201722 C49.2692158,24.5258531 47.2843232,22.9288996 45.7900041,22.9288996 C44.2966266,22.9288996 43.0847875,24.5258531 43.0847875,26.0201722" id="Fill-109" fill="#444242"></path>
                                            <path d="M33.7855467,26.3553817 C33.7855467,27.8572336 32.568058,29.0747223 31.0662061,29.0747223 C29.5643543,29.0747223 28.3468656,27.8572336 28.3468656,26.3553817 C28.3468656,24.8535299 29.5643543,23.6360412 31.0662061,23.6360412 C32.568058,23.6360412 33.7855467,24.8535299 33.7855467,26.3553817" id="Fill-110" fill="#F6F4F4"></path>
                                            <path d="M43.1092691,26.3553817 C43.1092691,27.8572336 44.3267578,29.0747223 45.8286097,29.0747223 C47.3304616,29.0747223 48.5479503,27.8572336 48.5479503,26.3553817 C48.5479503,24.8535299 47.3304616,23.6360412 45.8286097,23.6360412 C44.3267578,23.6360412 43.1092691,24.8535299 43.1092691,26.3553817" id="Fill-111" fill="#F6F4F4"></path>
                                            <path d="M33.0087268,26.3553817 C33.0087268,27.4278641 32.1386885,28.2979024 31.0662061,28.2979024 C29.9937238,28.2979024 29.1236855,27.4278641 29.1236855,26.3553817 C29.1236855,25.2828994 29.9937238,24.4128611 31.0662061,24.4128611 C32.1386885,24.4128611 33.0087268,25.2828994 33.0087268,26.3553817" id="Fill-112" fill="#836E7B"></path>
                                            <path d="M43.8860891,26.3553817 C43.8860891,27.4278641 44.7551858,28.2979024 45.8286097,28.2979024 C46.901092,28.2979024 47.7701887,27.4278641 47.7701887,26.3553817 C47.7701887,25.2828994 46.901092,24.4128611 45.8286097,24.4128611 C44.7551858,24.4128611 43.8860891,25.2828994 43.8860891,26.3553817" id="Fill-113" fill="#836E7B"></path>
                                            <path d="M45.0150674,25.8516258 L44.9632794,25.8704578 C44.7768426,25.938253 44.568749,25.8412682 44.5009538,25.6548314 L44.2165906,24.8723619 C44.1487954,24.6859251 44.2457802,24.4778315 44.432217,24.4100363 L44.484005,24.3912043 C44.6704418,24.3234091 44.8785354,24.4203939 44.9463306,24.6068307 L45.2306937,25.3893002 C45.2984889,25.575737 45.2015041,25.7838306 45.0150674,25.8516258" id="Fill-114" fill="#F6F4F4"></path>
                                            <path d="M30.2536054,25.8516258 L30.2008758,25.8704578 C30.014439,25.938253 29.8063455,25.8412682 29.7385503,25.6548314 L29.4541871,24.8723619 C29.3863919,24.6859251 29.4833767,24.4778315 29.6698135,24.4100363 L29.7225431,24.3912043 C29.9089798,24.3234091 30.1170734,24.4203939 30.1848686,24.6068307 L30.4692318,25.3893002 C30.537027,25.575737 30.4400422,25.7838306 30.2536054,25.8516258" id="Fill-115" fill="#F6F4F4"></path>
                                            <path d="M43.4972083,34.6518186 C43.4972083,35.2497346 41.5593957,36.0952913 39.1686735,36.0952913 C36.7779513,36.0952913 34.8401386,35.2497346 34.8401386,34.6518186 C34.8401386,34.0539027 36.7779513,33.9305531 39.1686735,33.9305531 C41.5593957,33.9305531 43.4972083,34.0539027 43.4972083,34.6518186" id="Fill-116" fill="#C94845"></path>
                                            <path d="M43.4972083,34.6518186 C43.4972083,36.6442441 41.5593957,38.8607703 39.1686735,38.8607703 C36.7779513,38.8607703 34.8401386,36.6442441 34.8401386,34.6518186 L43.4972083,34.6518186" id="Fill-117" fill="#C94845"></path>
                                            <path d="M43.4972083,34.5312939 C43.4972083,36.5237193 41.5593957,38.1385631 39.1686735,38.1385631 C36.7779513,38.1385631 34.8401386,36.5237193 34.8401386,34.5312939 L43.4972083,34.5312939" id="Fill-118" fill="#824A49"></path>
                                            <path d="M42.7759427,34.5312939 C42.7759427,35.4578282 41.4482869,36.2148745 39.8249686,36.2148745 L38.5123783,36.2148745 C36.88906,36.2148745 35.5614042,35.4578282 35.5614042,34.5312939 L42.7759427,34.5312939" id="Fill-119" fill="#F6F4F4"></path>
                                        </g>
                                        <g id="Group-123" transform="translate(41.995356, 29.566237)">
                                            <mask id="mask-15" fill="white">
                                                <use xlink:href="#path-14"></use>
                                            </mask>
                                            <g id="Clip-122"></g>
                                            <polygon id="Fill-121" fill="url(#radialGradient-16)" mask="url(#mask-15)" points="-354.3184 90.2937827 58.3848446 90.2937827 58.3848446 -314.872896 -354.3184 -314.872896"></polygon>
                                        </g>
                                        <g id="Group-126" transform="translate(42.089516, 33.991757)">
                                            <mask id="mask-18" fill="white">
                                                <use xlink:href="#path-17"></use>
                                            </mask>
                                            <g id="Clip-125"></g>
                                            <polygon id="Fill-124" fill="url(#radialGradient-19)" mask="url(#mask-18)" points="-354.41256 85.8682631 58.2906846 85.8682631 58.2906846 -319.298416 -354.41256 -319.298416"></polygon>
                                        </g>
                                        <g id="Group-129" transform="translate(43.125276, 34.650877)">
                                            <mask id="mask-21" fill="white">
                                                <use xlink:href="#path-20"></use>
                                            </mask>
                                            <g id="Clip-128"></g>
                                            <polygon id="Fill-127" fill="url(#radialGradient-19)" mask="url(#mask-21)" points="-355.44832 85.2091431 57.2549247 85.2091431 57.2549247 -319.957536 -355.44832 -319.957536"></polygon>
                                        </g>
                                        <g id="Group-132" transform="translate(42.560316, 34.462557)">
                                            <mask id="mask-23" fill="white">
                                                <use xlink:href="#path-22"></use>
                                            </mask>
                                            <g id="Clip-131"></g>
                                            <polygon id="Fill-130" fill="url(#radialGradient-24)" mask="url(#mask-23)" points="-354.88336 85.3974631 57.8198847 85.3974631 57.8198847 -319.769216 -354.88336 -319.769216"></polygon>
                                        </g>
                                        <g id="Group-135" transform="translate(42.277836, 34.462557)">
                                            <mask id="mask-26" fill="white">
                                                <use xlink:href="#path-25"></use>
                                            </mask>
                                            <g id="Clip-134"></g>
                                            <polygon id="Fill-133" fill="url(#radialGradient-27)" mask="url(#mask-26)" points="-354.60088 85.3974631 58.1023646 85.3974631 58.1023646 -319.769216 -354.60088 -319.769216"></polygon>
                                        </g>
                                        <g id="Group-138" transform="translate(27.588878, 29.566237)">
                                            <mask id="mask-29" fill="white">
                                                <use xlink:href="#path-28"></use>
                                            </mask>
                                            <g id="Clip-137"></g>
                                            <polygon id="Fill-136" fill="url(#radialGradient-30)" mask="url(#mask-29)" points="-339.911921 90.2937827 72.7913234 90.2937827 72.7913234 -314.872896 -339.911921 -314.872896"></polygon>
                                        </g>
                                        <g id="Group-157" transform="translate(10.640079, 1.412400)">
                                            <path d="M28.7357463,24.7772603 C28.9504311,25.8506842 29.1886559,26.9212833 29.3798007,27.9984736 C29.5351647,28.8769863 29.3317791,29.4428879 28.3713472,29.5323399 C27.9730504,29.5690623 27.592644,29.5464639 27.1952889,29.6161423 C26.8534881,29.6764047 26.9984945,30.198051 27.3393537,30.1377886 C28.247056,29.9786582 29.6839375,30.2818534 29.990899,29.0728391 C30.1330806,28.5116456 29.8957974,27.8242776 29.7884551,27.2866241 C29.6114343,26.4024617 29.4344135,25.5182994 29.2583343,24.6331955 C29.1895975,24.2923363 28.6679512,24.4364011 28.7357463,24.7772603" id="Fill-139" fill="#E26C66"></path>
                                            <polyline id="Fill-141" fill="#8E2CDC" points="15.5420483 90.2335203 19.8715247 99.6127971 25.6425906 94.5629967 25.6425906 93.119524 22.0353213 85.9049855 15.5420483 90.2335203"></polyline>
                                            <path d="M18.428052,97.4480589 L15.5420483,91.676993 C15.5420483,91.676993 23.2094964,84.6743144 23.737734,85.2147927 C24.4853643,85.9793719 25.9796834,85.9793719 25.9796834,87.5085301 C26.7273137,89.0376884 27.4749441,89.0376884 27.4749441,89.8022675 C27.4749441,90.5668467 28.2225744,90.5668467 27.4749441,91.3314258 C26.7273137,92.0960049 18.428052,97.4480589 18.428052,97.4480589" id="Fill-142" fill="#F1B99D"></path>
                                            <path d="M52.5770563,114.642615 L49.4509446,116.686828 C49.4509446,116.686828 43.6789371,107.548601 42.236406,108.269867 C40.7929333,108.991132 45.8436753,114.041874 45.8436753,114.041874 C45.8436753,114.041874 38.6291367,114.041874 37.185664,114.76314 C35.7431329,115.484405 38.6291367,116.205671 46.5649408,116.205671 C42.236406,117.649144 37.185664,116.927878 37.185664,118.370409 C37.185664,119.81294 46.5649408,118.370409 46.5649408,118.370409 C46.5649408,118.370409 37.9078712,120.534206 40.0716678,121.256413 C42.236406,121.977678 47.2862064,119.81294 47.2862064,119.81294 C47.2862064,119.81294 48.0074719,121.977678 49.4509446,121.977678 C50.8934757,121.977678 55.3425353,118.370409 55.3425353,118.370409 L52.5770563,114.642615" id="Fill-143" fill="#F1B99D"></path>
                                            <path d="M28.5285944,11.595803 C28.5285944,12.3933381 27.8826568,13.0392757 27.0860633,13.0392757 C26.2885282,13.0392757 25.6425906,12.3933381 25.6425906,11.595803 C25.6425906,10.7992095 26.2885282,10.1532719 27.0860633,10.1532719 C27.8826568,10.1532719 28.5285944,10.7992095 28.5285944,11.595803" id="Fill-144" fill="#011D2D"></path>
                                            <path d="M17.7067865,10.5139047 C17.7067865,11.1118207 17.2228041,11.595803 16.6248882,11.595803 C16.0269722,11.595803 15.5420483,11.1118207 15.5420483,10.5139047 C15.5420483,9.91598875 16.0269722,9.43200639 16.6248882,9.43200639 C17.2228041,9.43200639 17.7067865,9.91598875 17.7067865,10.5139047" id="Fill-145" fill="#011D2D"></path>
                                            <path d="M48.7287374,49.4716598 C48.7287374,50.4678725 47.9217863,51.2757652 46.9255736,51.2757652 C45.9293609,51.2757652 45.1214681,50.4678725 45.1214681,49.4716598 C45.1214681,48.4763887 45.9293609,47.6684959 46.9255736,47.6684959 C47.9217863,47.6684959 48.7287374,48.4763887 48.7287374,49.4716598" id="Fill-146" fill="#011D2D"></path>
                                            <path d="M42.236406,45.1431249 C42.236406,45.7410409 41.751482,46.2259649 41.1535661,46.2259649 C40.5565917,46.2259649 40.0716678,45.7410409 40.0716678,45.1431249 C40.0716678,44.5461506 40.5565917,44.0612266 41.1535661,44.0612266 C41.751482,44.0612266 42.236406,44.5461506 42.236406,45.1431249" id="Fill-147" fill="#011D2D"></path>
                                            <path d="M29.9711254,2.21746781 C29.9711254,2.61576458 29.6481567,2.93873335 29.2498599,2.93873335 C28.8515631,2.93873335 28.5285944,2.61576458 28.5285944,2.21746781 C28.5285944,1.81917104 28.8515631,1.49620227 29.2498599,1.49620227 C29.6481567,1.49620227 29.9711254,1.81917104 29.9711254,2.21746781" id="Fill-148" fill="#011D2D"></path>
                                            <path d="M29.9711254,57.0468311 C29.9711254,57.8443663 29.3251879,58.4903038 28.5285944,58.4903038 C27.7320008,58.4903038 27.0860633,57.8443663 27.0860633,57.0468311 C27.0860633,56.2502376 27.7320008,55.6043001 28.5285944,55.6043001 C29.3251879,55.6043001 29.9711254,56.2502376 29.9711254,57.0468311" id="Fill-149" fill="#D24635"></path>
                                            <path d="M8.92919204,74.7875152 L0.240107979,78.3185149 C0.0564959952,78.3929013 -0.0320143973,78.6047613 0.0423719964,78.7883733 C0.11675839,78.9719853 0.328618372,79.0614372 0.512230356,78.9870509 L9.20131441,75.4560512 C9.3849264,75.3807232 9.47437839,75.1698048 9.3990504,74.9861928 C9.324664,74.8025808 9.11280402,74.7131288 8.92919204,74.7875152" id="Fill-150" fill="#8E2CDC"></path>
                                            <path d="M9.65045758,76.9522534 L0.962315118,80.4823115 C0.777761534,80.5576395 0.689251141,80.7685579 0.763637535,80.9521699 C0.838023928,81.1367235 1.04988391,81.2261755 1.23349589,81.1508475 L9.92257995,77.6198478 C10.1061919,77.5454614 10.1956439,77.334543 10.1212575,77.1499894 C10.0459295,76.9663774 9.83501116,76.8769254 9.65045758,76.9522534" id="Fill-151" fill="#8E2CDC"></path>
                                            <path d="M10.3726647,79.11605 L1.68358066,82.6470497 C1.49996867,82.7214361 1.41051668,82.9332961 1.48490307,83.1169081 C1.56023107,83.3005201 1.77114945,83.3899721 1.95476143,83.3155857 L10.6438455,79.784586 C10.8274575,79.7101996 10.9169095,79.4983396 10.8425231,79.3147276 C10.7671951,79.1311156 10.5562767,79.0416636 10.3726647,79.11605" id="Fill-152" fill="#8E2CDC"></path>
                                            <path d="M18.1794696,3.67600609 C17.7162025,3.67600609 17.2849497,3.37563571 17.1427681,2.91048535 C16.9685722,2.341759 17.2924825,1.73348545 17.8612089,1.55928947 L22.6916165,0.0838023928 C22.7951925,0.0517879956 22.9015932,0.0367223969 23.0051692,0.0367223969 C23.4684364,0.0367223969 23.9006308,0.338034371 24.0428123,0.802243131 C24.2160667,1.37191108 23.893098,1.98018463 23.32343,2.15343902 L18.493964,3.62892609 C18.3894464,3.66094049 18.2839872,3.67600609 18.1794696,3.67600609" id="Fill-153" fill="#023657"></path>
                                            <path d="M36.7901921,19.124836 C36.7647689,19.124836 36.7384041,19.1220112 36.7120393,19.1163616 L33.8957139,18.4873728 C33.7017443,18.4440592 33.5783947,18.2510312 33.6217083,18.0570617 C33.6593723,17.8894569 33.8090867,17.7745817 33.9748083,17.7745817 C34.0002315,17.7745817 34.0265963,17.7774065 34.0529611,17.7830561 L36.8692865,18.4120448 C37.0623144,18.4553584 37.185664,18.649328 37.1423504,18.842356 C37.105628,19.0099608 36.954972,19.124836 36.7901921,19.124836" id="Fill-154" fill="#144359"></path>
                                            <path d="M19.8159703,89.0725276 C19.6992119,89.0725276 19.5852783,89.0169732 19.5155999,88.9124556 C19.4054327,88.7476756 19.4496879,88.5226332 19.6144679,88.412466 L22.6125221,86.4059166 C22.6737261,86.3644862 22.7434045,86.3447126 22.8121413,86.3447126 C22.9288996,86.3447126 23.0428332,86.4012086 23.1125116,86.5047846 C23.2226788,86.6695646 23.1784236,86.894607 23.0136436,87.0047742 L20.0155895,89.0122652 C19.9543855,89.052754 19.8847071,89.0725276 19.8159703,89.0725276" id="Fill-155" fill="#F8DED1"></path>
                                            <path d="M28.1679616,57.0468311 C27.9683424,57.0468311 27.8073288,56.8858175 27.8073288,56.6861984 C27.8073288,56.4875208 27.9683424,56.3255656 28.1679616,56.3255656 C28.3675808,56.3255656 28.5285944,56.4875208 28.5285944,56.6861984 C28.5285944,56.8858175 28.3675808,57.0468311 28.1679616,57.0468311" id="Fill-156" fill="#EA6B51"></path>
                                        </g>
                                    </g>
                                    <g id="Group-22" transform="translate(0.000000, 17.325439)">
                                        <g id="Group-32" transform="translate(19.302798, 11.487519)">
                                            <polygon id="Fill-12" fill="#F2A78F" points="13.3693065 57.3321359 28.6467652 57.3321359 28.6467652 32.1245645 13.3693065 32.1245645"></polygon>
                                            <path d="M28.6467652,41.9059044 L28.6467652,38.9134999 C28.7139012,38.8626535 28.7800015,38.8108655 28.8458194,38.7581359 L28.9383786,41.840934 L28.6467652,41.9059044" id="Fill-14" fill="#4A5C59"></path>
                                            <path d="M13.3693065,45.2994305 L13.3693065,39.0057767 C15.3909215,40.4483077 17.9039575,41.2910397 21.0079416,41.2910397 C24.1775553,41.2910397 26.6796688,40.4125269 28.6467652,38.9134999 L28.6467652,41.9059044 L13.3693065,45.2994305" id="Fill-15" fill="#E38670"></path>
                                            <path d="M4.84415495,26.6887081 L4.19972396,26.7734521 C2.50267843,26.9984945 0.930489041,25.7932466 0.70610578,24.0964835 L0.11995983,19.6653143 C-0.104329271,17.9685513 1.10054199,16.3960794 2.7973992,16.1719786 L3.44183019,16.086293 C5.13896988,15.8621922 6.71106511,17.0664985 6.93563669,18.7642032 L7.52159432,23.1944308 C7.74607174,24.8921355 6.54120048,26.4636657 4.84415495,26.6887081" id="Fill-16" fill="#EE9E91"></path>
                                            <path d="M36.4079967,26.6887081 L37.0523335,26.7734521 C38.749379,26.9984945 40.3215684,25.7932466 40.5460458,24.0964835 L41.1320034,19.6653143 C41.356575,17.9685513 40.1517038,16.3960794 38.4545641,16.1719786 L37.8101331,16.086293 C36.1130876,15.8621922 34.5408982,17.0664985 34.3165149,18.7642032 L33.7304631,23.1944308 C33.5060799,24.8921355 34.7109511,26.4636657 36.4079967,26.6887081" id="Fill-17" fill="#EE9E91"></path>
                                            <path d="M8.78597469,22.5757997 C8.78597469,24.0522283 7.58901287,25.2490018 6.11239588,25.2490018 C4.63587304,25.2490018 3.43891123,24.0522283 3.43891123,22.5757997 C3.43891123,21.099371 4.63587304,19.9025975 6.11239588,19.9025975 C7.58901287,19.9025975 8.78597469,21.099371 8.78597469,22.5757997" id="Fill-18" fill="#E19189"></path>
                                            <path d="M38.5770662,22.5757997 C38.5770662,24.0522283 37.3801044,25.2490018 35.9034874,25.2490018 C34.4269646,25.2490018 33.2299086,24.0522283 33.2299086,22.5757997 C33.2299086,21.099371 34.4269646,19.9025975 35.9034874,19.9025975 C37.3801044,19.9025975 38.5770662,21.099371 38.5770662,22.5757997" id="Fill-19" fill="#E19189"></path>
                                            <path d="M35.5215745,16.8471058 C35.5215745,28.23764 33.2299086,41.2910397 21.0079416,41.2910397 C8.78588053,41.2910397 5.73048295,28.23764 5.73048295,16.8471058 C5.73048295,5.45562993 13.4142208,0.0414303965 21.0079416,0.0414303965 C28.6018508,0.0414303965 35.5215745,5.45562993 35.5215745,16.8471058" id="Fill-20" fill="#F0A790"></path>
                                            <path d="M35.3627266,17.0721481 L33.4751954,13.0270349 L34.1696253,13.0270349 L35.3627266,17.0721481 M6.17218747,16.8056754 C6.08885588,15.902681 6.10985356,14.629638 6.48376289,13.0383341 C6.5352684,13.0308013 6.58780968,13.0270349 6.64119839,13.0270349 L8.17864274,13.0270349 C7.12941795,14.6663603 6.37999858,16.3273426 6.17218747,16.8056754 M33.7189756,11.4997598 L32.7622159,11.4997598 L32.3966868,10.7163487 C32.3966868,10.7163487 30.3217772,10.7163487 28.2467735,8.64106246 C26.6797629,9.89527355 24.1195527,10.2963951 21.4652767,10.2963951 C18.2617655,10.2963951 14.9216281,9.71166157 13.0304246,9.3331384 C12.8919153,9.30489041 12.7538768,9.29170801 12.6156499,9.29170801 C11.4679337,9.29170801 10.3356598,10.2088263 9.34556752,11.4084246 L6.96134237,11.4084246 C7.70030998,9.29359121 9.04199571,6.75786262 11.3949597,3.88127487 C11.3949597,3.88127487 17.1465345,7.98947532 23.0733411,7.98947532 C25.4445721,7.98947532 27.8429213,7.33223857 29.913782,5.49141073 C29.913782,7.90755612 33.1344304,9.51769199 33.1344304,9.51769199 L33.7189756,11.4997598" id="Fill-21" fill="#D08570"></path>
                                            <path d="M29.0767938,22.6822005 C27.2432163,22.6822005 25.7568067,21.1954142 25.7568067,19.3621191 C25.7568067,17.5288241 27.2432163,16.0420378 29.0767938,16.0420378 C30.9103714,16.0420378 32.3966868,17.5288241 32.3966868,19.3621191 C32.3966868,21.1954142 30.9103714,22.6822005 29.0767938,22.6822005" id="Fill-22" fill="#D98F7A"></path>
                                            <path d="M13.5837088,22.6822005 C11.7501312,22.6822005 10.2637216,21.1954142 10.2637216,19.3621191 C10.2637216,17.5288241 11.7501312,16.0420378 13.5837088,16.0420378 C15.4172863,16.0420378 16.9036018,17.5288241 16.9036018,19.3621191 C16.9036018,21.1954142 15.4172863,22.6822005 13.5837088,22.6822005" id="Fill-23" fill="#D98F7A"></path>
                                            <path d="M16.424704,19.1380184 C16.424704,20.6153886 15.2277422,21.4298726 13.7511252,21.4298726 C12.2746024,21.4298726 10.3137206,20.6153886 10.3137206,19.1380184 C10.3137206,17.6615897 12.2746024,16.0825266 13.7511252,16.0825266 C15.2277422,16.0825266 16.424704,17.6615897 16.424704,19.1380184" id="Fill-24" fill="#444242"></path>
                                            <path d="M25.5911793,19.1380184 C25.5911793,20.6153886 26.7882352,21.4298726 28.2647581,21.4298726 C29.7413751,21.4298726 31.7022569,20.6153886 31.7022569,19.1380184 C31.7022569,17.6615897 29.7413751,16.0825266 28.2647581,16.0825266 C26.7882352,16.0825266 25.5911793,17.6615897 25.5911793,19.1380184" id="Fill-25" fill="#444242"></path>
                                            <path d="M16.424704,19.5203079 C16.424704,20.9967366 15.2277422,22.1935101 13.7511252,22.1935101 C12.2746024,22.1935101 11.0776406,20.9967366 11.0776406,19.5203079 C11.0776406,18.0438793 12.2746024,16.8471058 13.7511252,16.8471058 C15.2277422,16.8471058 16.424704,18.0438793 16.424704,19.5203079" id="Fill-26" fill="#F6F4F4"></path>
                                            <path d="M25.5911793,19.5203079 C25.5911793,20.9967366 26.7882352,22.1935101 28.2647581,22.1935101 C29.7413751,22.1935101 30.9383369,20.9967366 30.9383369,19.5203079 C30.9383369,18.0438793 29.7413751,16.8471058 28.2647581,16.8471058 C26.7882352,16.8471058 25.5911793,18.0438793 25.5911793,19.5203079" id="Fill-27" fill="#F6F4F4"></path>
                                            <path d="M15.6608782,19.5203079 C15.6608782,20.5748998 14.8058113,21.4298726 13.7511252,21.4298726 C12.6965333,21.4298726 11.8414664,20.5748998 11.8414664,19.5203079 C11.8414664,18.465716 12.6965333,17.6107433 13.7511252,17.6107433 C14.8058113,17.6107433 15.6608782,18.465716 15.6608782,19.5203079" id="Fill-28" fill="#3AACCB"></path>
                                            <path d="M26.3550993,19.5203079 C26.3550993,20.5748998 27.210072,21.4298726 28.2647581,21.4298726 C29.3194441,21.4298726 30.174511,20.5748998 30.174511,19.5203079 C30.174511,18.465716 29.3194441,17.6107433 28.2647581,17.6107433 C27.210072,17.6107433 26.3550993,18.465716 26.3550993,19.5203079" id="Fill-29" fill="#3AACCB"></path>
                                            <path d="M27.47372,19.0222016 L27.4058306,19.0466832 C27.227115,19.1116536 27.0276841,19.0184352 26.9626195,18.8395312 L26.6769381,18.0542369 C26.6119677,17.8753329 26.7049978,17.6757137 26.8837135,17.6107433 L26.9516028,17.5862617 C27.1304126,17.5212913 27.3298435,17.6145097 27.3948139,17.7934137 L27.6805895,18.578708 C27.7455599,18.757612 27.6525298,18.9572312 27.47372,19.0222016" id="Fill-30" fill="#F6F4F4"></path>
                                            <path d="M12.9600871,19.0222016 L12.8922919,19.0466832 C12.7134821,19.1116536 12.5140513,19.0184352 12.4490809,18.8395312 L12.1633053,18.0542369 C12.0983349,17.8753329 12.191365,17.6757137 12.3701748,17.6107433 L12.43797,17.5862617 C12.6167798,17.5212913 12.8162107,17.6145097 12.8812752,17.7934137 L13.1669566,18.578708 C13.231927,18.757612 13.138897,18.9572312 12.9600871,19.0222016" id="Fill-31" fill="#F6F4F4"></path>
                                        </g>
                                        <g id="Group-35" transform="translate(44.066876, 34.368397)">
                                            <mask id="mask-32" fill="white">
                                                <use xlink:href="#path-31"></use>
                                            </mask>
                                            <g id="Clip-34"></g>
                                            <polygon id="Fill-33" fill="url(#radialGradient-33)" mask="url(#mask-32)" points="-69.2961045 88.4105828 343.40714 88.4105828 343.40714 -316.756096 -69.2961045 -316.756096"></polygon>
                                        </g>
                                        <g id="Group-38" transform="translate(28.812958, 34.368397)">
                                            <mask id="mask-35" fill="white">
                                                <use xlink:href="#path-34"></use>
                                            </mask>
                                            <g id="Clip-37"></g>
                                            <polygon id="Fill-36" fill="url(#radialGradient-36)" mask="url(#mask-35)" points="-54.0421858 88.4105828 358.661059 88.4105828 358.661059 -316.756096 -54.0421858 -316.756096"></polygon>
                                        </g>
                                        <g id="Group-81">
                                            <path d="M34.1526765,25.3149138 L29.550042,26.6764673 C29.0028782,26.8384225 28.4227585,26.5229865 28.2608033,25.975917 L28.1993169,25.768765 C28.0373617,25.2207538 28.3526093,24.6407283 28.8997731,24.4787731 L33.5024076,23.1172196 C34.0495713,22.9552644 34.629691,23.2707004 34.7916462,23.81777 L34.8531327,24.0249219 C35.0149937,24.5729331 34.6998402,25.1529587 34.1526765,25.3149138" id="Fill-39" fill="#A94432"></path>
                                            <path d="M45.7050718,24.5503347 L50.3076122,25.9128298 C50.8547759,26.074785 51.4348956,25.759349 51.5968508,25.2122794 L51.6583373,25.0041859 C51.8201983,24.4571163 51.5050448,23.8770908 50.9578811,23.7151356 L46.3553407,22.3535821 C45.808177,22.1916269 45.2278689,22.5061213 45.0661021,23.0541324 L45.0045214,23.2612844 C44.8425662,23.808354 45.1579081,24.3883795 45.7050718,24.5503347" id="Fill-41" fill="#A94432"></path>
                                            <path d="M40.5580041,39.8871142 C40.7120499,39.8918222 40.870427,39.8965302 41.0311581,39.8965302 C41.2889682,39.8965302 41.5529928,39.8842894 41.8155108,39.8400342 C42.0778406,39.7948374 42.3395112,39.7166846 42.5866812,39.5829774 C42.7017447,39.5198902 42.8086163,39.4436206 42.9057894,39.3569934 C43.0730175,39.2072791 43.2119977,39.0264919 43.3114306,38.8259311 C43.4105811,38.6263119 43.4706552,38.4069191 43.4708448,38.1799935 C43.471126,37.986024 43.4248934,37.7864048 43.3217882,37.604676 C43.2554996,37.4879176 43.1729213,37.3871664 43.0813978,37.3014808 C42.9899684,37.2167368 42.8899705,37.1461168 42.7868653,37.086796 C42.4857417,36.9126 42.1576882,36.8165569 41.8747375,36.7016817 C41.733215,36.6451857 41.6036508,36.5849233 41.4945194,36.5152449 C41.3850113,36.4455665 41.2966893,36.3683553 41.2280466,36.2741953 C41.1403837,36.1546121 41.0867125,36.0077225 41.0544156,35.8354097 C41.0221187,35.663097 41.0127969,35.4691274 41.0062057,35.2713914 C40.9707074,34.2215075 40.9353032,33.1716236 40.8998049,32.1217397 C40.8949086,31.9786165 40.7749488,31.8665661 40.6317314,31.8712741 C40.4886082,31.8759821 40.3764637,31.9955653 40.38136,32.1386885 C40.4167641,33.189514 40.4522625,34.2393979 40.4877608,35.2892818 C40.4948228,35.4907842 40.5033913,35.7092353 40.5445393,35.9305113 C40.5857813,36.1508457 40.6612035,36.3787129 40.8094113,36.5811569 C40.9241923,36.7374625 41.0664681,36.8579873 41.2163708,36.9530888 C41.4416957,37.0952704 41.6846284,37.1866056 41.9134372,37.2722912 C42.1423402,37.3570352 42.3574957,37.4361296 42.5260421,37.5349976 C42.6032533,37.5792528 42.6706719,37.628216 42.7277328,37.6809456 C42.7847938,37.7346168 42.8317796,37.7920544 42.8702911,37.8598496 C42.9264104,37.9596592 42.9518336,38.0660599 42.9521161,38.1799935 C42.9523044,38.3127591 42.9156762,38.4568239 42.8468452,38.5952391 C42.7783909,38.7336543 42.6781105,38.8645367 42.5598456,38.9699959 C42.4912029,39.0321415 42.4166282,39.0848711 42.3396053,39.1263015 C42.1531686,39.2279942 41.9484647,39.2910814 41.727942,39.3287454 C41.5077018,39.3664094 41.2724902,39.3777086 41.0311581,39.3777086 C40.8807846,39.3777086 40.7281512,39.3739422 40.5751413,39.3682926 C40.4320181,39.3635846 40.3120582,39.475635 40.3073502,39.6187582 C40.3025481,39.7618814 40.4147868,39.8824062 40.5580041,39.8871142" id="Fill-42" fill="#CB6233"></path>
                                            <path d="M44.1301518,41.0659973 C44.1301518,42.471806 42.7621012,43.6120835 41.07466,43.6120835 C39.3871246,43.6120835 38.0191683,42.471806 38.0191683,41.0659973 L44.1301518,41.0659973" id="Fill-43" fill="#824A49"></path>
                                            <path d="M43.6208404,41.0659973 L43.6208404,41.0659973 C43.6208404,41.7194676 42.6833835,42.2533548 41.5375505,42.2533548 L40.6116753,42.2533548 C39.4658424,42.2533548 38.5283855,41.7194676 38.5283855,41.0659973 L43.6208404,41.0659973" id="Fill-44" fill="#F6F4F4"></path>
                                            <path d="M30.6977581,15.3687939 C30.6977581,15.3687939 41.9700274,23.4204148 49.2165804,16.9789297 C49.2165804,19.3950751 52.4372287,21.005211 52.4372287,21.005211 L54.8243728,29.0982623 C54.8243728,29.0982623 57.2682013,10.5383863 53.2423908,8.92730884 C51.6321608,5.70703711 42.7752836,1.68075586 42.7752836,1.68075586 L41.9700274,0.070619994 C41.9700274,0.070619994 29.892596,0.875687925 25.0616235,10.5383863 C20.2306509,20.2001431 25.7971072,29.8618998 25.7971072,29.8618998 C25.7971072,29.8618998 23.4512993,24.2254827 30.6977581,15.3687939" id="Fill-45" fill="#A84331"></path>
                                            <path d="M25.9439967,24.5145539 C25.3122774,24.5145539 24.7983521,25.0286675 24.7983521,25.660481 L24.7983521,34.8269562 C24.7983521,35.4587698 25.3122774,35.9728833 25.9439967,35.9728833 L37.1082645,35.9728833 C37.7402664,35.9728833 38.2540975,35.4587698 38.2540975,34.8269562 L38.2540975,25.660481 C38.2540975,25.0286675 37.7402664,24.5145539 37.1082645,24.5145539 L25.9439967,24.5145539 M37.1082645,37.5011 L25.9439967,37.5011 C24.4701104,37.5011 23.2705121,36.3015017 23.2705121,34.8269562 L23.2705121,25.660481 C23.2705121,24.1868771 24.4701104,22.9872788 25.9439967,22.9872788 L37.1082645,22.9872788 C38.5823392,22.9872788 39.7819375,24.1868771 39.7819375,25.660481 L39.7819375,34.8269562 C39.7819375,36.3015017 38.5823392,37.5011 37.1082645,37.5011" id="Fill-46" fill="#436849"></path>
                                            <path d="M44.2771355,24.5145539 C43.6452278,24.5145539 43.1313026,25.0286675 43.1313026,25.660481 L43.1313026,34.8269562 C43.1313026,35.4587698 43.6452278,35.9728833 44.2771355,35.9728833 L55.4414033,35.9728833 C56.0731227,35.9728833 56.5870479,35.4587698 56.5870479,34.8269562 L56.5870479,25.660481 C56.5870479,25.0286675 56.0731227,24.5145539 55.4414033,24.5145539 L44.2771355,24.5145539 M55.4414033,37.5011 L44.2771355,37.5011 C42.8030608,37.5011 41.6034625,36.3015017 41.6034625,34.8269562 L41.6034625,25.660481 C41.6034625,24.1868771 42.8030608,22.9872788 44.2771355,22.9872788 L55.4414033,22.9872788 C56.9152896,22.9872788 58.1148879,24.1868771 58.1148879,25.660481 L58.1148879,34.8269562 C58.1148879,36.3015017 56.9152896,37.5011 55.4414033,37.5011" id="Fill-47" fill="#436849"></path>
                                            <path d="M41.9107066,30.6255374 L39.4746934,30.6255374 C39.0942871,30.6255374 38.7830883,30.3148094 38.7830883,29.934403 L38.7830883,29.7893967 C38.7830883,29.4089903 39.0942871,29.0982623 39.4746934,29.0982623 L41.9107066,29.0982623 C42.2911129,29.0982623 42.6024059,29.4089903 42.6024059,29.7893967 L42.6024059,29.934403 C42.6024059,30.3148094 42.2911129,30.6255374 41.9107066,30.6255374" id="Fill-48" fill="#436849"></path>
                                            <path d="M30.0939101,11.4065414 C30.4277072,11.4065414 30.4283664,10.8877199 30.0939101,10.8877199 C29.7602071,10.8877199 29.7596421,11.4065414 30.0939101,11.4065414" id="Fill-49" fill="#90340F"></path>
                                            <path d="M30.3533208,11.0515583 C30.3451289,10.9696391 30.336937,10.8877199 30.3287451,10.8048591 C30.1676373,10.8491143 30.0065296,10.8924279 29.8454219,10.9366831 C31.1985009,14.097634 34.1165191,16.4732906 37.4835862,17.1672497 C37.8093798,17.2350449 37.9487366,16.7350554 37.6214365,16.6672602 C34.368962,15.996841 31.59934,13.7266436 30.2933409,10.6739767 C30.193343,10.4404599 29.7851595,10.5562767 29.8100177,10.8048591 C29.8182096,10.8877199 29.8264015,10.9696391 29.8345935,11.0515583 C29.8673611,11.3811182 30.3864652,11.383943 30.3533208,11.0515583" id="Fill-50" fill="#90340F"></path>
                                            <path d="M34.5598243,13.0844725 C36.9715442,16.3941962 40.7997128,18.5014968 44.8885163,18.7594952 C45.2218427,18.7802104 45.2206186,18.2613888 44.8885163,18.2406736 C40.9974488,17.9958577 37.3046823,15.9742426 35.0077434,12.8227077 C34.8131147,12.5552933 34.3628416,12.8142333 34.5598243,13.0844725" id="Fill-51" fill="#90340F"></path>
                                            <path d="M39.2830778,45.3380361 C40.3659178,44.822981 41.6181515,44.8757106 42.6609734,45.4613857 C42.9523986,45.6252241 43.2141633,45.1770225 42.9228323,45.0131842 C41.7083568,44.3314658 40.2762774,44.2928602 39.0212189,44.8898346 C38.7199069,45.0329578 38.9828016,45.4811593 39.2830778,45.3380361" id="Fill-52" fill="#E17247"></path>
                                            <polyline id="Fill-53" fill="#8DB8C0" points="34.9635824 64.2359465 47.1856435 64.2359465 51.7688811 63.472309 60.1715305 68.8196549 54.0604528 116.180248 43.3662317 129.165852 31.1442648 113.888393 27.3249472 64.2359465 28.8525989 63.472309 34.9635824 64.2359465"></polyline>
                                            <path d="M43.3995644,77.5360454 L42.4646498,76.4145999 L41.83858,71.8751467 L39.54682,71.8751467 L39.5084027,74.1076801 L37.8664408,76.844911 C37.8664408,76.844911 37.7558028,76.9550782 37.4015729,76.9550782 C36.8704164,76.9550782 35.7913429,76.7064958 33.7164333,75.4617008 C31.7227838,74.2649273 30.331664,71.5973747 29.5675557,69.7621964 C29.4664279,69.0654125 29.3733037,68.3827526 29.2885597,67.7151582 L29.7476838,67.5616774 C31.9798405,72.4749458 37.6147511,74.9306384 37.6147511,74.9306384 C37.6147511,74.9306384 37.6147511,74.1924241 40.1739255,64.7406441 L40.4392684,64.7105129 C43.0066347,74.1905409 43.006823,74.9306384 43.006823,74.9306384 C43.006823,74.9306384 51.5120126,71.2235595 51.7632315,63.8084601 C52.0390261,64.1483777 52.3911845,64.6653161 52.3911845,65.0862112 C53.0827896,72.0032042 43.3995644,77.5360454 43.3995644,77.5360454" id="Fill-54" fill="#809EA3"></path>
                                            <path d="M42.6024059,72.6387842 L38.7830883,72.6387842 C37.9428045,72.6387842 37.2552483,71.9514163 37.2552483,71.1115091 L37.2552483,68.0560174 C37.2552483,67.2151687 37.9428045,66.5278007 38.7830883,66.5278007 L42.6024059,66.5278007 C43.4425955,66.5278007 44.1301518,67.2151687 44.1301518,68.0560174 L44.1301518,71.1115091 C44.1301518,71.9514163 43.4425955,72.6387842 42.6024059,72.6387842" id="Fill-55" fill="#D56E8F"></path>
                                            <polyline id="Fill-56" fill="#D56E8F" points="47.9495635 116.180248 41.83858 71.8751467 39.54682 71.8751467 38.7830883 116.180248 43.3662317 120.763014 47.9495635 116.180248"></polyline>
                                            <path d="M32.2227733,58.124963 C32.2227733,58.124963 34.2446708,64.2359465 40.31074,64.2359465 C37.6147511,74.1670009 37.6147511,74.9306384 37.6147511,74.9306384 C37.6147511,74.9306384 28.8525989,71.1115091 28.8525989,63.472309 C30.8746847,59.6531797 32.2227733,58.124963 32.2227733,58.124963" id="Fill-57" fill="#96C6D2"></path>
                                            <path d="M48.398895,58.124963 C48.398895,58.124963 46.3768092,64.2359465 40.31074,64.2359465 C43.006823,74.1670009 43.006823,74.9306384 43.006823,74.9306384 C43.006823,74.9306384 51.7688811,71.1115091 51.7688811,63.472309 C49.7468894,59.6531797 48.398895,58.124963 48.398895,58.124963" id="Fill-58" fill="#96C6D2"></path>
                                            <path d="M18.158472,69.5832925 C18.158472,69.5832925 24.2693613,103.958281 21.9777896,124.582144 C19.6861237,145.206948 18.158472,168.887245 18.158472,168.887245 C18.158472,168.887245 25.4151942,180.345574 43.5572824,173.088664 C44.8939776,158.192553 43.9391011,128.21107 43.9391011,128.21107 C43.9391011,128.21107 30.3803448,84.0971136 28.8525989,63.472309 C20.4500437,68.0560174 18.158472,69.5832925 18.158472,69.5832925" id="Fill-59" fill="#4D426A"></path>
                                            <path d="M63.9908481,68.0560174 C63.9908481,68.0560174 63.3664731,103.958281 65.6580449,124.582144 C67.9496166,145.206948 69.4778333,168.887245 69.4778333,168.887245 C69.4778333,168.887245 62.2206402,180.345574 44.0786462,173.088664 C42.7417627,158.192553 43.6967333,128.21107 43.6967333,128.21107 C43.6967333,128.21107 51.7688811,84.8607512 53.296627,64.2359465 C61.6992763,67.2914383 63.9908481,68.0560174 63.9908481,68.0560174" id="Fill-60" fill="#4D426A"></path>
                                            <path d="M63.2270222,86.3889678 C63.2270222,86.3889678 70.8657515,99.3745723 73.1576058,115.415669 C63.2270222,126.11036 59.4076104,129.165852 50.2411352,135.276836 C54.8243728,145.970586 55.5882929,145.970586 55.5882929,145.970586 C55.5882929,145.970586 86.1432102,123.054869 86.1432102,116.943885 C86.1432102,110.832902 77.7403726,78.7497677 73.9212433,74.1670009 C70.102114,69.5832925 61.6992763,67.2914383 61.6992763,67.2914383 L63.2270222,86.3889678" id="Fill-61" fill="#4D426A"></path>
                                            <path d="M61.6175455,136.166648 L23.9165438,159.983476 C23.2733369,160.389305 22.4146919,160.195657 22.0082974,159.552223 L6.35118562,134.76743 C5.94488525,134.124317 6.13861059,133.265578 6.78187342,132.858807 L44.4828751,109.04292 C45.126082,108.636149 45.9849153,108.830051 46.3912156,109.473231 L62.0483274,134.258025 C62.4547219,134.901137 62.2609171,135.759876 61.6175455,136.166648" id="Fill-62" fill="#9E9A98"></path>
                                            <path d="M19.6862178,68.8196549 C19.6862178,68.8196549 10.5196485,71.8751467 6.70023671,84.8607512 C3.63259833,95.2908535 1.05779335,108.185123 0.162990946,112.8564 C-0.105270871,114.257501 -0.023351678,115.698149 0.413079885,117.055936 C1.96408327,121.881635 7.47507928,133.432241 26.5610272,146.735165 C33.4359307,140.624182 34.1997565,139.859602 34.1997565,139.859602 C34.1997565,139.859602 14.3390602,122.291231 12.8113143,116.180248 C12.8113143,116.180248 17.6491606,90.2080971 20.9593551,88.680822 C24.2693613,87.1526054 25.0332813,65.7641632 19.6862178,68.8196549" id="Fill-63" fill="#4D426A"></path>
                                            <path d="M53.0827896,12.8669629 C53.0827896,13.4394557 52.6182984,13.9036644 52.0453348,13.9036644 C51.4723713,13.9036644 51.00788,13.4394557 51.00788,12.8669629 C51.00788,12.2935285 51.4723713,11.8293198 52.0453348,11.8293198 C52.6182984,11.8293198 53.0827896,12.2935285 53.0827896,12.8669629" id="Fill-64" fill="#99392C"></path>
                                            <path d="M46.1662674,8.37082328 C46.1662674,8.75311285 45.8565752,9.06289923 45.4745681,9.06289923 C45.092561,9.06289923 44.782963,8.75311285 44.782963,8.37082328 C44.782963,7.98853372 45.092561,7.67874734 45.4745681,7.67874734 C45.8565752,7.67874734 46.1662674,7.98853372 46.1662674,8.37082328" id="Fill-65" fill="#99392C"></path>
                                            <path d="M26.1083059,15.2868747 C26.1083059,15.6691643 25.7986137,15.9789506 25.4166066,15.9789506 C25.0345995,15.9789506 24.7250015,15.6691643 24.7250015,15.2868747 C24.7250015,14.9055267 25.0345995,14.5957404 25.4166066,14.5957404 C25.7986137,14.5957404 26.1083059,14.9055267 26.1083059,15.2868747" id="Fill-66" fill="#99392C"></path>
                                            <path d="M31.6693951,7.67874734 C31.3100805,7.67874734 30.9595229,7.49231056 30.7679073,7.15992579 C30.4826025,6.66652743 30.6534087,6.02812269 31.1476545,5.74281791 L35.9395507,2.97639735 C36.1018825,2.88317895 36.2796566,2.83798216 36.455265,2.83798216 C36.8145795,2.83798216 37.1651371,3.02441894 37.3568469,3.35586211 C37.6420575,3.85020207 37.4711571,4.48860682 36.9770055,4.77391159 L32.1851093,7.54033216 C32.0228717,7.63355055 31.8450976,7.67874734 31.6693951,7.67874734" id="Fill-67" fill="#D36449"></path>
                                            <path d="M29.4544696,23.0104657 L28.5735087,23.0104657 C28.5981786,22.9716247 28.6234135,22.9339607 28.6483659,22.8962967 L29.2207645,22.8962967 C29.3106873,22.8962967 29.3927948,22.9398457 29.4544696,23.0104657" id="Fill-68" fill="#F7D2C6"></path>
                                            <path d="M28.5735087,23.0104657 L26.2324088,23.0104657 C26.2428606,22.9716247 26.2534065,22.9339607 26.2641407,22.8962967 L28.6483659,22.8962967 C28.6234135,22.9339607 28.5981786,22.9716247 28.5735087,23.0104657" id="Fill-69" fill="#E7C1A7"></path>
                                            <path d="M25.4930645,23.0249428 C25.5566225,22.9458484 25.6538898,22.8959436 25.7624563,22.8959436 L26.2641407,22.8959436 C26.2534065,22.9260748 26.2428606,22.956206 26.2324088,22.9872788 L25.9439967,22.9872788 C25.7904218,22.9872788 25.6396716,23.0004612 25.4930645,23.0249428" id="Fill-70" fill="#D36449"></path>
                                            <path d="M29.2207645,23.587078 L25.7624563,23.587078 C25.5723473,23.587078 25.4167008,23.431714 25.4167008,23.2415108 C25.4167008,23.1595916 25.4453254,23.0842636 25.4930645,23.0249428 C25.6396716,23.0004612 25.7904218,22.9872788 25.9439967,22.9872788 L29.4544696,22.9872788 C29.5233005,23.050366 29.56652,23.1407596 29.56652,23.2415108 C29.56652,23.431714 29.4108735,23.587078 29.2207645,23.587078" id="Fill-71" fill="#649B6D"></path>
                                            <path d="M44.2021841,23.011525 C44.2639531,22.939728 44.3466256,22.896179 44.4370192,22.896179 L45.1273061,22.896179 C45.1129937,22.932666 45.0999055,22.97033 45.0882297,23.010348 L44.2771355,23.010348 C44.2519948,23.010348 44.2271365,23.010348 44.2021841,23.011525" id="Fill-72" fill="#F7D2C6"></path>
                                            <path d="M48.1292208,23.0104657 L45.0882297,23.0104657 C45.0999055,22.9704477 45.1129937,22.9327837 45.1273061,22.8962967 L47.8954215,22.8962967 C47.9853443,22.8962967 48.067546,22.9398457 48.1292208,23.0104657" id="Fill-73" fill="#D3654B"></path>
                                            <path d="M47.8954215,23.587078 L44.4370192,23.587078 C44.2470043,23.587078 44.0912637,23.431714 44.0912637,23.2415108 C44.0912637,23.1417012 44.1341065,23.0513076 44.2021841,22.9882204 C44.2271365,22.9872788 44.2519948,22.9872788 44.2771355,22.9872788 L48.1292208,22.9872788 C48.1979576,23.050366 48.241177,23.1407596 48.241177,23.2415108 C48.241177,23.431714 48.0856247,23.587078 47.8954215,23.587078" id="Fill-74" fill="#649B6D"></path>
                                            <path d="M32.0879362,118.884523 C31.8556435,118.884523 31.6280588,118.767764 31.4976472,118.556846 C31.2976514,118.233877 31.3987792,117.805449 31.7225013,117.604888 L44.6663929,109.605997 C44.7790083,109.536319 44.904241,109.503363 45.0281556,109.503363 C45.2604483,109.503363 45.488033,109.619179 45.6185387,109.831039 C45.8184404,110.154008 45.7173126,110.582436 45.3936847,110.782997 L32.4496047,118.781888 C32.3370836,118.851567 32.2118508,118.884523 32.0879362,118.884523" id="Fill-75" fill="#CECCCA"></path>
                                            <path d="M36.0781542,65.6238648 C35.9357843,65.6238648 35.7923786,65.5805512 35.6696882,65.4901576 L32.3269143,63.0306986 C32.0205177,62.8047146 31.9541349,62.3696955 32.1797422,62.0636755 C32.3147676,61.8800635 32.5252152,61.7821371 32.738111,61.7821371 C32.8804809,61.7821371 33.0237924,61.8263923 33.146577,61.9167859 L36.4893509,64.3753033 C36.7957475,64.6012873 36.8621303,65.0363064 36.6367113,65.3423264 C36.5014975,65.5259384 36.2910499,65.6238648 36.0781542,65.6238648" id="Fill-76" fill="#C9E2E8"></path>
                                            <path d="M43.6794079,66.1229128 C43.439959,66.1229128 43.2063481,65.9995632 43.078573,65.7782872 C42.8884639,65.4487272 43.0023975,65.023124 43.3317692,64.8329209 L46.9257619,62.7585762 C47.0339517,62.695489 47.1524992,62.6662994 47.2696342,62.6662994 C47.5091772,62.6662994 47.7427882,62.7905906 47.8704691,63.0118666 C48.0607665,63.340485 47.9468329,63.7660882 47.6174612,63.9562913 L44.0234685,66.0315776 C43.9152786,66.0937232 43.7966371,66.1229128 43.6794079,66.1229128" id="Fill-77" fill="#C9E2E8"></path>
                                            <path d="M19.1917837,76.844911 C19.1917837,77.6085486 18.5723993,78.2281213 17.8084793,78.2281213 C17.0444651,78.2281213 16.4251748,77.6085486 16.4251748,76.844911 C16.4251748,76.0803319 17.0444651,75.4617008 17.8084793,75.4617008 C18.5723993,75.4617008 19.1917837,76.0803319 19.1917837,76.844911" id="Fill-78" fill="#443D60"></path>
                                            <path d="M57.232703,87.2194589 C57.232703,87.9830965 56.6134127,88.6026692 55.8493985,88.6026692 C55.0853843,88.6026692 54.4660941,87.9830965 54.4660941,87.2194589 C54.4660941,86.4558214 55.0853843,85.8362487 55.8493985,85.8362487 C56.6134127,85.8362487 57.232703,86.4558214 57.232703,87.2194589" id="Fill-79" fill="#443D60"></path>
                                            <path d="M57.9244023,102.435714 C57.9244023,102.818003 57.61471,103.12779 57.232703,103.12779 C56.8506959,103.12779 56.5410978,102.818003 56.5410978,102.435714 C56.5410978,102.053424 56.8506959,101.743638 57.232703,101.743638 C57.61471,101.743638 57.9244023,102.053424 57.9244023,102.435714" id="Fill-80" fill="#443D60"></path>
                                        </g>
                                    </g>
                                </g>
                            </g>
                        </g>
                    </g>
                </g>
            </g>
        </g>
    </g>
</svg>