<?xml version="1.0" encoding="UTF-8"?>
<svg width="362px" height="152px" viewBox="0 0 362 152" version="1.1" xmlns="http://www.w3.org/2000/svg" xmlns:xlink="http://www.w3.org/1999/xlink">
    <!-- Generator: Sketch 63.1 (92452) - https://sketch.com -->
    <title>Group 3</title>
    <desc>Created with Sketch.</desc>
    <defs>
        <radialGradient cx="70.9430908%" cy="50%" fx="70.9430908%" fy="50%" r="285.917672%" gradientTransform="translate(0.709431,0.500000),scale(0.367164,1.000000),rotate(-154.906366),translate(-0.709431,-0.500000)" id="radialGradient-1">
            <stop stop-color="#EB7554" offset="0%"></stop>
            <stop stop-color="#C51570" offset="100%"></stop>
        </radialGradient>
        <rect id="path-2" x="0" y="0" width="335" height="123" rx="10"></rect>
        <filter x="-6.9%" y="-13.0%" width="113.7%" height="137.4%" filterUnits="objectBoundingBox" id="filter-4">
            <feOffset dx="0" dy="7" in="SourceAlpha" result="shadowOffsetOuter1"></feOffset>
            <feGaussianBlur stdDeviation="6.5" in="shadowOffsetOuter1" result="shadowBlurOuter1"></feGaussianBlur>
            <feColorMatrix values="0 0 0 0 0.898039216   0 0 0 0 0.4   0 0 0 0 0.345098039  0 0 0 0.22388549 0" type="matrix" in="shadowBlurOuter1"></feColorMatrix>
        </filter>
        <filter x="-5.9%" y="-8.7%" width="111.8%" height="117.4%" filterUnits="objectBoundingBox" id="filter-5">
            <feOffset dx="0" dy="2" in="SourceAlpha" result="shadowOffsetOuter1"></feOffset>
            <feGaussianBlur stdDeviation="2" in="shadowOffsetOuter1" result="shadowBlurOuter1"></feGaussianBlur>
            <feColorMatrix values="0 0 0 0 0   0 0 0 0 0   0 0 0 0 0  0 0 0 0.0851453234 0" type="matrix" in="shadowBlurOuter1" result="shadowMatrixOuter1"></feColorMatrix>
            <feMerge>
                <feMergeNode in="shadowMatrixOuter1"></feMergeNode>
                <feMergeNode in="SourceGraphic"></feMergeNode>
            </feMerge>
        </filter>
        <rect id="path-6" x="0" y="0" width="202.400004" height="138"></rect>
        <path d="M3.2605866,6.55718612 C1.46186722,6.55718612 0.00341004245,5.0985955 0.00341004245,3.29947582 C0.00341004245,1.50035613 1.46186722,0.0418989528 3.2605866,0.0418989528 C5.05930598,0.0418989528 6.51776316,1.50035613 6.51776316,3.29947582 C6.51776316,5.0985955 5.05930598,6.55718612 3.2605866,6.55718612" id="path-8"></path>
        <radialGradient cx="49.9997952%" cy="49.9991808%" fx="49.9997952%" fy="49.9991808%" r="50.006145%" gradientTransform="translate(0.499998,0.499992),scale(1.000000,0.999857),translate(-0.499998,-0.499992)" id="radialGradient-10">
            <stop stop-color="#521A1E" offset="0%"></stop>
            <stop stop-color="#562429" offset="100%"></stop>
        </radialGradient>
        <path d="M3.32923208,6.55718612 C1.52917834,6.55718612 0.0707211625,5.0985955 0.0707211625,3.29947582 C0.0707211625,1.50035613 1.52917834,0.0418989528 3.32923208,0.0418989528 C5.12795146,0.0418989528 6.58640864,1.50035613 6.58640864,3.29947582 C6.58640864,5.0985955 5.12795146,6.55718612 3.32923208,6.55718612" id="path-11"></path>
        <radialGradient cx="50.0102396%" cy="49.9991808%" fx="50.0102396%" fy="49.9991808%" r="49.998976%" gradientTransform="translate(0.500102,0.499992),scale(0.999939,1.000000),translate(-0.500102,-0.499992)" id="radialGradient-13">
            <stop stop-color="#521A1E" offset="0%"></stop>
            <stop stop-color="#562429" offset="100%"></stop>
        </radialGradient>
        <polygon id="path-14" points="0.0157349979 0.0240926353 86.7576785 0.0240926353 86.7576785 66.9775305 0.0157349979 66.9775305"></polygon>
        <path d="M3.55987242,7.05677041 C2.65799236,7.05677041 1.83524735,6.71817619 1.21163724,6.16137682 C1.36212356,5.75921512 1.44385319,5.34524802 1.44385319,4.94075118 C1.44385319,4.9316701 1.44333428,4.92271876 1.44242617,4.91376742 C1.44333428,4.88367016 1.44385319,4.85344317 1.44385319,4.82308644 L1.41570187,4.82308644 C1.29920471,4.5917786 0.828545781,4.44725984 0.131249271,4.35943291 C0.0671628569,4.09348727 0.0331737061,3.81573623 0.0331737061,3.53007169 C0.0331737061,1.58244146 1.61211246,0.00337296916 3.55987242,0.00337296916 C5.50763239,0.00337296916 7.08644141,1.58244146 7.08644141,3.53007169 C7.08644141,5.47770192 5.50763239,7.05677041 3.55987242,7.05677041" id="path-16"></path>
        <radialGradient cx="50.0011036%" cy="50.0001839%" fx="50.0011036%" fy="50.0001839%" r="50%" gradientTransform="translate(0.500011,0.500002),scale(1.000000,0.999982),translate(-0.500011,-0.500002)" id="radialGradient-18">
            <stop stop-color="#E06558" offset="0%"></stop>
            <stop stop-color="#EAB496" offset="100%"></stop>
        </radialGradient>
        <path d="M1.31412361,0.65967493 L1.31178848,0.65967493 C1.31217767,0.650723589 1.31243713,0.641642518 1.31269658,0.632691177 C1.31360469,0.641642518 1.31412361,0.65059386 1.31412361,0.65967493 M1.28597229,0.542010198 L0.147984387,0.542010198 C0.0889574269,0.39217253 0.0399196444,0.237405137 0.00151968782,0.0783566682 C0.698816197,0.166183596 1.16947513,0.310702352 1.28597229,0.542010198" id="path-19"></path>
        <radialGradient cx="261.208737%" cy="-142.666815%" fx="261.208737%" fy="-142.666815%" r="352.663385%" gradientTransform="translate(2.612087,-1.426668),scale(0.761844,1.000000),translate(-2.612087,1.426668)" id="radialGradient-21">
            <stop stop-color="#B72B2C" offset="0%"></stop>
            <stop stop-color="#BA4444" offset="100%"></stop>
        </radialGradient>
        <path d="M0.136734981,1.23165266 C0.117275543,1.21413917 0.0980755649,1.1967554 0.0790053162,1.17885272 C0.249988907,0.815090971 0.350529334,0.422010334 0.366615802,0.0110270146 L0.368950935,0.0110270146 C0.368950935,0.415523855 0.287221297,0.829490955 0.136734981,1.23165266" id="path-22"></path>
        <radialGradient cx="829.803132%" cy="-115.569136%" fx="829.803132%" fy="-115.569136%" r="1216.30872%" gradientTransform="translate(8.298031,-1.155691),scale(1.000000,0.237539),translate(-8.298031,1.155691)" id="radialGradient-24">
            <stop stop-color="#B72B2C" offset="0%"></stop>
            <stop stop-color="#BA4444" offset="100%"></stop>
        </radialGradient>
        <path d="M0.894448409,1.30858231 C0.667032449,1.09621498 0.46763808,0.854269305 0.30262205,0.588583119 C0.416784084,0.412021156 0.479184013,0.221578128 0.479184013,0.0230918658 L0.0182548041,0.0230918658 L1.18439403,0.0230918658 C1.18439403,0.0534485883 1.18387511,0.0836755811 1.182967,0.113772844 C1.18270754,0.122724186 1.18244808,0.131805257 1.18205889,0.140756598 C1.16597243,0.551739917 1.065432,0.944820554 0.894448409,1.30858231" id="path-25"></path>
        <radialGradient cx="281.456224%" cy="-100.584317%" fx="281.456224%" fy="-100.584317%" r="302.419624%" gradientTransform="translate(2.814562,-1.005843),scale(1.000000,0.907155),translate(-2.814562,1.005843)" id="radialGradient-27">
            <stop stop-color="#6F2A2A" offset="0%"></stop>
            <stop stop-color="#734543" offset="100%"></stop>
        </radialGradient>
        <path d="M0.30262205,0.588583119 C0.191832986,0.410204942 0.0963520131,0.22092948 0.0182548041,0.0230918658 L0.479184013,0.0230918658 C0.479184013,0.221578128 0.416784084,0.412021156 0.30262205,0.588583119" id="path-28"></path>
        <radialGradient cx="712.077118%" cy="-228.651067%" fx="712.077118%" fy="-228.651067%" r="765.113988%" gradientTransform="translate(7.120771,-2.286511),scale(1.000000,0.815095),translate(-7.120771,2.286511)" id="radialGradient-30">
            <stop stop-color="#E88585" offset="0%"></stop>
            <stop stop-color="#F8F6F4" offset="100%"></stop>
        </radialGradient>
        <path d="M3.55679598,7.05677041 C1.60903602,7.05677041 0.0300972633,5.47770192 0.0300972633,3.53007169 C0.0300972633,1.58244146 1.60903602,0.00337296916 3.55679598,0.00337296916 C5.50442621,0.00337296916 7.0834947,1.58244146 7.0834947,3.53007169 C7.0834947,5.47770192 5.50442621,7.05677041 3.55679598,7.05677041" id="path-31"></path>
        <radialGradient cx="50%" cy="50.0001839%" fx="50%" fy="50.0001839%" r="49.9992643%" id="radialGradient-33">
            <stop stop-color="#E06558" offset="0%"></stop>
            <stop stop-color="#EAB496" offset="100%"></stop>
        </radialGradient>
        <polygon id="path-34" points="0.0464431908 0.0720054634 38.9564965 0.0720054634 38.9564965 30.8756408 0.0464431908 30.8756408"></polygon>
        <path d="M3.90170988,7.75289935 C1.76376635,7.75289935 0.0305791145,6.01958239 0.0305791145,3.8813794 C0.0305791145,3.61595267 0.0565250311,3.35649351 0.108416864,3.10611541 C0.131768189,3.10663433 0.155119514,3.10702352 0.179768135,3.10702352 L7.69630018,3.10702352 C7.74689472,3.35727188 7.77413793,3.61621213 7.77413793,3.8813794 C7.77413793,6.01958239 6.03965341,7.75289935 3.90170988,7.75289935 M6.99965232,1.55844148 L0.80376743,1.55844148 C1.51079366,0.617902005 2.63554914,0.00972971874 3.90170988,0.00972971874 C5.1691679,0.00972971874 6.29262609,0.617902005 6.99965232,1.55844148" id="path-36"></path>
        <radialGradient cx="49.9916234%" cy="50.0008377%" fx="49.9916234%" fy="50.0008377%" r="50.0005026%" gradientTransform="translate(0.499916,0.500008),scale(0.999950,1.000000),translate(-0.499916,-0.500008)" id="radialGradient-38">
            <stop stop-color="#E1684B" offset="0%"></stop>
            <stop stop-color="#E7A289" offset="100%"></stop>
        </radialGradient>
        <path d="M3.94637392,7.75289935 C1.80713309,7.75289935 0.0739458624,6.01958239 0.0739458624,3.8813794 C0.0739458624,3.61621213 0.101189075,3.35727188 0.151783612,3.10702352 L7.73966693,3.10702352 C7.79026147,3.35727188 7.81750468,3.61621213 7.81750468,3.8813794 C7.81750468,6.01958239 6.08431745,7.75289935 3.94637392,7.75289935 M7.04301907,1.55844148 L0.848431474,1.55844148 C1.55416041,0.617902005 2.67891589,0.00972971874 3.94637392,0.00972971874 C5.21253465,0.00972971874 6.33729014,0.617902005 7.04301907,1.55844148" id="path-39"></path>
        <radialGradient cx="50.0083766%" cy="50.0008377%" fx="50.0083766%" fy="50.0008377%" r="50.0005026%" gradientTransform="translate(0.500084,0.500008),scale(0.999950,1.000000),translate(-0.500084,-0.500008)" id="radialGradient-41">
            <stop stop-color="#E1684B" offset="0%"></stop>
            <stop stop-color="#E7A289" offset="100%"></stop>
        </radialGradient>
        <polygon id="path-42" points="0.0252409887 0.0137513358 87.3378473 0.0137513358 87.3378473 80.5620711 0.0252409887 80.5620711"></polygon>
    </defs>
    <g id="Artboards" stroke="none" stroke-width="1" fill="none" fill-rule="evenodd">
        <g id="Teste---Suspeito" transform="translate(-6.000000, -116.000000)">
            <g id="Group-30" transform="translate(19.000000, 110.000000)">
                <g id="Oval-Copy-2-+-Oval-Copy-3-Mask">
                    <g id="Group-3">
                        <g id="Group-4" transform="translate(0.000000, 15.000000)">
                            <mask id="mask-3" fill="white">
                                <use xlink:href="#path-2"></use>
                            </mask>
                            <g id="Mask">
                                <use fill="black" fill-opacity="1" filter="url(#filter-4)" xlink:href="#path-2"></use>
                                <use fill="url(#radialGradient-1)" fill-rule="evenodd" xlink:href="#path-2"></use>
                            </g>
                            <ellipse id="Oval-Copy-2" fill="#FFFFFF" opacity="0.132138207" mask="url(#mask-3)" cx="52" cy="-76.9148936" rx="153" ry="154.085106"></ellipse>
                            <ellipse id="Oval-Copy-3" fill="#FFFFFF" opacity="0.132138207" mask="url(#mask-3)" cx="8.5" cy="-47" rx="190.5" ry="192"></ellipse>
                        </g>
                        <g id="Group-30" filter="url(#filter-5)" transform="translate(147.000000, 0.000000)">
                            <mask id="mask-7" fill="white">
                                <use xlink:href="#path-6"></use>
                            </mask>
                            <use id="Mask" fill-opacity="0" fill="#D8D8D8" xlink:href="#path-6"></use>
                            <g mask="url(#mask-7)">
                                <g transform="translate(22.000000, 8.800000)">
                                    <g id="Group-28" transform="translate(44.571379, 0.000000)">
                                        <path d="M22.1517362,30.6211959 L22.1517362,30.6211959 C20.0020797,30.6211959 18.2433912,28.862107 18.2433912,26.7120502 L18.2433912,22.1514693 C18.2433912,20.001546 20.0020797,18.2423237 22.1517362,18.2423237 C24.302727,18.2423237 26.0614155,20.001546 26.0614155,22.1514693 L26.0614155,26.7120502 C26.0614155,28.862107 24.302727,30.6211959 22.1517362,30.6211959" id="Fill-122" fill="#5E212A"></path>
                                        <path d="M54.0763364,30.6211959 L54.0763364,30.6211959 C51.9266799,30.6211959 50.166657,28.862107 50.166657,26.7120502 L50.166657,22.1514693 C50.166657,20.001546 51.9266799,18.2423237 54.0763364,18.2423237 C56.2259929,18.2423237 57.9860158,20.001546 57.9860158,22.1514693 L57.9860158,26.7120502 C57.9860158,28.862107 56.2259929,30.6211959 54.0763364,30.6211959" id="Fill-123" fill="#5E212A"></path>
                                        <path d="M25.4102471,25.4090462 C25.4102471,26.848422 24.2426807,28.0151877 22.804239,28.0151877 C21.3644629,28.0151877 20.1968965,26.848422 20.1968965,25.4090462 C20.1968965,23.9698038 21.3644629,22.8030381 22.804239,22.8030381 C24.2426807,22.8030381 25.4102471,23.9698038 25.4102471,25.4090462" id="Fill-124" fill="#561B26"></path>
                                        <path d="M56.0311761,25.4090462 C56.0311761,26.848422 54.8636097,28.0151877 53.425168,28.0151877 C51.9853918,28.0151877 50.8191598,26.848422 50.8191598,25.4090462 C50.8191598,23.9698038 51.9853918,22.8030381 53.425168,22.8030381 C54.8636097,22.8030381 56.0311761,23.9698038 56.0311761,25.4090462" id="Fill-125" fill="#561B26"></path>
                                        <path d="M26.712584,56.6818108 L12.3788722,63.8485333 C12.3788722,63.8485333 5.86451904,66.4544079 3.90967936,84.0452963 C1.95483968,101.635918 0,166.136287 0,166.136287 L11.7277037,167.438624 L11.7277037,171.999471 L26.712584,171.348303 L61.8943608,167.438624 L80.7889204,162.87911 L72.970896,136.817695 L82.7424257,120.530477 L71.0160564,69.7119848 C71.0160564,69.7119848 67.106377,64.4999686 47.5606489,54.0756692 C38.4402877,56.030242 26.0614155,57.3332461 26.0614155,57.3332461 L26.712584,56.6818108" id="Fill-127" fill="#221B1C"></path>
                                        <path d="M30.6222633,51.4696611 C30.6222633,51.4696611 28.6674237,55.3788067 26.0614155,57.3332461 C23.4554074,59.2878189 37.1366165,66.4545414 41.6974643,65.1514039 C46.2583121,63.8483998 47.5606489,54.0756692 47.5606489,54.0756692 C47.5606489,54.0756692 46.2583121,54.0756692 44.9546408,51.4696611 C43.6523039,48.8635196 30.6222633,51.4696611 30.6222633,51.4696611" id="Fill-129" fill="#67252C"></path>
                                        <polygon id="Fill-130" fill="#67252C" points="30.6222633 57.3332461 46.2583121 57.3332461 46.2583121 40.3939264 30.6222633 40.3939264"></polygon>
                                        <polyline id="Fill-131" fill="#351B1F" points="46.2583121 46.2575114 30.6222633 48.8635196 30.6222633 41.0453618 46.2583121 41.0453618 46.2583121 46.2575114"></polyline>
                                        <path d="M38.1147035,45.6059427 C30.0511566,45.6059427 23.4554074,39.0095263 23.4554074,30.9469135 L23.4554074,15.3105979 C23.4554074,7.24811853 30.0511566,0.651568748 38.1147035,0.651568748 C46.176916,0.651568748 52.7726652,7.24811853 52.7726652,15.3105979 L52.7726652,30.9469135 C52.7726652,39.0095263 46.176916,45.6059427 38.1147035,45.6059427" id="Fill-132" fill="#67252C"></path>
                                        <path d="M22.8029046,17.5908884 C22.8029046,17.5908884 23.4554074,21.500034 24.1065759,19.5454612 C24.1065759,17.5908884 24.7577443,9.12116185 31.2734318,6.51515373 C33.2282715,11.0757347 41.6974643,11.7273034 45.6071436,5.86371842 C47.5606489,6.51515373 51.4703283,12.3787387 51.4703283,19.5454612 C51.4703283,19.5454612 52.528477,22.3957909 52.9768225,18.3645512 C53.425168,14.3333115 53.425168,1.89624182e-14 37.7877849,1.89624182e-14 C22.1517362,1.89624182e-14 22.1517362,15.6363156 22.8029046,17.5908884" id="Fill-133" fill="#2D1E25"></path>
                                        <path d="M34.9028952,23.4778247 C34.9028952,24.8271311 33.8087187,25.5719717 32.4596792,25.5719717 C31.1106397,25.5719717 29.3185921,24.8271311 29.3185921,23.4778247 C29.3185921,22.1285183 31.1106397,20.6856731 32.4596792,20.6856731 C33.8087187,20.6856731 34.9028952,22.1285183 34.9028952,23.4778247" id="Fill-134" fill="#1A1919"></path>
                                        <path d="M43.2800171,23.4778247 C43.2800171,24.8271311 44.3741935,25.5719717 45.7232331,25.5719717 C47.0722726,25.5719717 48.8643202,24.8271311 48.8643202,23.4778247 C48.8643202,22.1285183 47.0722726,20.6856731 45.7232331,20.6856731 C44.3741935,20.6856731 43.2800171,22.1285183 43.2800171,23.4778247" id="Fill-135" fill="#1A1919"></path>
                                        <path d="M34.8815454,23.7803245 C34.8815454,25.1365695 33.7820315,26.23595 32.4263202,26.23595 C31.0692745,26.23595 29.9697605,25.1365695 29.9697605,23.7803245 C29.9697605,22.4240794 31.0692745,21.3245655 32.4263202,21.3245655 C33.7820315,21.3245655 34.8815454,22.4240794 34.8815454,23.7803245" id="Fill-136" fill="#F9F6F4"></path>
                                        <path d="M43.3013668,23.7803245 C43.3013668,25.1365695 44.4008808,26.23595 45.7565921,26.23595 C47.1136378,26.23595 48.2131517,25.1365695 48.2131517,23.7803245 C48.2131517,22.4240794 47.1136378,21.3245655 45.7565921,21.3245655 C44.4008808,21.3245655 43.3013668,22.4240794 43.3013668,23.7803245" id="Fill-137" fill="#F9F6F4"></path>
                                        <path d="M43.9525353,23.7803245 C43.9525353,24.7766922 44.7611584,25.5845147 45.7565921,25.5845147 C46.7533602,25.5845147 47.5606489,24.7766922 47.5606489,23.7803245 C47.5606489,22.7838233 46.7533602,21.9761342 45.7565921,21.9761342 C44.7611584,21.9761342 43.9525353,22.7838233 43.9525353,23.7803245" id="Fill-138" fill="#211A1C"></path>
                                        <path d="M34.1796712,23.7803245 C34.1796712,24.749071 33.3950667,25.5343427 32.4263202,25.5343427 C31.4575737,25.5343427 30.6716347,24.749071 30.6716347,23.7803245 C30.6716347,22.811578 31.4575737,22.0261728 32.4263202,22.0261728 C33.3950667,22.0261728 34.1796712,22.811578 34.1796712,23.7803245" id="Fill-139" fill="#211A1C"></path>
                                        <path d="M45.0226933,23.3253072 L44.9759906,23.3425204 C44.807861,23.4037676 44.6197161,23.3159666 44.5583354,23.1477037 L44.3008036,22.4411592 C44.239423,22.2727628 44.3274909,22.0848847 44.4956204,22.0236375 L44.5436575,22.0065576 C44.711787,21.9453105 44.899932,22.032978 44.9613126,22.2013744 L45.21751,22.9079189 C45.2788907,23.0763153 45.1908228,23.2641934 45.0226933,23.3253072" id="Fill-140" fill="#F9F6F4"></path>
                                        <path d="M31.6924213,23.3253072 L31.6443843,23.3425204 C31.4762547,23.4037676 31.2881098,23.3159666 31.2267291,23.1477037 L30.9705317,22.4411592 C30.9091511,22.2727628 30.9972189,22.0848847 31.1653485,22.0236375 L31.2120511,22.0065576 C31.3801807,21.9453105 31.5683257,22.032978 31.6297063,22.2013744 L31.8872381,22.9079189 C31.9472844,23.0763153 31.8605509,23.2641934 31.6924213,23.3253072" id="Fill-141" fill="#F9F6F4"></path>
                                        <path d="M49.3406872,20.7325092 L44.9359597,19.5501315 C44.0712935,19.3178191 43.5535612,18.4199272 43.7857401,17.5548606 C44.017919,16.6895272 44.9159443,16.1716614 45.7806106,16.4039738 L50.1853381,17.5862181 C51.0513388,17.8185305 51.569071,18.7164224 51.3368921,19.5816224 C51.1047132,20.446689 50.2066879,20.9646881 49.3406872,20.7325092" id="Fill-142" fill="#221B1C"></path>
                                        <path d="M28.1897222,20.7325092 L32.5944497,19.5501315 C33.4604504,19.3178191 33.9781827,18.4199272 33.7460037,17.5548606 C33.5138248,16.6895272 32.6157995,16.1716614 31.7497989,16.4039738 L27.3464057,17.5862181 C26.4804051,17.8185305 25.9626728,18.7164224 26.1948517,19.5816224 C26.4270306,20.446689 27.3250559,20.9646881 28.1897222,20.7325092" id="Fill-143" fill="#221B1C"></path>
                                        <path d="M40.0388528,24.2481516 C40.3951274,25.2788125 40.7113711,26.3204151 40.962231,27.3817663 C41.0636425,27.8135657 41.3198399,28.5945675 41.2557906,29.0154252 C41.0262804,30.5140466 39.6679003,30.0921215 38.7978966,29.8005635 C38.2001026,29.6004093 37.9439052,30.5438029 38.5376961,30.7430231 C39.7252779,31.1406628 41.386558,31.312662 42.032389,29.9513464 C42.3899979,29.1968983 42.1751657,28.3507797 42.0083705,27.5771168 C41.7455013,26.3591116 41.3878924,25.1655252 40.9809121,23.9883514 C40.7780891,23.3974961 39.8333612,23.6514251 40.0388528,24.2481516" id="Fill-144" fill="#34181B"></path>
                                        <path d="M35.333894,34.6824587 C37.8718497,37.9508439 42.6888949,37.5414618 44.6824311,33.939753 C44.9879998,33.389062 44.143349,32.8954817 43.8391146,33.4464396 C42.1271287,36.5382887 38.1827559,36.7703342 36.0237589,33.9913928 C35.6394628,33.4952772 34.9522666,34.1914136 35.333894,34.6824587" id="Fill-145" fill="#3A161A"></path>
                                        <g id="Group-148" transform="translate(42.997725, 26.670151)">
                                            <mask id="mask-9" fill="white">
                                                <use xlink:href="#path-8"></use>
                                            </mask>
                                            <g id="Clip-147"></g>
                                            <path d="M3.2605866,6.55718612 C1.46186722,6.55718612 0.00341004245,5.0985955 0.00341004245,3.29947582 C0.00341004245,1.50035613 1.46186722,0.0418989528 3.2605866,0.0418989528 C5.05930598,0.0418989528 6.51776316,1.50035613 6.51776316,3.29947582 C6.51776316,5.0985955 5.05930598,6.55718612 3.2605866,6.55718612" id="Fill-146" fill="url(#radialGradient-10)" mask="url(#mask-9)"></path>
                                        </g>
                                        <g id="Group-151" transform="translate(27.293031, 26.670151)">
                                            <mask id="mask-12" fill="white">
                                                <use xlink:href="#path-11"></use>
                                            </mask>
                                            <g id="Clip-150"></g>
                                            <path d="M3.32923208,6.55718612 C1.52917834,6.55718612 0.0707211625,5.0985955 0.0707211625,3.29947582 C0.0707211625,1.50035613 1.52917834,0.0418989528 3.32923208,0.0418989528 C5.12795146,0.0418989528 6.58640864,1.50035613 6.58640864,3.29947582 C6.58640864,5.0985955 5.12795146,6.55718612 3.32923208,6.55718612" id="Fill-149" fill="url(#radialGradient-13)" mask="url(#mask-12)"></path>
                                        </g>
                                        <path d="M23.3713426,27.5041273 C23.3713426,27.5041273 40.7580737,31.3468217 52.735303,27.6473043 C53.2543697,39.4174407 50.321443,45.3293295 39.2168861,46.0063846 C27.4718357,46.7225364 21.1336183,35.5006892 23.3713426,27.5041273" id="Fill-560" fill="#FEFBFB"></path>
                                        <path d="M23.734289,28.5091684 L23.734289,28.5091684 C23.5381378,28.5271823 23.3633365,28.3813365 23.3459898,28.1851854 L22.4332865,18.2001579 C22.4159398,18.0040067 22.5613852,17.8289385 22.7575363,17.811058 C22.9536875,17.7930442 23.1284888,17.9388899 23.1471699,18.135041 L24.0585388,28.1200686 C24.0772199,28.3162197 23.9304401,28.4912879 23.734289,28.5091684" id="Fill-561" fill="#FEFBFB"></path>
                                        <path d="M52.3323259,28.6279266 L52.3323259,28.6279266 C52.1375091,28.6021734 51.9987355,28.421234 52.0254227,28.2258834 L53.3437719,18.2864911 C53.3704591,18.091274 53.550598,17.9527672 53.7454147,17.9786539 C53.9415659,18.0045405 54.0803395,18.1854799 54.0536523,18.380697 L52.735303,28.3200893 C52.7086158,28.5154399 52.528477,28.6539466 52.3323259,28.6279266" id="Fill-562" fill="#FEFBFB"></path>
                                        <path d="M28.6674237,130.303342 L54.0763364,129.650839 L47.5606489,54.0756692 C47.5606489,54.0756692 37.9519114,70.0378359 28.0162552,55.3788067 C25.8986234,57.0075284 25.4102471,57.3332461 25.4102471,57.3332461 L28.6674237,130.303342" id="Fill-152" fill="#6EB434"></path>
                                        <path d="M28.0989856,134.862855 L28.0162552,131.061259 L28.2897993,131.055921 L28.1083262,134.862855 L28.0989856,134.862855 M55.1224759,134.354463 L54.0870113,130.559539 L54.7114925,130.54753 L55.3800076,134.349126 L55.1224759,134.354463" id="Fill-156" fill="#191415"></path>
                                        <polyline id="Fill-157" fill="#241E20" points="28.1083262 134.862855 28.2897993 131.055921 54.0870113 130.559539 55.1224759 134.354463 28.1083262 134.862855"></polyline>
                                        <path d="M44.9546408,4.23486327 C44.9546408,4.77461252 44.5169702,5.21214967 43.9778882,5.21214967 C43.4374717,5.21214967 43.0011355,4.77461252 43.0011355,4.23486327 C43.0011355,3.69511402 43.4374717,3.25757687 43.9778882,3.25757687 C44.5169702,3.25757687 44.9546408,3.69511402 44.9546408,4.23486327" id="Fill-158" fill="#171314"></path>
                                        <path d="M49.5154886,5.53786733 C49.5154886,5.7178727 49.3700432,5.86358498 49.1899044,5.86358498 C49.0097656,5.86358498 48.8643202,5.7178727 48.8643202,5.53786733 C48.8643202,5.35799539 49.0097656,5.21214967 49.1899044,5.21214967 C49.3700432,5.21214967 49.5154886,5.35799539 49.5154886,5.53786733" id="Fill-159" fill="#171314"></path>
                                        <path d="M28.0162552,7.16672248 C28.0162552,7.52646635 27.72403,7.81815779 27.3637524,7.81815779 C27.0048092,7.81815779 26.712584,7.52646635 26.712584,7.16672248 C26.712584,6.80684517 27.0048092,6.51515373 27.3637524,6.51515373 C27.72403,6.51515373 28.0162552,6.80684517 28.0162552,7.16672248" id="Fill-160" fill="#171314"></path>
                                        <path d="M30.4060968,4.6036808 C29.9924447,4.6036808 29.6054798,4.33827629 29.473378,3.92435734 C29.3092516,3.41249624 29.5948049,2.85967025 30.1071998,2.69581065 L34.4505466,1.30620653 C34.547955,1.27484903 34.6480322,1.25990418 34.7467749,1.25990418 C35.160427,1.25990418 35.5460575,1.52530869 35.6794936,1.93922765 C35.8422857,2.45122218 35.5580667,3.00404817 35.0456719,3.16790777 L30.702325,4.55737846 C30.6035823,4.58873595 30.5048395,4.6036808 30.4060968,4.6036808" id="Fill-161" fill="#4D373F"></path>
                                        <path d="M28.7274699,18.6793271 C28.4432509,18.6793271 28.1790473,18.4898478 28.0989856,18.2025597 C28.0029116,17.8573604 28.2070689,17.4962822 28.5526686,17.4000747 L31.6897526,16.5263347 C31.7484645,16.510189 31.8071764,16.5025831 31.8645539,16.5025831 C32.148773,16.5025831 32.4129765,16.691929 32.4930382,16.9792171 C32.5891123,17.3244164 32.384955,17.6854946 32.0393553,17.7817021 L28.9022713,18.655442 C28.8435594,18.6715878 28.7848475,18.6793271 28.7274699,18.6793271" id="Fill-162" fill="#4D373F"></path>
                                        <path d="M48.778921,18.7588551 C48.7108686,18.7588551 48.6414818,18.7480467 48.5734293,18.7252291 L45.4843823,17.6922999 C45.1441202,17.5786123 44.9586439,17.2075263 45.073399,16.8676644 C45.1641356,16.595855 45.4189986,16.4230552 45.6925428,16.4230552 C45.7605952,16.4230552 45.829982,16.43373 45.8967001,16.4565476 L48.9870814,17.4896103 C49.3273436,17.6031645 49.5114855,17.9742505 49.3980648,18.3141124 C49.3073282,18.5859218 49.0511308,18.7588551 48.778921,18.7588551" id="Fill-163" fill="#4D373F"></path>
                                        <polyline id="Fill-164" fill="#552429" points="28.0162552 129.650839 54.0763364 129.243858 54.7275048 132.256847 28.0976513 132.665161 28.0162552 129.650839"></polyline>
                                        <path d="M40.3951274,128.99967 C39.3169632,128.99967 38.4402877,129.876346 38.4402877,130.95451 C38.4402877,132.032674 39.3169632,132.90935 40.3951274,132.90935 L44.3034724,132.90935 C45.3816365,132.90935 46.2583121,132.032674 46.2583121,130.95451 C46.2583121,129.876346 45.3816365,128.99967 44.3034724,128.99967 L40.3951274,128.99967 Z M44.3034724,134.211687 L40.3951274,134.211687 C38.5990767,134.211687 37.1366165,132.750561 37.1366165,130.95451 C37.1366165,129.158459 38.5990767,127.697333 40.3951274,127.697333 L44.3034724,127.697333 C46.099523,127.697333 47.5606489,129.158459 47.5606489,130.95451 C47.5606489,132.750561 46.099523,134.211687 44.3034724,134.211687 L44.3034724,134.211687 Z" id="Fill-165" fill="#634D28"></path>
                                        <path d="M68.5301408,169.046529 L68.4180544,169.046529 C69.4895467,156.612948 70.8359175,142.981111 72.2743593,133.204244 L72.2743593,134.334448 C71.6138503,142.007027 69.9712513,155.84569 68.5301408,169.046529" id="Fill-257" fill="#D9B486"></path>
                                        <path d="M72.2743593,169.046529 L68.5301408,169.046529 C69.9712513,155.84569 71.6138503,142.007027 72.2743593,134.334448 L72.2743593,169.046529" id="Fill-258" fill="#4A515A"></path>
                                        <path d="M11.9198518,81.2628856 L11.9198518,78.1431483 C11.9905729,78.0897738 12.0586254,78.0359991 12.1280122,77.9811568 L12.2240862,81.1952335 L11.9198518,81.2628856" id="Fill-402" fill="#1E1616"></path>
                                        <path d="M21.5993105,116.531396 C21.5993105,117.32801 20.9534795,117.973841 20.1568657,117.973841 C19.3602518,117.973841 18.7144208,117.32801 18.7144208,116.531396 C18.7144208,115.734782 19.3602518,115.088951 20.1568657,115.088951 C20.9534795,115.088951 21.5993105,115.734782 21.5993105,116.531396" id="Fill-472" fill="#3C374F"></path>
                                        <path d="M22.3198657,132.396955 C22.3198657,132.794595 21.9969502,133.11751 21.5993105,133.11751 C21.2003364,133.11751 20.8774209,132.794595 20.8774209,132.396955 C20.8774209,131.997981 21.2003364,131.675065 21.5993105,131.675065 C21.9969502,131.675065 22.3198657,131.997981 22.3198657,132.396955" id="Fill-473" fill="#3C374F"></path>
                                    </g>
                                    <g id="Group-25" transform="translate(89.050094, 17.420830)">
                                        <path d="M47.9790593,51.2077692 C48.000335,51.2051746 48.0153836,51.2051746 48.0153836,51.2051746 C48.0153836,51.2051746 47.9134161,51.1026882 47.9790593,51.2077692" id="Fill-97" fill="#552429"></path>
                                        <path d="M57.5415566,63.7461334 L56.4677849,61.6510006 L56.4768659,61.6458114 C56.4768659,61.6458114 51.6160282,51.9251738 50.8958993,51.2051746 C50.1757703,50.4838781 49.4555117,51.2051746 50.8958993,54.8051705 C48.6536531,52.114579 48.0875132,51.3790122 47.9790593,51.2077692 C47.7168758,51.2298232 46.0709966,51.5282012 48.7355125,55.5251697 C51.6160282,59.8464621 51.6160282,59.8464621 51.6160282,59.8464621 C51.6160282,59.8464621 45.8549968,56.2451689 45.1348679,55.5251697 C44.414739,54.8051705 43.6946101,56.9651681 45.8549968,58.4064637 C48.0153836,59.8464621 50.8958993,61.2864605 50.8958993,61.2864605 L45.8549968,61.2864605 C45.2007706,61.1411634 43.9679503,61.1450552 44.0661556,61.8079734 C44.1373772,62.2892702 44.5587389,62.7264589 45.8549968,62.7264589 C47.3970924,62.7264589 49.1455877,62.9327289 50.4375646,63.1247287 C50.6023212,63.1493773 50.7679859,63.1506746 50.9332614,63.1623503 L52.4411083,64.0315385 L57.5415566,63.7461334" id="Fill-98" fill="#552429"></path>
                                        <polyline id="Fill-263" fill="#37241C" points="36.3312887 28.3836652 19.8625073 25.8500465 21.7626565 22.0494886 35.6978191 23.9497675 36.3312887 28.3836652"></polyline>
                                        <path d="M21.7626565,22.0494886 C21.8083213,21.7025917 24.4922967,22.1227858 28.4871894,22.6485798 C32.4820822,23.1743738 35.7434839,23.6028706 35.6978191,23.9497675 C35.6521543,24.2965347 32.316677,24.4302859 28.3217842,23.9044919 C24.3270212,23.3786979 21.7169917,22.3963855 21.7626565,22.0494886" id="Fill-264" fill="#54342A"></path>
                                        <path d="M19.8625073,25.8500465 C19.9080424,25.5031496 22.5920177,25.923214 26.5869105,26.449008 C30.5818033,26.974802 36.3768238,28.0368981 36.3312887,28.3836652 C36.2856239,28.7304324 30.4165278,28.2308438 26.421635,27.7050498 C22.4267422,27.1793855 19.8168425,26.1968136 19.8625073,25.8500465" id="Fill-265" fill="#37241C"></path>
                                        <path d="M26.3085108,24.6865018 L22.0764724,24.6865018 L23.4871518,11.9906459 L40.4150462,1.41067949 C40.4150462,1.41067949 50.2896729,2.1158895 53.1110319,11.9906459 C55.9322611,21.8651429 55.2270511,59.2471114 55.2270511,59.2471114 C55.2270511,59.2471114 39.0043667,59.9528404 39.0043667,59.2471114 C39.0043667,58.5426798 33.3619083,33.150449 33.3619083,33.150449 L26.3085108,24.6865018" id="Fill-474" fill="#14252D"></path>
                                        <path d="M23.8398866,31.0344298 C21.7062241,31.0344298 19.9605829,29.2887885 19.9605829,27.1551261 L19.9605829,25.7445763 C19.9605829,23.6107841 21.7062241,21.8651429 23.8398866,21.8651429 C25.973549,21.8651429 27.7191903,23.6107841 27.7191903,25.7445763 L27.7191903,27.1551261 C27.7191903,29.2887885 25.973549,31.0344298 23.8398866,31.0344298" id="Fill-475" fill="#E1A48D"></path>
                                        <path d="M50.6422779,31.0344298 C48.5087452,31.0344298 46.7631039,29.2887885 46.7631039,27.1551261 L46.7631039,25.7445763 C46.7631039,23.6107841 48.5087452,21.8651429 50.6422779,21.8651429 C52.7759404,21.8651429 54.5217114,23.6107841 54.5217114,25.7445763 L54.5217114,27.1551261 C54.5217114,29.2887885 52.7759404,31.0344298 50.6422779,31.0344298" id="Fill-476" fill="#E1A48D"></path>
                                        <polygon id="Fill-477" fill="#DBA68B" points="31.9512288 56.4267903 44.6470847 56.4267903 44.6470847 38.0878272 31.9512288 38.0878272"></polygon>
                                        <path d="M31.9512288,46.5517744 L31.9512288,42.4134007 C33.6585998,43.2527511 35.5468139,43.730156 37.4783577,43.730156 C40.0534899,43.730156 42.551433,42.9816163 44.6470847,41.6869151 L44.6470847,44.4358849 L31.9512288,46.5517744" id="Fill-478" fill="#C88269"></path>
                                        <path d="M24.1924916,28.9184106 C23.0240172,28.9184106 22.0764724,27.8131145 22.0764724,26.4497863 C22.0764724,25.0863284 23.0240172,23.9811621 24.1924916,23.9811621 C24.4972264,23.9811621 24.7869125,24.0562755 25.0487068,24.1915835 L24.8071504,28.812681 C24.6126857,28.8814376 24.4062859,28.9184106 24.1924916,28.9184106" id="Fill-479" fill="#D98475"></path>
                                        <path d="M50.2896729,28.9184106 C50.2351865,28.9184106 50.1809595,28.9160754 50.1275109,28.9112754 L49.8846572,24.026308 C50.0158138,23.9967296 50.1511217,23.9811621 50.2896729,23.9811621 C51.4584067,23.9811621 52.4055624,25.0863284 52.4055624,26.4497863 C52.4055624,27.8131145 51.4584067,28.9184106 50.2896729,28.9184106" id="Fill-480" fill="#D98475"></path>
                                        <path d="M37.4783577,43.730156 C30.8129814,43.730156 24.6670424,38.0380111 24.6670424,31.4961374 L25.3595389,18.2423145 C25.3595389,11.7004408 30.8129814,6.34792796 37.4783577,6.34792796 C44.1437339,6.34792796 49.5971764,11.7004408 49.5971764,18.2423145 L50.2896729,32.1757907 C50.2896729,38.7177941 44.1437339,43.730156 37.4783577,43.730156" id="Fill-481" fill="#EAB496"></path>
                                        <path d="M48.05067,20.8747872 L42.942438,19.6302913 C42.5654438,19.5383131 42.33219,19.1548324 42.4240386,18.7778382 C42.5158871,18.4011035 42.899238,18.16772 43.2762322,18.2595686 L48.384594,19.5041942 C48.7614584,19.5960427 48.9947122,19.9795234 48.9028637,20.3565175 C48.8111449,20.733382 48.4276642,20.9666358 48.05067,20.8747872" id="Fill-482" fill="#14252D"></path>
                                        <path d="M32.0634449,19.5313077 L27.2799259,20.9174683 C26.9073426,21.0254033 26.5141322,20.8088846 26.4060675,20.4361715 C26.2981325,20.0637179 26.5145214,19.6705075 26.8871048,19.5624428 L31.6707534,18.1762822 C32.0433368,18.0683472 32.4365471,18.2848658 32.5444822,18.6575789 C32.6524172,19.0300326 32.4358985,19.4232429 32.0634449,19.5313077" id="Fill-483" fill="#14252D"></path>
                                        <path d="M25.2056796,21.1867869 C25.103323,21.1782247 25.0010961,21.1691437 24.8978313,21.1598031 C24.8978313,21.1598031 23.2947629,20.6251875 23.3444493,18.6261844 C23.9256378,18.894076 24.5715614,19.0437839 25.2505661,19.0437839 L25.3176363,19.0437839 L25.2069769,21.1621383 L25.2056796,21.1867869 M45.6445755,9.47311362 C44.917052,8.81979544 44.1084475,8.25157987 43.2364052,7.78572093 L43.2364052,4.58464347 C43.2364052,3.89201722 43.0807297,3.23415851 42.8027192,2.64388891 C44.3925553,3.8480389 44.8725547,5.61391798 45.3524244,7.05326771 C45.5585647,7.67181836 45.6441863,8.53114712 45.6445755,9.47311362" id="Fill-484" fill="#111D22"></path>
                                        <path d="M28.8554917,21.3463543 C27.7158173,21.3463543 26.5007701,21.2962786 25.2056796,21.1867869 L25.2069769,21.1621383 L25.3176363,19.0437839 L28.6769838,19.0437839 L26.8871048,19.5624428 C26.5145214,19.6705075 26.2981325,20.0637179 26.4060675,20.4361715 C26.4953214,20.7440198 26.77904,20.9452304 27.0849424,20.9452304 C27.149418,20.9452304 27.2150611,20.9362791 27.2799259,20.9174683 L32.0634449,19.5313077 C32.3053905,19.461124 32.4814336,19.2706809 32.5456497,19.0437839 L32.950406,19.0437839 C38.6076537,19.0437839 43.2364052,14.4151621 43.2364052,8.7577847 L43.2364052,7.78572093 C44.1084475,8.25157987 44.917052,8.81979544 45.6445763,9.47311362 C45.6448349,10.244356 45.5880134,11.0708632 45.4933108,11.8657163 C45.1650949,14.6197456 43.6175507,17.100305 41.2294886,18.510725 C38.8073075,19.9411234 34.8911606,21.3463543 28.8554917,21.3463543" id="Fill-485" fill="#C48B72"></path>
                                        <path d="M27.0849424,20.9452304 C26.77904,20.9452304 26.4953214,20.7440198 26.4060675,20.4361715 C26.2981325,20.0637179 26.5145214,19.6705075 26.8871048,19.5624428 L28.6769838,19.0437839 L32.5456497,19.0437839 C32.4814336,19.2706809 32.3053905,19.461124 32.0634449,19.5313077 L27.2799259,20.9174683 C27.2150611,20.9362791 27.149418,20.9452304 27.0849424,20.9452304" id="Fill-486" fill="#111D22"></path>
                                        <path d="M32.950406,19.0437839 L25.2505661,19.0437839 C22.7290122,19.0437839 20.6659226,16.9806943 20.6659226,14.4592702 L20.6659226,13.2836607 C20.6659226,5.97767973 26.6436023,1.84356826e-14 33.9495833,1.84356826e-14 L38.6517617,1.84356826e-14 C41.1733156,1.84356826e-14 43.2364052,2.06295983 43.2364052,4.58464347 L43.2364052,8.7577847 C43.2364052,14.4151621 38.6076537,19.0437839 32.950406,19.0437839" id="Fill-487" fill="#101D28"></path>
                                        <path d="M63.6907389,53.6051719 C63.6907389,59.0590036 59.4278248,63.4801877 54.1689766,63.4801877 C48.9101285,63.4801877 44.6470847,59.0590036 44.6470847,53.6051719 C44.6470847,48.1513402 48.9101285,43.730156 54.1689766,43.730156 C59.4278248,43.730156 63.6907389,48.1513402 63.6907389,53.6051719" id="Fill-488" fill="#14252D"></path>
                                        <g id="Group-492" transform="translate(0.000000, 48.467139)">
                                            <mask id="mask-15" fill="white">
                                                <use xlink:href="#path-14"></use>
                                            </mask>
                                            <g id="Clip-490"></g>
                                            <polyline id="Fill-489" fill="#FFFFFF" mask="url(#mask-15)" points="25.6031711 8.66408287 31.9512288 4.07943941 31.9512288 0.0240926353 36.8884772 0.0240926353 37.7701195 3.55144 39.0043667 0.200524868 44.6470847 0.200524868 44.6470847 3.72657494 50.2896729 7.95965124 40.4150462 39.6992911 25.6031711 8.66408287"></polyline>
                                            <path d="M53.1096049,41.4272891 L57.2198272,30.0110858 C57.5778809,29.0160599 58.8933389,28.8110871 59.5367976,29.6504375 L73.6993762,48.1226329 C74.0327812,48.557227 74.0146191,49.1656587 73.6565654,49.5794961 L60.8691204,64.3855334 L65.1021967,69.3230414 L85.893957,50.8249001 C86.9343883,49.6793879 87.047253,47.9669574 86.1650918,46.6956075 L64.4353867,15.3801834 C63.9450088,14.6731572 63.305442,14.0841849 62.5607942,13.6534826 L50.2896729,6.54819337 L40.4150462,36.1719437 L26.3085108,7.95965124 L16.1822087,15.1077513 C14.9649561,15.9665611 14.0192274,17.1561814 13.4571091,18.5365042 L0.446269766,50.4720356 C-0.883328732,53.7347347 0.984517807,57.4955953 4.42805986,58.2454323 C9.6317729,59.3766742 15.6928688,57.35419 31.9512288,47.4571201 C29.1298698,53.4130053 29.8458474,52.2078175 29.1298698,54.5105176 C28.3604436,56.985758 28.0529845,59.5492146 27.1134829,62.2151575 C25.6031711,66.5014229 25.09515,69.4553655 23.4871518,72.8490914 C23.4871518,72.8490914 37.593817,82.7241073 60.8691204,72.8490914 L53.0159401,49.2889018 C52.1637465,46.7319318 52.1966978,43.9622052 53.1096049,41.4272891" id="Fill-491" fill="#E6B652" mask="url(#mask-15)"></path>
                                        </g>
                                        <path d="M29.1298698,102.977657 L29.5234693,98.0699865 L29.8352095,98.7458776 L31.1749269,97.5731222 C29.2641399,101.666091 29.7708637,100.916254 29.1298698,102.977657" id="Fill-493" fill="#373633"></path>
                                        <path d="M27.8367253,108.620894 L29.1298698,102.977657 C29.7708637,100.916254 29.2641399,101.666091 31.1749269,97.5731222 L35.477668,93.8083697 L35.477668,92.3982091 L35.3181006,92.0790744 C35.4973869,91.9558313 35.6683705,91.8377773 35.8304028,91.7249126 L39.7097065,100.156038 L27.8367253,108.620894 M32.6909469,85.0516228 L32.2803527,84.0098943 L32.7438765,85.0178931 C32.726363,85.0282715 32.7088495,85.0399472 32.6909469,85.0516228" id="Fill-494" fill="#BB8A42"></path>
                                        <path d="M57.4870702,115.44467 L47.1555359,115.44467 L46.9981739,114.028023 L55.2270511,113.558401 C55.2270511,113.558401 50.2896729,110.031054 50.9950127,109.325325 C51.7003524,108.620894 52.4055624,107.915165 52.4055624,107.915165 L55.9322611,112.852673 L57.4870702,115.44467" id="Fill-495" fill="#BB8A42"></path>
                                        <path d="M44.9998194,28.9184106 C43.2467836,28.9184106 41.8258555,27.4973527 41.8258555,25.7445763 C41.8258555,23.9915405 43.2467836,22.5706123 44.9998194,22.5706123 C46.7525958,22.5706123 48.1736537,23.9915405 48.1736537,25.7445763 C48.1736537,27.4973527 46.7525958,28.9184106 44.9998194,28.9184106" id="Fill-496" fill="#C48B72"></path>
                                        <path d="M30.1878145,28.9184106 C28.4347787,28.9184106 27.0138506,27.4973527 27.0138506,25.7445763 C27.0138506,23.9915405 28.4347787,22.5706123 30.1878145,22.5706123 C31.9407207,22.5706123 33.3619083,23.9915405 33.3619083,25.7445763 C33.3619083,27.4973527 31.9407207,28.9184106 30.1878145,28.9184106" id="Fill-497" fill="#C48B72"></path>
                                        <path d="M1.62200898,74.0596353 L11.4966357,96.6299881 L33.3619083,86.7549723 L25.0061555,65.5454827 C24.5654641,64.4259164 23.2715413,63.91089 22.1823317,64.4220245 L1.62200898,74.0596353" id="Fill-498" fill="#9F4FDE"></path>
                                        <path d="M14.3178649,105.093546 L16.4338841,109.325325 L36.2561753,100.373984 C37.398574,99.8576602 37.9321517,98.5344184 37.4665523,97.3694468 L35.4777978,92.3982091 C35.4777978,92.3982091 27.7191903,100.156038 14.3178649,105.093546" id="Fill-499" fill="#9F4FDE"></path>
                                        <path d="M33.0595086,25.4170091 C33.0595086,26.8777642 31.875337,27.6841633 30.4145819,27.6841633 C28.9538267,27.6841633 27.0138506,26.8777642 27.0138506,25.4170091 C27.0138506,23.956254 28.9538267,22.3941801 30.4145819,22.3941801 C31.875337,22.3941801 33.0595086,23.956254 33.0595086,25.4170091" id="Fill-500" fill="#3D3C3A"></path>
                                        <path d="M42.1281254,25.4170091 C42.1281254,26.8777642 43.3121673,27.6841633 44.7730521,27.6841633 C46.2338072,27.6841633 48.1737834,26.8777642 48.1737834,25.4170091 C48.1737834,23.956254 46.2338072,22.3941801 44.7730521,22.3941801 C43.3121673,22.3941801 42.1281254,23.956254 42.1281254,25.4170091" id="Fill-501" fill="#3D3C3A"></path>
                                        <path d="M33.036287,25.7444466 C33.036287,27.212726 31.8460181,28.4029949 30.3777387,28.4029949 C28.9094592,28.4029949 27.7191903,27.212726 27.7191903,25.7444466 C27.7191903,24.2761672 28.9094592,23.086028 30.3777387,23.086028 C31.8460181,23.086028 33.036287,24.2761672 33.036287,25.7444466" id="Fill-502" fill="#F9F6F4"></path>
                                        <path d="M42.151347,25.7444466 C42.151347,27.212726 43.3416159,28.4029949 44.8097656,28.4029949 C46.278045,28.4029949 47.4684437,27.212726 47.4684437,25.7444466 C47.4684437,24.2761672 46.278045,23.086028 44.8097656,23.086028 C43.3416159,23.086028 42.151347,24.2761672 42.151347,25.7444466" id="Fill-503" fill="#F9F6F4"></path>
                                        <path d="M32.2767203,25.7444466 C32.2767203,26.7933103 31.4264726,27.6434282 30.3777387,27.6434282 C29.3290047,27.6434282 28.478757,26.7933103 28.478757,25.7444466 C28.478757,24.6957126 29.3290047,23.8455947 30.3777387,23.8455947 C31.4264726,23.8455947 32.2767203,24.6957126 32.2767203,25.7444466" id="Fill-504" fill="#7A6870"></path>
                                        <path d="M42.9109137,25.7444466 C42.9109137,26.7933103 43.7610316,27.6434282 44.8097656,27.6434282 C45.8586293,27.6434282 46.708877,26.7933103 46.708877,25.7444466 C46.708877,24.6957126 45.8586293,23.8455947 44.8097656,23.8455947 C43.7610316,23.8455947 42.9109137,24.6957126 42.9109137,25.7444466" id="Fill-505" fill="#7A6870"></path>
                                        <path d="M44.0149124,25.2519931 L43.9639287,25.2705444 C43.7817884,25.3368362 43.5783724,25.2418742 43.5120806,25.0596041 L43.2339403,24.2947185 C43.1676485,24.1124484 43.2626106,23.9091622 43.4447509,23.8428704 L43.4958644,23.8241893 C43.6781344,23.7580272 43.8815504,23.8528595 43.9477125,24.0351296 L44.2258527,24.8000152 C44.2921446,24.9822853 44.1973122,25.1857013 44.0149124,25.2519931" id="Fill-506" fill="#F9F6F4"></path>
                                        <path d="M29.5828855,25.2519931 L29.5319018,25.2705444 C29.3496317,25.3368362 29.1462157,25.2418742 29.0799239,25.0596041 L28.8017837,24.2947185 C28.7354919,24.1124484 28.8304539,23.9091622 29.012724,23.8428704 L29.0637077,23.8241893 C29.2459778,23.7580272 29.4493938,23.8528595 29.5156856,24.0351296 L29.7938258,24.8000152 C29.8601176,24.9822853 29.7651556,25.1857013 29.5828855,25.2519931" id="Fill-507" fill="#F9F6F4"></path>
                                        <path d="M42.5310655,33.8557888 C42.5310655,34.4400908 40.6363649,35.2664683 38.299027,35.2664683 C35.9618188,35.2664683 34.067248,34.4400908 34.067248,33.8557888 C34.067248,33.2714867 35.9618188,33.150449 38.299027,33.150449 C40.6363649,33.150449 42.5310655,33.2714867 42.5310655,33.8557888" id="Fill-508" fill="#BA4444"></path>
                                        <path d="M42.5310655,33.8557888 C42.5310655,35.803419 40.6363649,37.9701625 38.299027,37.9701625 C35.9618188,37.9701625 34.067248,35.803419 34.067248,33.8557888 L42.5310655,33.8557888" id="Fill-509" fill="#BA4444"></path>
                                        <path d="M42.5310655,33.738124 C42.5310655,35.685884 40.6363649,37.2648228 38.299027,37.2648228 C35.9618188,37.2648228 34.067248,35.685884 34.067248,33.738124 L42.5310655,33.738124" id="Fill-510" fill="#744543"></path>
                                        <path d="M41.8258555,33.738124 C41.8258555,34.6433771 40.5272623,35.3840033 38.9404101,35.3840033 L37.6579034,35.3840033 C36.0709214,35.3840033 34.772458,34.6433771 34.772458,33.738124 L41.8258555,33.738124" id="Fill-511" fill="#F9F6F4"></path>
                                        <g id="Group-514" transform="translate(41.087212, 28.915038)">
                                            <mask id="mask-17" fill="white">
                                                <use xlink:href="#path-16"></use>
                                            </mask>
                                            <g id="Clip-513"></g>
                                            <path d="M3.55987242,7.05677041 C2.65799236,7.05677041 1.83524735,6.71817619 1.21163724,6.16137682 C1.36212356,5.75921512 1.44385319,5.34524802 1.44385319,4.94075118 C1.44385319,4.9316701 1.44333428,4.92271876 1.44242617,4.91376742 C1.44333428,4.88367016 1.44385319,4.85344317 1.44385319,4.82308644 L1.41570187,4.82308644 C1.29920471,4.5917786 0.828545781,4.44725984 0.131249271,4.35943291 C0.0671628569,4.09348727 0.0331737061,3.81573623 0.0331737061,3.53007169 C0.0331737061,1.58244146 1.61211246,0.00337296916 3.55987242,0.00337296916 C5.50763239,0.00337296916 7.08644141,1.58244146 7.08644141,3.53007169 C7.08644141,5.47770192 5.50763239,7.05677041 3.55987242,7.05677041" id="Fill-512" fill="url(#radialGradient-18)" mask="url(#mask-17)"></path>
                                        </g>
                                        <g id="Group-517" transform="translate(41.216942, 33.196114)">
                                            <mask id="mask-20" fill="white">
                                                <use xlink:href="#path-19"></use>
                                            </mask>
                                            <g id="Clip-516"></g>
                                            <path d="M1.31412361,0.65967493 L1.31178848,0.65967493 C1.31217767,0.650723589 1.31243713,0.641642518 1.31269658,0.632691177 C1.31360469,0.641642518 1.31412361,0.65059386 1.31412361,0.65967493 M1.28597229,0.542010198 L0.147984387,0.542010198 C0.0889574269,0.39217253 0.0399196444,0.237405137 0.00151968782,0.0783566682 C0.698816197,0.166183596 1.16947513,0.310702352 1.28597229,0.542010198" id="Fill-515" fill="url(#radialGradient-21)" mask="url(#mask-20)"></path>
                                        </g>
                                        <g id="Group-520" transform="translate(42.162115, 33.844762)">
                                            <mask id="mask-23" fill="white">
                                                <use xlink:href="#path-22"></use>
                                            </mask>
                                            <g id="Clip-519"></g>
                                            <path d="M0.136734981,1.23165266 C0.117275543,1.21413917 0.0980755649,1.1967554 0.0790053162,1.17885272 C0.249988907,0.815090971 0.350529334,0.422010334 0.366615802,0.0110270146 L0.368950935,0.0110270146 C0.368950935,0.415523855 0.287221297,0.829490955 0.136734981,1.23165266" id="Fill-518" fill="url(#radialGradient-24)" mask="url(#mask-23)"></path>
                                        </g>
                                        <g id="Group-523" transform="translate(41.346671, 33.715032)">
                                            <mask id="mask-26" fill="white">
                                                <use xlink:href="#path-25"></use>
                                            </mask>
                                            <g id="Clip-522"></g>
                                            <path d="M0.894448409,1.30858231 C0.667032449,1.09621498 0.46763808,0.854269305 0.30262205,0.588583119 C0.416784084,0.412021156 0.479184013,0.221578128 0.479184013,0.0230918658 L0.0182548041,0.0230918658 L1.18439403,0.0230918658 C1.18439403,0.0534485883 1.18387511,0.0836755811 1.182967,0.113772844 C1.18270754,0.122724186 1.18244808,0.131805257 1.18205889,0.140756598 C1.16597243,0.551739917 1.065432,0.944820554 0.894448409,1.30858231" id="Fill-521" fill="url(#radialGradient-27)" mask="url(#mask-26)"></path>
                                        </g>
                                        <g id="Group-526" transform="translate(41.346671, 33.715032)">
                                            <mask id="mask-29" fill="white">
                                                <use xlink:href="#path-28"></use>
                                            </mask>
                                            <g id="Clip-525"></g>
                                            <path d="M0.30262205,0.588583119 C0.191832986,0.410204942 0.0963520131,0.22092948 0.0182548041,0.0230918658 L0.479184013,0.0230918658 C0.479184013,0.221578128 0.416784084,0.412021156 0.30262205,0.588583119" id="Fill-524" fill="url(#radialGradient-30)" mask="url(#mask-29)"></path>
                                        </g>
                                        <g id="Group-529" transform="translate(26.983753, 28.915038)">
                                            <mask id="mask-32" fill="white">
                                                <use xlink:href="#path-31"></use>
                                            </mask>
                                            <g id="Clip-528"></g>
                                            <path d="M3.55679598,7.05677041 C1.60903602,7.05677041 0.0300972633,5.47770192 0.0300972633,3.53007169 C0.0300972633,1.58244146 1.60903602,0.00337296916 3.55679598,0.00337296916 C5.50442621,0.00337296916 7.0834947,1.58244146 7.0834947,3.53007169 C7.0834947,5.47770192 5.50442621,7.05677041 3.55679598,7.05677041" id="Fill-527" fill="url(#radialGradient-33)" mask="url(#mask-32)"></path>
                                        </g>
                                        <path d="M38.5021835,25.5826738 C38.7116968,26.6316672 38.9448209,27.6789741 39.131372,28.7322486 C39.2832854,29.5906693 39.0840207,30.1437065 38.1454272,30.2311442 C37.7557195,30.2673388 37.3845632,30.245155 36.9960231,30.3133928 C36.6613207,30.3721603 36.8032449,30.8821273 37.1366499,30.8234895 C38.0237408,30.6676843 39.4288419,30.9641164 39.7287767,29.7817609 C39.8679766,29.2332643 39.6355012,28.5619137 39.5304202,28.0358602 C39.3577501,27.1712125 39.1849503,26.3066946 39.0122803,25.4420469 C38.9455992,25.1085122 38.4356323,25.249658 38.5021835,25.5826738" id="Fill-530" fill="#D3665F"></path>
                                        <polyline id="Fill-531" fill="#799B9C" points="25.6031711 89.5765907 29.8352095 98.7458776 35.477668 93.8083697 35.477668 92.3982091 31.9512288 85.3448117 25.6031711 89.5765907"></polyline>
                                        <g id="Group-535" transform="translate(25.556728, 84.569029)">
                                            <mask id="mask-35" fill="white">
                                                <use xlink:href="#path-34"></use>
                                            </mask>
                                            <g id="Clip-533"></g>
                                            <path d="M2.86780217,12.0609593 L0.0464431908,6.41772248 C0.0464431908,6.41772248 7.54221851,-0.428107624 8.05880171,0.101189075 C8.78956845,0.848431474 10.2508425,0.848431474 10.2508425,2.34291627 C10.9816092,3.83869837 11.7122462,3.83869837 11.7122462,4.58594077 C11.7122462,5.33318316 12.443013,5.33318316 11.7122462,6.08042556 C10.9816092,6.82896526 2.86780217,12.0609593 2.86780217,12.0609593" id="Fill-532" fill="#EAB496" mask="url(#mask-35)"></path>
                                            <path d="M36.252932,28.8713187 L33.196503,30.8691543 C33.196503,30.8691543 27.554304,21.9359752 26.1436245,22.6404069 C24.732945,23.3461358 29.6703232,28.2836437 29.6703232,28.2836437 C29.6703232,28.2836437 22.6170555,28.2836437 21.206376,28.9893727 C19.7956966,29.6938043 22.6170555,30.3995332 30.3755333,30.3995332 C26.1436245,31.8096938 21.206376,31.1052622 21.206376,32.5154227 C21.206376,33.9255833 30.3755333,32.5154227 30.3755333,32.5154227 C30.3755333,32.5154227 21.9117158,34.6313122 24.0276053,35.3370412 C26.1436245,36.0414728 31.080873,33.9255833 31.080873,33.9255833 C31.080873,33.9255833 31.7863425,36.0414728 33.196503,36.0414728 C34.6079609,36.0414728 38.9564965,32.5154227 38.9564965,32.5154227 L36.252932,28.8713187" id="Fill-534" fill="#EAB496" mask="url(#mask-35)"></path>
                                        </g>
                                        <path d="M38.299027,12.6958559 C38.299027,13.4750118 37.6675034,14.1065354 36.8884772,14.1065354 C36.1094511,14.1065354 35.4777978,13.4750118 35.4777978,12.6958559 C35.4777978,11.9168298 36.1094511,11.2853062 36.8884772,11.2853062 C37.6675034,11.2853062 38.299027,11.9168298 38.299027,12.6958559" id="Fill-536" fill="#0F191F"></path>
                                        <path d="M27.7191903,11.6379112 C27.7191903,12.2222132 27.2455476,12.6958559 26.6611158,12.6958559 C26.0769435,12.6958559 25.6031711,12.2222132 25.6031711,11.6379112 C25.6031711,11.0536091 26.0769435,10.5799664 26.6611158,10.5799664 C27.2455476,10.5799664 27.7191903,11.0536091 27.7191903,11.6379112" id="Fill-537" fill="#0F191F"></path>
                                        <path d="M58.0487993,49.7262573 C58.0487993,50.6992292 57.2587461,51.4892824 56.2849959,51.4892824 C55.3111159,51.4892824 54.5217114,50.6992292 54.5217114,49.7262573 C54.5217114,48.7519882 55.3111159,47.961935 56.2849959,47.961935 C57.2587461,47.961935 58.0487993,48.7519882 58.0487993,49.7262573" id="Fill-538" fill="#0F191F"></path>
                                        <path d="M51.7003524,45.493181 C51.7003524,46.0782615 51.2267097,46.5517744 50.6422779,46.5517744 C50.0581056,46.5517744 49.5843332,46.0782615 49.5843332,45.493181 C49.5843332,44.9093979 50.0581056,44.4358849 50.6422779,44.4358849 C51.2267097,44.4358849 51.7003524,44.9093979 51.7003524,45.493181" id="Fill-539" fill="#0F191F"></path>
                                        <path d="M39.7097065,3.52669872 C39.7097065,3.91614693 39.3939447,4.23203846 39.0043667,4.23203846 C38.6149185,4.23203846 38.299027,3.91614693 38.299027,3.52669872 C38.299027,3.13712078 38.6149185,2.82135897 39.0043667,2.82135897 C39.3939447,2.82135897 39.7097065,3.13712078 39.7097065,3.52669872" id="Fill-540" fill="#0F191F"></path>
                                        <path d="M39.7097065,57.1312219 C39.7097065,57.9108967 39.0781829,58.5426798 38.299027,58.5426798 C37.5200009,58.5426798 36.8884772,57.9108967 36.8884772,57.1312219 C36.8884772,56.3528444 37.5200009,55.7210614 38.299027,55.7210614 C39.0781829,55.7210614 39.7097065,56.3528444 39.7097065,57.1312219" id="Fill-541" fill="#C14237"></path>
                                        <path d="M19.1378378,74.4760672 L10.6431447,77.9268741 C10.4634693,78.00082 10.3761613,78.20709 10.449199,78.3874141 C10.5222368,78.566441 10.7290257,78.6533598 10.9087012,78.5807112 L19.4033943,75.128607 C19.5830698,75.0559585 19.6703778,74.8496884 19.59734,74.6693643 C19.5243023,74.4903375 19.3175133,74.4021214 19.1378378,74.4760672" id="Fill-542" fill="#8E2CDC"></path>
                                        <path d="M19.8431776,76.5919567 L11.3484845,80.0427636 C11.168809,80.1167095 11.081501,80.3229795 11.1545387,80.5033036 C11.2275765,80.6823305 11.4342357,80.7692493 11.6140409,80.6966007 L20.108734,77.2444965 C20.2884095,77.171848 20.3757175,76.9655779 20.3026798,76.7852538 C20.229642,76.606227 20.0229828,76.5180109 19.8431776,76.5919567" id="Fill-543" fill="#8E2CDC"></path>
                                        <path d="M20.5485173,78.7078462 L12.0538242,82.1586531 C11.8741487,82.232599 11.7868407,82.438869 11.8598785,82.6191931 C11.9329162,82.79822 12.1395755,82.8851388 12.3193807,82.8124902 L20.8140738,79.360386 C20.9937493,79.2877375 21.0810573,79.0814674 21.0080195,78.9011433 C20.9349818,78.7221165 20.7281928,78.6339004 20.5485173,78.7078462" id="Fill-544" fill="#8E2CDC"></path>
                                        <path d="M28.1816763,4.95307549 C27.7285308,4.95307549 27.3066502,4.65897852 27.1678396,4.20453579 C26.9977641,3.64799588 27.3139151,3.05357493 27.870455,2.88349945 L32.5922226,1.44077675 C32.6943198,1.40964165 32.7975846,1.39472275 32.8992926,1.39472275 C33.352438,1.39472275 33.7743186,1.68894944 33.913259,2.1435219 C34.0833345,2.69993208 33.7670537,3.29435304 33.2105138,3.46442852 L28.4887462,4.90715121 C28.3867787,4.93828631 28.2833843,4.95307549 28.1816763,4.95307549" id="Fill-545" fill="#162D43"></path>
                                        <path d="M46.3761206,20.056453 C46.350953,20.056453 46.3252666,20.0537287 46.2997099,20.0480206 L43.5461995,19.4333618 C43.356924,19.39107 43.2365349,19.2016648 43.2788268,19.0123893 C43.3152808,18.8486706 43.4618752,18.7365842 43.6232588,18.7365842 C43.6485561,18.7365842 43.6741128,18.7393086 43.6996696,18.7450167 L46.4534394,19.3596754 C46.6427149,19.4018375 46.7629742,19.5913725 46.7206824,19.7806479 C46.6840986,19.9443667 46.5375042,20.056453 46.3761206,20.056453" id="Fill-546" fill="#1C3A49"></path>
                                        <path d="M29.7815015,88.4414568 C29.6674692,88.4414568 29.5553828,88.3869704 29.4875343,88.2857813 C29.3795992,88.1236194 29.4231884,87.9043764 29.5843125,87.7954035 L32.5149038,85.8338922 C32.5748389,85.793676 32.6428172,85.7742166 32.7102766,85.7742166 C32.8241791,85.7742166 32.9363952,85.8300003 33.0041141,85.9311894 C33.1120491,86.0920541 33.0684599,86.3125944 32.9072061,86.4202699 L29.9767445,88.3817812 C29.9168094,88.4219974 29.8488311,88.4414568 29.7815015,88.4414568" id="Fill-547" fill="#F6DBC9"></path>
                                        <path d="M37.946422,57.1312219 C37.7515682,57.1312219 37.593817,56.9742491 37.593817,56.7783575 C37.593817,56.5837631 37.7515682,56.4267903 37.946422,56.4267903 C38.1411461,56.4267903 38.299027,56.5837631 38.299027,56.7783575 C38.299027,56.9742491 38.1411461,57.1312219 37.946422,57.1312219" id="Fill-548" fill="#DB644E"></path>
                                        <path d="M24.8306314,28.1292655 C24.8306314,28.1292655 38.1124759,31.2850674 49.9898678,28.3150383 C49.9898678,28.3150383 53.1059724,38.0622705 44.3266526,42.1474551 C35.5473328,46.233937 30.2555334,41.9165364 27.470369,39.2707016 C24.6852045,36.624737 24.1403403,33.0025573 24.8306314,28.1292655" id="Fill-555" fill="#FEFBFB"></path>
                                        <path d="M25.4897874,30.1682254 L25.4897874,30.1682254 C25.2626309,30.2029929 25.0483176,30.0457607 25.0134204,29.8186042 L23.8096596,21.9728184 C23.7748921,21.7456619 23.9321243,21.5312189 24.1592808,21.4964514 C24.3864373,21.4615541 24.6007506,21.6189161 24.6356478,21.8459429 L25.8392789,29.6918583 C25.8741762,29.9190148 25.7169439,30.1333281 25.4897874,30.1682254" id="Fill-556" fill="#FEFBFB"></path>
                                        <path d="M49.2352309,29.891123 L49.2352309,29.891123 C49.0080744,29.8567446 48.8501935,29.6428206 48.8845718,29.4156641 L50.0710786,21.567154 C50.1054569,21.3398678 50.319381,21.1821166 50.5466672,21.216495 C50.7738237,21.2508733 50.9315749,21.4647974 50.8971966,21.6919539 L49.7108195,29.5404639 C49.6764412,29.7676204 49.4623874,29.9255013 49.2352309,29.891123" id="Fill-557" fill="#FEFBFB"></path>
                                    </g>
                                    <g id="Group-26" transform="translate(0.000000, 16.679518)">
                                        <polyline id="Fill-57" fill="#CE7C5A" points="35.6639597 118.64419 41.0607104 122.691753 34.8207174 130.448285 34.314772 118.64419 35.6639597 118.64419"></polyline>
                                        <path d="M76.3056435,100.462589 C75.2574285,100.462589 74.4051051,101.314913 74.4051051,102.363128 C74.4051051,103.411343 75.2574285,104.263666 76.3056435,104.263666 L80.105423,104.263666 C81.153638,104.263666 82.0059614,103.411343 82.0059614,102.363128 C82.0059614,101.314913 81.153638,100.462589 80.105423,100.462589 L76.3056435,100.462589 Z M80.105423,105.529827 L76.3056435,105.529827 C74.5594833,105.529827 73.1376471,104.109288 73.1376471,102.363128 C73.1376471,100.616967 74.5594833,99.1964285 76.3056435,99.1964285 L80.105423,99.1964285 C81.8515832,99.1964285 83.2721221,100.616967 83.2721221,102.363128 C83.2721221,104.109288 81.8515832,105.529827 80.105423,105.529827 L80.105423,105.529827 Z" id="Fill-165" fill="#634D28"></path>
                                        <polygon id="Fill-401" fill="#E9A289" points="33.1355301 69.6894348 48.6213505 69.6894348 48.6213505 44.1365988 33.1355301 44.1365988"></polygon>
                                        <path d="M48.6213505,54.0518308 L48.6213505,51.0187532 C48.6901072,50.9668613 48.7562692,50.9145803 48.8237286,50.8612615 L48.9171339,53.9860579 L48.6213505,54.0518308" id="Fill-402" fill="#1E1616"></path>
                                        <path d="M33.1355301,57.4916107 L33.1355301,51.1124179 C35.1839603,52.5748595 37.7318493,53.4286099 40.8777917,53.4286099 C44.0911934,53.4286099 46.6274068,52.5384055 48.6213505,51.0187532 L48.6213505,54.0518308 L33.1355301,57.4916107" id="Fill-403" fill="#D67F69"></path>
                                        <path d="M24.4929453,38.6263347 L23.8404055,38.7127346 C22.1201912,38.9401506 20.5258146,37.7188763 20.2987879,35.998662 L19.7046264,31.5071644 C19.4775996,29.7869501 20.698355,28.1932222 22.4185693,27.9658062 L23.0724064,27.8792766 C24.7926206,27.6518607 26.3856999,28.8732647 26.614024,30.5933492 L27.2068882,35.0848469 C27.4352122,36.8051909 26.2131596,38.3989188 24.4929453,38.6263347" id="Fill-404" fill="#E49889"></path>
                                        <path d="M56.4894497,38.6263347 L57.1419895,38.7127346 C58.8622038,38.9401506 60.4565803,37.7188763 60.6836071,35.998662 L61.2777686,31.5071644 C61.5047954,29.7869501 60.28404,28.1932222 58.5638257,27.9658062 L57.9099886,27.8792766 C56.1897744,27.6518607 54.5966951,28.8732647 54.368371,30.5933492 L53.7742095,35.0848469 C53.5471827,36.8051909 54.7692354,38.3989188 56.4894497,38.6263347" id="Fill-405" fill="#E49889"></path>
                                        <path d="M28.4886165,34.4576043 C28.4886165,35.9542945 27.2756449,37.1676553 25.7785655,37.1676553 C24.2827834,37.1676553 23.0685145,35.9542945 23.0685145,34.4576043 C23.0685145,32.9607844 24.2827834,31.7474236 25.7785655,31.7474236 C27.2756449,31.7474236 28.4886165,32.9607844 28.4886165,34.4576043" id="Fill-406" fill="#D5897F"></path>
                                        <path d="M58.6883661,34.4576043 C58.6883661,35.9542945 57.4740972,37.1676553 55.9770178,37.1676553 C54.4812357,37.1676553 53.2669669,35.9542945 53.2669669,34.4576043 C53.2669669,32.9607844 54.4812357,31.7474236 55.9770178,31.7474236 C57.4740972,31.7474236 58.6883661,32.9607844 58.6883661,34.4576043" id="Fill-407" fill="#D5897F"></path>
                                        <path d="M55.5904237,28.6501298 C55.5904237,40.1965816 53.2669669,53.4286099 40.8777917,53.4286099 C28.4886165,53.4286099 25.3919713,40.1965816 25.3919713,28.6501298 C25.3919713,17.1035482 33.1809355,11.614949 40.8777917,11.614949 C48.5759451,11.614949 55.5904237,17.1035482 55.5904237,28.6501298" id="Fill-408" fill="#E7A289"></path>
                                        <path d="M55.429559,28.8783241 L53.5160476,24.7784801 L54.2204793,24.7784801 L55.429559,28.8783241 M25.8395384,28.6080974 C25.7552141,27.6933741 25.7759709,26.4033431 26.1547813,24.7893774 C26.2079704,24.7822423 26.2611595,24.7784801 26.3156459,24.7784801 L27.8736982,24.7784801 C26.8099157,26.4400566 26.0497003,28.1242061 25.8395384,28.6080974 M53.7638312,23.2297684 L52.7934539,23.2297684 L52.4224273,22.4358233 C52.4224273,22.4358233 50.3195107,22.4358233 48.2165942,20.3325176 C46.6274068,21.6032188 44.0328151,22.0101805 41.3422236,22.0101805 C38.0950921,22.0101805 34.70915,21.4169272 32.7917467,21.0335762 C32.6516388,21.0054249 32.5115308,20.9920628 32.3714229,20.9920628 C31.2077485,20.9920628 30.0596417,21.9214455 29.056832,23.136882 L26.6399699,23.136882 C27.3885096,20.9940087 28.7480756,18.4226386 31.1338027,15.5074852 C31.1338027,15.5074852 36.9638501,19.6716751 42.9716271,19.6716751 C45.3755163,19.6716751 47.8066487,19.0057731 49.9056734,17.1398725 C49.9056734,19.5883887 53.170967,21.220776 53.170967,21.220776 L53.7638312,23.2297684" id="Fill-409" fill="#C37D69"></path>
                                        <path d="M49.0572419,34.5650204 C47.1982169,34.5650204 45.6920565,33.058341 45.6920565,31.1997053 C45.6920565,29.3410696 47.1982169,27.8342604 49.0572419,27.8342604 C50.9162668,27.8342604 52.4224273,29.3410696 52.4224273,31.1997053 C52.4224273,33.058341 50.9162668,34.5650204 49.0572419,34.5650204" id="Fill-410" fill="#CC8671"></path>
                                        <path d="M33.3521785,34.5650204 C31.4944509,34.5650204 29.9869932,33.058341 29.9869932,31.1997053 C29.9869932,29.3410696 31.4944509,27.8342604 33.3521785,27.8342604 C35.2112035,27.8342604 36.7173639,29.3410696 36.7173639,31.1997053 C36.7173639,33.058341 35.2112035,34.5650204 33.3521785,34.5650204" id="Fill-411" fill="#CC8671"></path>
                                        <path d="M36.2321753,30.9730677 C36.2321753,32.4698876 35.0192037,33.2960056 33.5221243,33.2960056 C32.0250449,33.2960056 30.0375877,32.4698876 30.0375877,30.9730677 C30.0375877,29.4763775 32.0250449,27.8757739 33.5221243,27.8757739 C35.0192037,27.8757739 36.2321753,29.4763775 36.2321753,30.9730677" id="Fill-412" fill="#3D3C3A"></path>
                                        <path d="M45.5247053,30.9730677 C45.5247053,32.4698876 46.7376769,33.2960056 48.2347563,33.2960056 C49.7305384,33.2960056 51.7192929,32.4698876 51.7192929,30.9730677 C51.7192929,29.4763775 49.7305384,27.8757739 48.2347563,27.8757739 C46.7376769,27.8757739 45.5247053,29.4763775 45.5247053,30.9730677" id="Fill-413" fill="#3D3C3A"></path>
                                        <path d="M36.2321753,31.3603105 C36.2321753,32.8570007 35.0192037,34.0703615 33.5221243,34.0703615 C32.0250449,34.0703615 30.8120733,32.8570007 30.8120733,31.3603105 C30.8120733,29.8634906 32.0250449,28.6501298 33.5221243,28.6501298 C35.0192037,28.6501298 36.2321753,29.8634906 36.2321753,31.3603105" id="Fill-414" fill="#F9F6F4"></path>
                                        <path d="M45.5247053,31.3603105 C45.5247053,32.8570007 46.7376769,34.0703615 48.2347563,34.0703615 C49.7305384,34.0703615 50.9448073,32.8570007 50.9448073,31.3603105 C50.9448073,29.8634906 49.7305384,28.6501298 48.2347563,28.6501298 C46.7376769,28.6501298 45.5247053,29.8634906 45.5247053,31.3603105" id="Fill-415" fill="#F9F6F4"></path>
                                        <path d="M35.4576897,31.3603105 C35.4576897,32.429412 34.5910961,33.2960056 33.5221243,33.2960056 C32.4531525,33.2960056 31.5865589,32.429412 31.5865589,31.3603105 C31.5865589,30.2910793 32.4531525,29.4244857 33.5221243,29.4244857 C34.5910961,29.4244857 35.4576897,30.2910793 35.4576897,31.3603105" id="Fill-416" fill="#43A3B9"></path>
                                        <path d="M46.2991909,31.3603105 C46.2991909,32.429412 47.1657846,33.2960056 48.2347563,33.2960056 C49.3037281,33.2960056 50.1703217,32.429412 50.1703217,31.3603105 C50.1703217,30.2910793 49.3037281,29.4244857 48.2347563,29.4244857 C47.1657846,29.4244857 46.2991909,30.2910793 46.2991909,31.3603105" id="Fill-417" fill="#43A3B9"></path>
                                        <path d="M47.4330275,30.8550138 L47.3642708,30.8801813 C47.1826494,30.946084 46.9802712,30.8516408 46.9141092,30.6705383 L46.6248122,29.8739987 C46.5586501,29.6927665 46.6533527,29.4906478 46.8349741,29.4247451 L46.9037308,29.3997073 C47.0840549,29.3338047 47.2864331,29.4281181 47.3525952,29.6093503 L47.6418921,30.40589 C47.7080542,30.5871222 47.6133516,30.7892409 47.4330275,30.8550138" id="Fill-418" fill="#F9F6F4"></path>
                                        <path d="M32.7203955,30.8550138 L32.6516388,30.8801813 C32.4700174,30.946084 32.2676392,30.8516408 32.2027744,30.6705383 L31.9121802,29.8739987 C31.8473154,29.6927665 31.9407207,29.4906478 32.1223421,29.4247451 L32.1910988,29.3997073 C32.3727202,29.3338047 32.5750983,29.4281181 32.6399631,29.6093503 L32.9305574,30.40589 C32.9954222,30.5871222 32.9020169,30.7892409 32.7203955,30.8550138" id="Fill-419" fill="#F9F6F4"></path>
                                        <g id="Group-422" transform="translate(44.719641, 34.834988)">
                                            <mask id="mask-37" fill="white">
                                                <use xlink:href="#path-36"></use>
                                            </mask>
                                            <g id="Clip-421"></g>
                                            <path d="M3.90170988,7.75289935 C1.76376635,7.75289935 0.0305791145,6.01958239 0.0305791145,3.8813794 C0.0305791145,3.61595267 0.0565250311,3.35649351 0.108416864,3.10611541 C0.131768189,3.10663433 0.155119514,3.10702352 0.179768135,3.10702352 L7.69630018,3.10702352 C7.74689472,3.35727188 7.77413793,3.61621213 7.77413793,3.8813794 C7.77413793,6.01958239 6.03965341,7.75289935 3.90170988,7.75289935 M6.99965232,1.55844148 L0.80376743,1.55844148 C1.51079366,0.617902005 2.63554914,0.00972971874 3.90170988,0.00972971874 C5.1691679,0.00972971874 6.29262609,0.617902005 6.99965232,1.55844148" id="Fill-420" fill="url(#radialGradient-38)" mask="url(#mask-37)"></path>
                                        </g>
                                        <g id="Group-425" transform="translate(29.189156, 34.834988)">
                                            <mask id="mask-40" fill="white">
                                                <use xlink:href="#path-39"></use>
                                            </mask>
                                            <g id="Clip-424"></g>
                                            <path d="M3.94637392,7.75289935 C1.80713309,7.75289935 0.0739458624,6.01958239 0.0739458624,3.8813794 C0.0739458624,3.61621213 0.101189075,3.35727188 0.151783612,3.10702352 L7.73966693,3.10702352 C7.79026147,3.35727188 7.81750468,3.61621213 7.81750468,3.8813794 C7.81750468,6.01958239 6.08431745,7.75289935 3.94637392,7.75289935 M7.04301907,1.55844148 L0.848431474,1.55844148 C1.55416041,0.617902005 2.67891589,0.00972971874 3.94637392,0.00972971874 C5.21253465,0.00972971874 6.33729014,0.617902005 7.04301907,1.55844148" id="Fill-423" fill="url(#radialGradient-41)" mask="url(#mask-40)"></path>
                                        </g>
                                        <path d="M34.6365014,25.5890306 L29.9701283,26.9697425 C29.416183,27.1338504 28.8272107,26.8143265 28.6637514,26.2597325 L28.6014812,26.0490517 C28.4367246,25.4944577 28.7571567,24.9062638 29.311102,24.7421558 L33.9761778,23.3615736 C34.5314204,23.1974657 35.1190955,23.5169896 35.283852,24.0715836 L35.3461222,24.2821347 C35.5095815,24.8368584 35.1904467,25.4249226 34.6365014,25.5890306" id="Fill-426" fill="#994134"></path>
                                        <path d="M46.3458936,24.8146747 L51.0122667,26.1953866 C51.566212,26.3594945 52.1551843,26.0399706 52.3186436,25.4852469 L52.3809138,25.2746958 C52.5456704,24.7201018 52.2252383,24.1319079 51.671293,23.9678 L47.0049199,22.5872177 C46.4509746,22.4231098 45.8632995,22.7426338 45.698543,23.2972277 L45.6362728,23.5079086 C45.4715162,24.0625025 45.7919483,24.6505667 46.3458936,24.8146747" id="Fill-427" fill="#994134"></path>
                                        <path d="M41.129467,40.3608193 C41.2851425,40.3658787 41.4460072,40.3708084 41.6081692,40.3708084 C41.870223,40.3706787 42.1374659,40.3584841 42.4034116,40.3129491 C42.6693572,40.267414 42.9353028,40.1880195 43.1856809,40.0523223 C43.3024376,39.989144 43.4101131,39.9116955 43.5087076,39.8236091 C43.6786534,39.6716957 43.8187613,39.4881284 43.9199504,39.2854908 C44.0211395,39.0828531 44.0808151,38.8601075 44.0821124,38.6307455 C44.0821124,38.433816 44.0354097,38.2318271 43.9303287,38.0476111 C43.79541,37.8085194 43.5969237,37.6425953 43.3880591,37.5218171 C43.0831946,37.345774 42.7510868,37.2486066 42.4630872,37.1319797 C42.3203846,37.0743797 42.1893577,37.0132771 42.0777903,36.9428339 C41.9675202,36.872261 41.8780067,36.7939044 41.8079528,36.6989423 C41.7197367,36.5777749 41.6652502,36.4285859 41.6315205,36.2535807 C41.5990881,36.0792241 41.5900071,35.8826838 41.5835206,35.6822516 C41.5471963,34.6179501 41.510872,33.5535189 41.475845,32.4892174 C41.4706559,32.3440499 41.34871,32.2304068 41.2034129,32.2353366 C41.0581158,32.2401366 40.945251,32.3618229 40.9491429,32.5069903 C40.9854672,33.5712918 41.0217915,34.635723 41.0581158,35.7000245 C41.0646023,35.9042189 41.0736833,36.1259268 41.1151968,36.3502292 C41.1567103,36.5740127 41.2332507,36.8040233 41.383737,37.0095149 C41.5004937,37.1685634 41.6444935,37.2903795 41.7962771,37.3867686 C42.0246012,37.5312873 42.2710874,37.6233953 42.5033033,37.7101844 C42.7355193,37.7959357 42.953465,37.8764978 43.1234107,37.9763895 C43.2816808,38.0683678 43.3958429,38.1698163 43.4723833,38.3064216 C43.5294643,38.4073512 43.5554103,38.5146376 43.5554103,38.6307455 C43.5554103,38.7652751 43.519086,38.9113506 43.449032,39.0515883 C43.3802753,39.1916963 43.2777889,39.3246691 43.1584377,39.4318257 C43.0883838,39.4940959 43.0131406,39.547804 42.9353028,39.5899661 C42.7458977,39.6923227 42.5383303,39.7564091 42.3151954,39.7946794 C42.0920606,39.8329496 41.8533581,39.8450144 41.6081692,39.8448847 C41.4563856,39.8448847 41.3007101,39.8403442 41.1463319,39.835155 C41.0010348,39.830355 40.879089,39.9441278 40.8751971,40.0892953 C40.8700079,40.2344627 40.9841699,40.3560193 41.129467,40.3608193" id="Fill-428" fill="#BC5D36"></path>
                                        <path d="M44.7502197,41.555499 C44.7502197,42.9809677 43.3634105,44.1365988 41.6522773,44.1365988 C39.9424414,44.1365988 38.5556321,42.9809677 38.5556321,41.555499 L44.7502197,41.555499" id="Fill-429" fill="#744543"></path>
                                        <path d="M44.233896,41.555499 L44.233896,41.555499 C44.233896,42.218028 43.2829781,42.7600382 42.1218984,42.7600382 L41.1826562,42.7600382 C40.0215764,42.7600382 39.0719559,42.218028 39.0719559,41.555499 L44.233896,41.555499" id="Fill-430" fill="#F9F6F4"></path>
                                        <path d="M31.1338027,15.5074852 C31.1338027,15.5074852 42.5603844,23.6692922 49.9056734,17.1398725 C49.9056734,19.5883887 53.170967,21.220776 53.170967,21.220776 L55.5904237,29.4243559 C55.5904237,29.4243559 58.0682587,10.6104529 53.986966,8.97806553 C52.3549679,5.71329084 43.3763834,1.63238735 43.3763834,1.63238735 L42.5603844,-4.240207e-14 C42.5603844,-4.240207e-14 30.3178036,0.816258537 25.4205118,10.6104529 C20.5232201,20.4045175 26.1664569,30.1987118 26.1664569,30.1987118 C26.1664569,30.1987118 23.7885137,24.485421 31.1338027,15.5074852" id="Fill-431" fill="#984033"></path>
                                        <path d="M39.8360631,45.8863914 C40.9478456,45.3669542 42.190655,45.4197541 43.2609241,46.0115805 C43.5567075,46.1755586 43.8226532,45.7215051 43.5255724,45.5575269 C42.2814657,44.8694412 40.8557376,44.8315602 39.5714148,45.4323379 C39.2652529,45.5755593 39.5311986,46.0289642 39.8360631,45.8863914" id="Fill-432" fill="#D36B47"></path>
                                        <path d="M25.6371602,35.6956137 C25.6371602,35.6956137 45.8814617,38.8049724 55.1597215,35.9741431 C54.9677217,42.3343954 52.4730218,53.2414101 41.4654667,53.5670314 C30.4579115,53.8927824 26.2468893,44.2359716 25.6371602,35.6956137" id="Fill-433" fill="#FEFBFB"></path>
                                        <path d="M26.9876452,37.2884336 L26.9876452,37.2884336 C26.5206187,37.4599361 25.9978085,37.2178607 25.8265654,36.7505747 L22.601488,27.9646387 C22.4302449,27.4973527 22.6728393,26.9745425 23.1398658,26.80304 C23.6068922,26.6315375 24.1297025,26.8736129 24.3009455,27.3410286 L27.526023,36.1268349 C27.697266,36.5942506 27.4546717,37.116931 26.9876452,37.2884336" id="Fill-434" fill="#FEFBFB"></path>
                                        <path d="M53.5938854,38.246746 L53.5938854,38.246746 C53.1151832,38.108584 52.8375619,37.6041954 52.9750753,37.1258824 L55.5722615,28.1344547 C55.7097749,27.6561417 56.214423,27.377742 56.6931251,27.515904 C57.17053,27.6540661 57.4494486,28.1583249 57.310638,28.6366379 L54.714749,37.6280656 C54.5759383,38.1063786 54.0725876,38.3847783 53.5938854,38.246746" id="Fill-435" fill="#FEFBFB"></path>
                                        <path d="M26.3156459,24.7784801 C25.6747818,24.7784801 25.1532689,25.2993444 25.1532689,25.9399491 L25.1532689,35.2318305 C25.1532689,35.8723054 25.6747818,36.3934292 26.3156459,36.3934292 L37.6319575,36.3934292 C38.2728216,36.3934292 38.7930373,35.8723054 38.7930373,35.2318305 L38.7930373,25.9399491 C38.7930373,25.2993444 38.2728216,24.7784801 37.6319575,24.7784801 L26.3156459,24.7784801 M37.6319575,37.9420112 L26.3156459,37.9420112 C24.8211611,37.9420112 23.6042977,36.7260558 23.6042977,35.2318305 L23.6042977,25.9399491 C23.6042977,24.4457237 24.8211611,23.2297684 26.3156459,23.2297684 L37.6319575,23.2297684 C39.1264423,23.2297684 40.3420085,24.4457237 40.3420085,25.9399491 L40.3420085,35.2318305 C40.3420085,36.7260558 39.1264423,37.9420112 37.6319575,37.9420112" id="Fill-436" fill="#406045"></path>
                                        <path d="M44.8994087,24.7784801 C44.2585446,24.7784801 43.7370317,25.2993444 43.7370317,25.9399491 L43.7370317,35.2318305 C43.7370317,35.8723054 44.2585446,36.3934292 44.8994087,36.3934292 L56.2157203,36.3934292 C56.8565844,36.3934292 57.3768,35.8723054 57.3768,35.2318305 L57.3768,25.9399491 C57.3768,25.2993444 56.8565844,24.7784801 56.2157203,24.7784801 L44.8994087,24.7784801 M56.2157203,37.9420112 L44.8994087,37.9420112 C43.4049239,37.9420112 42.1893577,36.7260558 42.1893577,35.2318305 L42.1893577,25.9399491 C42.1893577,24.4457237 43.4049239,23.2297684 44.8994087,23.2297684 L56.2157203,23.2297684 C57.7102051,23.2297684 58.9257713,24.4457237 58.9257713,25.9399491 L58.9257713,35.2318305 C58.9257713,36.7260558 57.7102051,37.9420112 56.2157203,37.9420112" id="Fill-437" fill="#406045"></path>
                                        <path d="M42.5007087,30.9730677 L40.0306575,30.9730677 C39.6453606,30.9730677 39.3301177,30.6575654 39.3301177,30.2718793 L39.3301177,30.1254146 C39.3301177,29.7398583 39.6453606,29.4243559 40.0306575,29.4243559 L42.5007087,29.4243559 C42.8860056,29.4243559 43.2012485,29.7398583 43.2012485,30.1254146 L43.2012485,30.2718793 C43.2012485,30.6575654 42.8860056,30.9730677 42.5007087,30.9730677" id="Fill-438" fill="#406045"></path>
                                        <path d="M30.521479,11.4906681 C30.8600732,11.4906681 30.8600732,10.9648741 30.521479,10.9648741 C30.1828848,10.9648741 30.1828848,11.4906681 30.521479,11.4906681" id="Fill-439" fill="#7D3223"></path>
                                        <path d="M30.7848301,11.1311874 C30.775749,11.047901 30.7679652,10.9646146 30.7601815,10.8813282 C30.5967222,10.9254363 30.4332629,10.9696741 30.2698036,11.0140416 C31.6540183,14.2244596 34.5910961,16.6158947 38.0120652,17.330575 C38.3428756,17.3994614 38.4842808,16.8927377 38.1521731,16.8234621 C34.8479606,16.133171 32.0587746,13.847206 30.7238572,10.7486149 C30.6213708,10.5121179 30.2088307,10.6288745 30.2334794,10.8813282 C30.2425604,10.9646146 30.2503442,11.047901 30.258128,11.1311874 C30.2918577,11.4648519 30.8185598,11.4682249 30.7848301,11.1311874" id="Fill-440" fill="#7D3223"></path>
                                        <path d="M35.0490415,13.1912932 C37.5061198,16.5493435 41.3642776,18.6737951 45.5182188,18.9442813 C45.8568131,18.9663353 45.8555158,18.4404116 45.5182188,18.4184873 C41.5653584,18.1609741 37.8434167,16.1239602 35.503095,12.9259962 C35.3046088,12.6556398 34.8479606,12.9176935 35.0490415,13.1912932" id="Fill-441" fill="#7D3223"></path>
                                        <polyline id="Fill-442" fill="#8AB1B3" points="35.4576897 65.0438184 47.8468649 65.0438184 52.4937785 64.2693328 61.0105257 69.6894348 54.8159381 117.697164 43.9757341 130.860825 31.5865589 115.375005 27.7141309 65.0438184 29.2631021 64.2693328 35.4576897 65.0438184"></polyline>
                                        <path d="M44.0094638,78.5253167 L43.0611405,77.3875882 L42.4267629,72.7873772 L40.1046033,72.7873772 L40.0643872,75.0498612 L38.3999566,77.8234796 C38.3999566,77.8234796 38.2883892,77.9363444 37.9290382,77.9363444 C37.3906605,77.9363444 36.2970401,77.6833717 34.1941235,76.4224002 C32.1729366,75.2094285 30.7627761,72.505864 29.9882904,70.6442445 C29.8858041,69.9385156 29.7911015,69.2457596 29.70548,68.5698685 L30.1712092,68.414193 C32.4336931,73.3945117 38.1456866,75.8840224 38.1456866,75.8840224 C38.1456866,75.8840224 38.1456866,75.1354827 40.7402783,65.554953 L41.0088185,65.5238179 C43.611194,75.1341854 43.611194,75.8840224 43.611194,75.8840224 C43.611194,75.8840224 52.2330221,72.1257564 52.4872921,64.6092243 C52.767508,64.954305 53.1242643,65.4784125 53.1242643,65.9052228 C53.8248041,72.9158095 44.0094638,78.5253167 44.0094638,78.5253167" id="Fill-443" fill="#7A9697"></path>
                                        <path d="M43.2012485,73.5605655 L39.3301177,73.5605655 C38.4777944,73.5605655 37.7811465,72.8639177 37.7811465,72.0128916 L37.7811465,68.9149492 C37.7811465,68.0639231 38.4777944,67.3659779 39.3301177,67.3659779 L43.2012485,67.3659779 C44.0535719,67.3659779 44.7502197,68.0639231 44.7502197,68.9149492 L44.7502197,72.0128916 C44.7502197,72.8639177 44.0535719,73.5605655 43.2012485,73.5605655" id="Fill-444" fill="#C76683"></path>
                                        <polyline id="Fill-445" fill="#C76683" points="48.6213505 117.697164 42.4267629 72.7873772 40.1046033 72.7873772 39.3301177 117.697164 43.9757341 122.344078 48.6213505 117.697164"></polyline>
                                        <path d="M32.678882,58.8487119 C32.678882,58.8487119 34.7286094,65.0438184 40.8777917,65.0438184 C38.1456866,75.1095368 38.1456866,75.8840224 38.1456866,75.8840224 C38.1456866,75.8840224 29.2631021,72.0128916 29.2631021,64.2693328 C31.3128295,60.3974237 32.678882,58.8487119 32.678882,58.8487119" id="Fill-446" fill="#95BFC4"></path>
                                        <g id="Group-455" transform="translate(0.000000, 58.834961)">
                                            <mask id="mask-43" fill="white">
                                                <use xlink:href="#path-42"></use>
                                            </mask>
                                            <g id="Clip-448"></g>
                                            <path d="M49.0767013,0.0137513358 C49.0767013,0.0137513358 47.0269739,6.20885785 40.8777917,6.20885785 C43.611194,16.2745762 43.611194,17.0490618 43.611194,17.0490618 C43.611194,17.0490618 52.4937785,13.1779311 52.4937785,5.43437224 C50.4440511,1.5624631 49.0767013,0.0137513358 49.0767013,0.0137513358" id="Fill-447" fill="#95BFC4" mask="url(#mask-43)"></path>
                                            <path d="M18.4228981,11.6289598 C18.4228981,11.6289598 24.6174857,46.4730286 22.2940289,67.3802482 C19.9718693,88.2874678 18.4228981,112.291333 18.4228981,112.291333 C18.4228981,112.291333 25.7785655,123.906022 44.1690312,116.550355 C45.5247053,101.451129 44.5569226,71.0580819 44.5569226,71.0580819 C44.5569226,71.0580819 30.8120733,26.3402946 29.2631021,5.43437224 C20.7463549,10.0799886 18.4228981,11.6289598 18.4228981,11.6289598" id="Fill-449" fill="#463C59" mask="url(#mask-43)"></path>
                                            <path d="M64.8829537,10.0799886 C64.8829537,10.0799886 64.2498734,46.4730286 66.5720329,67.3802482 C68.8954897,88.2874678 70.444461,112.291333 70.444461,112.291333 C70.444461,112.291333 63.0874963,123.906022 44.6970306,116.550355 C43.3426537,101.451129 44.3104364,71.0580819 44.3104364,71.0580819 C44.3104364,71.0580819 52.4937785,27.1147802 54.0414525,6.20885785 C62.5594969,9.305503 64.8829537,10.0799886 64.8829537,10.0799886" id="Fill-450" fill="#463C59" mask="url(#mask-43)"></path>
                                            <path d="M64.1084681,28.6637514 C64.1084681,28.6637514 71.8507296,41.8274122 74.1741865,58.0877182 C64.1084681,68.9292194 60.2360401,72.0258646 50.9448073,78.2204522 C55.5904237,89.0619534 56.3649093,89.0619534 56.3649093,89.0619534 C56.3649093,89.0619534 87.3378473,65.831277 87.3378473,59.6366894 C87.3378473,53.4421018 78.8198028,20.9201926 74.9486721,16.2745762 C71.0775413,11.6289598 62.5594969,9.305503 62.5594969,9.305503 L64.1084681,28.6637514" id="Fill-451" fill="#463C59" mask="url(#mask-43)"></path>
                                            <path d="M62.47647,79.1233701 L24.2594321,103.264748 C23.6081895,103.677288 22.737704,103.480546 22.325164,102.828857 L6.45404676,77.7041284 C6.04280398,77.0528859 6.23888198,76.1824004 6.89123546,75.7698603 L45.1082734,51.6271849 C45.7595159,51.2159421 46.6300014,51.4120201 47.0425414,52.0643736 L62.9136587,77.1878047 C63.3249014,77.8403445 63.1288234,78.71083 62.47647,79.1233701" id="Fill-452" fill="#95938D" mask="url(#mask-43)"></path>
                                            <path d="M19.9718693,10.8544742 C19.9718693,10.8544742 10.6793393,13.9511194 6.80820852,27.1147802 C3.69859042,37.6877412 1.0884312,50.7579967 0.181621416,55.4931265 C-0.0908107082,56.9136654 -0.00778377499,58.3744205 0.434594104,59.7508514 C2.00691665,64.642954 7.5930725,76.3510489 26.9409425,89.8351418 C33.9100157,83.6405542 34.6832041,82.8660685 34.6832041,82.8660685 C34.6832041,82.8660685 14.5517673,65.0567914 13.0027961,58.8622038 C13.0027961,58.8622038 17.9065744,32.5361795 21.2626787,30.9872082 C24.6174857,29.438237 25.3919713,7.75653178 19.9718693,10.8544742" id="Fill-453" fill="#463C59" mask="url(#mask-43)"></path>
                                        </g>
                                        <path d="M53.8248041,12.9707529 C53.8248041,13.5515523 53.3538857,14.0224706 52.7739944,14.0224706 C52.1928059,14.0224706 51.7218875,13.5515523 51.7218875,12.9707529 C51.7218875,12.3899536 52.1928059,11.9190352 52.7739944,11.9190352 C53.3538857,11.9190352 53.8248041,12.3899536 53.8248041,12.9707529" id="Fill-456" fill="#87362E"></path>
                                        <path d="M46.8142174,8.41348239 C46.8142174,8.80072519 46.5002718,9.11454105 46.1123803,9.11454105 C45.7257862,9.11454105 45.4118406,8.80072519 45.4118406,8.41348239 C45.4118406,8.02623958 45.7257862,7.71229399 46.1123803,7.71229399 C46.5002718,7.71229399 46.8142174,8.02623958 46.8142174,8.41348239" id="Fill-457" fill="#87362E"></path>
                                        <path d="M26.4816998,15.424588 C26.4816998,15.8118308 26.1677542,16.1256466 25.7798628,16.1256466 C25.3932686,16.1256466 25.079323,15.8118308 25.079323,15.424588 C25.079323,15.0373452 25.3932686,14.7235293 25.7798628,14.7235293 C26.1677542,14.7235293 26.4816998,15.0373452 26.4816998,15.424588" id="Fill-458" fill="#87362E"></path>
                                        <path d="M32.1184502,7.71151561 C31.7539101,7.71151561 31.398451,7.5228888 31.2051539,7.18637026 C30.915857,6.68561407 31.0883973,6.03904183 31.5891535,5.74974486 L36.4475264,2.94538046 C36.612283,2.8504184 36.7913098,2.80527251 36.9703366,2.80527251 C37.3348767,2.80527251 37.6890385,2.99389932 37.8836329,3.33041786 C38.1729298,3.83130378 38.0003895,4.47774629 37.498336,4.76691353 L32.6412604,7.57127793 C32.4765039,7.66636972 32.2961797,7.71151561 32.1184502,7.71151561" id="Fill-460" fill="#C45F48"></path>
                                        <path d="M29.8741284,23.2297684 L28.9802916,23.2297684 C29.0049402,23.1988927 29.0308861,23.1674982 29.056832,23.136882 L29.6367233,23.136882 C29.727534,23.136882 29.8105609,23.1721684 29.8741284,23.2297684" id="Fill-461" fill="#F3CEBE"></path>
                                        <path d="M28.9802916,23.2297684 L26.6075375,23.2297684 C26.6179159,23.1988927 26.6282942,23.1678873 26.6399699,23.136882 L29.056832,23.136882 C29.0308861,23.1674982 29.0049402,23.1988927 28.9802916,23.2297684" id="Fill-462" fill="#E0BD9F"></path>
                                        <path d="M25.8577005,23.268298 C25.9225653,23.1883846 26.0211598,23.136882 26.1314299,23.136882 L26.6399699,23.136882 C26.6282942,23.1678873 26.6179159,23.1988927 26.6075375,23.2297684 L26.3156459,23.2297684 C26.1586732,23.2297684 26.0068895,23.2430008 25.8577005,23.268298" id="Fill-463" fill="#C45F48"></path>
                                        <path d="M29.6367233,23.8380704 L26.1314299,23.8380704 C25.9381329,23.8380704 25.7798628,23.6803192 25.7798628,23.487541 C25.7798628,23.4047736 25.8097006,23.3284926 25.8577005,23.268298 C26.0068895,23.2430008 26.1586732,23.2297684 26.3156459,23.2297684 L29.8741284,23.2297684 C29.9428851,23.2939845 29.9869932,23.385833 29.9869932,23.487541 C29.9869932,23.6803192 29.8287231,23.8380704 29.6367233,23.8380704" id="Fill-464" fill="#5F9466"></path>
                                        <path d="M44.8228683,23.2308062 C44.8851385,23.1726873 44.9694627,23.136882 45.0615707,23.136882 L45.7608132,23.136882 C45.7465429,23.1669792 45.7322727,23.1979846 45.720597,23.2297684 L44.8994087,23.2297684 C44.8734628,23.2297684 44.8488142,23.2301575 44.8228683,23.2308062" id="Fill-465" fill="#F3CEBE"></path>
                                        <path d="M48.8042692,23.2297684 L45.720597,23.2297684 C45.7322727,23.1979846 45.7465429,23.1669792 45.7608132,23.136882 L48.5668641,23.136882 C48.6576748,23.136882 48.7407017,23.1721684 48.8042692,23.2297684" id="Fill-466" fill="#C45F4A"></path>
                                        <path d="M48.5668641,23.8380704 L45.0615707,23.8380704 C44.8682736,23.8380704 44.7100035,23.6803192 44.7100035,23.487541 C44.7100035,23.386352 44.7541116,23.2948926 44.8228683,23.2308062 C44.8488142,23.2301575 44.8734628,23.2297684 44.8994087,23.2297684 L48.8042692,23.2297684 C48.8730259,23.2939845 48.9171339,23.385833 48.9171339,23.487541 C48.9171339,23.6803192 48.7601611,23.8380704 48.5668641,23.8380704" id="Fill-467" fill="#5F9466"></path>
                                        <path d="M32.5426659,120.439648 C32.3078554,120.439648 32.0769367,120.321594 31.9446126,120.10754 C31.7422344,119.779324 31.8447208,119.34473 32.1729366,119.142352 L45.2937867,111.032956 C45.4079487,110.962902 45.5350837,110.929172 45.6596241,110.929172 C45.8957319,110.929172 46.1266506,111.047226 46.2589748,111.26128 C46.4613529,111.589496 46.3588665,112.02409 46.0306507,112.226468 L32.9098007,120.334567 C32.7956386,120.405918 32.6685036,120.439648 32.5426659,120.439648" id="Fill-468" fill="#C9C6C0"></path>
                                        <path d="M36.5876343,66.4500871 C36.4436345,66.4500871 36.2983374,66.405979 36.173797,66.313871 L32.7852603,63.8204684 C32.4752066,63.5925336 32.4077472,63.151453 32.6360712,62.8408804 C32.7722873,62.6547184 32.9863411,62.5559942 33.2016922,62.5559942 C33.3469894,62.5559942 33.4922865,62.6001023 33.6155296,62.6916913 L37.0040663,65.1852237 C37.3154173,65.4135477 37.3828767,65.8546283 37.1545526,66.164682 C37.0170393,66.3514926 36.8029854,66.4500871 36.5876343,66.4500871" id="Fill-469" fill="#C8E0E0"></path>
                                        <path d="M44.2935716,66.9560325 C44.0509773,66.9560325 43.8135721,66.8301948 43.6838425,66.6057626 C43.4918428,66.2723576 43.6073021,65.8416553 43.9407071,65.6483583 L47.5835138,63.5450525 C47.693784,63.4817445 47.8131352,63.4516472 47.9324864,63.4516472 C48.1750807,63.4516472 48.4124858,63.5773552 48.5409181,63.8023063 C48.7342152,64.1357113 48.6187559,64.5664135 48.2853509,64.7597106 L44.6412469,66.8626272 C44.532274,66.9261947 44.4116255,66.9560325 44.2935716,66.9560325" id="Fill-470" fill="#C8E0E0"></path>
                                        <path d="M19.4698158,77.8234796 C19.4698158,78.5979653 18.8419247,79.2258564 18.0687363,79.2258564 C17.2942507,79.2258564 16.6663596,78.5979653 16.6663596,77.8234796 C16.6663596,77.048994 17.2942507,76.4224002 18.0687363,76.4224002 C18.8419247,76.4224002 19.4698158,77.048994 19.4698158,77.8234796" id="Fill-471" fill="#3C374F"></path>
                                        <path d="M58.0319344,88.340657 C58.0319344,89.1151426 57.4040433,89.7430338 56.6295576,89.7430338 C55.855072,89.7430338 55.2271809,89.1151426 55.2271809,88.340657 C55.2271809,87.5661713 55.855072,86.9382802 56.6295576,86.9382802 C57.4040433,86.9382802 58.0319344,87.5661713 58.0319344,88.340657" id="Fill-472" fill="#3C374F"></path>
                                        <path d="M58.7324742,103.765504 C58.7324742,104.152099 58.4185286,104.466044 58.0319344,104.466044 C57.644043,104.466044 57.3300974,104.152099 57.3300974,103.765504 C57.3300974,103.377613 57.644043,103.063667 58.0319344,103.063667 C58.4185286,103.063667 58.7324742,103.377613 58.7324742,103.765504" id="Fill-473" fill="#3C374F"></path>
                                    </g>
                                </g>
                            </g>
                        </g>
                    </g>
                </g>
            </g>
        </g>
    </g>
</svg>