<?xml version="1.0" encoding="UTF-8"?>
<svg width="30px" height="31px" viewBox="0 0 30 31" version="1.1" xmlns="http://www.w3.org/2000/svg" xmlns:xlink="http://www.w3.org/1999/xlink">
    <!-- Generator: Sketch 63.1 (92452) - https://sketch.com -->
    <title>Group 7</title>
    <desc>Created with Sketch.</desc>
    <g id="Artboards" stroke="none" stroke-width="1" fill="none" fill-rule="evenodd">
        <g id="Teste---Isolamento" transform="translate(-188.000000, -912.000000)" fill-rule="nonzero">
            <g id="Group-10" transform="translate(22.000000, 888.000000)">
                <g id="registro-realizado-copy-4" transform="translate(150.000000, 0.000000)">
                    <g id="Group-7" transform="translate(16.000000, 24.000000)">
                        <path d="M22.0745251,29.498 L1.45694368,29.498 C1.08891267,29.498 0.765734375,29.1135469 0.765734375,28.6414844 L0.765734375,24.527125 C0.765734375,20.3181562 3.45075763,16.9197656 6.73216848,16.9197656 L16.7993003,16.9197656 C20.0807111,16.9197656 22.7657344,20.3181562 22.7657344,24.527125 L22.7657344,28.6414844 C22.7657344,29.1135469 22.4425561,29.498 22.0745251,29.498 Z" id="Path" fill="#FFD3B4"></path>
                        <path d="M15.1633125,14.455 C19.1486094,14.455 22.3908125,11.2127969 22.3908125,7.2275 C22.3908125,3.24220312 19.1486094,-3.41060513e-14 15.1633125,-3.41060513e-14 C11.1780156,-3.41060513e-14 7.9358125,3.24220312 7.9358125,7.2275 C7.9358125,11.2127969 11.1780156,14.455 15.1633125,14.455 Z M15.1633125,1.69476562 C18.2141094,1.69476562 20.6960469,4.1768125 20.6960469,7.2275 C20.6960469,10.2781875 18.214,12.7602344 15.1633125,12.7602344 C12.1125156,12.7602344 9.63057812,10.2781875 9.63057812,7.2275 C9.63057812,4.1768125 12.1125156,1.69476562 15.1633125,1.69476562 Z" id="Shape" fill="#FB7D24"></path>
                        <path d="M2.37278125,21.4649531 C2.58475,21.0476875 2.419375,20.5376719 2.00210937,20.3257031 C1.58473437,20.1138437 1.10020312,20.2802031 0.88834375,20.6974687 C0.28196875,21.8912969 0,23.1797344 0,24.5272344 L0,28.6415937 C0,29.5800312 0.71378125,30.3731094 1.65221875,30.3731094 L28.0977813,30.3731094 C29.0362187,30.3731094 29.75,29.5801406 29.75,28.6415937 L29.75,24.5272344 C29.75,19.8576875 26.0009531,16.044875 21.3314062,16.044875 L8.41870312,16.044875 C6.72175,16.044875 5.08429687,16.5521562 3.68342187,17.4985781 C3.29557812,17.7606406 3.19364062,18.2907812 3.45559375,18.678625 C3.71754687,19.0664687 4.24440625,19.1907187 4.63203125,18.9287656 C5.7518125,18.1723281 7.06103125,17.794875 8.41870312,17.794875 L21.3315156,17.794875 C25.0665625,17.794875 28.1053281,20.8128594 28.1053281,24.5479062 L28.0826875,28.6592031 L23.7344844,28.6477187 L23.7344844,24.6806875 C23.7344844,24.2126719 23.3821875,23.8333594 22.9141719,23.8333594 C22.4461562,23.8333594 22.0938594,24.2127812 22.0938594,24.6806875 L22.0938594,28.6472812 L7.65635937,28.6432344 L7.65635937,24.6806875 C7.65635937,24.2126719 7.249375,23.8333594 6.78135937,23.8333594 C6.31334375,23.8333594 5.90635937,24.2127812 5.90635937,24.6806875 L5.90635937,28.6427969 L1.64073437,28.6415937 L1.64073437,24.5272344 C1.64073437,23.4490156 1.88846875,22.4187031 2.37278125,21.4649531 Z" id="Path" fill="#FB7D24"></path>
                    </g>
                </g>
            </g>
        </g>
    </g>
</svg>