<?xml version="1.0" encoding="UTF-8"?>
<svg width="30px" height="30px" viewBox="0 0 30 30" version="1.1" xmlns="http://www.w3.org/2000/svg" xmlns:xlink="http://www.w3.org/1999/xlink">
    <!-- Generator: Sketch 63.1 (92452) - https://sketch.com -->
    <title>Path</title>
    <desc>Created with Sketch.</desc>
    <g id="Artboards" stroke="none" stroke-width="1" fill="none" fill-rule="evenodd">
        <g id="Teste---To-bem" transform="translate(-43.000000, -618.000000)" fill="#1AB3A9" fill-rule="nonzero">
            <g id="Group-10" transform="translate(27.000000, 594.000000)">
                <g id="registro-realizado-copy-4">
                    <g id="cursor" transform="translate(16.000000, 24.000000)">
                        <path d="M28.828125,20.5078125 C29.4753516,20.5078125 30,19.9831641 30,19.3359375 L30,14.0164453 C30,12.0739453 28.5566602,10.6640625 26.5681055,10.6640625 C26.0144531,10.6640625 25.477793,10.8124805 25.0026563,11.0824219 C24.8692969,10.9233984 24.7154883,10.7711133 24.5428125,10.6285547 C23.8869727,10.087207 23.0782617,9.78902344 22.2656836,9.78902344 C21.5456836,9.78902344 20.8543945,10.0268555 20.2886133,10.4462109 C20.2532227,10.4119922 20.2168359,10.3783594 20.1796875,10.3454297 C19.5581836,9.79523437 18.7591406,9.4921875 17.9296875,9.4921875 C17.5846289,9.4921875 17.249707,9.54492188 16.9335938,9.64359375 L16.9335938,3.33984375 C16.9335938,1.49824219 15.4353516,0 13.59375,0 C11.7521484,0 10.2539062,1.49824219 10.2539062,3.33984375 L10.2539062,17.8978711 C10.2539062,18.4929492 9.86689453,19.3327148 9.2334375,19.3920703 L4.76595703,17.3426953 C4.73074219,17.326582 4.69476562,17.312168 4.65814453,17.2995703 C4.29087891,17.1733594 3.90650391,17.109375 3.515625,17.109375 C1.57710937,17.109375 0,18.6864844 0,20.625 C0,21.5772656 0.37453125,22.4688867 1.05462891,23.1355664 C1.09810547,23.1781641 1.14480469,23.2173633 1.194375,23.2526953 L2.13339844,23.9227148 C2.15308594,23.9367773 2.17318359,23.9501953 2.19369141,23.9630273 L7.85009766,27.4921875 C10.4796094,29.1328125 13.507793,30 16.6072266,30 L23.4667969,30 C26.2607812,30 28.7432227,28.2296484 29.644043,25.5946289 C29.8533984,24.982207 29.5266797,24.3160547 28.9142578,24.1066406 C28.3018359,23.8972266 27.635625,24.2240039 27.4262695,24.8364258 C26.849707,26.5231055 25.2585352,27.65625 23.4667969,27.65625 L16.6072266,27.65625 C13.9468945,27.65625 11.3477344,26.911875 9.09070312,25.5036914 L3.46517578,21.99375 L2.64269531,21.4069336 C2.44933594,21.1917773 2.34375,20.9169141 2.34375,20.625 C2.34375,19.9788281 2.86945313,19.453125 3.515625,19.453125 C3.63041016,19.453125 3.74291016,19.4693555 3.85078125,19.5014648 L8.31902344,21.5511328 C8.34603516,21.5635547 8.37357422,21.5749219 8.40152344,21.5852344 C8.70720703,21.6981445 8.99478516,21.7477734 9.28089844,21.7368164 C11.3295703,21.6585937 12.5976562,19.6831641 12.5976562,17.8978711 L12.5976562,3.33984375 C12.5976562,2.79058594 13.0444922,2.34375 13.59375,2.34375 C14.1430078,2.34375 14.5898438,2.79058594 14.5898438,3.33984375 L14.5898438,13.1226563 C14.5898438,13.7698828 15.1144922,14.2945313 15.7617188,14.2945313 C16.4089453,14.2945313 16.9335938,13.7698828 16.9335938,13.1226563 L16.9335938,12.6905273 C16.9448438,12.6581836 16.9547461,12.6251367 16.9632422,12.5913281 C17.07375,12.1536328 17.4801563,11.8359375 17.9296875,11.8359375 C18.4395117,11.8359375 18.890625,12.21375 18.9148242,12.6608789 C18.9745898,13.7673047 19.7389453,14.0625 20.1811523,14.0625 C20.6238281,14.0625 21.2047266,13.7932031 21.3850781,13.0342383 C21.4140234,12.9125391 21.4340039,12.7839258 21.4533984,12.6595312 C21.4589063,12.6242578 21.4657617,12.5799609 21.4724414,12.54 C21.6609375,12.2862305 21.9553125,12.1327734 22.265625,12.1327734 C22.7803125,12.1327734 23.1744727,12.5123438 23.2662891,12.67125 C23.266875,12.6775781 23.2674609,12.6839062 23.2681641,12.6901758 C23.2702148,12.7096289 23.2891406,12.8851758 23.324707,13.0689258 C23.5392187,14.1771094 24.281543,14.2967578 24.5907422,14.2967578 C24.8690625,14.2967578 25.3900195,14.1986133 25.7526562,13.54125 C25.8216797,13.4160937 26.0845898,13.0076953 26.5681055,13.0076953 C26.895293,13.0076953 27.65625,13.105957 27.65625,14.0163281 L27.65625,19.3359375 C27.65625,19.9831641 28.1808984,20.5078125 28.828125,20.5078125 Z" id="Path"></path>
                    </g>
                </g>
            </g>
        </g>
    </g>
</svg>