<?xml version="1.0" encoding="UTF-8"?>
<svg width="139px" height="96px" viewBox="0 0 139 96" version="1.1" xmlns="http://www.w3.org/2000/svg" xmlns:xlink="http://www.w3.org/1999/xlink">
    <!-- Generator: Sketch 63.1 (92452) - https://sketch.com -->
    <title>Path</title>
    <desc>Created with Sketch.</desc>
    <g id="Artboards" stroke="none" stroke-width="1" fill="none" fill-rule="evenodd" opacity="0.0984933036">
        <g id="Teste---Grave" transform="translate(-166.000000, -491.000000)" fill="#DB1515">
            <g id="registro-realizado-copy-5" transform="translate(-16.000000, 491.000000)">
                <path d="M320.027301,23.1579483 L304.728766,-2.14812069 C304.021163,-3.31677586 302.502404,-3.69153448 301.333749,-2.98393103 L268.451145,16.8955345 L268.451145,-21.5270862 C268.451145,-22.8929828 267.344128,-24 265.978232,-24 L236.406818,-24 C235.040921,-24 233.933904,-22.8929828 233.933904,-21.5270862 L233.933904,16.8955345 L201.053766,-2.98393103 C199.885111,-3.69153448 198.366352,-3.31677586 197.658749,-2.14812069 L182.357749,23.1579483 C181.650145,24.3266034 182.024904,25.8453621 183.193559,26.5529655 L217.839007,47.5 L183.193559,68.4470345 C182.024904,69.1546379 181.650145,70.6733966 182.357749,71.8420517 L197.658749,97.1481207 C198.366352,98.3167759 199.885111,98.6915345 201.053766,97.983931 L233.933904,78.1044655 L233.933904,116.527086 C233.933904,117.892983 235.040921,119 236.406818,119 L265.978232,119 C267.344128,119 268.451145,117.892983 268.451145,116.527086 L268.451145,78.1044655 L301.333749,97.983931 C302.502404,98.6915345 304.021163,98.3167759 304.728766,97.1481207 L320.027301,71.8420517 C320.734904,70.6733966 320.360145,69.1546379 319.19149,68.4470345 L284.548507,47.5 L319.19149,26.5529655 C320.360145,25.8453621 320.734904,24.3266034 320.027301,23.1579483 Z" id="Path"></path>
            </g>
        </g>
    </g>
</svg>