<?xml version="1.0" encoding="UTF-8"?>
<svg width="31px" height="34px" viewBox="0 0 31 34" version="1.1" xmlns="http://www.w3.org/2000/svg" xmlns:xlink="http://www.w3.org/1999/xlink">
    <!-- Generator: Sketch 63.1 (92452) - https://sketch.com -->
    <title>cough</title>
    <desc>Created with Sketch.</desc>
    <g id="Artboards" stroke="none" stroke-width="1" fill="none" fill-rule="evenodd">
        <g id="Teste---Isolamento" transform="translate(-37.000000, -912.000000)">
            <g id="Group-10" transform="translate(22.000000, 888.000000)">
                <g id="registro-realizado-copy-4">
                    <g id="cough" transform="translate(15.000000, 24.000000)">
                        <path d="M11.971925,10.6341664 C18.3800827,12.308556 20.4122982,12.4216604 26.3420029,13.1263223 L25.9322367,9.36025397 C25.8117403,8.23660221 25.8691756,7.88427128 26.4291371,7.33170178 C27.3154594,6.46022896 28.6541991,5.78892929 28.8136181,3.17444541 C25.9303396,3.91057239 25.3369505,4.37044733 22.8486542,2.83513228 C15.4115017,-1.75040308 11.5287965,2.03411255 8.96998172,3.92548725 C6.62625493,3.07069553 4.5458278,4.74508514 4.20834632,7.01469553 C3.88388264,9.20639538 3.88198557,9.92773834 3.88198557,13.1263223 C5.61197884,11.4352516 6.85429533,10.8455911 8.75299663,10.3115344 C10.0991938,9.93513035 10.6665474,10.2930216 11.971925,10.6341664 Z" id="Path" fill="#E3C0FF"></path>
                        <path d="M10.5497797,30.7509803 C10.9484252,30.7509803 11.4546147,31.021672 11.6734315,31.3554901 L12.6468879,32.8388648 C13.4571967,31.3666109 14.2934103,29.9165329 15.0462184,28.5536546 C17.1692968,24.7116383 18.6229726,21.568658 16.9115575,20.624835 C15.2038057,19.6847407 10.5553401,21.1254642 6.98970659,24.1979913 C5.71958826,25.2920096 4.58847908,26.5955556 3.77450697,28.0697066 L5.54898316,28.0641462 C5.94946032,28.0641462 6.45571525,28.3348379 6.67446657,28.6686561 L7.64975469,30.1520308 C7.86857143,30.4857835 8.37476094,30.7583723 8.77340645,30.7565406 L10.5497797,30.7509803 Z" id="Path" fill="#E3C0FF"></path>
                        <g id="Group" fill="#8E2CDC" fill-rule="nonzero">
                            <path d="M14.4464185,0.190295334 C17.1394671,-0.372609909 20.0001116,0.31039923 23.1919577,2.27844156 C25.1422068,3.48163925 25.633089,3.34930255 27.6993208,2.79254642 C27.9820491,2.7163367 28.3025878,2.62998749 28.6519096,2.5408254 C28.8545031,2.48914671 29.0693949,2.53729293 29.2305147,2.67048004 C29.3916344,2.80366715 29.479292,3.00580279 29.4666013,3.21441462 C29.3170601,5.66633959 28.1699894,6.66589707 27.3324675,7.39574411 C27.1725907,7.53508033 27.021545,7.66663203 26.8877691,7.79818374 C26.5407369,8.14057143 26.4710034,8.24948918 26.5826686,9.29058586 L26.5826686,9.29058586 L26.9288504,12.4721616 L27.8013045,12.4721616 C28.5633362,12.4721616 29.224431,12.8172968 29.6631111,13.4439173 C30.0228995,13.9580875 30.2211101,14.6499278 30.2211101,15.3920731 C30.2211101,17.0837326 29.1702665,18.8816931 27.2227648,18.8816931 L27.2227648,18.8816931 L26.7937008,18.8816931 C26.4920019,20.2481039 25.8594286,21.6811082 24.940202,23.051444 C24.813949,23.2395806 24.607038,23.3412371 24.3963983,23.3412371 C24.2710611,23.3412371 24.144481,23.3053237 24.0326195,23.2302915 C23.7326215,23.0290717 23.6525522,22.6227071 23.853772,22.322709 C25.0365599,20.5593535 25.6879076,18.7112189 25.6879076,17.1187302 L25.6879076,17.1187302 L25.6879076,13.7078711 C25.214557,13.652202 24.7658682,13.6000654 24.3380471,13.5504146 C19.7931352,13.0227686 17.5118807,12.7579644 11.8065532,11.2671977 C11.5399173,11.1975296 11.3014757,11.1267494 11.0910322,11.0642771 C10.2512208,10.8150418 9.82948341,10.6899009 8.92922751,10.9416219 C7.21604618,11.4234767 6.09442232,11.9272458 4.53614622,13.4049293 L4.53614622,13.4049293 L4.53614622,17.1186647 C4.53614622,19.0205714 5.47656758,21.2865839 7.07415873,23.2802039 C8.06769793,22.4835017 9.16786532,21.7722328 10.3390746,21.1798903 C13.2118865,19.7269995 15.8510976,19.2947302 17.2269283,20.0520519 C17.7278846,20.3281732 18.0613757,20.748406 18.2182434,21.3011717 C18.6371025,22.7765002 17.6977932,25.0063377 16.2052602,27.7954824 C16.6656585,27.7101145 17.1511765,27.5715633 17.6818971,27.3749226 C18.4265281,27.0977547 19.1713555,26.7189303 19.8947917,26.2492429 C20.1977989,26.0525368 20.6029206,26.1386243 20.7995613,26.4416316 C20.9963329,26.7446388 20.9102453,27.149695 20.6071727,27.3464666 C19.8035363,27.8682905 18.972556,28.2904858 18.1373237,28.601343 C17.1473824,28.968 16.2800962,29.1607157 15.4364906,29.2000308 C15.1393054,29.7338259 14.8288408,30.2842367 14.5088908,30.8511323 C14.0851255,31.6021087 13.6468379,32.3785974 13.2199327,33.1543665 C13.1093141,33.3553247 12.9014873,33.4837364 12.6722039,33.492633 C12.6636999,33.4930909 12.6551958,33.4930909 12.6467571,33.4930909 C12.4269591,33.4930909 12.2210948,33.3826032 12.0999442,33.1978682 L12.0999442,33.1978682 L11.1264877,31.7144935 C11.0297374,31.5669803 10.7279731,31.4052718 10.5497143,31.4052718 L10.5497143,31.4052718 L8.77543434,31.4108321 C8.15515921,31.4108321 7.43963829,31.0248773 7.10268013,30.5108379 L7.10268013,30.5108379 L6.12784993,29.0281828 C6.0308379,28.8801462 5.72809235,28.7184377 5.54891775,28.7184377 L5.54891775,28.7184377 L3.77646946,28.7239981 C3.54345743,28.7239981 3.32961231,28.6021279 3.21173256,28.4033939 C3.09359115,28.2040058 3.0897316,27.9570601 3.20159307,27.7540741 C3.90828283,26.4718538 4.89547667,25.2419663 6.08323617,24.1364348 C4.72761905,22.4597557 3.80852333,20.6302646 3.42714767,18.8815623 L3.42714767,18.8815623 L2.99939202,18.8815623 C1.05189033,18.8815623 0.00104665705,17.0836017 0.00104665705,15.3919423 C0.00104665705,14.6499278 0.199257335,13.958153 0.559111111,13.4439827 C0.997791246,12.8173622 1.658886,12.472227 2.42091775,12.472227 L2.42091775,12.472227 L3.22808658,12.472227 C3.22965657,9.81411063 3.25202886,9.00825012 3.56131602,6.91886099 C3.76946994,5.51876094 4.57304089,4.27886484 5.71082251,3.60187398 C6.65896296,3.03779125 7.7605695,2.89904377 8.84752285,3.19982684 C8.94898316,3.12296296 9.05299471,3.04341703 9.16027706,2.9614507 C10.4965964,1.93978259 12.1597345,0.66835594 14.4464185,0.190295334 Z M16.5957941,21.1977489 C15.7884291,20.7533122 13.5826647,21.0052294 10.92952,22.3471092 C8.45698894,23.5976027 6.33240596,25.4066186 4.950557,27.4118826 L4.950557,27.4118826 L5.54695527,27.4099856 C6.16618374,27.4099856 6.88523713,27.7969216 7.22154113,28.3099798 L7.22154113,28.3099798 L8.19637133,29.7927003 C8.29371044,29.9411948 8.59259644,30.1024454 8.76902357,30.1024454 L8.76902357,30.1024454 L8.77039731,30.1024454 L10.5477518,30.096885 C11.1659336,30.096885 11.884202,30.4838211 12.220506,30.9968793 L12.220506,30.9968793 L12.6001809,31.5754844 C12.8583781,31.1139086 13.1165099,30.6564541 13.3696046,30.2080924 C15.3378432,26.7204348 17.3731332,23.1140471 16.9598345,21.658278 C16.8993247,21.4452179 16.7870707,21.3031996 16.5957941,21.1977489 Z M22.0431207,24.506886 C22.2986359,24.2514363 22.7127196,24.2514363 22.9682347,24.506886 C23.2236845,24.7623357 23.2236845,25.1765503 22.9682347,25.432 C22.8402809,25.5599538 22.672227,25.6240616 22.504304,25.6240616 C22.3370351,25.6240616 22.1697662,25.5604117 22.0422703,25.4329158 C21.7868206,25.1774661 21.7858393,24.7641674 22.0412891,24.5087177 L22.0412891,24.5087177 Z M14.386759,22.6354632 C14.7379779,22.5499644 15.091748,22.7648562 15.1773776,23.1158134 C15.2630726,23.4667706 15.04805,23.8207369 14.6970928,23.9064319 C13.5050159,24.197468 12.2413083,24.7467013 11.0425589,25.494734 C10.9348187,25.5619163 10.8151727,25.5939702 10.6969004,25.5939702 C10.4786724,25.5939702 10.2654161,25.4848562 10.1413872,25.2860568 C9.95011063,24.9795825 10.0435248,24.5760962 10.349999,24.3848196 C11.6653199,23.5639788 13.0612333,22.9590765 14.386759,22.6354632 Z M21.2988822,15.1689389 C21.6188975,15.0011467 22.0142068,15.1245868 22.181999,15.4444714 C22.3497258,15.7643559 22.2263511,16.1597306 21.9064666,16.3275228 L21.9064666,16.3275228 L20.2743357,17.1834266 L21.9064666,18.0393304 C22.2264165,18.2071227 22.3497258,18.6024974 22.181999,18.9223819 C22.0650351,19.1453853 21.837518,19.2728812 21.6020856,19.2728812 C21.4997095,19.2728812 21.3958288,19.2488081 21.2988822,19.1979144 L21.2988822,19.1979144 L18.5621356,17.7626859 C18.3467205,17.6497778 18.2118326,17.4266436 18.2118326,17.1834266 C18.2118326,16.9402097 18.3467205,16.7170755 18.5621356,16.6041674 L18.5621356,16.6041674 Z M8.04022318,15.4444714 C8.20808081,15.1245214 8.60345551,15.0010813 8.92334007,15.1689389 L8.92334007,15.1689389 L11.6600866,16.6041674 C11.8755017,16.7170755 12.0103896,16.9402097 12.0103896,17.1834266 C12.0103896,17.4266436 11.8755017,17.6497778 11.6600866,17.7626859 L11.6600866,17.7626859 L8.92334007,19.1979144 C8.82639346,19.2487427 8.72244733,19.2728812 8.6201366,19.2728812 C8.38463877,19.2728812 8.15718711,19.1453853 8.04022318,18.9223819 C7.87249639,18.6024974 7.99587109,18.2071227 8.31575565,18.0393304 L8.31575565,18.0393304 L9.94788648,17.1834266 L8.31575565,16.3275228 C7.99580568,16.1597306 7.87249639,15.7643559 8.04022318,15.4444714 Z M3.22795575,13.7804175 L2.42098316,13.7804175 C2.08422126,13.7804175 1.8258278,13.9157633 1.63101876,14.1941087 C1.42659355,14.486126 1.30936797,14.9227128 1.30936797,15.3918769 C1.30936797,16.2687138 1.7594305,17.573241 2.99945743,17.573241 L2.99945743,17.573241 L3.24188937,17.573241 C3.2326657,17.4204945 3.22795575,17.26886 3.22795575,17.1185339 L3.22795575,17.1185339 L3.22795575,13.7804175 Z M27.8013045,13.7804175 L26.9961635,13.7804175 L26.9961635,17.1185339 C26.9961635,17.2684021 26.9908648,17.4201674 26.9813141,17.573241 L26.9813141,17.573241 L27.2227648,17.573241 C28.4627917,17.573241 28.9129197,16.2687138 28.9129197,15.3918769 C28.9129197,14.9227128 28.7956941,14.486126 28.5912689,14.1941087 C28.3964598,13.9157633 28.1380664,13.7804175 27.8013045,13.7804175 L27.8013045,13.7804175 Z M22.5052198,3.39188841 C15.9987417,-0.61981722 12.5055238,2.05079365 9.95475517,4.00078114 C9.74732083,4.15934969 9.55139971,4.30915248 9.35881481,4.45149784 C9.18225685,4.5820683 8.95231938,4.61529966 8.74586628,4.54000577 C7.69371429,4.15620972 6.87849928,4.42938721 6.37970178,4.72617989 C5.57619625,5.20430592 5.00629149,6.09579606 4.85544204,7.11085714 C4.59194613,8.89043579 4.54595863,9.65416835 4.53791246,11.6624416 C5.86971813,10.5902722 7.02777874,10.1172487 8.57598076,9.68183935 C9.05116306,9.54897932 9.44895815,9.49605772 9.80848485,9.49605772 C10.4056681,9.49605772 10.8972698,9.64200096 11.4632496,9.80998942 C11.673824,9.87252718 11.8915286,9.93715825 12.1372968,10.0013968 C17.7538547,11.4688754 20.0046907,11.7302126 24.4888966,12.2507937 C24.8452179,12.2921366 25.2156037,12.335115 25.6029322,12.3805137 L25.6029322,12.3805137 L25.282001,9.43109957 C25.157645,8.27127273 25.1850544,7.64059644 25.9697855,6.86620106 C26.1324098,6.70625878 26.3055661,6.55540933 26.4730313,6.40946609 C27.1347148,5.83282347 27.7663723,5.28247811 28.0373911,4.05631938 C25.908229,4.63008369 24.9354921,4.89142088 22.5052198,3.39188841 Z" id="Combined-Shape"></path>
                        </g>
                    </g>
                </g>
            </g>
        </g>
    </g>
</svg>