<?xml version="1.0" encoding="UTF-8"?>
<svg width="81px" height="81px" viewBox="0 0 81 81" version="1.1" xmlns="http://www.w3.org/2000/svg" xmlns:xlink="http://www.w3.org/1999/xlink">
    <!-- Generator: Sketch 63.1 (92452) - https://sketch.com -->
    <title>no wifi</title>
    <desc>Created with Sketch.</desc>
    <g id="Artboards" stroke="none" stroke-width="1" fill="none" fill-rule="evenodd">
        <g id="Sem-internet" transform="translate(-146.000000, -97.000000)">
            <g id="no-wifi" transform="translate(146.000000, 97.000000)">
                <circle id="Oval" fill="#F6EEFF" cx="40.5" cy="40.5" r="40.5"></circle>
                <g id="Group-34" transform="translate(20.000000, 22.000000)" fill="#943CFD" fill-rule="nonzero">
                    <path d="M19.9218821,32.7734375 C21.3457102,32.7734375 22.5000071,33.9277344 22.5000071,35.3515625 C22.5000071,36.7753906 21.3457102,37.9296875 19.9218821,37.9296875 C18.498054,37.9296875 17.3437571,36.7753906 17.3437571,35.3515625 C17.3437571,33.9277344 18.4979758,32.7734375 19.9218821,32.7734375 Z" id="Path"></path>
                    <path d="M30.4758739,6.6945116 C33.8704775,8.14264325 36.9619541,10.3085642 39.580554,13.118111 C40.1688352,13.749361 40.1340696,14.738111 39.5028196,15.3264704 C39.2017258,15.6070173 38.819304,15.7459279 38.4377415,15.7459279 C38.0193821,15.7459279 37.6021165,15.5789704 37.2943821,15.248736 C35.1106571,12.9057032 32.5553075,11.0692866 29.754462,9.79453422 C30.1346253,8.86974624 30.3798246,7.87441379 30.4657246,6.83390633 Z M11.1022724,9.42595166 L10.9747709,9.47764565 C7.88766815,10.7566627 5.07742897,12.703871 2.70555397,15.248736 C2.1171946,15.8800642 1.12852272,15.9147517 0.497194597,15.3264704 C-0.134055403,14.7380329 -0.168899153,13.749361 0.419460222,13.118111 C3.28794119,10.0404618 6.72385395,7.73513608 10.5039596,6.29961872 C10.5365633,7.39468707 10.7449815,8.44611508 11.1022724,9.42595166 Z" id="Combined-Shape"></path>
                    <path d="M33.8347727,22.2454687 C34.4472727,21.6375781 34.4510227,20.6482812 33.843054,20.0357812 C30.0472727,16.21125 25.1308665,14.1050781 19.9996165,14.1052344 C14.8671946,14.1052344 9.95078835,16.2115625 6.15610085,20.0359375 C5.54828835,20.6485156 5.5521946,21.6378125 6.1646946,22.245625 C6.77727272,22.8533594 7.7665696,22.8495312 8.3743821,22.2370312 C11.5778977,19.0084375 15.7064915,17.2303125 19.9996165,17.2302344 C24.2916477,17.2300781 28.4203196,19.0082812 31.624929,22.2371875 C31.9303977,22.5449219 32.3321165,22.6989844 32.7339915,22.6989844 C33.1319602,22.6989844 33.5300852,22.5478906 33.8347727,22.2454687 Z" id="Path"></path>
                    <path d="M14.4648508,28.7271875 C15.9119602,27.2934375 18.0336008,26.3671875 19.8704758,26.3671875 C19.8707102,26.3671875 19.8710227,26.3671875 19.8712571,26.3671875 L19.984304,26.3671875 C19.9846165,26.3671875 19.9846946,26.3671875 19.9850071,26.3671875 C21.8216477,26.3671875 23.9434446,27.2935156 25.3903977,28.7271875 C26.0033665,29.3344531 26.9927415,29.3300781 27.6000852,28.716875 C28.207429,28.1038281 28.2028196,27.1145313 27.5898508,26.5071875 C25.5570383,24.4932031 22.6432102,23.2421875 19.9852415,23.2421875 C19.984929,23.2421875 19.9843821,23.2421875 19.9840696,23.2421875 L19.8714915,23.2421875 C19.8710227,23.2421875 19.8707883,23.2421875 19.8703196,23.2421875 C17.2122727,23.2421875 14.2982102,24.4932813 12.2654758,26.5071875 C11.652429,27.1145313 11.6478196,28.1039063 12.2552415,28.716875 C12.5607883,29.0252344 12.9629758,29.1797236 13.3652415,29.1797236 C13.7626633,29.1797236 14.1602415,29.0289844 14.4648508,28.7271875 Z" id="Path"></path>
                    <path d="M25.3388419,0.439339828 C25.8901703,0.99066824 25.9226014,1.86439812 25.4361351,2.45365611 L25.3388419,2.56066017 L22.5100071,5.389 L25.3388419,8.21751442 C25.9246283,8.80330086 25.9246283,9.75304833 25.3388419,10.3388348 C24.7875135,10.8901632 23.9137836,10.9225943 23.3245256,10.436128 L23.2175215,10.3388348 L20.3890071,7.51 L17.5606673,10.3388348 C16.9748808,10.9246212 16.0251334,10.9246212 15.4393469,10.3388348 C14.8880185,9.78750635 14.8555874,8.91377647 15.3420537,8.32451848 L15.4393469,8.21751442 L18.2680071,5.389 L15.4393469,2.56066017 C14.8535605,1.97487373 14.8535605,1.02512627 15.4393469,0.439339828 C15.9906753,-0.111988584 16.8644052,-0.144419667 17.4536632,0.342046579 L17.5606673,0.439339828 L20.3890071,3.268 L23.2175215,0.439339828 C23.803308,-0.146446609 24.7530554,-0.146446609 25.3388419,0.439339828 Z" id="Combined-Shape"></path>
                </g>
            </g>
        </g>
    </g>
</svg>