<?xml version="1.0" encoding="UTF-8"?>
<svg width="81px" height="81px" viewBox="0 0 81 81" version="1.1" xmlns="http://www.w3.org/2000/svg" xmlns:xlink="http://www.w3.org/1999/xlink">
    <!-- Generator: Sketch 63.1 (92452) - https://sketch.com -->
    <title>Group 2</title>
    <desc>Created with Sketch.</desc>
    <g id="Artboards" stroke="none" stroke-width="1" fill="none" fill-rule="evenodd">
        <g id="Permissão" transform="translate(-147.000000, -97.000000)">
            <g id="Group" transform="translate(147.000000, 97.000000)">
                <g id="Group-2">
                    <circle id="Oval" fill="#F6EEFF" cx="40.5" cy="40.5" r="40.5"></circle>
                    <g id="error" transform="translate(20.000000, 21.000000)" fill="#943CFD" fill-rule="nonzero">
                        <path d="M20.0030998,3.55271368e-15 C22.2644307,3.55271368e-15 24.3241208,1.15432136 25.5128722,3.08781749 L25.5128722,3.08781749 L35.5072594,19.3434374 C35.9607756,20.0809379 35.7331191,21.0480784 34.9990557,21.5035127 C34.2650704,21.9592608 33.3022567,21.7304842 32.8488187,20.9929837 L32.8488187,20.9929837 L22.8545096,4.73736375 C22.2391182,3.73655426 21.1733356,3.1390666 20.003178,3.1390666 C18.8330203,3.1390666 17.7671596,3.73655426 17.1518464,4.73736375 L17.1518464,4.73736375 L3.63839232,26.7166376 C2.98940715,27.7723064 2.96112587,29.049453 3.56276723,30.1332185 C4.16347109,31.215179 5.25761305,31.8610119 6.48972393,31.8610119 L6.48972393,31.8610119 L33.516632,31.8610119 C34.6461646,31.8610119 35.655619,31.3248976 36.2860885,30.3901704 C36.9162455,29.4559141 37.0496051,28.287152 36.6428858,27.263504 C36.3229636,26.45843 36.7133547,25.545364 37.5147619,25.223978 C38.3161691,24.9025919 39.2250765,25.2947693 39.5449987,26.0998433 C40.3362497,28.0916519 40.0850775,30.3537545 38.8728885,32.1508479 C37.6515589,33.9614404 35.6992909,35 33.516632,35 L33.516632,35 L6.48972393,35 C4.10854914,35 1.99424968,33.7522844 0.833857639,31.6622941 C-0.327471907,29.5704986 -0.27294059,27.1050478 0.979873442,25.0671699 L0.979873442,25.0671699 L14.4933275,3.08781749 C15.6820789,1.15439984 17.7417689,3.55271368e-15 20.0030998,3.55271368e-15 Z M20.0030998,25.6615182 L20.1460911,25.6679319 C20.9423311,25.7400977 21.5662268,26.4123303 21.5662268,27.2310123 C21.5662268,28.097852 20.8667728,28.8005063 20.0038811,28.8005063 C19.1409894,28.8005063 18.4411448,28.097852 18.4411448,27.2310123 C18.4411448,26.3641725 19.1402082,25.6615182 20.0030998,25.6615182 L20.0030998,25.6615182 Z M20.003178,8.63229579 C20.8660696,8.63229579 21.5655236,9.33495007 21.5655236,10.2017899 L21.5655236,10.2017899 L21.5655236,21.7377046 C21.5655236,22.6045444 20.8660696,23.3071986 20.003178,23.3071986 C19.1402863,23.3071986 18.4408323,22.6045444 18.4408323,21.7377046 L18.4408323,21.7377046 L18.4408323,10.2017899 C18.4408323,9.33495007 19.1402863,8.63229579 20.003178,8.63229579 Z" id="Combined-Shape"></path>
                    </g>
                </g>
            </g>
        </g>
    </g>
</svg>