<?xml version="1.0" encoding="UTF-8"?>
<svg width="30px" height="30px" viewBox="0 0 30 30" version="1.1" xmlns="http://www.w3.org/2000/svg" xmlns:xlink="http://www.w3.org/1999/xlink">
    <!-- Generator: Sketch 63.1 (92452) - https://sketch.com -->
    <title>Group 6</title>
    <desc>Created with Sketch.</desc>
    <g id="Artboards" stroke="none" stroke-width="1" fill="none" fill-rule="evenodd">
        <g id="Teste---To-bem" transform="translate(-193.000000, -618.000000)">
            <g id="Group-10" transform="translate(27.000000, 594.000000)">
                <g id="registro-realizado-copy-4" transform="translate(150.000000, 0.000000)">
                    <g id="press" transform="translate(16.000000, 24.000000)">
                        <g id="Group-6">
                            <path d="M27.65625,19.453125 L27.65625,16.171875 L22.96875,16.171875 L22.96875,18.3398438 L24.140625,18.3398438 C24.7879028,18.3398438 25.3125,18.8644409 25.3125,19.5117188 C25.3125,20.1589966 24.7879028,20.6835938 24.140625,20.6835938 L22.96875,20.6835938 L22.96875,22.96875 L24.140625,22.96875 C24.7879028,22.96875 25.3125,23.4933472 25.3125,24.140625 C25.3125,24.7879028 24.7879028,25.3125 24.140625,25.3125 L22.96875,25.3125 C22.96875,26.6047669 24.0202331,27.65625 25.3125,27.65625 C26.6072845,27.65625 27.65625,26.6047669 27.65625,25.3125 C27.65625,24.6652222 28.1808472,24.140625 28.828125,24.140625 C29.4754028,24.140625 30,24.6652222 30,25.3125 C30,27.8972626 27.8995514,30 25.3177643,30 C25.3033447,30 25.2893829,30 25.2751922,30 C25.268097,30 25.2610016,30 25.2539062,30 L4.6875,30 C2.10273744,30 0,27.8972626 0,25.3125 L0,1.171875 C0,0.524597168 0.524597168,0 1.171875,0 L21.796875,0 C22.4441528,0 22.96875,0.524597168 22.96875,1.171875 L22.96875,13.828125 L28.828125,13.828125 C29.4754028,13.828125 30,14.3527222 30,15 L30,19.453125 C30,20.1004028 29.4754028,20.625 28.828125,20.625 C28.1808472,20.625 27.65625,20.1004028 27.65625,19.453125 Z" id="Path" fill="#FFEECA"></path>
                            <path d="M18.28125,15 C18.28125,15.6472778 17.7566528,16.171875 17.109375,16.171875 L5.91796875,16.171875 C5.27069092,16.171875 4.74609375,15.6472778 4.74609375,15 C4.74609375,14.3527222 5.27069092,13.828125 5.91796875,13.828125 L17.109375,13.828125 C17.7566528,13.828125 18.28125,14.3527222 18.28125,15 Z M17.109375,18.3398438 L5.859375,18.3398438 C5.21209717,18.3398438 4.6875,18.8644409 4.6875,19.5117188 C4.6875,20.1589966 5.21209717,20.6835938 5.859375,20.6835938 L17.109375,20.6835938 C17.7566528,20.6835938 18.28125,20.1589966 18.28125,19.5117188 C18.28125,18.8644409 17.7566528,18.3398438 17.109375,18.3398438 Z M12.421875,23.0273438 L5.859375,23.0273438 C5.21209717,23.0273438 4.6875,23.5519409 4.6875,24.1992188 C4.6875,24.8464966 5.21209717,25.3710938 5.859375,25.3710938 L12.421875,25.3710938 C13.0691528,25.3710938 13.59375,24.8464966 13.59375,24.1992188 C13.59375,23.5519409 13.0691528,23.0273438 12.421875,23.0273438 Z M27.65625,19.453125 L27.65625,16.171875 L22.96875,16.171875 L22.96875,18.3398438 L24.140625,18.3398438 C24.7879028,18.3398438 25.3125,18.8644409 25.3125,19.5117188 C25.3125,20.1589966 24.7879028,20.6835938 24.140625,20.6835938 L22.96875,20.6835938 L22.96875,22.96875 L24.140625,22.96875 C24.7879028,22.96875 25.3125,23.4933472 25.3125,24.140625 C25.3125,24.7879028 24.7879028,25.3125 24.140625,25.3125 L22.96875,25.3125 C22.96875,26.6047669 24.0202331,27.65625 25.3125,27.65625 C26.6072845,27.65625 27.65625,26.6047669 27.65625,25.3125 C27.65625,24.6652222 28.1808472,24.140625 28.828125,24.140625 C29.4754028,24.140625 30,24.6652222 30,25.3125 C30,27.8972626 27.8995514,30 25.3177643,30 C25.3033447,30 25.2893829,30 25.2751922,30 C25.268097,30 25.2610016,30 25.2539062,30 L4.6875,30 C2.10273744,30 0,27.8972626 0,25.3125 L0,1.171875 C0,0.524597168 0.524597168,0 1.171875,0 L21.796875,0 C22.4441528,0 22.96875,0.524597168 22.96875,1.171875 L22.96875,13.828125 L28.828125,13.828125 C29.4754028,13.828125 30,14.3527222 30,15 L30,19.453125 C30,20.1004028 29.4754028,20.625 28.828125,20.625 C28.1808472,20.625 27.65625,20.1004028 27.65625,19.453125 Z M21.2541962,27.65625 C20.8541107,26.9664001 20.625,26.1657715 20.625,25.3125 L20.625,2.34375 L2.34375,2.34375 L2.34375,25.3125 C2.34375,26.6047669 3.39523312,27.65625 4.6875,27.65625 L21.2541962,27.65625 Z M4.6875,10.4882812 L4.6875,5.80078125 C4.6875,5.15350342 5.21209717,4.62890625 5.859375,4.62890625 L17.0507813,4.62890625 C17.6980591,4.62890625 18.2226563,5.15350342 18.2226563,5.80078125 L18.2226563,10.4882812 C18.2226563,11.1355591 17.6980591,11.6601562 17.0507813,11.6601562 L5.859375,11.6601562 C5.21209717,11.6601562 4.6875,11.1355591 4.6875,10.4882812 Z M7.03125,9.31640625 L15.8789063,9.31640625 L15.8789063,6.97265625 L7.03125,6.97265625 L7.03125,9.31640625 Z" id="Shape" fill="#E1A21B" fill-rule="nonzero"></path>
                        </g>
                    </g>
                </g>
            </g>
        </g>
    </g>
</svg>