<?xml version="1.0" encoding="utf-8"?>
<!-- Generator: Adobe Illustrator 22.0.0, SVG Export Plug-In . SVG Version: 6.00 Build 0)  -->
<svg version="1.1" id="Camada_1" xmlns="http://www.w3.org/2000/svg" xmlns:xlink="http://www.w3.org/1999/xlink" x="0px" y="0px"
	 viewBox="0 0 81 81" style="enable-background:new 0 0 81 81;" xml:space="preserve">
<style type="text/css">
	.st0{fill:#F6EEFF;}
	.st1{fill:#943CFD;}
</style>
<circle id="Oval" class="st0" cx="40.5" cy="40.5" r="40.5"/>
<path id="Combined-Shape" class="st1" d="M36.1,27.1c0.2,0.7-0.3,1.3-0.9,1.5c-4,1-6.8,4.5-6.8,8.7v4.5c0,3.9-1.7,7.6-4.7,10.2
	c0,0,0,0-0.1,0.1c0,0.1-0.1,0.1-0.1,0.3c0,0.2,0.2,0.4,0.4,0.4h26.8c0.2,0,0.4-0.2,0.4-0.4c0-0.1,0-0.2-0.1-0.3c0,0,0,0-0.1-0.1
	c-1.5-1.2-2.6-2.7-3.4-4.5c-0.3-0.6,0-1.3,0.6-1.6c0.6-0.3,1.3,0,1.6,0.6c0.6,1.4,1.5,2.6,2.7,3.5c0,0,0.1,0.1,0.1,0.1
	c0.6,0.5,1,1.3,1,2.2c0,1.6-1.3,2.8-2.8,2.8l-7.4,0c-0.6,2.8-3,4.9-6,4.9c-2.9,0-5.4-2.1-6-4.9l-7.4,0c-1.6,0-2.8-1.3-2.8-2.8
	c0-0.8,0.4-1.6,1-2.2c0,0,0.1-0.1,0.1-0.1c2.4-2.1,3.8-5.1,3.8-8.2v-4.5c0-5.3,3.6-9.8,8.7-11C35.3,26,35.9,26.5,36.1,27.1z
	 M40.7,55.1h-6.9c0.5,1.4,1.9,2.4,3.4,2.4S40.2,56.5,40.7,55.1z M49.4,21C55.3,21,60,25.7,60,31.6c0,5.8-4.7,10.6-10.6,10.6
	c-5.8,0-10.6-4.7-10.6-10.6C38.9,25.7,43.6,21,49.4,21z M49.4,23.4c-4.5,0-8.1,3.6-8.1,8.1s3.6,8.1,8.1,8.1s8.1-3.6,8.1-8.1
	S53.9,23.4,49.4,23.4z M49.8,27.5c0.7,0,1.2,0.5,1.2,1.2v6.5c0,0.7-0.5,1.2-1.2,1.2s-1.2-0.5-1.2-1.2v-5.3h-0.8
	c-0.7,0-1.2-0.5-1.2-1.2s0.5-1.2,1.2-1.2H49.8z"/>
</svg>
