<?xml version="1.0" encoding="UTF-8"?>
<svg width="128px" height="116px" viewBox="0 0 128 116" version="1.1" xmlns="http://www.w3.org/2000/svg" xmlns:xlink="http://www.w3.org/1999/xlink">
    <!-- Generator: Sketch 64 (93537) - https://sketch.com -->
    <title>Path</title>
    <desc>Created with Sketch.</desc>
    <g id="🦠-App-2.3" stroke="none" stroke-width="1" fill="none" fill-rule="evenodd">
        <g id="Teste---Suspeito" transform="translate(-229.000000, -453.000000)" fill="#DBF8CB">
            <g id="Group-7" transform="translate(-4.000000, 453.000000)">
                <path d="M357.643494,81.9389877 L339.743127,64.0762261 C333.350139,57.6966683 322.48206,60.2487406 319.924865,68.5419165 C318.006968,74.2837676 311.61398,77.4735465 305.860291,76.1973858 C293.074315,73.0076069 275.813247,56.4207568 272.616753,43.0236855 C270.698857,37.2818343 274.534649,30.9022766 280.288339,28.9886585 C288.599223,26.4368354 291.156418,15.5915872 284.76343,9.21202949 L266.863064,-8.65073219 C261.748673,-13.1164226 254.077088,-13.1164226 249.601996,-8.65073219 L237.455319,3.47042752 C225.308641,16.229543 238.733916,50.041199 268.78096,80.0251204 C298.828004,110.009042 332.710841,124.044318 345.496817,111.284953 L357.643494,99.1637936 C362.118835,94.0601474 362.118835,86.4046782 357.643494,81.9389877 Z" id="Path" transform="translate(297.000000, 52.000000) scale(-1, 1) translate(-297.000000, -52.000000) "></path>
            </g>
        </g>
    </g>
</svg>