<?xml version="1.0" encoding="UTF-8"?>
<svg width="106px" height="96px" viewBox="0 0 106 96" version="1.1" xmlns="http://www.w3.org/2000/svg" xmlns:xlink="http://www.w3.org/1999/xlink">
    <!-- Generator: Sketch 63.1 (92452) - https://sketch.com -->
    <title>Path</title>
    <desc>Created with Sketch.</desc>
    <g id="Artboards" stroke="none" stroke-width="1" fill="none" fill-rule="evenodd" fill-opacity="0.0833697552" opacity="0.726748512">
        <g id="Teste---Grave" transform="translate(-197.000000, -602.000000)" fill="#0864B5">
            <g id="registro-realizado-copy-7" transform="translate(-16.000000, 602.000000)">
                <path d="M316.220393,75.7932242 L301.396652,61.0006247 C296.102459,55.7175535 287.102331,57.8309883 284.984653,64.6987746 C283.396395,69.4537451 278.102202,72.0952807 273.337428,71.0384601 C262.749042,68.3969245 248.45472,54.6609392 245.807624,43.5664896 C244.219366,38.8115191 247.395882,33.5284478 252.160655,31.9437328 C259.043107,29.8305043 261.160784,20.8492832 255.866591,15.5662119 L241.04285,0.773612408 C236.807495,-2.92453747 230.454463,-2.92453747 226.748528,0.773612408 L216.689561,10.8114478 C206.630594,21.3775903 217.748399,49.3778679 242.631108,74.2083028 C267.513816,99.0387377 295.57304,110.661701 306.161426,100.095352 L316.220393,90.0575166 C319.926536,85.8310596 319.926536,79.4913741 316.220393,75.7932242 Z" id="Path" transform="translate(266.000000, 51.000000) scale(-1, 1) translate(-266.000000, -51.000000) "></path>
            </g>
        </g>
    </g>
</svg>