<?xml version="1.0" encoding="utf-8"?>
<!-- Generator: Adobe Illustrator 22.0.0, SVG Export Plug-In . SVG Version: 6.00 Build 0)  -->
<svg version="1.1" id="Camada_1" xmlns="http://www.w3.org/2000/svg" xmlns:xlink="http://www.w3.org/1999/xlink" x="0px" y="0px"
	 viewBox="0 0 126 27" style="enable-background:new 0 0 126 27;" xml:space="preserve">
<style type="text/css">
	.st0{fill:#FFFFFF;}
	.st1{fill:#FFC236;}
	.st2{fill:#1FBB87;}
</style>
<g id="Group-30">
	<g id="Group-9" transform="translate(22.000000, 23.000000)">
		<g id="Group-15" transform="translate(0.230769, 48.739342)">
			<path id="CORONAVÃRUS" class="st0" d="M-16.6-59.8c2.7,0,3.9-1.9,4.2-3.1l-1.9-0.5c-0.2,0.6-0.8,1.6-2.3,1.6
				c-1.3,0-2.5-1-2.5-2.6c0-1.8,1.3-2.7,2.5-2.7c1.5,0,2.1,1,2.2,1.6l1.8-0.6c-0.3-1.3-1.5-3-4.1-3c-2.5,0-4.5,1.9-4.5,4.6
				C-21.2-61.6-19.2-59.8-16.6-59.8z M-7.4-59.8c2.5,0,4.6-1.8,4.6-4.6c0-2.8-2.1-4.6-4.6-4.6c-2.5,0-4.6,1.8-4.6,4.6
				C-12-61.6-9.9-59.8-7.4-59.8z M-7.4-61.7c-1.2,0-2.5-0.8-2.5-2.7S-8.7-67-7.4-67c1.2,0,2.5,0.8,2.5,2.7S-6.2-61.7-7.4-61.7z
				 M0.2-60v-3.3h0.7L2.4-60h2.2l-1.8-3.6c1.1-0.4,1.7-1.3,1.7-2.5c0-1.6-1.1-2.8-2.9-2.8h-3.5v8.8H0.2z M1.3-64.9H0.2V-67h1.2
				c0.8,0,1.2,0.4,1.2,1.1C2.5-65.4,2.1-64.9,1.3-64.9z M9.7-59.8c2.5,0,4.6-1.8,4.6-4.6c0-2.8-2.1-4.6-4.6-4.6
				c-2.5,0-4.6,1.8-4.6,4.6C5.1-61.6,7.2-59.8,9.7-59.8z M9.7-61.7c-1.2,0-2.5-0.8-2.5-2.7S8.4-67,9.7-67c1.2,0,2.5,0.8,2.5,2.7
				S10.9-61.7,9.7-61.7z M17.3-60v-5.8l3.6,5.8h2.1v-8.8h-2v5.3l-3.3-5.3h-2.4v8.8H17.3z M25.7-60l0.6-1.8h3.4l0.6,1.8h2.1l-3.3-8.8
				H27L23.7-60H25.7z M29.2-63.5H27l1.1-3L29.2-63.5z M36.9-60l3.2-8.8H38L36-62.6l-2.1-6.2h-2.2l3.2,8.8H36.9z M42.6-69.4l1.9-1.6
				h-2.2l-1.3,1.6H42.6z M42.9-60v-8.8h-2v8.8H42.9z M46.4-60v-3.3h0.7l1.6,3.3h2.2L49-63.5c1.1-0.4,1.7-1.3,1.7-2.5
				c0-1.6-1.1-2.8-2.9-2.8h-3.5v8.8H46.4z M47.6-64.9h-1.2V-67h1.2c0.8,0,1.2,0.4,1.2,1.1C48.8-65.4,48.4-64.9,47.6-64.9z
				 M55.3-59.8c1.9,0,3.5-1.2,3.5-3.4v-5.6h-2v5.5c0,1.1-0.6,1.6-1.5,1.6c-0.9,0-1.5-0.5-1.5-1.6v-5.5h-2v5.6
				C51.8-60.9,53.4-59.8,55.3-59.8z M63.3-59.8c2.1,0,3.2-1.4,3.2-2.8c0-1.3-0.9-2.3-2.5-2.6l-1.2-0.2c-0.6-0.1-0.9-0.4-0.9-0.8
				c0-0.5,0.5-0.9,1.2-0.9c1.1,0,1.4,0.7,1.5,1.1l1.8-0.5c-0.2-1-1-2.3-3.2-2.3c-1.7,0-3.1,1.2-3.1,2.8c0,1.3,0.9,2.3,2.4,2.6
				l1.2,0.2c0.6,0.1,0.9,0.4,0.9,0.9c0,0.5-0.5,0.9-1.2,0.9c-1.2,0-1.7-0.7-1.8-1.5l-1.8,0.4C59.8-61.3,60.9-59.8,63.3-59.8z"/>
			<g id="Group" transform="translate(0.000000, 16.366573)">
				<g id="Group-20" transform="translate(0.000000, 0.264746)">
					<path id="Mask" class="st1" d="M-16.1-70.7c0.4,0.1,0.7,0.6,0.6,1l-1.9,7.5c-0.1,0.4-0.6,0.7-1,0.6c-0.4-0.1-0.7-0.6-0.6-1
						l1.9-7.5C-17-70.5-16.5-70.8-16.1-70.7z"/>
					<path id="Mask_1_" class="st2" d="M-18.9-70.7c0.4,0.1,0.7,0.6,0.6,1l-1.9,7.5c-0.1,0.4-0.6,0.7-1,0.6s-0.7-0.6-0.6-1l1.9-7.5
						C-19.8-70.5-19.3-70.8-18.9-70.7z"/>
				</g>
				<path id="BRASIL" class="st0" d="M-8.2-61.4c1.6,0,2.7-1,2.7-2.4c0-1-0.6-1.9-1.6-2.1c0.8-0.3,1.3-1,1.3-1.9
					c0-1.4-1-2.4-2.7-2.4h-2.9v8.8H-8.2z M-8.5-66.4h-1.5v-2.8h1.5c1,0,1.6,0.5,1.6,1.4C-7-67-7.6-66.4-8.5-66.4z M-8.4-62.5h-1.7
					v-2.8h1.7c1.1,0,1.6,0.6,1.6,1.4C-6.7-63.1-7.4-62.5-8.4-62.5z M-2.9-61.4V-65h1.3l2,3.6h1.4l-2.1-3.7c1.3-0.2,2.1-1.2,2.1-2.5
					c0-1.5-1-2.6-2.7-2.6h-3.3v8.8H-2.9z M-1-66.1h-1.9v-3H-1c1,0,1.7,0.6,1.7,1.5C0.6-66.7-0.1-66.1-1-66.1z M3.5-61.4l0.9-2.5h3.9
					l1,2.5h1.3l-3.5-8.8H5.7l-3.5,8.8H3.5z M7.9-65h-3L6.3-69L7.9-65z M14-61.3c1.9,0,3-1.2,3-2.6c0-1.2-0.8-2.1-2.3-2.5l-1.3-0.3
					c-0.7-0.2-1.1-0.6-1.1-1.3c0-0.8,0.7-1.5,1.7-1.5c1.2,0,1.8,0.9,1.9,1.5l1.1-0.4c-0.2-1-1-2.2-3-2.2c-1.6,0-2.9,1.2-2.9,2.6
					c0,1.3,0.9,2.1,2.1,2.4l1.3,0.3c0.9,0.2,1.3,0.7,1.3,1.4c0,0.8-0.6,1.4-1.8,1.4c-1.3,0-2-0.9-2.1-1.9l-1.2,0.4
					C10.9-62.6,11.9-61.3,14-61.3z M19.6-61.4v-8.8h-1.2v8.8H19.6z M26.9-61.4v-1.1h-4.2v-7.6h-1.2v8.8H26.9z"/>
			</g>
			<path id="Combined-Shape" class="st0" d="M103.8-58.7c0,5.5-4.5,10-10,10s-10-4.5-10-10c0-5.5,4.5-10,10-10
				S103.8-64.3,103.8-58.7z M97.5-58c0.4-0.4,0.4-1,0-1.4l0,0l-5-5c-0.4-0.4-1-0.4-1.4,0c-0.4,0.4-0.4,1,0,1.4l0,0l4.3,4.3l-4.3,4.3
				c-0.4,0.4-0.4,1,0,1.4c0.4,0.4,1,0.4,1.4,0l0,0L97.5-58z"/>
		</g>
	</g>
</g>
</svg>
