<?xml version="1.0" encoding="utf-8"?>
<!-- Generator: Adobe Illustrator 22.0.0, SVG Export Plug-In . SVG Version: 6.00 Build 0)  -->
<svg version="1.1" id="Camada_1" xmlns="http://www.w3.org/2000/svg" xmlns:xlink="http://www.w3.org/1999/xlink" x="0px" y="0px"
	 viewBox="0 0 28 28" style="enable-background:new 0 0 28 28;" xml:space="preserve">
<style type="text/css">
	.st0{fill:#6EB434;}
	.st1{fill:#166832;}
</style>
<circle id="Oval-5" class="st0" cx="14" cy="14" r="13.8"/>
<path id="Combined-Shape" class="st1" d="M16.6,17.4c0.5-0.4,1.1-0.3,1.5,0.2c0.4,0.5,0.3,1.1-0.2,1.5c-2.3,1.8-5.5,1.8-7.8,0
	c0,0,0,0-0.1,0c-0.4-0.4-0.5-1.1-0.1-1.5c0.4-0.4,1.1-0.5,1.5-0.1C13,18.6,15,18.6,16.6,17.4L16.6,17.4L16.6,17.4z M8.6,9.7
	c1.2,0,2.1,1,2.1,2.1S9.8,14,8.6,14s-2.1-1-2.1-2.1S7.5,9.7,8.6,9.7z M19.4,9.7c1.2,0,2.1,1,2.1,2.1s-1,2.1-2.1,2.1
	c-1.2,0-2.1-1-2.1-2.1S18.2,9.7,19.4,9.7z"/>
</svg>
