<?xml version="1.0" encoding="UTF-8"?>
<svg width="106px" height="32px" viewBox="0 0 106 32" version="1.1" xmlns="http://www.w3.org/2000/svg" xmlns:xlink="http://www.w3.org/1999/xlink">
    <!-- Generator: Sketch 64 (93537) - https://sketch.com -->
    <title>Marca Datasus - RGB</title>
    <desc>Created with Sketch.</desc>
    <defs>
        <polygon id="path-1" points="0 0.173118002 22.1437999 0.173118002 22.1437999 31.9880726 0 31.9880726"></polygon>
    </defs>
    <g id="Artboards" stroke="none" stroke-width="1" fill="none" fill-rule="evenodd">
        <g id="Home" transform="translate(-135.000000, -1115.000000)">
            <g id="Marca-Datasus---RGB" transform="translate(135.000000, 1115.000000)">
                <path d="M18.6230051,30.4506814 C18.8583343,29.7448926 18.8583343,28.9846442 18.6239989,28.2345325 C19.2757256,28.1043462 19.6668808,27.5826071 19.6648932,27.0240978 L19.6648932,23.8877004 L22.1437999,23.8877004 C22.1437999,26.1455885 22.1437999,24.798806 22.1437999,27.056694 C22.1231291,28.421961 21.1098621,30.4486938 18.6230051,30.4506814" id="Fill-1" fill="#387FA3"></path>
                <path d="M12.3770427,30.4506814 C12.1419123,29.7448926 12.1419123,28.9846442 12.376049,28.2345325 C11.7243223,28.1043462 11.333167,27.5826071 11.3351546,27.0240978 L11.3617881,20.2836261 L8.88288146,20.2836261 C8.88288146,22.5415142 8.85604916,24.798806 8.85604916,27.056694 C8.87671997,28.421961 9.89018575,30.4486938 12.3770427,30.4506814" id="Fill-2" fill="#387FA3"></path>
                <path d="M1.19473285,12.7091669 C1.90072038,12.4738378 2.66057127,12.4738378 3.41088178,12.7081732 C3.54126687,12.0564465 4.06280721,11.6652912 4.62131649,11.66708 L11.2119248,11.6939123 L11.2119248,9.21500566 C8.95423549,9.21500566 6.84660829,9.18817337 4.58872022,9.18817337 C3.22345322,9.20884417 1.19672043,10.2221112 1.19473285,12.7091669" id="Fill-3" fill="#DDD746"></path>
                <g id="Group-9">
                    <mask id="mask-2" fill="white">
                        <use xlink:href="#path-1"></use>
                    </mask>
                    <g id="Clip-5"></g>
                    <path d="M18.6230051,1.51334152 C18.8583343,2.21932906 18.8583343,2.9793787 18.6239989,3.72949046 C19.2757256,3.85987555 19.6668808,4.38141589 19.6648932,4.93992517 L19.6382597,7.32958963 L22.1171664,7.32958963 C22.1171664,5.07170156 22.1437999,7.16521696 22.1437999,4.9073289 C22.1231291,3.5420619 21.1098621,1.51552786 18.6230051,1.51334152" id="Fill-4" fill="#296144" mask="url(#mask-2)"></path>
                    <path d="M15.4945581,0.173118002 C16.7183096,0.173118002 17.7103095,1.1653167 17.7103095,2.38926694 C17.7103095,3.61321718 16.7183096,4.60521712 15.4945581,4.60521712 C14.2710054,4.60521712 13.2790054,3.61321718 13.2790054,2.38926694 C13.2790054,1.1653167 14.2710054,0.173118002 15.4945581,0.173118002" id="Fill-6" fill="#296144" mask="url(#mask-2)"></path>
                    <path d="M15.4945581,31.9999981 C16.7183096,31.9999981 17.7103095,31.0079982 17.7103095,29.7840479 C17.7103095,28.5600977 16.7183096,27.567899 15.4945581,27.567899 C14.2710054,27.567899 13.2790054,28.5600977 13.2790054,29.7840479 C13.2790054,31.0079982 14.2710054,31.9999981 15.4945581,31.9999981" id="Fill-7" fill="#387FA3" mask="url(#mask-2)"></path>
                    <path d="M0,15.9524959 C0,14.7287445 0.991999941,13.7367445 2.21595018,13.7367445 C3.43990042,13.7367445 4.43190036,14.7287445 4.43190036,15.9524959 C4.43190036,17.1760487 3.43990042,18.1682474 2.21595018,18.1682474 C0.991999941,18.1682474 0,17.1760487 0,15.9524959" id="Fill-8" fill="#DDD746" mask="url(#mask-2)"></path>
                </g>
                <path d="M66.2922693,8.18166411 C66.3775364,8.18166411 66.4701575,8.21366411 66.5697352,8.2776641 C66.6695116,8.34186286 66.7335116,8.41659577 66.7619339,8.50206161 L70.6907784,22.8505825 L70.6907784,22.8933154 C70.6907784,23.0640483 70.6053126,23.1495141 70.4345797,23.1495141 L68.2565922,23.1495141 C68.1568158,23.1495141 68.0643935,23.1175142 67.9789276,23.0535142 C67.8936605,22.9893154 67.8368158,22.9145825 67.8081947,22.8293154 L66.7406668,18.8575392 C66.6977352,18.729738 66.6196234,18.6230051 66.5057352,18.5373405 C66.391847,18.4518747 66.2710023,18.4091418 66.1428035,18.4091418 L62.9185553,18.4091418 L62.8721416,18.4057883 C62.5358315,18.8135878 62.0266613,19.0735889 61.456692,19.0735889 C60.4436237,19.0735889 59.6225555,18.2525207 59.6225555,17.2400487 C59.6225555,16.2273779 60.4436237,15.4063096 61.456692,15.4063096 C62.0404731,15.4063096 62.5604728,15.6790644 62.8962845,16.1040533 L62.9185553,16.1033531 L62.9185553,16.1033531 L65.4807414,16.1033531 C65.6091389,16.1033531 65.7120955,16.0570425 65.790406,15.9646202 C65.8687166,15.8719991 65.886406,15.7616885 65.8436731,15.6334898 L64.6481452,11.2777136 C64.6197229,11.1638254 64.5485676,11.0642478 64.4344806,10.978782 C64.3205924,10.8933161 64.1997477,10.850782 64.071549,10.850782 L63.9220831,10.850782 C63.8083937,10.850782 63.6945055,10.8933161 63.5806173,10.978782 C63.4665304,11.0642478 63.3953751,11.1638254 63.3669527,11.2777136 L62.5770894,14.1388315 C62.5484683,14.2242973 62.4952012,14.2882973 62.4168907,14.3310302 C62.3385801,14.3737631 62.2495367,14.3809184 62.149959,14.352496 L60.1429032,13.8613656 C60.0574374,13.8470551 59.9898598,13.7973656 59.9399716,13.7118998 C59.8900834,13.626434 59.8795492,13.5409681 59.9079716,13.4557011 L61.2531641,8.52332868 C61.2815864,8.43786285 61.3422075,8.3595523 61.4346299,8.28839702 C61.5270522,8.21724175 61.6160957,8.18166411 61.7015615,8.18166411 L66.2922693,8.18166411 Z" id="Fill-10" fill="#2C668F"></path>
                <path d="M60.9641703,20.1111044 L58.1012636,20.1111044 L57.3511519,22.8505825 L57.3511519,22.8933154 C57.3511519,23.0640483 57.4364189,23.1495141 57.6073506,23.1495141 L59.7853381,23.1495141 C59.8849157,23.1495141 59.9775368,23.1175142 60.0628039,23.0535142 C60.1482697,22.9893154 60.2051144,22.9145825 60.2337355,22.8293154 L60.9641703,20.1111044" id="Fill-11" fill="#387FA3"></path>
                <path d="M102.976988,27.4379114 C102.976988,28.0657871 103.423795,28.3798244 104.027621,28.3798244 C104.695646,28.3798244 105.086205,28.0657871 105.086205,27.5345077 C105.086205,26.4117251 103.444068,26.9509549 103.319249,26.2022345 C103.27095,25.9044954 103.472292,25.5624333 104.027621,25.5624333 C104.397907,25.5624333 104.740168,25.7516506 104.740168,26.1942842 L105.001733,26.1942842 C105.005509,25.723427 104.679547,25.3290917 104.027621,25.3290917 C103.379671,25.3290917 103.045559,25.7033525 103.045559,26.1056382 C103.045559,27.2447189 104.812515,26.6490419 104.812515,27.5466319 C104.812515,27.8646443 104.595075,28.1464828 104.075919,28.1464828 C103.633087,28.1464828 103.28705,27.9570667 103.242727,27.4379114 L102.976988,27.4379114 Z M100.228168,27.2125201 C100.228168,27.9530915 100.594478,28.3798244 101.351149,28.3798244 C102.099671,28.3798244 102.473932,27.9652157 102.473932,27.2125201 L102.473932,25.4056134 L102.200441,25.4056134 L102.200441,27.1320232 C102.200441,27.8163462 101.974851,28.1464828 101.351149,28.1464828 C100.759447,28.1464828 100.501857,27.8485449 100.501857,27.1320232 L100.501857,25.4056134 L100.228168,25.4056134 L100.228168,27.2125201 Z M97.6121184,27.4379114 C97.6121184,28.0657871 98.0587271,28.3798244 98.6625531,28.3798244 C99.3307767,28.3798244 99.7211369,28.0657871 99.7211369,27.5345077 C99.7211369,26.4117251 98.0790004,26.9509549 97.9541805,26.2022345 C97.9058824,25.9044954 98.1070252,25.5624333 98.6625531,25.5624333 C99.0328388,25.5624333 99.3749009,25.7516506 99.3749009,26.1942842 L99.6366649,26.1942842 C99.64064,25.723427 99.3146773,25.3290917 98.6625531,25.3290917 C98.0146029,25.3290917 97.6804911,25.7033525 97.6804911,26.1056382 C97.6804911,27.2447189 99.4474475,26.6490419 99.4474475,27.5466319 C99.4474475,27.8646443 99.2300065,28.1464828 98.7108513,28.1464828 C98.268019,28.1464828 97.9219817,27.9570667 97.8776588,27.4379114 L97.6121184,27.4379114 Z M94.7543794,28.1464828 C93.9979074,28.1464828 93.6759199,27.542458 93.6759199,26.8583338 C93.6759199,26.1861351 94.0016838,25.5624333 94.7464291,25.5624333 C95.4146527,25.5624333 95.8292614,26.0533649 95.8292614,26.8583338 C95.8292614,27.5345077 95.5068763,28.1464828 94.7543794,28.1464828 Z M93.4022305,26.8583338 C93.4022305,27.6915263 93.8569882,28.3798244 94.7504043,28.3798244 C95.6440191,28.3798244 96.102752,27.6915263 96.102752,26.8583338 C96.102752,26.0092407 95.6440191,25.3290917 94.7382801,25.3290917 C93.8730876,25.3290917 93.3980565,26.0132158 93.4022305,26.8583338 Z M90.8825784,25.6387562 L91.5386778,25.6387562 C91.7799697,25.6387562 92.0296094,25.6548556 92.2025287,25.7474767 C92.609187,25.9649177 92.7018081,26.4278245 92.7018081,26.8503835 C92.7018081,27.2447189 92.6052119,27.7398244 92.2188268,27.9371909 C91.9974107,28.0538617 91.7841436,28.0699611 91.5386778,28.0699611 L90.8825784,28.0699611 L90.8825784,25.6387562 Z M91.5989014,28.3033027 C91.9813113,28.3033027 92.3595473,28.2468555 92.6252864,27.9491163 C92.8908268,27.6593275 92.9754976,27.2327934 92.9754976,26.8503835 C92.9754976,26.4639984 92.8747274,25.9005202 92.4923175,25.6226569 C92.222802,25.4254892 91.9208889,25.4056134 91.5989014,25.4056134 L90.608889,25.4056134 L90.608889,28.3033027 L91.5989014,28.3033027 Z M87.8236966,25.6387562 L88.3913488,27.1602468 L87.2562432,27.1602468 L87.8236966,25.6387562 Z M86.8213613,28.3033027 L87.1636221,27.3935884 L88.4837711,27.3935884 L88.8176841,28.3033027 L89.0995226,28.3033027 L87.9886656,25.4056134 L87.6788022,25.4056134 L86.5397215,28.3033027 L86.8213613,28.3033027 Z M86.2380073,26.2465574 C86.1453862,25.6469053 85.710703,25.3290917 85.115026,25.3290917 C84.346231,25.3290917 83.7666534,25.7474767 83.7666534,26.8543586 C83.7666534,27.6754269 84.1208397,28.3798244 85.0142558,28.3798244 C85.7911999,28.3798244 86.1412123,27.9087685 86.270206,27.3494642 L85.9843924,27.3494642 C85.8756719,27.8081971 85.5658086,28.1464828 85.0667278,28.1464828 C84.2776596,28.1464828 84.0403428,27.4941599 84.0403428,26.8464083 C84.0403428,26.1620854 84.3422558,25.5624333 85.0424794,25.5624333 C85.537585,25.5624333 85.8434731,25.7516506 85.9563675,26.2465574 L86.2380073,26.2465574 Z M82.8770137,28.3033027 L83.1507031,28.3033027 L83.1507031,25.4056134 L82.8770137,25.4056134 L82.8770137,28.3033027 Z M80.2812375,25.6387562 L81.198902,25.6387562 L81.198902,28.3033027 L81.4725914,28.3033027 L81.4725914,25.6387562 L82.390256,25.6387562 L82.390256,25.4056134 L80.2812375,25.4056134 L80.2812375,25.6387562 Z M78.8483928,25.1800233 L79.3997468,24.6205203 L79.0898835,24.6205203 L78.6430761,25.1800233 L78.8483928,25.1800233 Z M78.8766164,25.6387562 L79.4440698,27.1602468 L78.3089643,27.1602468 L78.8766164,25.6387562 Z M77.8742811,28.3033027 L78.2163432,27.3935884 L79.5366909,27.3935884 L79.8706039,28.3033027 L80.1522437,28.3033027 L79.0415854,25.4056134 L78.7315233,25.4056134 L77.5926413,28.3033027 L77.8742811,28.3033027 Z M74.7672999,28.3033027 L74.7672999,25.7194519 L74.7752502,25.7194519 L75.7290887,28.3033027 L75.9864799,28.3033027 L76.936542,25.7194519 L76.9446911,25.7194519 L76.9446911,28.3033027 L77.2183805,28.3033027 L77.2183805,25.4056134 L76.8037718,25.4056134 L75.8700079,27.9612406 L75.8620576,27.9612406 L74.9119955,25.4056134 L74.4934117,25.4056134 L74.4934117,28.3033027 L74.7672999,28.3033027 Z M72.9520453,26.9873276 C73.2257348,26.9873276 73.4630515,27.0274766 73.527449,27.3413151 C73.571772,27.5627313 73.5435484,28.1059362 73.6562441,28.3033027 L73.9581571,28.3033027 L73.9581571,28.2750791 C73.8856105,28.2188306 73.8496353,28.0979859 73.8373124,27.6593275 C73.8293621,27.3534394 73.8090888,26.9913027 73.4672254,26.8744332 C73.8011385,26.7255636 73.9380825,26.5323711 73.9380825,26.1662593 C73.9380825,25.6308059 73.5878714,25.4056134 72.9520453,25.4056134 L71.8169398,25.4056134 L71.8169398,28.3033027 L72.0906292,28.3033027 L72.0906292,26.9873276 L72.9520453,26.9873276 Z M72.0906292,26.7537872 L72.0906292,25.6387562 L72.9599957,25.6387562 C73.3263062,25.6387562 73.6643931,25.7435016 73.6643931,26.1781848 C73.6643931,26.5846444 73.3503559,26.7537872 72.9438963,26.7537872 L72.0906292,26.7537872 Z M69.9293374,28.1464828 C69.1726667,28.1464828 68.8506791,27.542458 68.8506791,26.8583338 C68.8506791,26.1861351 69.1766418,25.5624333 69.9213871,25.5624333 C70.5894119,25.5624333 71.0038219,26.0533649 71.0038219,26.8583338 C71.0038219,27.5345077 70.6818343,28.1464828 69.9293374,28.1464828 Z M68.5769649,26.8583338 C68.5769649,27.6915263 69.0317474,28.3798244 69.9251635,28.3798244 C70.8187784,28.3798244 71.27771,27.6915263 71.27771,26.8583338 C71.27771,26.0092407 70.8187784,25.3290917 69.9132381,25.3290917 C69.0478468,25.3290917 68.5730145,26.0132158 68.5769649,26.8583338 Z M66.6973376,28.3033027 L66.6973376,26.9187562 L68.1462817,26.9187562 L68.1462817,26.6854146 L66.6973376,26.6854146 L66.6973376,25.6387562 L68.2913748,25.6387562 L68.2913748,25.4056134 L66.4236482,25.4056134 L66.4236482,28.3033027 L66.6973376,28.3033027 Z M65.4859091,28.3033027 L65.8039215,28.3033027 L65.8039215,25.4056134 L65.5302321,25.4056134 L65.5302321,27.9371909 L65.5222818,27.9371909 L63.8477477,25.4056134 L63.5380832,25.4056134 L63.5380832,28.3033027 L63.8117726,28.3033027 L63.8117726,25.7757003 L63.8197229,25.7757003 L65.4859091,28.3033027 Z M62.5236236,28.3033027 L62.797313,28.3033027 L62.797313,25.4056134 L62.5236236,25.4056134 L62.5236236,28.3033027 Z M60.8170895,28.3033027 L60.8170895,28.0699611 L59.1226797,28.0699611 L59.1226797,26.9187562 L60.6159467,26.9187562 L60.6159467,26.6854146 L59.1226797,26.6854146 L59.1226797,25.6387562 L60.7769405,25.6387562 L60.7769405,25.4056134 L58.8489903,25.4056134 L58.8489903,28.3033027 L60.8170895,28.3033027 Z M56.2168414,25.6387562 L56.872742,25.6387562 C57.1142326,25.6387562 57.3638724,25.6548556 57.5369904,25.7474767 C57.94345,25.9649177 58.0358723,26.4278245 58.0358723,26.8503835 C58.0358723,27.2447189 57.9394748,27.7398244 57.5530897,27.9371909 C57.3316736,28.0538617 57.1184065,28.0699611 56.872742,28.0699611 L56.2168414,28.0699611 L56.2168414,25.6387562 Z M56.9331643,28.3033027 C57.3155742,28.3033027 57.6938102,28.2468555 57.9595493,27.9491163 C58.2250897,27.6593275 58.3097605,27.2327934 58.3097605,26.8503835 C58.3097605,26.4639984 58.2089903,25.9005202 57.8265804,25.6226569 C57.5570649,25.4254892 57.2551519,25.4056134 56.9331643,25.4056134 L55.9431519,25.4056134 L55.9431519,28.3033027 L56.9331643,28.3033027 Z M52.9323695,28.1464828 C52.1758975,28.1464828 51.85391,27.542458 51.85391,26.8583338 C51.85391,26.1861351 52.1798727,25.5624333 52.9244192,25.5624333 C53.5926428,25.5624333 54.0072514,26.0533649 54.0072514,26.8583338 C54.0072514,27.5345077 53.6850651,28.1464828 52.9323695,28.1464828 Z M51.5801958,26.8583338 C51.5801958,27.6915263 52.0349783,28.3798244 52.9285931,28.3798244 C53.8220092,28.3798244 54.2807421,27.6915263 54.2807421,26.8583338 C54.2807421,26.0092407 53.8220092,25.3290917 52.9162701,25.3290917 C52.0510776,25.3290917 51.5762454,26.0132158 51.5801958,26.8583338 Z M49.1935374,25.6387562 L50.1110032,25.6387562 L50.1110032,28.3033027 L50.3848914,28.3033027 L50.3848914,25.6387562 L51.3025559,25.6387562 L51.3025559,25.4056134 L49.1935374,25.4056134 L49.1935374,25.6387562 Z M48.48914,28.3033027 L48.8071524,28.3033027 L48.8071524,25.4056134 L48.5334629,25.4056134 L48.5334629,27.9371909 L48.5253139,27.9371909 L46.8509786,25.4056134 L46.5411152,25.4056134 L46.5411152,28.3033027 L46.8148047,28.3033027 L46.8148047,25.7757003 L46.8229537,25.7757003 L48.48914,28.3033027 Z M46.0581339,28.3033027 L46.0581339,28.0699611 L44.3637241,28.0699611 L44.3637241,26.9187562 L45.8569911,26.9187562 L45.8569911,26.6854146 L44.3637241,26.6854146 L44.3637241,25.6387562 L46.0179848,25.6387562 L46.0179848,25.4056134 L44.0900346,25.4056134 L44.0900346,28.3033027 L46.0581339,28.3033027 Z M40.9989541,28.3033027 L40.9989541,25.7194519 L41.0071031,25.7194519 L41.9609416,28.3033027 L42.2183329,28.3033027 L43.1683949,25.7194519 L43.1763453,25.7194519 L43.1763453,28.3033027 L43.4500347,28.3033027 L43.4500347,25.4056134 L43.035426,25.4056134 L42.1018608,27.9612406 L42.0937118,27.9612406 L41.1438485,25.4056134 L40.7252647,25.4056134 L40.7252647,28.3033027 L40.9989541,28.3033027 Z M39.0710039,25.6387562 L38.5035505,27.1602468 L39.638656,27.1602468 L39.0710039,25.6387562 Z M38.0688673,28.3033027 L37.7872276,28.3033027 L38.9263082,25.4056134 L39.2361716,25.4056134 L40.3468299,28.3033027 L40.0651902,28.3033027 L39.7310784,27.3935884 L38.4109294,27.3935884 L38.0688673,28.3033027 Z M35.9236749,25.6387562 L36.8413394,25.6387562 L36.8413394,28.3033027 L37.1150288,28.3033027 L37.1150288,25.6387562 L38.0326934,25.6387562 L38.0326934,25.4056134 L35.9236749,25.4056134 L35.9236749,25.6387562 Z M34.7040973,26.9873276 C34.9777867,26.9873276 35.2153022,27.0274766 35.2796998,27.3413151 C35.3240227,27.5627313 35.2957991,28.1059362 35.4084948,28.3033027 L35.7102091,28.3033027 L35.7102091,28.2750791 C35.6378612,28.2188306 35.6016873,28.0979859 35.5895631,27.6593275 C35.581414,27.3534394 35.5613395,26.9913027 35.2192774,26.8744332 C35.5533892,26.7255636 35.6901345,26.5323711 35.6901345,26.1662593 C35.6901345,25.6308059 35.3401221,25.4056134 34.7040973,25.4056134 L33.5691905,25.4056134 L33.5691905,28.3033027 L33.8426812,28.3033027 L33.8426812,26.9873276 L34.7040973,26.9873276 Z M33.8426812,26.7537872 L33.8426812,25.6387562 L34.7122464,25.6387562 C35.0783582,25.6387562 35.4166439,25.7435016 35.4166439,26.1781848 C35.4166439,26.5846444 35.1026066,26.7537872 34.696147,26.7537872 L33.8426812,26.7537872 Z M31.9067807,25.6387562 L31.3393273,27.1602468 L32.4744328,27.1602468 L31.9067807,25.6387562 Z M30.9046441,28.3033027 L30.6230044,28.3033027 L31.7618863,25.4056134 L32.0719484,25.4056134 L33.1828055,28.3033027 L32.900967,28.3033027 L32.5668552,27.3935884 L31.246905,27.3935884 L30.9046441,28.3033027 Z M28.9888181,26.7899611 L28.9888181,25.6387562 L29.6971908,25.6387562 C30.2125696,25.6387562 30.4459112,25.8321475 30.4459112,26.1942842 C30.4459112,26.6854146 30.1278988,26.7899611 29.6166939,26.7899611 L28.9888181,26.7899611 Z M28.9888181,28.3033027 L28.9888181,27.0233027 L29.6087436,27.0233027 C30.1439982,27.0233027 30.7194019,26.8625077 30.7194019,26.2145574 C30.7194019,25.7796755 30.5264081,25.4056134 29.7737125,25.4056134 L28.7151287,25.4056134 L28.7151287,28.3033027 L28.9888181,28.3033027 Z M28.2361225,28.3033027 L28.2361225,28.0699611 L26.5417127,28.0699611 L26.5417127,26.9187562 L28.0349797,26.9187562 L28.0349797,26.6854146 L26.5417127,26.6854146 L26.5417127,25.6387562 L28.1959735,25.6387562 L28.1959735,25.4056134 L26.2680233,25.4056134 L26.2680233,28.3033027 L28.2361225,28.3033027 Z M23.6358744,25.6387562 L24.2919737,25.6387562 C24.5332656,25.6387562 24.7829054,25.6548556 24.9560234,25.7474767 C25.362483,25.9649177 25.4551041,26.4278245 25.4551041,26.8503835 C25.4551041,27.2447189 25.3585078,27.7398244 24.9721227,27.9371909 C24.7507066,28.0538617 24.5374395,28.0699611 24.2919737,28.0699611 L23.6358744,28.0699611 L23.6358744,25.6387562 Z M24.3521973,28.3033027 C24.7346072,28.3033027 25.113042,28.2468555 25.3785823,27.9491163 C25.6443215,27.6593275 25.7287935,27.2327934 25.7287935,26.8503835 C25.7287935,26.4639984 25.6282221,25.9005202 25.2458122,25.6226569 C24.9760979,25.4254892 24.6741849,25.4056134 24.3521973,25.4056134 L23.3621849,25.4056134 L23.3621849,28.3033027 L24.3521973,28.3033027 L24.3521973,28.3033027 Z" id="Fill-12" fill="#2C668F"></path>
                <path d="M35.3272029,20.1111044 L32.4640974,20.1111044 L31.7139857,22.8505825 L31.7139857,22.8933154 C31.7139857,23.0640483 31.7994515,23.1495141 31.9701844,23.1495141 L34.1479731,23.1495141 C34.2477495,23.1495141 34.3401719,23.1175142 34.4256377,23.0535142 C34.5111035,22.9893154 34.5679483,22.9145825 34.5965694,22.8293154 L35.3272029,20.1111044" id="Fill-13" fill="#387FA3"></path>
                <polyline id="Fill-14" fill="#387FA3" points="75.2319955 23.1393775 77.0281693 20.5992534 78.0142065 20.5992534 78.0142065 16.7546822 74.1074242 16.7546822 71.834033 14.4810923 71.834033 10.748223 72.9737099 9.26549013 74.1074242 8.1840492 78.7748524 8.1840492 81.0482436 9.23567647 81.0482436 11.8580862 78.072045 11.8580862 78.072045 10.724372 74.9837471 10.724372 74.9837471 14.1614898 78.7748524 14.1614898 79.9145294 14.4810923 81.3970635 15.620968 81.3970635 21.7391291 79.9145294 22.7563713 78.7748524 23.1393775 75.2319955 23.1393775"></polyline>
                <polyline id="Fill-15" fill="#2C668F" points="73.1388776 23.1592533 75.0077968 20.6147565 75.0077968 18.7311293 71.8576852 18.7311293 71.8576852 21.0045205 72.0655858 22.1382347 73.1388776 23.1592533"></polyline>
                <polyline id="Fill-16" fill="#387FA3" points="90.3334108 11.844372 93.3672491 13.3600986 93.3672491 20.8262348 92.2273734 21.9603465 91.0936592 23.1582595 85.7864297 23.1582595 84.646554 21.9603465 83.5128397 20.8262348 83.5128397 8.20273243 86.6047153 8.20273243 86.6047153 20.6181354 90.3334108 20.6181354 90.3334108 11.844372"></polyline>
                <polyline id="Fill-17" fill="#2C668F" points="90.3334108 10.6025335 93.4254851 12.1289931 93.4254851 8.20253367 90.3334108 8.20253367 90.3334108 10.6025335"></polyline>
                <path d="M53.8520216,10.6937633 C53.7429036,10.6939621 55.9367917,8.10375107 56.1087172,8.11029764 L57.1961208,8.11029764 C57.2674748,8.11029764 57.3314748,8.13873243 57.3883196,8.19577591 C57.4451643,8.25242187 57.4737854,8.3237759 57.4737854,8.40924173 L57.4737854,10.3950304 C57.4737854,10.4802975 57.4451643,10.5514528 57.3883196,10.6084963 C57.3314748,10.665341 57.2674748,10.6937633 57.1961208,10.6937633 C56.0814873,10.6937633 54.9670526,10.6937633 53.8520216,10.6937633" id="Fill-18" fill="#387FA3"></path>
                <path d="M55.2578352,8.11031008 C55.7503569,8.11190014 53.3424068,10.6883969 53.1969161,10.6937633 C53.0573881,10.6953534 52.9387298,10.7450428 52.8403447,10.8432292 C52.740767,10.9428068 52.6908788,11.0568938 52.6908788,11.1848937 L52.6908788,22.7148309 C52.6908788,22.8004955 52.6624565,22.8680732 52.6056118,22.9179614 C52.5487671,22.9678496 52.4845683,22.9924955 52.413413,22.9924955 L49.8724939,22.9924955 C49.6876492,22.9924955 49.5948293,22.9000732 49.5948293,22.7148309 L49.5948293,11.1848937 C49.5948293,11.0425832 49.5449411,10.9251174 49.4455623,10.832695 C49.3457859,10.7402727 49.2245436,10.6937633 49.0824319,10.6937633 L44.9910035,10.6937633 C44.920047,10.6937633 44.8554507,10.665341 44.7988048,10.6084963 C44.7419601,10.5516515 44.7133389,10.4802975 44.7133389,10.3950304 L44.7133389,8.40924173 C44.7133389,8.3237759 44.7419601,8.25242187 44.7988048,8.19577591 C44.8554507,8.13893119 44.9198483,8.11031008 44.9910035,8.11031008 L55.2578352,8.11031008" id="Fill-19" fill="#2C668F"></path>
                <polyline id="Fill-20" fill="#387FA3" points="98.9185531 23.1393775 100.714926 20.5992534 101.700764 20.5992534 101.700764 16.7546822 97.7941805 16.7546822 95.5207893 14.4810923 95.5207893 10.748223 96.6604663 9.26549013 97.7941805 8.1840492 102.46141 8.1840492 104.734801 9.23567647 104.734801 11.8580862 101.758801 11.8580862 101.758801 10.724372 98.6703047 10.724372 98.6703047 14.1614898 102.46141 14.1614898 103.601087 14.4810923 105.08382 15.620968 105.08382 21.7391291 103.601087 22.7563713 102.46141 23.1393775 98.9185531 23.1393775"></polyline>
                <path d="M20.0025827,8.20312995 C19.8747814,8.20312995 19.7640734,8.24586286 19.671651,8.33112994 C19.5790299,8.41659577 19.5329181,8.52332868 19.5329181,8.65152743 L19.5329181,13.5350054 C19.5329181,13.677316 19.5800237,13.7921979 19.671651,13.87667 C19.7630796,13.961142 19.884123,13.9838004 20.012123,13.987378 L21.6852658,14.0330923 C22.0927192,14.0442228 22.3147316,13.8506327 22.3161229,13.5230799 L22.3262595,11.1831049 C22.3268558,11.0757757 22.4518744,10.9763969 22.5401229,10.9763969 L24.2929675,10.9763969 C25.1468308,10.9763969 25.9299363,11.1888689 26.6414891,11.608844 C27.3530418,12.0284216 27.9193027,12.5944837 28.3390791,13.3062352 C28.7590542,14.0179867 28.9689424,14.8008935 28.9689424,15.6549556 C28.9689424,16.5090176 28.7590542,17.2919244 28.3390791,18.0034772 C27.9193027,18.7152287 27.3532406,19.2812908 26.6414891,19.7010671 C25.9299363,20.121241 25.1468308,20.3309305 24.2929675,20.3309305 L22.5633775,20.3309305 C22.4922223,20.3309305 22.4316011,20.305887 22.3819117,20.2561976 C22.3320235,20.2065081 22.3071788,20.1448932 22.3071788,20.0747317 L22.3071788,17.723825 C22.3071788,17.5968188 22.2608682,17.4890921 22.1684459,17.4036263 C22.0758248,17.3181605 21.9643217,17.2754275 21.8373155,17.2754275 L19.9797255,17.2754275 C19.8670299,17.2754275 19.7622845,17.3225331 19.6702597,17.4143592 C19.5782349,17.5061853 19.531328,17.6101356 19.531328,17.723825 L19.531328,22.6371167 C19.531328,22.7651167 19.5782349,22.8760235 19.6702597,22.9680483 C19.7622845,23.0600732 19.8660361,23.1067812 19.9797255,23.1067812 L24.2929675,23.1067812 C25.6451165,23.1067812 26.8907313,22.7722719 28.0294145,22.1032533 C29.1682964,21.4342347 30.0722467,20.5302845 30.7410665,19.3916013 C31.4102838,18.2527194 31.7447931,17.0073033 31.7447931,15.6549556 C31.7447931,14.3026078 31.4102838,13.0571918 30.7410665,11.9183098 C30.0722467,10.7796267 29.1682964,9.87567643 28.0294145,9.20665784 C26.8907313,8.53744048 25.6449177,8.20312995 24.2929675,8.20312995 L20.0025827,8.20312995" id="Fill-21" fill="#2C668F"></path>
                <polyline id="Fill-22" fill="#2C668F" points="96.825634 23.1592533 98.6945531 20.6147565 98.6945531 18.7311293 95.5444415 18.7311293 95.5444415 21.0045205 95.7523421 22.1382347 96.825634 23.1592533"></polyline>
                <path d="M12.3770427,1.51334152 C12.1419123,2.21932906 12.1419123,2.9793787 12.376049,3.72949046 C11.7243223,3.85987555 11.333167,4.38141589 11.3351546,4.93992517 L11.3617881,11.6803968 L8.88288146,11.6803968 C8.88288146,9.42250876 8.85604916,7.16521696 8.85604916,4.9073289 C8.87671997,3.5420619 9.89018575,1.51552786 12.3770427,1.51334152" id="Fill-23" fill="#296144"></path>
                <path d="M40.6551032,8.18166411 C40.7403702,8.18166411 40.8329914,8.21366411 40.932569,8.2776641 C41.0323454,8.34186286 41.0963454,8.41659577 41.1247677,8.50206161 L45.0536122,22.8505825 L45.0536122,22.8933154 C45.0536122,23.0640483 44.9681464,23.1495141 44.7974135,23.1495141 L42.619426,23.1495141 C42.5196496,23.1495141 42.4272273,23.1175142 42.3419602,23.0535142 C42.2564944,22.9893154 42.1994509,22.9145825 42.1710285,22.8293154 L41.1035007,18.8575392 C41.0607677,18.729738 40.9824572,18.6230051 40.868569,18.5373405 C40.7546808,18.4518747 40.6336373,18.4091418 40.5056373,18.4091418 L37.2813891,18.4091418 L37.2347767,18.4057883 C36.8984665,18.8135878 36.3892964,19.0735889 35.8193271,19.0735889 C34.8064576,19.0735889 33.985588,18.2525207 33.985588,17.2400487 C33.985588,16.2273779 34.8064576,15.4063096 35.8193271,15.4063096 C36.4031082,15.4063096 36.9231079,15.6790644 37.2589196,16.1040533 L37.2813891,16.1033531 L37.2813891,16.1033531 L39.8435753,16.1033531 C39.971774,16.1033531 40.0749293,16.0570425 40.1532398,15.9646202 C40.2315504,15.8719991 40.2494386,15.7616885 40.2067057,15.6334898 L39.010979,11.2777136 C38.9825567,11.1638254 38.9114014,11.0642478 38.7975132,10.978782 C38.6834263,10.8933161 38.5623828,10.850782 38.4343828,10.850782 L38.284917,10.850782 C38.1710288,10.850782 38.0571406,10.8933161 37.9434512,10.978782 C37.8293642,11.0642478 37.7584077,11.1638254 37.7297866,11.2777136 L36.9397245,14.1388315 C36.9113021,14.2242973 36.8580351,14.2882973 36.7797245,14.3310302 C36.701414,14.3737631 36.6123705,14.3809184 36.5127929,14.352496 L34.5057371,13.8613656 C34.4202712,13.8470551 34.3526936,13.7973656 34.3028054,13.7118998 C34.253116,13.626434 34.2423831,13.5409681 34.2708054,13.4557011 L35.6159979,8.52332868 C35.6444202,8.43786285 35.7050414,8.3595523 35.7974637,8.28839702 C35.8900848,8.21724175 35.9789295,8.18166411 36.0643954,8.18166411 L40.6551032,8.18166411 Z" id="Fill-24" fill="#2C668F"></path>
                <path d="M1.19473285,19.241738 C1.90072038,19.4768684 2.66057127,19.4768684 3.41088178,19.2427318 C3.54126687,19.8944584 4.06280721,20.2856137 4.62131649,20.2838249 L11.3615894,20.2567938 L11.3615894,22.7358993 C9.10390008,22.7358993 6.84660829,22.7627316 4.58872022,22.7627316 C3.22345322,22.7420608 1.19672043,21.7287937 1.19473285,19.241738" id="Fill-25" fill="#DDD746"></path>
            </g>
        </g>
    </g>
</svg>