<?xml version="1.0" encoding="utf-8"?>
<!-- Generator: Adobe Illustrator 22.0.0, SVG Export Plug-In . SVG Version: 6.00 Build 0)  -->
<svg version="1.1" id="Camada_1" xmlns="http://www.w3.org/2000/svg" xmlns:xlink="http://www.w3.org/1999/xlink" x="0px" y="0px"
	 viewBox="0 0 30 30" style="enable-background:new 0 0 30 30;" xml:space="preserve">
<style type="text/css">
	.st0{fill:#BCE0FF;}
	.st1{fill:#0088FF;}
</style>
<path id="Path" class="st0" d="M18.8,26.5c0,0.6-0.5,1.2-1.2,1.2h-3.5V24c0-0.6-0.5-1.2-1.2-1.2H8.2C7.6,22.9,7,23.4,7,24v3.6H3.5
	c-0.6,0-1.2-0.5-1.2-1.2V4.7c0-1.3,1.1-2.3,2.3-2.3h11.7c1.3,0,2.3,1.1,2.3,2.3V26.5z"/>
<path id="Unidades-de-saúde" class="st1" d="M28.8,21.8c0.6,0,1.2-0.5,1.2-1.2v-9.5c0-2.6-2.1-4.7-4.7-4.7h-4.2V4.7
	C21.1,2.1,19,0,16.4,0H4.7C2.1,0,0,2.1,0,4.7v21.8C0,28.4,1.6,30,3.5,30h4.7c0.6,0,1.2-0.5,1.2-1.2v-3.6h2.3v3.6
	c0,0.6,0.5,1.2,1.2,1.2h13.6c1.9,0,3.5-1.6,3.5-3.5c0-0.6-0.5-1.2-1.2-1.2s-1.2,0.5-1.2,1.2c0,0.6-0.5,1.2-1.2,1.2h-5.6
	c0.1-0.4,0.2-0.8,0.2-1.2V8.8h4.2c1.3,0,2.3,1.1,2.3,2.3v9.5C27.7,21.3,28.2,21.8,28.8,21.8z M18.8,26.5c0,0.6-0.5,1.2-1.2,1.2h-3.5
	V24c0-0.6-0.5-1.2-1.2-1.2H8.2C7.6,22.9,7,23.4,7,24v3.6H3.5c-0.6,0-1.2-0.5-1.2-1.2V4.7c0-1.3,1.1-2.3,2.3-2.3h11.7
	c1.3,0,2.3,1.1,2.3,2.3V26.5z M9.4,13.5h2.3v2.3H9.4V13.5z M14.1,13.5h2.3v2.3h-2.3V13.5z M4.7,13.5H7v2.3H4.7V13.5z M9.4,18.2h2.3
	v2.3H9.4V18.2z M14.1,18.2h2.3v2.3h-2.3V18.2z M25.4,15.8h-2.3v-2.3h2.3V15.8z M25.4,20.5h-2.3v-2.3h2.3V20.5z M23.1,22.9h2.3v2.3
	h-2.3V22.9z M4.7,18.2H7v2.3H4.7V18.2z M14.1,7.6c0,0.6-0.5,1.2-1.2,1.2h-1.2V10c0,0.6-0.5,1.2-1.2,1.2S9.4,10.6,9.4,10V8.8H8.2
	C7.6,8.8,7,8.3,7,7.6s0.5-1.2,1.2-1.2h1.2V5.3c0-0.6,0.5-1.2,1.2-1.2s1.2,0.5,1.2,1.2v1.2h1.2C13.5,6.4,14.1,7,14.1,7.6z"/>
</svg>
