<?xml version="1.0" encoding="utf-8"?>
<!-- Generator: Adobe Illustrator 22.0.0, SVG Export Plug-In . SVG Version: 6.00 Build 0)  -->
<svg version="1.1" id="Camada_1" xmlns="http://www.w3.org/2000/svg" xmlns:xlink="http://www.w3.org/1999/xlink" x="0px" y="0px"
	 viewBox="0 0 30 30" style="enable-background:new 0 0 30 30;" xml:space="preserve">
<style type="text/css">
	.st0{fill:#E3C0FF;}
	.st1{fill:#8E2CDC;}
</style>
<circle id="Oval" class="st0" cx="15" cy="15" r="8"/>
<path id="Infectado" class="st1" d="M30,15c0,1-0.8,1.8-1.8,1.8c-0.5,0-1-0.2-1.3-0.6h-4.2c-0.6,0-1.2-0.5-1.2-1.2
	c0-3.6-3-6.6-6.6-6.6s-6.6,3-6.6,6.6s3,6.6,6.6,6.6c0.9,0,1.8-0.2,2.6-0.5c0,0,0,0,0,0c0,0,0,0,0,0c0.7-0.3,1.3-0.7,1.8-1.2
	c0,0,0.1-0.1,0.1-0.1c0.4-0.4,1.1-0.5,1.6-0.1c0,0,0,0,0,0c0,0,0,0,0.1,0.1l3.2,3.2c0.5,0,1,0.1,1.3,0.5c0.7,0.7,0.7,1.8,0,2.5
	c-0.7,0.7-1.8,0.7-2.5,0c-0.4-0.4-0.5-0.9-0.5-1.3l-2.4-2.4c-0.2,0.2-0.5,0.3-0.7,0.5l0.6,1.3c0.3,0.6,0,1.3-0.6,1.5
	c-0.2,0.1-0.3,0.1-0.5,0.1c-0.5,0-0.9-0.3-1.1-0.7l-0.6-1.3c-0.4,0.1-0.9,0.2-1.3,0.3v3.1c0.4,0.3,0.6,0.8,0.6,1.3
	c0,1-0.8,1.8-1.8,1.8c-1,0-1.8-0.8-1.8-1.8c0-0.5,0.2-1,0.6-1.3v-3.1c-0.4-0.1-0.9-0.1-1.3-0.3L12,24.9c-0.2,0.4-0.6,0.7-1.1,0.7
	c-0.2,0-0.3,0-0.5-0.1c-0.6-0.3-0.9-0.9-0.6-1.5l0.6-1.3c-0.3-0.2-0.6-0.4-0.8-0.6l-2.5,2.5c0,0.5-0.1,1-0.5,1.3
	c-0.7,0.7-1.8,0.7-2.5,0c-0.7-0.7-0.7-1.8,0-2.5c0.4-0.4,0.9-0.5,1.3-0.5l2.5-2.5c-0.2-0.3-0.4-0.5-0.6-0.8l-2.4,1
	c-0.2,0.1-0.3,0.1-0.5,0.1c-0.5,0-0.9-0.3-1.1-0.7c-0.3-0.6,0-1.3,0.6-1.5l2.4-1c-0.1-0.4-0.2-0.8-0.3-1.3H3.1
	c-0.3,0.4-0.8,0.6-1.3,0.6C0.8,16.8,0,16,0,15c0-1,0.8-1.8,1.8-1.8c0.5,0,1,0.2,1.3,0.6h3.1c0.1-0.4,0.1-0.9,0.3-1.3L5.1,12
	c-0.6-0.3-0.9-0.9-0.6-1.5C4.7,9.8,5.4,9.6,6,9.8l1.3,0.6c0.2-0.2,0.3-0.5,0.5-0.7L5.4,7.2c-0.5,0-1-0.1-1.3-0.5
	C3.4,6,3.4,4.9,4.1,4.2c0.7-0.7,1.8-0.7,2.5,0c0.4,0.4,0.5,0.9,0.5,1.3L9.5,8c0.3-0.2,0.6-0.4,0.9-0.6L9.4,5c-0.3-0.6,0-1.3,0.6-1.5
	s1.3,0,1.5,0.6l1,2.4c0.4-0.1,0.8-0.2,1.3-0.3V3.1c-0.4-0.3-0.6-0.8-0.6-1.3C13.2,0.8,14,0,15,0c1,0,1.8,0.8,1.8,1.8
	c0,0.5-0.2,1-0.6,1.3v3.1c0.4,0.1,0.9,0.1,1.3,0.3L18,5.1c0.3-0.6,0.9-0.9,1.5-0.6c0.6,0.3,0.9,0.9,0.6,1.5l-0.6,1.3
	c0.3,0.2,0.6,0.4,0.8,0.6l2.3-2.3c0-0.5,0.1-1,0.5-1.3c0.7-0.7,1.8-0.7,2.5,0c0.7,0.7,0.7,1.8,0,2.5c-0.4,0.4-0.9,0.5-1.3,0.5
	l-2.3,2.3c0.2,0.3,0.4,0.5,0.6,0.8L24,9.8c0.6-0.3,1.3,0,1.5,0.6s0,1.3-0.6,1.5l-1.3,0.6c0.1,0.4,0.2,0.8,0.3,1.3h3.1
	c0.3-0.4,0.8-0.6,1.3-0.6C29.2,13.2,30,14,30,15L30,15z M26,18.5l-1.7-0.8c-0.6-0.3-1.3,0-1.6,0.6s0,1.3,0.6,1.6l1.7,0.8
	c0.2,0.1,0.3,0.1,0.5,0.1c0.4,0,0.9-0.3,1.1-0.7C26.8,19.5,26.6,18.8,26,18.5z M10.4,15.1c0,1,0.8,1.8,1.8,1.8s1.8-0.8,1.8-1.8
	s-0.8-1.8-1.8-1.8S10.4,14.1,10.4,15.1z M18.1,12.4c0-0.8-0.7-1.5-1.5-1.5c-0.8,0-1.5,0.7-1.5,1.5s0.7,1.5,1.5,1.5
	C17.4,13.9,18.1,13.2,18.1,12.4z M17.4,18c0.6,0,1.2-0.5,1.2-1.2s-0.5-1.2-1.2-1.2s-1.2,0.5-1.2,1.2S16.8,18,17.4,18z"/>
</svg>
