<?xml version="1.0" encoding="utf-8"?>
<!-- Generator: Adobe Illustrator 22.0.0, SVG Export Plug-In . SVG Version: 6.00 Build 0)  -->
<svg version="1.1" id="Camada_1" xmlns="http://www.w3.org/2000/svg" xmlns:xlink="http://www.w3.org/1999/xlink" x="0px" y="0px"
	 viewBox="0 0 28 28" style="enable-background:new 0 0 28 28;" xml:space="preserve">
<style type="text/css">
	.st0{fill:#FF5992;}
	.st1{fill:#842E4B;}
</style>
<circle id="Oval-5" class="st0" cx="14" cy="14" r="13.8"/>
<path id="Combined-Shape" class="st1" d="M17.9,18.5c0.5,0.4,0.6,1,0.2,1.5c-0.4,0.5-1,0.6-1.5,0.2l0,0l0,0l0,0
	c-1.5-1.1-3.6-1.1-5.1,0c-0.4,0.4-1.1,0.3-1.5-0.1c-0.4-0.4-0.3-1.1,0.1-1.5c0,0,0,0,0.1,0C12.4,16.8,15.6,16.8,17.9,18.5z M8.6,9.7
	c1.2,0,2.1,1,2.1,2.1S9.8,14,8.6,14s-2.1-1-2.1-2.1S7.5,9.7,8.6,9.7z M19.4,9.7c1.2,0,2.1,1,2.1,2.1s-1,2.1-2.1,2.1
	c-1.2,0-2.1-1-2.1-2.1S18.2,9.7,19.4,9.7z"/>
</svg>
