<?xml version="1.0" encoding="utf-8"?>
<!-- Generator: Adobe Illustrator 22.0.0, SVG Export Plug-In . SVG Version: 6.00 Build 0)  -->
<svg version="1.1" id="Camada_1" xmlns="http://www.w3.org/2000/svg" xmlns:xlink="http://www.w3.org/1999/xlink" x="0px" y="0px"
	 viewBox="0 0 25 30" style="enable-background:new 0 0 25 30;" xml:space="preserve">
<style type="text/css">
	.st0{fill:#BCE0FF;}
	.st1{fill:#0088FF;}
</style>
<rect id="Rectangle" x="19" y="3" class="st0" width="5" height="21"/>
<path id="Rectangle-Copy" class="st0" d="M1,3h13v16c3.3-0.4,5-0.4,5,0s-0.3,1.8-1,4l-4,1H1V3z"/>
<path id="Shape-Copy" class="st1" d="M23.8,15.9c0.6,0,1.2-0.5,1.2-1.2V3.5c0-0.6-0.5-1.2-1.2-1.2H20C19.3,1,17.9,0,16.3,0h-1.7
	c-0.6,0-1.2,0.5-1.2,1.2v1.2H3.5C1.6,2.3,0,3.9,0,5.9v20.6C0,28.4,1.6,30,3.5,30h20.4c0.6,0,1.2-0.5,1.2-1.2s-0.5-1.2-1.2-1.2H3.5
	c-0.6,0-1.2-0.5-1.2-1.2s0.5-1.2,1.2-1.2h20.4c0.6,0,1.2-0.5,1.2-1.2v-3.5c0-0.6-0.5-1.2-1.2-1.2s-1.2,0.5-1.2,1.2V23H20
	c0.2-0.4,0.3-0.8,0.4-1.3c0-0.1,0-0.2,0-0.3V4.7h2.3v10.1C22.7,15.4,23.2,15.9,23.8,15.9z M15.7,2.3h0.6c1,0,1.7,0.8,1.7,1.8v13.4
	c-0.5-0.3-1.1-0.4-1.7-0.4h-0.6C15.7,17.1,15.7,2.3,15.7,2.3z M7,23V8.2C7,7.6,6.4,7,5.8,7S4.6,7.6,4.6,8.2V23H3.5
	c-0.4,0-0.8,0.1-1.2,0.2V5.9c0-0.6,0.5-1.2,1.2-1.2h9.9v13.6c0,0.6,0.5,1.2,1.2,1.2h1.7c1,0,1.7,0.8,1.7,1.8S17.3,23,16.3,23H7z"/>
</svg>
