<?xml version="1.0" encoding="utf-8"?>
<!-- Generator: Adobe Illustrator 22.0.0, SVG Export Plug-In . SVG Version: 6.00 Build 0)  -->
<svg version="1.1" id="Camada_1" xmlns="http://www.w3.org/2000/svg" xmlns:xlink="http://www.w3.org/1999/xlink" x="0px" y="0px"
	 viewBox="0 0 44 53" style="enable-background:new 0 0 44 53;" xml:space="preserve">
<style type="text/css">
	.st0{fill:#6EB434;stroke:#FFFFFF;stroke-width:2;}
	.st1{fill-opacity:0.2092;}
	.st2{fill:#FFFFFF;}
</style>
<g id="Artboards">
	<g id="Mapa" transform="translate(-58.000000, -252.000000)">
		<g id="verde" transform="translate(60.000000, 254.000000)">
			<path id="Path" d="M20,17.1c-1.6,0-2.9,1.3-2.9,2.9s1.3,2.9,2.9,2.9s2.9-1.3,2.9-2.9S21.6,17.1,20,17.1z"/>
			<g id="Group-3">
				<path id="Shape" class="st0" d="M20-1C14.2-1,9,1.4,5.2,5.2S-1,14.2-1,20c0,4.7,1.5,9,4.2,12.6C5.7,36,9.4,38.7,13.6,40l4.2,8.4
					c0.2,0.4,0.5,0.7,0.9,1c0.4,0.2,0.8,0.4,1.3,0.4c0.5,0,0.9-0.1,1.3-0.4c0.4-0.2,0.7-0.6,0.9-1l4.2-8.4c4.3-1.4,7.9-4,10.4-7.4
					C39.5,29,41,24.7,41,20c0-5.8-2.4-11-6.2-14.8S25.8-1,20-1z"/>
				<g id="hospital-_x28_2_x29_" transform="translate(10.000000, 9.000000)">
					<path id="Path_1_" class="st1" d="M12.5,17.7c0,0.4-0.4,0.8-0.8,0.8H9.4V16c0-0.4-0.3-0.8-0.8-0.8H5.5c-0.4,0-0.8,0.3-0.8,0.8
						v2.4H2.3c-0.4,0-0.8-0.4-0.8-0.8V3.1c0-0.9,0.7-1.6,1.6-1.6h7.8c0.9,0,1.6,0.7,1.6,1.6V17.7z"/>
					<path id="Shape_1_" class="st2" d="M19.2,14.5c0.4,0,0.8-0.3,0.8-0.8V7.4c0-1.7-1.4-3.1-3.1-3.1h-2.8V3.1
						c0-1.7-1.4-3.1-3.1-3.1H3.1C1.4,0,0,1.4,0,3.1v14.5C0,18.9,1.1,20,2.3,20h3.1c0.4,0,0.8-0.3,0.8-0.8v-2.4h1.6v2.4
						c0,0.4,0.3,0.8,0.8,0.8h9.1c1.3,0,2.3-1.1,2.3-2.3c0-0.4-0.3-0.8-0.8-0.8s-0.8,0.3-0.8,0.8c0,0.4-0.4,0.8-0.8,0.8h-3.7
						c0.1-0.2,0.1-0.5,0.1-0.8V5.9h2.8c0.9,0,1.6,0.7,1.6,1.6v6.3C18.4,14.2,18.8,14.5,19.2,14.5z M12.5,17.7c0,0.4-0.4,0.8-0.8,0.8
						H9.4V16c0-0.4-0.3-0.8-0.8-0.8H5.5c-0.4,0-0.8,0.3-0.8,0.8v2.4H2.3c-0.4,0-0.8-0.4-0.8-0.8V3.1c0-0.9,0.7-1.6,1.6-1.6h7.8
						c0.9,0,1.6,0.7,1.6,1.6V17.7z M6.2,9h1.6v1.6H6.2V9z M9.4,9h1.6v1.6H9.4V9z M3.1,9h1.6v1.6H3.1V9z M6.2,12.1h1.6v1.6H6.2V12.1z
						 M9.4,12.1h1.6v1.6H9.4V12.1z M17,10.5h-1.6V9H17V10.5z M17,13.7h-1.6v-1.6H17V13.7z M15.4,15.2H17v1.6h-1.6V15.2z M3.1,12.1
						h1.6v1.6H3.1V12.1z M9.4,5.1c0,0.4-0.3,0.8-0.8,0.8H7.8v0.8c0,0.4-0.3,0.8-0.8,0.8S6.2,7.1,6.2,6.6V5.9H5.5
						C5,5.9,4.7,5.5,4.7,5.1S5,4.3,5.5,4.3h0.8V3.5c0-0.4,0.3-0.8,0.8-0.8s0.8,0.3,0.8,0.8v0.8h0.8C9,4.3,9.4,4.6,9.4,5.1z"/>
				</g>
			</g>
		</g>
	</g>
</g>
</svg>
