<?xml version="1.0" encoding="utf-8"?>
<!-- Generator: Adobe Illustrator 22.0.0, SVG Export Plug-In . SVG Version: 6.00 Build 0)  -->
<svg version="1.1" id="Camada_1" xmlns="http://www.w3.org/2000/svg" xmlns:xlink="http://www.w3.org/1999/xlink" x="0px" y="0px"
	 viewBox="0 0 18 18" style="enable-background:new 0 0 18 18;" xml:space="preserve">
<style type="text/css">
	.st0{fill:#0089FF;}
</style>
<g id="Artboards">
	<path id="Rotas" class="st0" d="M7.8,0.5c0.6-0.6,1.7-0.6,2.3,0l0,0l7.4,7.4c0.6,0.7,0.6,1.7,0,2.3l0,0l-7.4,7.4
		C9.8,17.8,9.4,18,9,18c-0.4,0-0.8-0.2-1.2-0.5l0,0l-7.4-7.4c-0.6-0.6-0.6-1.7,0-2.3l0,0L7.8,0.5z M10.6,5.3v2H6.5
		c-0.5,0-0.8,0.4-0.8,0.8v3.3h1.6V9h3.3v2l2.9-2.9L10.6,5.3z"/>
</g>
</svg>
