<?xml version="1.0" encoding="utf-8"?>
<!-- Generator: Adobe Illustrator 22.0.0, SVG Export Plug-In . SVG Version: 6.00 Build 0)  -->
<svg version="1.1" id="Camada_1" xmlns="http://www.w3.org/2000/svg" xmlns:xlink="http://www.w3.org/1999/xlink" x="0px" y="0px"
	 viewBox="0 0 16 16" style="enable-background:new 0 0 16 16;" xml:space="preserve">
<style type="text/css">
	.st0{fill:#B8DEFF;}
	.st1{fill:#0089FF;}
</style>
<g id="Artboards">
	<g id="telefone">
		<g id="phone">
			<path id="Path" class="st0" d="M14,11.2c0-0.4-0.3-0.7-0.6-0.7c-0.7-0.1-1.4-0.3-2.1-0.5c-0.3-0.1-0.5,0-0.7,0.2L9.6,11
				c-0.2,0.2-0.6,0.3-0.8,0.1C6.9,10,5.3,8.5,4.3,6.6C4.1,6.3,4.2,6,4.4,5.8l0.3,0.6C4.9,6.1,5,5.8,4.9,5.6C4.6,4.9,4.5,4.2,4.4,3.4
				c0-0.3-0.3-0.6-0.7-0.6H1.6C1.4,2.8,1.2,2.9,1,3.1S0.8,3.4,0.9,3.6c0.2,2.1,1.5,2.6,2.6,4.3c1,1.6,2.4,3,4,4
				c1.7,1.1,3.7,1.8,5.7,2c0.2,0,0.4,0,0.5-0.2c0.1-0.1,0.2-0.3,0.2-0.5V11.2z"/>
			<g id="Shape">
				<path id="path-1_1_" class="st1" d="M14,11.2c0-0.4-0.3-0.7-0.6-0.7c-0.7-0.1-1.4-0.3-2.1-0.5c-0.3-0.1-0.5,0-0.7,0.2L9.6,11
					c-0.2,0.2-0.6,0.3-0.8,0.1C6.9,10,5.3,8.5,4.3,6.6C4.1,6.3,4.2,6,4.4,5.8l0.9-0.9c0.2-0.2,0.3-0.5,0.2-0.7C5.2,3.4,5,2.7,4.9,2
					c0-0.3-0.3-0.6-0.7-0.6H2.1c-0.2,0-0.4,0.1-0.5,0.2S1.4,2,1.4,2.2c0.2,2.1,0.9,4,2,5.8c1,1.6,2.4,3,4,4c1.7,1.1,3.7,1.8,5.7,2
					c0.2,0,0.4,0,0.5-0.2c0.1-0.1,0.2-0.3,0.2-0.5V11.2z M15.4,13.3c0,0.6-0.2,1.2-0.7,1.6s-1,0.6-1.6,0.5c-2.3-0.2-4.4-1-6.4-2.3
					C4.9,12,3.4,10.5,2.3,8.7C1,6.8,0.3,4.6,0,2.3C0,1.7,0.2,1.1,0.6,0.7S1.5,0,2.1,0h2.1c1.1,0,2,0.8,2.1,1.8
					C6.4,2.4,6.5,3,6.8,3.6C7,4.4,6.9,5.3,6.3,5.9L5.8,6.4C6.6,7.7,7.7,8.8,9,9.6l0.5-0.5c0.6-0.6,1.5-0.8,2.2-0.5
					c0.6,0.2,1.2,0.4,1.8,0.5c1.1,0.1,1.8,1.1,1.8,2.1L15.4,13.3z"/>
			</g>
		</g>
	</g>
</g>
</svg>
