<svg xmlns="http://www.w3.org/2000/svg" viewBox="0 0 20 22"><path d="M6.8 13.1c1.2 0 2.1.9 2.1 2.1v4.7c0 1.2-.9 2.1-2.1 2.1H2.1C.9 22 0 21.1 0 19.9v-4.7c0-1.2.9-2.1 2.1-2.1h4.7zm0 2H2.1c-.1 0-.1 0-.1.1v4.7c0 .1.1.1.1.1h4.7c.1 0 .1 0 .1-.1l-.1-4.8c.1.1.1 0 0 0zm11.1-4.2c1.2 0 2.1.9 2.1 2.1v4.7c0 1.2-.9 2.1-2.1 2.1h-4.7c-1.2 0-2.1-.9-2.1-2.1V13c0-1.2.9-2.1 2.1-2.1h4.7zm0 2h-4.7c-.1 0-.1 0-.1.1v4.7c0 .1 0 .1.1.1h4.7c.1 0 .1 0 .1-.1l-.1-4.8c.1.1 0 0 0 0zM6.8 2.2c1.2 0 2.1.9 2.1 2.1V9c0 1.2-.9 2.1-2.1 2.1H2.1C.9 11.1 0 10.1 0 9V4.3c0-1.2.9-2.1 2.1-2.1h4.7zm0 2H2.1s-.1 0-.1.1V9c0 .1 0 .1.1.1h4.7c.1 0 .1 0 .1-.1l-.1-4.8c.1 0 .1 0 0 0zM17.9 0c1.2 0 2.1.9 2.1 2.1v4.7c0 1.2-.9 2.1-2.1 2.1h-4.7c-1.2 0-2.1-.9-2.1-2.1V2.1C11.1.9 12 0 13.2 0h4.7zm0 2h-4.7c-.1 0-.1 0-.1.1v4.7c0 .1 0 .1.1.1h4.7c.1 0 .1 0 .1-.1L17.9 2c.1 0 0 0 0 0z" fill="currentColor"/></svg>