<svg xmlns="http://www.w3.org/2000/svg" viewBox="0 0 18 22"><path d="M17.2 11.7c.5 0 .8-.4.8-.9V2.6c0-.5-.4-.9-.8-.9h-2.8C13.9.7 12.9 0 11.8 0h-1.3c-.5 0-.9.4-.9.9v.9H2.5C1.1 1.7 0 2.9 0 4.3v15.1C0 20.8 1.1 22 2.5 22h14.7c.5 0 .8-.4.8-.9s-.4-.9-.8-.9H2.5c-.5 0-.8-.4-.8-.9s.4-.9.8-.9h14.7c.5 0 .8-.4.8-.9v-2.6c0-.5-.4-.9-.8-.9-.5 0-.8.4-.8.9v1.7h-2l.3-.9V3.4h1.7v7.4c-.1.5.3.9.8.9zm-5.9-10h.4c.7 0 1.3.6 1.3 1.3v9.8c-.4-.2-.8-.3-1.3-.3h-.4V1.7zM5 16.8V6c0-.5-.4-.9-.8-.9s-.9.4-.9.9v10.8h-.8c-.3 0-.6.1-.8.1V4.3c0-.5.4-.9.8-.9h7.1v10c0 .5.4.9.8.9h1.3c.7 0 1.3.6 1.3 1.3s-.6 1.3-1.3 1.3H5z" fill="currentColor"/></svg>