<svg xmlns="http://www.w3.org/2000/svg" viewBox="0 0 22 19"><path d="M18.6 0C20.5 0 22 1.6 22 3.5v4.3c0 .5-.4.9-.9.9s-.9-.4-.9-.9V3.5c0-1-.8-1.7-1.7-1.7H3.4c-.9 0-1.7.8-1.7 1.7v8.6c0 1 .8 1.7 1.7 1.7h15.1c.9 0 1.7-.8 1.7-1.7 0-.5.4-.9.9-.9s.9.4.9.9c0 1.9-1.5 3.5-3.4 3.5h-6.7v1.7h3c.5 0 .9.4.9.9s-.5.8-.9.8H7.1c-.5 0-.9-.4-.9-.9s.4-.9.9-.9h3v-1.7H3.4C1.5 15.5 0 14 0 12.1V3.5C0 1.6 1.5 0 3.4 0h15.2zm-7.9 3.5c.3 0 .6.2.8.5l2 5 .8-1.7c.1-.3.4-.5.8-.5h2.7c.5 0 .9.4.9.9s-.4.9-.9.9h-2.1l-1.4 3.1c-.1.3-.4.5-.8.5-.3 0-.7-.2-.8-.5l-2-5.1-1.8 3.8c-.1.3-.4.5-.7.5-.3 0-.6-.2-.8-.4l-1.2-2h-2c-.5 0-.9-.4-.9-.9s.4-.9.9-.9h2.4c.3 0 .6.2.7.4l.7 1L9.9 4c.2-.4.5-.6.8-.5z" fill="currentColor"/></svg>