<?xml version="1.0" encoding="UTF-8"?>
<svg width="39px" height="40px" viewBox="0 0 39 40" version="1.1" xmlns="http://www.w3.org/2000/svg" xmlns:xlink="http://www.w3.org/1999/xlink">
    <!-- Generator: Sketch 63.1 (92452) - https://sketch.com -->
    <title>fake</title>
    <desc>Created with Sketch.</desc>
    <g id="Artboards" stroke="none" stroke-width="1" fill="none" fill-rule="evenodd" opacity="0.693429129">
        <g id="Notícias" transform="translate(-297.000000, -205.000000)" fill-rule="nonzero">
            <g id="registro-realizado-copy-5" transform="translate(15.000000, 182.000000)">
                <g id="fake" transform="translate(302.000000, 43.000000) rotate(-2.000000) translate(-302.000000, -43.000000) translate(283.000000, 24.000000)">
                    <path d="M29.8085454,30.79856 L22.437598,30.79856 C21.8308597,30.79856 21.3389652,31.2904546 21.3389652,31.8971929 C21.3389652,32.5039311 21.8308597,32.9958257 22.437598,32.9958257 L29.8086186,32.9958257 C30.4153569,32.9958257 30.9072514,32.5039311 30.9072514,31.8971929 C30.9072514,31.2904546 30.4152837,30.79856 29.8085454,30.79856 Z" id="Path" fill="#8F5412"></path>
                    <g id="Group-3" transform="translate(0.000146, 0.000000)">
                        <path d="M37.4339361,22.2259281 L35.301563,16.3288333 L35.301563,1.09863283 C35.301563,0.491894539 34.8096685,0 34.2029302,0 L5.93203134,0 C5.32529305,0 4.83339851,0.491894539 4.83339851,1.09863283 L4.83339851,8.82568373 L1.09863283,8.82568373 C0.491894539,8.82568373 2.91322522e-13,9.31757826 2.91322522e-13,9.92431655 L2.91322522e-13,33.9846685 C2.91322522e-13,35.923023 1.57697756,37.5 3.51533208,37.5 C3.57106939,37.5 3.62651373,37.4983892 3.68166509,37.4957525 C3.71074224,37.4980963 3.73996588,37.5 3.7697022,37.5 L30.540894,37.5 C33.1659673,37.5 35.3016363,35.3643316 35.3016363,32.7392583 L35.3016363,24.1720463 L36.7786382,23.6310795 C37.3467047,23.4230716 37.6396734,22.7948734 37.4339361,22.2259281 Z M6.62541514,32.3344487 L2.50327152,20.9346683 L30.8734868,10.5444582 L34.9956304,21.9442386 L6.62541514,32.3344487 Z M28.7097661,8.82568373 L11.9338625,8.82568373 L11.9338625,6.48244639 L28.7097661,6.48244639 L28.7097661,8.82568373 Z M7.03066417,2.19726566 L33.1042974,2.19726566 L33.1042974,10.2522951 L32.5646489,8.75991224 C32.4653325,8.48518079 32.2606206,8.26127942 31.9957768,8.13779309 C31.7310796,8.01438 31.4279302,8.00141613 31.1536382,8.10190442 L30.9070317,8.19221204 L30.9070317,5.38381356 C30.9070317,4.77707527 30.4151372,4.28518073 29.8083989,4.28518073 L10.8352297,4.28518073 C10.2284914,4.28518073 9.73659682,4.77707527 9.73659682,5.38381356 L9.73659682,9.92431655 C9.73659682,10.5310548 10.2284914,11.0229494 10.8352297,11.0229494 L23.1777103,11.0229494 L17.1780032,13.2202883 L10.8353029,13.2202883 C10.2285646,13.2202883 9.73667007,13.7121828 9.73667007,14.3189211 C9.73667007,14.9256594 10.2285646,15.4175539 10.8353029,15.4175539 L11.1785158,15.4175539 L7.03066417,16.9365969 L7.03066417,9.92431655 L7.03066417,2.19726566 L7.03066417,2.19726566 Z M4.83339851,11.0229494 L4.83339851,17.7413821 L2.19726566,18.7067874 L2.19726566,11.0229494 L4.83339851,11.0229494 Z M2.19726566,33.9846685 L2.19726566,26.5500736 L4.83339851,33.8403081 L4.83339851,33.9846685 C4.83339851,34.7114507 4.24211432,35.3027349 3.51533208,35.3027349 C2.78854985,35.3027349 2.19726566,34.7114507 2.19726566,33.9846685 Z M33.1042974,32.7392583 C33.1042974,34.1527593 31.9543218,35.3027349 30.5408208,35.3027349 L6.77329112,35.3027349 C6.87136241,35.0613286 6.94357921,34.806812 6.98591319,34.5423345 L11.2086183,32.9958257 L18.206177,32.9958257 C18.8129153,32.9958257 19.3048099,32.5039311 19.3048099,31.8971929 C19.3048099,31.2904546 18.8129153,30.79856 18.206177,30.79856 L17.2081057,30.79856 L23.2078861,28.6012211 L29.8083256,28.6012211 C30.4150639,28.6012211 30.9069585,28.1093266 30.9069585,27.5025883 C30.9069585,26.89585 30.4150639,26.4039555 29.8083256,26.4039555 L29.2073735,26.4039555 L33.1042974,24.9767582 L33.1042974,32.7392583 L33.1042974,32.7392583 Z" id="Shape" fill="#8F5412"></path>
                        <polygon id="Path" fill="#D2924A" points="6.62541514 32.3344487 2.50327152 20.9346683 30.8734868 10.5444582 34.9956304 21.9442386"></polygon>
                        <path d="M11.2516847,20.9499027 C11.1385988,20.6393558 10.8790285,20.3490237 10.5588136,20.4656253 L7.19128429,21.6912601 C6.86132823,21.8113773 6.58798838,22.0867679 6.70100108,22.3973148 L8.94396986,28.5599125 C9.0570558,28.8704594 9.49196791,28.8879643 9.8704103,28.750269 C10.2489259,28.6125004 10.5708986,28.3194584 10.4578859,28.0089116 L9.54653335,25.5049808 L11.0119631,24.9716312 C11.3322511,24.8550297 11.3551027,24.4951176 11.2597414,24.233057 C11.1467287,23.9225834 10.8792482,23.7011722 10.5881105,23.8071537 L9.1226808,24.3405033 L8.52575696,22.700391 L11.0392824,21.785596 C11.3303468,21.6795413 11.3822756,21.3090091 11.2516847,20.9499027 Z" id="Path" fill="#4C2F0E"></path>
                        <path d="M18.7278079,24.7021732 L14.7583742,19.4426517 C14.5280276,19.1419925 14.0312258,19.1359134 13.5848147,19.2983645 C13.1383303,19.4608157 12.7617189,19.7848392 12.7785646,20.1632816 L13.1281496,26.7402104 C13.1326174,26.7825443 13.1370119,26.8248783 13.147632,26.8540287 C13.2782229,27.2130619 13.9268557,27.2737797 14.3441164,27.1219486 C14.5867678,27.0336186 14.7525881,26.8853764 14.7366213,26.6603031 L14.6250735,25.3271488 L16.6727786,24.5818363 L17.4443118,25.6748295 C17.5766604,25.857349 17.7990237,25.8644535 18.0416751,25.7761234 C18.4589358,25.6242924 18.9166995,25.160889 18.7860354,24.8017826 C18.7754886,24.7726322 18.7516116,24.7373295 18.7278079,24.7021732 Z M14.511841,24.0495121 L14.2736574,21.190723 L15.9287844,23.5337406 L14.511841,24.0495121 Z" id="Shape" fill="#4C2F0E"></path>
                        <path d="M24.6534672,22.2925052 L21.5248538,19.9472903 L22.3887455,17.3687258 C22.4274906,17.2337405 22.4081546,17.1199954 22.3798831,17.0423587 C22.2421146,16.6637698 21.5925296,16.4495364 21.2044193,16.5908938 C21.0490726,16.6473635 20.9345218,16.7551028 20.8842777,16.9492678 L20.0055179,20.1815921 L19.1578128,17.8524173 C19.0412112,17.5321292 18.6131839,17.5339602 18.2346682,17.6717288 C17.8562259,17.8094973 17.5272952,18.0831302 17.6438235,18.4034182 L19.8903812,24.5756107 C20.0033939,24.8861576 20.4383792,24.9036625 20.8168216,24.7659672 C21.1953372,24.6281986 21.5173099,24.3351566 21.4042972,24.0246097 L20.7649661,22.2681156 L20.981763,21.5956058 L23.5595951,23.5148441 C23.7599857,23.672681 23.9822757,23.6797123 24.186182,23.6055179 C24.6229252,23.4465091 24.9606449,22.8949955 24.8228763,22.5165531 C24.7910892,22.4291751 24.730225,22.3524173 24.6534672,22.2925052 Z" id="Path" fill="#4C2F0E"></path>
                        <path d="M29.6720952,20.0482913 L27.0712651,20.9949466 L26.4707523,19.3450931 L27.9264408,18.8153323 C28.2467289,18.6987307 28.2695805,18.3387454 28.1742192,18.0766848 C28.0612065,17.7662112 27.7938725,17.5448001 27.5025883,17.6507815 L26.0468998,18.1806155 L25.449976,16.5405032 L28.0508793,15.5938479 C28.3420903,15.4879397 28.394019,15.117261 28.2632817,14.7582278 C28.1501957,14.4476809 27.8906987,14.1573488 27.5704106,14.2739504 L24.1155765,15.5314455 C23.7855472,15.6515627 23.5122074,15.9269534 23.6252201,16.2375002 L25.8681889,22.400098 C25.9812748,22.7106449 26.3677006,22.7458744 26.6976566,22.6257572 L30.1524907,21.368262 C30.4727788,21.2516605 30.4850835,20.8625247 30.3720708,20.5519778 C30.2412602,20.1927249 29.9632329,19.9423099 29.6720952,20.0482913 Z" id="Path" fill="#4C2F0E"></path>
                    </g>
                </g>
            </g>
        </g>
    </g>
</svg>