<?xml version="1.0" encoding="utf-8"?>
<!-- Generator: Adobe Illustrator 22.0.0, SVG Export Plug-In . SVG Version: 6.00 Build 0)  -->
<svg version="1.1" id="Camada_1" xmlns="http://www.w3.org/2000/svg" xmlns:xlink="http://www.w3.org/1999/xlink" x="0px" y="0px"
	 viewBox="0 0 20 20" style="enable-background:new 0 0 20 20;" xml:space="preserve">
<style type="text/css">
	.st0{fill:#FFFFFF;}
</style>
<path id="Combined-Shape" class="st0" d="M10,0c5.5,0,10,4.5,10,10s-4.5,10-10,10S0,15.5,0,10S4.5,0,10,0z M10.7,6.3
	c-0.4-0.4-1-0.4-1.4,0l0,0l-5,5c-0.4,0.4-0.4,1,0,1.4c0.4,0.4,1,0.4,1.4,0l0,0L10,8.4l4.3,4.3c0.4,0.4,1,0.4,1.4,0
	c0.4-0.4,0.4-1,0-1.4l0,0L10.7,6.3z"/>
</svg>
