<?xml version="1.0" encoding="utf-8"?>
<!-- Generator: Adobe Illustrator 22.0.0, SVG Export Plug-In . SVG Version: 6.00 Build 0)  -->
<svg version="1.1" id="Camada_1" xmlns="http://www.w3.org/2000/svg" xmlns:xlink="http://www.w3.org/1999/xlink" x="0px" y="0px"
	 viewBox="0 0 120 120" style="enable-background:new 0 0 120 120;" xml:space="preserve">
<style type="text/css">
	.st0{fill:#ABD8FF;}
	.st1{fill:#7BB6E9;}
	.st2{fill:#F8FCFF;}
	.st3{fill:#C9E1F6;}
	.st4{fill:#E3E3E3;}
	.st5{fill:#1C65A4;}
</style>
<g id="Como-é-feito-o-diagnóstico">
	<circle id="Oval" class="st0" cx="60" cy="60" r="60"/>
	<g id="medical-record" transform="translate(30.000000, 21.000000)">
		<path id="Path" class="st1" d="M53.3,13.1H6.7c-3,0-5.5,2.5-5.5,5.5v52.7c0,3,2.5,5.5,5.5,5.5h46.5c3,0,5.5-2.5,5.5-5.5V18.6
			C58.8,15.6,56.3,13.1,53.3,13.1z"/>
		<path id="Path_1_" class="st2" d="M6.7,71.6c-0.1,0-0.2-0.1-0.2-0.2V18.6c0-0.1,0.1-0.2,0.2-0.2h46.5c0.1,0,0.2,0.1,0.2,0.2v52.7
			c0,0.1-0.1,0.2-0.2,0.2H6.7z"/>
		<path id="Path_2_" class="st3" d="M44.9,7.9h-8.2c0-3.7-3-6.8-6.8-6.8s-6.8,3-6.8,6.8h-8.2c-1.3,0-2.3,1-2.3,2.3v9.6
			c0,1.3,1,2.3,2.3,2.3h29.9c1.3,0,2.3-1,2.3-2.3v-9.6C47.2,8.9,46.2,7.9,44.9,7.9z"/>
		<circle id="Oval_1_" class="st4" cx="30" cy="7.5" r="2.4"/>
		<polygon id="Path_3_" class="st1" points="36.5,31.9 32.4,31.9 32.4,27.8 27.6,27.8 27.6,31.9 23.5,31.9 23.5,36.7 27.6,36.7 
			27.6,40.7 32.4,40.7 32.4,36.7 36.5,36.7 		"/>
		<path id="Shape" class="st5" d="M30,11.1c2,0,3.6-1.6,3.6-3.6S32,4,30,4s-3.6,1.6-3.6,3.6S28,11.1,30,11.1z M30,6.2
			c0.7,0,1.3,0.6,1.3,1.3S30.7,8.8,30,8.8s-1.3-0.6-1.3-1.3S29.3,6.2,30,6.2z"/>
		<path id="Path_4_" class="st5" d="M42.6,45.9H17.4c-0.6,0-1.1,0.5-1.1,1.1c0,0.6,0.5,1.1,1.1,1.1h25.2c0.6,0,1.1-0.5,1.1-1.1
			C43.7,46.4,43.2,45.9,42.6,45.9z"/>
		<path id="Path_5_" class="st5" d="M42.6,52.8H17.4c-0.6,0-1.1,0.5-1.1,1.1c0,0.6,0.5,1.1,1.1,1.1h25.2c0.6,0,1.1-0.5,1.1-1.1
			C43.7,53.3,43.2,52.8,42.6,52.8z"/>
		<path id="Path_6_" class="st5" d="M42.6,59.7H17.4c-0.6,0-1.1,0.5-1.1,1.1c0,0.6,0.5,1.1,1.1,1.1h25.2c0.6,0,1.1-0.5,1.1-1.1
			C43.7,60.2,43.2,59.7,42.6,59.7z"/>
		<path id="Shape_1_" class="st5" d="M23.5,37.8h2.9v2.9c0,0.6,0.5,1.1,1.1,1.1h4.8c0.6,0,1.1-0.5,1.1-1.1v-2.9h2.9
			c0.6,0,1.1-0.5,1.1-1.1v-4.8c0-0.6-0.5-1.1-1.1-1.1h-2.9v-2.9c0-0.6-0.5-1.1-1.1-1.1h-4.8c-0.6,0-1.1,0.5-1.1,1.1v2.9h-2.9
			c-0.6,0-1.1,0.5-1.1,1.1v4.8C22.4,37.3,22.9,37.8,23.5,37.8z M24.7,33h2.9c0.6,0,1.1-0.5,1.1-1.1V29h2.5v2.9
			c0,0.6,0.5,1.1,1.1,1.1h2.9v2.5h-2.9c-0.6,0-1.1,0.5-1.1,1.1v2.9h-2.5v-2.9c0-0.6-0.5-1.1-1.1-1.1h-2.9V33L24.7,33z"/>
		<path id="Shape_2_" class="st5" d="M44.9,6.8h-7.1C37.3,2.9,34,0,30,0s-7.3,2.9-7.8,6.8h-7.1c-1.9,0-3.4,1.5-3.4,3.4V12H6.7
			c-3.7,0-6.6,3-6.6,6.6v52.7c0,3.7,3,6.6,6.6,6.6h5.5c0.6,0,1.1-0.5,1.1-1.1c0-0.6-0.5-1.1-1.1-1.1H6.7c-2.4,0-4.4-2-4.4-4.4V18.6
			c0-2.4,2-4.4,4.4-4.4h4.9v3H6.7c-0.8,0-1.4,0.6-1.4,1.4v52.7c0,0.8,0.6,1.4,1.4,1.4h46.5c0.8,0,1.4-0.6,1.4-1.4V18.6
			c0-0.8-0.6-1.4-1.4-1.4h-4.9v-3h4.9c2.4,0,4.4,2,4.4,4.4v52.7c0,2.4-2,4.4-4.4,4.4H16.8c-0.6,0-1.1,0.5-1.1,1.1
			c0,0.6,0.5,1.1,1.1,1.1h36.5c3.7,0,6.6-3,6.6-6.6V18.6c0-3.7-3-6.6-6.6-6.6h-4.9v-1.8C48.4,8.3,46.8,6.8,44.9,6.8z M52.4,19.5
			v50.9H7.6V19.5h4v0.2c0,1.9,1.5,3.4,3.4,3.4h22.1c0.6,0,1.1-0.5,1.1-1.1c0-0.6-0.5-1.1-1.1-1.1H15.1c-0.6,0-1.2-0.5-1.2-1.2v-9.6
			c0-0.6,0.5-1.2,1.2-1.2h8.2c0.6,0,1.1-0.5,1.1-1.1c0-3.1,2.5-5.6,5.6-5.6s5.6,2.5,5.6,5.6c0,0.6,0.5,1.1,1.1,1.1h8.2
			c0.6,0,1.2,0.5,1.2,1.2v9.6c0,0.6-0.5,1.2-1.2,1.2h-3.2c-0.6,0-1.1,0.5-1.1,1.1s0.5,1.1,1.1,1.1h3.2c1.9,0,3.4-1.5,3.4-3.4v-0.2
			L52.4,19.5L52.4,19.5z"/>
	</g>
</g>
</svg>
