<?xml version="1.0" encoding="UTF-8"?>
<svg width="100px" height="100px" viewBox="0 0 100 100" version="1.1" xmlns="http://www.w3.org/2000/svg" xmlns:xlink="http://www.w3.org/1999/xlink">
    <!-- Generator: Sketch 63.1 (92452) - https://sketch.com -->
    <title>Group 8</title>
    <desc>Created with Sketch.</desc>
    <g id="Artboards" stroke="none" stroke-width="1" fill="none" fill-rule="evenodd">
        <g id="Dicas---Detalhe" transform="translate(-24.000000, -115.000000)">
            <g id="Group-2" transform="translate(0.000000, -349.000000)">
                <g id="Group-8" transform="translate(24.000000, 0.000000)">
                    <circle id="Oval" fill="#ABD8FF" cx="50" cy="514" r="50"></circle>
                    <g id="fake" transform="translate(50.000000, 514.000000) rotate(-2.000000) translate(-50.000000, -514.000000) translate(28.000000, 492.000000)" fill-rule="nonzero">
                        <path d="M34.2256726,35.2878127 L25.7518019,35.2878127 C25.0542766,35.2878127 24.4887793,35.9594127 24.4887793,36.7878127 C24.4887793,37.6162127 25.0542766,38.2878127 25.7518019,38.2878127 L34.2257568,38.2878127 C34.923282,38.2878127 35.4887793,37.6162127 35.4887793,36.7878127 C35.4887793,35.9594127 34.9231978,35.2878127 34.2256726,35.2878127 Z" id="Path" fill="#1C65A4"></path>
                        <g id="Group-3" transform="translate(0.000000, 0.000000)">
                            <path d="M43.3445576,25.7352851 L40.875494,18.9070701 L40.875494,1.27210117 C40.875494,0.569562097 40.3059319,0 39.6033929,0 L6.86866787,0 C6.16612879,0 5.5965667,0.569562097 5.5965667,1.27210117 L5.5965667,10.2192127 L1.27210117,10.2192127 C0.569562097,10.2192127 3.37320815e-13,10.7887748 3.37320815e-13,11.4913139 L3.37320815e-13,39.3506688 C3.37320815e-13,41.5950793 1.82597402,43.4210533 4.07038452,43.4210533 C4.13492245,43.4210533 4.19912116,43.4191875 4.26298064,43.4161345 C4.29664891,43.4188483 4.3304868,43.4210533 4.36491834,43.4210533 L35.3631404,43.4210533 C38.402699,43.4210533 40.8755788,40.9481734 40.8755788,37.9086149 L40.8755788,27.9886851 L42.5857917,27.3623025 C43.2435528,27.1214514 43.5827797,26.3940639 43.3445576,25.7352851 Z M7.67153332,37.439888 L2.89852492,24.2401422 L35.7482479,12.2093726 L40.5212563,25.4091184 L7.67153332,37.439888 Z M33.242887,10.2192127 L13.8181566,10.2192127 L13.8181566,7.50599055 L33.242887,7.50599055 L33.242887,10.2192127 Z M8.14076904,2.54420234 L38.3312917,2.54420234 L38.3312917,11.8710785 L37.7064356,10.1430563 C37.5914376,9.82494618 37.3544028,9.56569196 37.0477416,9.42270779 C36.74125,9.27980842 36.3902349,9.26479763 36.0726337,9.38115248 L35.7870893,9.4857192 L35.7870893,6.23388938 C35.7870893,5.53135031 35.2175273,4.96178821 34.5149882,4.96178821 L12.5460554,4.96178821 C11.8435163,4.96178821 11.2739542,5.53135031 11.2739542,6.23388938 L11.2739542,11.4913139 C11.2739542,12.193853 11.8435163,12.7634151 12.5460554,12.7634151 L26.8373488,12.7634151 L19.8903195,15.3077022 L12.5461402,15.3077022 C11.8436011,15.3077022 11.274039,15.8772643 11.274039,16.5798034 C11.274039,17.2823425 11.8436011,17.8519046 12.5461402,17.8519046 L12.9435446,17.8519046 L8.14076904,19.6107964 L8.14076904,11.4913139 L8.14076904,2.54420234 L8.14076904,2.54420234 Z M5.5965667,12.7634151 L5.5965667,20.542653 L2.54420234,21.6604907 L2.54420234,12.7634151 L5.5965667,12.7634151 Z M2.54420234,39.3506688 L2.54420234,30.7421905 L5.5965667,39.1835147 L5.5965667,39.3506688 C5.5965667,40.1922061 4.91192185,40.8768509 4.07038452,40.8768509 C3.22884719,40.8768509 2.54420234,40.1922061 2.54420234,39.3506688 Z M38.3312917,37.9086149 C38.3312917,39.5453002 36.999741,40.8768509 35.3630556,40.8768509 L7.84275813,40.8768509 C7.95631437,40.5973279 8.03993382,40.3026245 8.08895211,39.9963873 L12.9784002,38.2056929 L21.0808366,38.2056929 C21.7833756,38.2056929 22.3529377,37.6361308 22.3529377,36.9335917 C22.3529377,36.2310527 21.7833756,35.6614906 21.0808366,35.6614906 L19.9251751,35.6614906 L26.8722892,33.1172034 L34.5149034,33.1172034 C35.2174424,33.1172034 35.7870045,32.5476413 35.7870045,31.8451022 C35.7870045,31.1425632 35.2174424,30.5730011 34.5149034,30.5730011 L33.819064,30.5730011 L38.3312917,28.9204568 L38.3312917,37.9086149 L38.3312917,37.9086149 Z" id="Shape" fill="#1C65A4"></path>
                            <polygon id="Path" fill="#FFFFFF" points="7.67153332 37.439888 2.89852492 24.2401422 35.7482479 12.2093726 40.5212563 25.4091184"></polygon>
                            <path d="M13.0282665,24.257782 C12.8973249,23.8982014 12.5967698,23.5620275 12.2259947,23.6970398 L8.32675023,25.1161959 C7.94469584,25.255279 7.62819707,25.5741523 7.75905388,25.9337329 L10.3561756,33.0693724 C10.4871172,33.428953 10.9906997,33.4492218 11.4288961,33.2897851 C11.8671774,33.1302637 12.2399878,32.7909519 12.109131,32.4313713 L11.0538807,29.5320831 L12.7506941,28.9145204 C13.121554,28.779508 13.1480137,28.3627677 13.0375953,28.0593292 C12.9067385,27.6998334 12.5970242,27.4434626 12.2599174,27.5661779 L10.5631041,28.1837407 L9.87192912,26.2846632 L12.782327,25.225427 C13.119349,25.1026268 13.179477,24.6735895 13.0282665,24.257782 Z" id="Path" fill="#16222F"></path>
                            <path d="M21.6848302,28.6025164 L17.0886439,22.512544 C16.8219266,22.1644123 16.2466825,22.1573734 15.7297854,22.3454747 C15.2128035,22.5335761 14.7767272,22.9087611 14.7962327,23.3469576 L15.2010153,30.9623488 C15.2061885,31.0113671 15.211277,31.0603854 15.2235739,31.0941385 C15.3747844,31.5098612 16.1258329,31.580166 16.6089769,31.4043616 C16.8899417,31.3020847 17.0819441,31.1304358 17.0634563,30.8698247 L16.9342956,29.3261723 L19.3053226,28.4631789 L20.1986768,29.7287499 C20.3519226,29.9400883 20.6093959,29.9483146 20.8903606,29.8460377 C21.3735046,29.6702333 21.9035468,29.133661 21.7522516,28.7178535 C21.7400394,28.6841004 21.7123924,28.6432236 21.6848302,28.6025164 Z M16.8031844,27.8468035 L16.5273928,24.5366266 L18.4438556,27.2495944 L16.8031844,27.8468035 Z" id="Shape" fill="#16222F"></path>
                            <path d="M28.5461199,25.8123745 L24.923515,23.0968625 L25.9238105,20.1111562 C25.9686733,19.9548574 25.9462843,19.8231525 25.9135489,19.7332574 C25.7540274,19.2948913 25.0018764,19.0468316 24.5524855,19.2105086 C24.3726104,19.2758946 24.2399726,19.4006453 24.1817952,19.625468 L23.1642839,23.3681593 L22.1827306,20.67122 C22.0477183,20.3003601 21.5521076,20.3024803 21.1138264,20.4620017 C20.6756299,20.6215232 20.2947628,20.9383612 20.4296904,21.3092211 L23.0309677,28.4559703 C23.1618245,28.8155509 23.6654917,28.8358197 24.1036882,28.676383 C24.5419694,28.5168615 24.9147799,28.1775498 24.7839231,27.8179692 L24.043645,25.7841338 L24.294673,25.0054383 L27.2795311,27.2277142 C27.5115624,27.4104728 27.7689509,27.4186142 28.0050528,27.332705 C28.5107555,27.1485895 28.9017994,26.5099947 28.7422779,26.0717983 C28.7054717,25.9706238 28.6349973,25.8817464 28.5461199,25.8123745 Z" id="Path" fill="#16222F"></path>
                            <path d="M34.3571628,23.213811 L31.3456753,24.3099382 L30.6503448,22.3995814 L32.3358789,21.7861743 C32.7067388,21.6511619 32.7331985,21.2343368 32.6227801,20.9308982 C32.4919233,20.5714024 32.1823787,20.3150317 31.8451022,20.437747 L30.1595682,21.051239 L29.4683932,19.1521616 L32.4799655,18.0560344 C32.8171572,17.9334038 32.8772851,17.5041969 32.7259051,17.0884742 C32.5949635,16.7288936 32.2944932,16.3927197 31.9236333,16.5277321 L27.9232991,17.9837791 C27.5411599,18.1228621 27.2246612,18.4417355 27.355518,18.8013161 L29.9526397,25.9369556 C30.0835813,26.2965362 30.5310217,26.3373282 30.9130761,26.1982451 L34.9134103,24.7421981 C35.2842702,24.6071858 35.2985177,24.1566076 35.1676609,23.797027 C35.016196,23.3810499 34.6942696,23.0910956 34.3571628,23.213811 Z" id="Path" fill="#16222F"></path>
                        </g>
                    </g>
                </g>
            </g>
        </g>
    </g>
</svg>