<?xml version="1.0" encoding="utf-8"?>
<!-- Generator: Adobe Illustrator 22.0.0, SVG Export Plug-In . SVG Version: 6.00 Build 0)  -->
<svg version="1.1" id="Camada_1" xmlns="http://www.w3.org/2000/svg" xmlns:xlink="http://www.w3.org/1999/xlink" x="0px" y="0px"
	 viewBox="0 0 120 120" style="enable-background:new 0 0 120 120;" xml:space="preserve">
<style type="text/css">
	.st0{fill:#ABD8FF;}
	.st1{fill:#FFFFFF;}
	.st2{fill:#1C65A4;}
</style>
<g id="Quando-usar-máscara">
	<g id="Group">
		<circle id="Oval" class="st0" cx="60" cy="60" r="60"/>
		<path id="Path" class="st1" d="M60,47.3l25.3,8.4v24.6c-15,10.7-35.5,10.7-50.6,0V55.7L60,47.3z"/>
		<g id="masks" transform="translate(24.000000, 44.400000)">
			<path id="Combined-Shape" class="st2" d="M65.7,0C69.2,0,72,2.8,72,6.3l0,0v15.9c0,6.5-3.6,12.5-9.4,15.4
				c-7.8,5.8-17.2,8.7-26.6,8.7s-18.7-2.9-26.6-8.7C3.6,34.7,0,28.7,0,22.2l0,0V6.3C0,2.8,2.8,0,6.3,0s6.3,2.8,6.3,6.3l0,0v1.3
				l22.7-7.5c0.4-0.1,0.9-0.1,1.3,0l0,0l22.7,7.5V6.3C59.3,2.8,62.2,0,65.7,0z M36,4.3l-23.3,7.7v22.7c13.9,9.9,32.8,9.9,46.7,0l0,0
				V12.1L36,4.3z M52,29.5c1-0.6,2.3-0.2,2.9,0.8c0.6,1,0.2,2.3-0.8,2.9c-5.4,3.1-11.7,4.8-18.1,4.8s-12.6-1.6-18.1-4.8
				c-1-0.6-1.4-1.9-0.8-2.9c0.6-1,1.9-1.4,2.9-0.8c4.8,2.7,10.3,4.2,16,4.2S47.2,32.3,52,29.5z M65.7,4.2c-1.2,0-2.1,0.9-2.1,2.1
				l0,0v25.5c2.7-2.4,4.2-5.9,4.2-9.7l0,0V6.3C67.8,5.2,66.8,4.2,65.7,4.2z M6.3,4.2c-1.2,0-2.1,0.9-2.1,2.1l0,0v15.9
				c0,3.7,1.6,7.2,4.2,9.7l0,0V6.3C8.4,5.2,7.5,4.2,6.3,4.2z M52,21.1c1-0.6,2.3-0.2,2.9,0.8c0.6,1,0.2,2.3-0.8,2.9
				c-5.4,3.1-11.7,4.8-18.1,4.8s-12.6-1.6-18.1-4.8c-1-0.6-1.4-1.9-0.8-2.9c0.6-1,1.9-1.4,2.9-0.8c4.8,2.7,10.3,4.2,16,4.2
				S47.2,23.8,52,21.1z M48.8,12.7c1.2,0,2.1,0.9,2.1,2.1s-0.9,2.1-2.1,2.1l0,0H23.2c-1.2,0-2.1-0.9-2.1-2.1s0.9-2.1,2.1-2.1l0,0
				H48.8z"/>
		</g>
	</g>
</g>
</svg>
