<?xml version="1.0" encoding="utf-8"?>
<!-- Generator: Adobe Illustrator 22.0.0, SVG Export Plug-In . SVG Version: 6.00 Build 0)  -->
<svg version="1.1" id="Camada_1" xmlns="http://www.w3.org/2000/svg" xmlns:xlink="http://www.w3.org/1999/xlink" x="0px" y="0px"
	 viewBox="0 0 120 120" style="enable-background:new 0 0 120 120;" xml:space="preserve">
<style type="text/css">
	.st0{fill:#ABD8FF;}
	.st1{fill:#1C65A4;}
	.st2{fill:#C9E1F6;}
	.st3{fill:#A7D0F4;}
	.st4{fill:#7BB6E9;}
</style>
<g id="O-que-é">
	<g id="O-que-e">
		<circle id="Oval" class="st0" cx="60" cy="60" r="60"/>
		<g id="virus-_x28_2_x29_" transform="translate(25.945946, 25.945946)">
			<g id="XMLID_107_">
				<path id="Path" class="st1" d="M67.5,30.4c0.2,3.2-2,6-5,6.3c-2.3,0.2-4.4-1.1-5.4-3.1l-2.7,0.2l-2.1,1
					c-0.5,0.2-0.8,0.7-0.9,1.2c-0.2,1.4-0.5,2.7-1,4c-0.2,0.4-0.1,0.9,0.1,1.3l0.7,1.3l2,1.4c1.1-0.4,2.3-0.3,3.4,0.4
					c1.8,1.2,2.2,3.6,0.9,5.3c-1.1,1.5-3.2,1.9-4.8,0.9C51.7,50,51.1,49,51,48l-2.3-1.5l-1.4-0.2c-0.5-0.1-1,0.1-1.3,0.5
					c-1.2,1.1-2.6,2.1-4,2.9c-0.5,0.3-0.8,0.8-0.9,1.3l-0.2,2.9l0.9,3.6c1.5,0.4,2.8,1.6,3.2,3.3c0.6,2.5-0.9,5-3.4,5.6
					c-2.3,0.5-4.6-0.8-5.3-3c-0.6-1.7,0-3.5,1.1-4.7L36.4,55l-1.4-2.2c-0.4-0.6-1-1-1.7-1c0,0,0,0,0,0c-1.2,0-2.4-0.1-3.6-0.3
					c-0.7-0.1-1.4,0.1-1.9,0.6L26,54L24,58.3c0.5,1,0.5,2.2,0,3.2c-0.9,1.9-3.3,2.7-5.1,1.6c-1.6-0.9-2.3-2.9-1.6-4.6
					c0.5-1.2,1.5-1.9,2.6-2.2l2.1-4.3l0.4-2.9c0.1-0.5-0.1-1.1-0.5-1.4c-1.6-1.3-3.1-3-4.2-4.8c-0.3-0.5-0.8-0.7-1.3-0.7l-2.9,0
					l-3.2,1c-0.2,2-1.6,3.7-3.6,4.3c-2.7,0.8-5.6-0.6-6.4-3.3c-0.9-2.7,0.6-5.6,3.3-6.5c1.9-0.6,3.8-0.1,5.2,1.2l3.3-1.1l2.4-1.7
					c0.4-0.3,0.6-0.7,0.5-1.1c0-0.5-0.1-1-0.1-1.5c0-2.7,0.6-5.3,1.7-7.6c0.2-0.3,0.2-0.7,0-1.1l-0.7-1.5l-2-1.5
					c-1.1,0.4-2.3,0.2-3.3-0.6c-1.7-1.3-2-3.7-0.6-5.3c1.2-1.4,3.3-1.7,4.8-0.7c1,0.7,1.5,1.7,1.6,2.8l2.2,1.6l2.2,0.4
					c1.6-1.5,3.5-2.7,5.5-3.5l0.5-3.1l-0.7-3.2c-1.9-0.5-3.5-2-3.9-3.9c-0.6-2.8,1.3-5.5,4.3-6c3-0.6,5.8,1.2,6.4,4
					c0.4,2.1-0.5,4.1-2.3,5.2l0.6,3.1l1.5,2.4c0.1,0.2,0.3,0.3,0.5,0.3h0c3.5,0,6.7,1,9.5,2.6c0.2,0.1,0.3,0.1,0.5,0l2.4-1.1l2.8-3
					c-0.2-1.1,0.1-2.2,0.9-3.1c1.4-1.5,3.9-1.6,5.4,0c1.3,1.4,1.3,3.5,0.1,4.9c-0.8,0.9-1.9,1.3-3.1,1.3l-2.8,3l-0.9,2.4
					c-0.1,0.2,0,0.4,0.1,0.5c1.1,1.5,2,3.2,2.6,4.9c0.2,0.5,0.6,0.9,1.1,1l2.2,0.6l2.9-0.3c0.7-2.1,2.5-3.6,4.7-3.8
					C64.6,24.9,67.3,27.2,67.5,30.4L67.5,30.4z"/>
			</g>
			<g id="XMLID_8_" transform="translate(19.649492, 19.788850)">
				<circle id="Oval_1_" class="st2" cx="13.6" cy="13.7" r="13.6"/>
			</g>
			<path id="Path_1_" class="st3" d="M23.8,33.4c0-6.8,5-12.4,11.5-13.4c-0.7-0.1-1.4-0.2-2.1-0.2c-7.5,0-13.6,6.1-13.6,13.6
				S25.8,47,33.3,47c0.7,0,1.4-0.1,2.1-0.2C28.8,45.9,23.8,40.2,23.8,33.4z"/>
			<g id="Group" transform="translate(6.549831, 0.975507)">
				<circle id="Oval_2_" class="st4" cx="3.9" cy="3.9" r="3.9"/>
				<circle id="Oval_3_" class="st4" cx="2.8" cy="54.9" r="2.6"/>
				<circle id="Oval_4_" class="st4" cx="49.8" cy="59.1" r="3.8"/>
				<circle id="Oval_5_" class="st4" cx="22.6" cy="28.7" r="3.5"/>
				<circle id="Oval_6_" class="st4" cx="25.4" cy="39.6" r="2.4"/>
				<circle id="Oval_7_" class="st4" cx="32.9" cy="32.5" r="2"/>
			</g>
		</g>
	</g>
</g>
</svg>
