<?xml version="1.0" encoding="utf-8"?>
<!-- Generator: Adobe Illustrator 22.0.0, SVG Export Plug-In . SVG Version: 6.00 Build 0)  -->
<svg version="1.1" id="Camada_1" xmlns="http://www.w3.org/2000/svg" xmlns:xlink="http://www.w3.org/1999/xlink" x="0px" y="0px"
	 viewBox="0 0 120 120" style="enable-background:new 0 0 120 120;" xml:space="preserve">
<style type="text/css">
	.st0{fill:#ABD8FF;}
	.st1{filter:url(#Adobe_OpacityMaskFilter);}
	.st2{fill:#FFFFFF;}
	.st3{opacity:0.8414;mask:url(#mask-2_1_);}
	.st4{fill:#1C65A4;}
	.st5{fill:#7BB6E9;}
</style>
<g id="Como-se-previnir">
	<g id="como-se-transmite">
		<g id="Mask">
			<circle id="path-1_1_" class="st0" cx="60" cy="60" r="60"/>
		</g>
		<defs>
			<filter id="Adobe_OpacityMaskFilter" filterUnits="userSpaceOnUse" x="-1.6" y="14.6" width="139.2" height="90.3">
				<feColorMatrix  type="matrix" values="1 0 0 0 0  0 1 0 0 0  0 0 1 0 0  0 0 0 1 0"/>
			</filter>
		</defs>
		<mask maskUnits="userSpaceOnUse" x="-1.6" y="14.6" width="139.2" height="90.3" id="mask-2_1_">
			<g class="st1">
				<circle id="path-1_2_" class="st2" cx="60" cy="60" r="60"/>
			</g>
		</mask>
		<g id="Group-24" class="st3">
			<g transform="translate(-1.621622, 14.594595)">
				<path id="Fill-102" class="st2" d="M67,64l-18.4-9.4c0-0.1,0-0.2,0-0.3l16,7.4c0.3,0.1,0.7,0.2,1,0.2c0.9,0,1.7-0.5,2.1-1.3
					c0.6-1.2,0.1-2.6-1-3.2L45.4,46.6l9.7,0.5c0,0,0.1,0,0.1,0c1.4,0,2.6-1.1,2.7-2.5c0.2-1.5-0.9-2.9-2.4-3l-21.8-2.4
					c-0.1,0-0.1,0-0.2,0c0,0,0,0-0.1,0c-0.5,0-4,0.3-5.8,0.9L0,25.4v21.7l19.8,8.6c1.2,3.2,3.4,5.7,6.4,7.2c0.1,0.1,0.2,0.1,0.3,0.1
					l0,0l4.3,2.1c0.1,0.1,0.2,0.1,0.3,0.2l0.7,0.3l1.7,0.8c0.3,0.2,0.7,0.3,1,0.4l19.4,8.9c0.3,0.1,0.6,0.2,1,0.2
					c0.9,0,1.7-0.5,2.1-1.3c0.6-1.2,0.1-2.6-1-3.2l-12.6-6.5c0.1-0.1,0.1-0.2,0.2-0.2l18,8.4c0.3,0.1,0.7,0.2,1,0.2
					c0.9,0,1.7-0.5,2.1-1.3c0.6-1.2,0.1-2.6-1-3.2L46.3,60l0.2-0.4l18.5,8.6c0.3,0.1,0.7,0.2,1,0.2c0.9,0,1.7-0.5,2.1-1.3
					c0.3-0.6,0.3-1.2,0.1-1.8C68,64.7,67.5,64.3,67,64"/>
				<path id="Fill-103" class="st4" d="M67.3,63.3L66,62.6c1-0.1,1.9-0.8,2.4-1.7c0.4-0.7,0.4-1.6,0.2-2.4c-0.3-0.8-0.8-1.4-1.6-1.8
					l-18.1-9.3l6.2,0.3c0.1,0,0.1,0,0.2,0c1.8,0,3.3-1.3,3.5-3.1c0.2-1.9-1.2-3.7-3.1-3.9l-21.8-2.4c-0.1,0-0.2,0-0.3,0
					c0,0-0.1,0-0.1,0c-0.5,0-3.8,0.3-5.8,0.8L0.6,24.9L0,24.6v1.7l27.6,14.5c1.5-0.6,5.4-0.9,5.9-0.9h0c0.1,0,0.1,0,0.2,0l21.8,2.4
					c1.1,0.1,1.9,1.1,1.8,2.2c-0.1,1-1,1.8-2,1.8c0,0-0.1,0-0.1,0L42,45.6l24.3,12.4c0.8,0.4,1.1,1.4,0.7,2.2
					c-0.3,0.6-0.9,0.9-1.5,0.9c-0.2,0-0.5,0-0.7-0.1l-17-7.9c0,0.6,0,1.2-0.2,1.8l18.9,9.6c0.8,0.4,1.1,1.4,0.7,2.2
					c-0.3,0.6-0.9,0.9-1.5,0.9c-0.2,0-0.5,0-0.7-0.1l-19.1-8.9l-0.8,1.7l18.1,9.2c0.8,0.4,1.1,1.4,0.7,2.2c-0.3,0.6-0.9,0.9-1.5,0.9
					c-0.2,0-0.5,0-0.7-0.2l-18.6-8.6c-0.4,0.5-0.8,1-1.3,1.3l13.6,7c0.8,0.4,1.1,1.4,0.7,2.2c-0.3,0.6-0.9,0.9-1.5,0.9
					c-0.2,0-0.5,0-0.7-0.1l-19.4-8.9c-0.3-0.1-0.6-0.2-1-0.4L32.2,65l-0.7-0.3c-0.1,0-0.2-0.1-0.3-0.1l-3.7-1.8l0,0
					c-0.3-0.1-0.7-0.3-1-0.4c-3-1.5-5.2-4.1-6.2-7.1L0,46.4V48l19.2,8.4c1.2,3.1,3.4,5.6,6.3,7.1l0,0l1.3,0.7l3.6,1.8
					c0.1,0.1,0.2,0.1,0.4,0.2l0.7,0.3l1.7,0.8c0.3,0.2,0.7,0.3,1.1,0.4l19.3,8.9c0.4,0.2,0.9,0.3,1.3,0.3c1.2,0,2.2-0.7,2.8-1.7
					c0.4-0.7,0.5-1.6,0.2-2.4c-0.1-0.2-0.1-0.4-0.2-0.5l3.7,1.7c0.4,0.2,0.9,0.3,1.3,0.3c1.2,0,2.3-0.7,2.8-1.7
					c0.4-0.7,0.4-1.6,0.2-2.4c-0.1-0.4-0.3-0.7-0.5-1c0.3,0.1,0.5,0.1,0.8,0.1c1.2,0,2.3-0.7,2.8-1.7c0.4-0.7,0.4-1.6,0.2-2.4
					C68.6,64.3,68.1,63.7,67.3,63.3"/>
				<path id="Fill-104" class="st5" d="M91.5,62.1c0-5.9-4.8-10.6-10.6-10.6c-1.2,0-2.4,0.2-3.5,0.6c-1.7-4.2-5.8-7.2-10.7-7.2
					c-4.4,0-8.3,2.5-10.2,6.2c-1-0.4-2.1-0.6-3.3-0.6c-5.3,0-9.6,4.3-9.6,9.6c0,1.2,0.2,2.3,0.6,3.4c-1.6,2.3-2.6,5.2-2.6,8.2
					c0,7.4,5.7,13.6,12.9,14.2c1.6,2.7,4.6,4.5,8,4.5c4,0,7.4-2.5,8.8-6.1c2,1.1,4.3,1.7,6.7,1.7c7.9,0,14.3-6.4,14.3-14.3
					c0-2.2-0.5-4.2-1.3-6C91.3,64.5,91.5,63.3,91.5,62.1"/>
				<path id="Fill-105" class="st2" d="M79.5,67.9l-20.7-0.4c0-0.1-0.1-0.2-0.1-0.3l17.6-0.3c1.3,0,2.3-1.1,2.3-2.3
					c0-1.3-1-2.4-2.3-2.4l-23.8-0.5l8.9-3.8c1.3-0.6,2-2.1,1.5-3.5c-0.4-1.1-1.4-1.8-2.6-1.8c-0.3,0-0.6,0.1-0.9,0.2l-20.6,7.4
					c-0.2,0.1-3.7,2.1-5.1,3.4L0,62.3v20.1l33.4-1.2c2.4,2.3,5.7,3.7,9,3.7c0.1,0,0.2,0,0.4,0v0h4.8c0.1,0,0.2,0,0.3,0l0.8,0h1.9
					c0.4,0,0.7,0,1.1-0.1L73,84.4c1.3,0,2.3-1.1,2.3-2.3c0-0.6-0.2-1.2-0.7-1.7c-0.4-0.5-1-0.7-1.7-0.7l-14.2-0.3
					c0-0.1,0.1-0.2,0.1-0.3l19.9-0.4c1.3,0,2.3-1.1,2.3-2.3c0-1.3-1-2.4-2.3-2.4l-19.6-0.4v-0.4l20.4-0.4c1.3,0,2.3-1.1,2.3-2.3
					c0-0.6-0.2-1.2-0.7-1.7C80.8,68.2,80.2,67.9,79.5,67.9"/>
				<path id="Fill-106" class="st4" d="M82.6,70.4c0-1.7-1.3-3.2-3.1-3.2l-1.5,0c0.8-0.6,1.4-1.5,1.4-2.5c0-1.7-1.3-3.2-3.1-3.2
					L56,61l5.7-2.4c1.7-0.7,2.5-2.7,1.9-4.4c-0.5-1.4-1.8-2.3-3.3-2.3c-0.4,0-0.8,0.1-1.2,0.2l-20.6,7.4c-0.3,0.1-3.5,2-5.1,3.3
					L0,61.6v1.5l34,1.2c1.1-1.2,5-3.4,5-3.4l20.6-7.4c0.2-0.1,0.5-0.1,0.7-0.1c0.8,0,1.6,0.5,1.9,1.3c0.4,1-0.1,2.1-1.1,2.5
					l-12.1,5.2l27.3,0.5c0.9,0,1.6,0.8,1.6,1.7c0,0.9-0.7,1.6-1.6,1.6l-18.7,0.4c0.3,0.5,0.5,1.1,0.6,1.7l21.2,0.4
					c0.9,0,1.6,0.8,1.6,1.7c0,0.9-0.7,1.6-1.6,1.6l-21.1,0.4v1.9l20.3,0.4c0.9,0,1.6,0.8,1.6,1.7c0,0.9-0.7,1.6-1.6,1.6l-20.4,0.4
					c-0.1,0.6-0.3,1.2-0.6,1.8L73,80.3c0.9,0,1.6,0.8,1.6,1.7c0,0.9-0.7,1.6-1.6,1.6l-21.4,0.5c-0.3,0-0.7,0.1-1,0.1h-1.9l-0.8,0
					l0,0c-0.1,0-0.2,0-0.3,0h-4.1v0c-0.4,0-0.7,0-1.1,0c-3.4,0-6.5-1.5-8.7-3.7L0,81.6v1.5l33.1-1.2c2.4,2.3,5.6,3.6,8.9,3.7v0h5.5
					c0.1,0,0.2,0,0.3,0h0.1l0.8,0h1.9c0.4,0,0.8,0,1.1-0.1L73,85.1c1.7,0,3-1.4,3.1-3.1c0-1.1-0.5-2-1.3-2.6l4-0.1
					c1.7,0,3-1.4,3.1-3.1c0-1.3-0.7-2.4-1.8-2.9C81.5,73.1,82.6,71.9,82.6,70.4"/>
				<path id="Fill-107" class="st5" d="M64.8,36.1c0,2.1,1.7,3.8,3.8,3.8c2.1,0,3.8-1.7,3.8-3.8c0-2.1-3.8-7.6-3.8-7.6
					S64.8,34,64.8,36.1"/>
				<polygon id="Fill-108" class="st4" points="81.6,14.2 85.5,14.2 85.5,3.3 81.6,3.3 				"/>
				<path id="Fill-109" class="st4" d="M88.7,0l-5,0.6c-0.2,0-0.3,0-0.5,0l-5-0.6C77.1-0.1,76,0.8,76,2s1.1,2.1,2.3,2l5-0.6
					c0.2,0,0.3,0,0.5,0l5,0.6C89.9,4.1,91,3.2,91,2S89.9-0.1,88.7,0"/>
				<path id="Fill-110" class="st4" d="M66.3,26.5h4.6v-6.9c0-1.5,1.2-2.6,2.6-2.6h65.6v-4.6H73.5c-4,0-7.2,3.2-7.2,7.2V26.5z"/>
			</g>
		</g>
	</g>
</g>
</svg>
