<?xml version="1.0" encoding="utf-8"?>
<!-- Generator: Adobe Illustrator 22.0.0, SVG Export Plug-In . SVG Version: 6.00 Build 0)  -->
<svg version="1.1" id="Camada_1" xmlns="http://www.w3.org/2000/svg" xmlns:xlink="http://www.w3.org/1999/xlink" x="0px" y="0px"
	 viewBox="0 0 120 120" style="enable-background:new 0 0 120 120;" xml:space="preserve">
<style type="text/css">
	.st0{fill:#ABD8FF;}
	.st1{fill:#F8FCFF;}
	.st2{fill:#005063;}
	.st3{fill:#1C65A4;}
	.st4{fill:#943CFD;}
	.st5{fill:#BD86FF;}
	.st6{fill:#FFFFFF;}
	.st7{fill:#BE8AFB;}
</style>
<g id="Quais-sao-os-sintomas">
	<g id="Group">
		<circle id="Oval" class="st0" cx="60" cy="60" r="60"/>
		<g id="Group-21" transform="translate(12.972973, 16.216216)">
			<path id="Fill-251" class="st1" d="M70,19.8c-2.5,0.1-11.5-0.6-15.5,0.6c-2.5,0.8-4.9,5.7-4.9,5.7s-5.4-3.1-7.2,3.2
				c-1.2,3.9,0.4,6.2,0.4,6.2s-6.2,5.2-8.2,6.9c-0.6,0.5-1.6,1.2-2.4,1.8c0,0.1,0,0.2-0.1,0.2l0,0.1l-6.8,12.1
				c1.6,1.6,3.2,3,4.8,4.3c1.4,0.9,3.2,2,5.4,3.2c1.5,0.8,2.9,1.6,4.3,2.3c1.8,0.7,3.3,1.2,4.3,1.6l-1-3.8L48,53.4l7.4,3.9
				c1.7,0.5,3.5-0.5,4.1-2.2l0-0.1l1.9-2.9l-5.3-2.8l0.8-0.8c0.1-0.1,2.3-2.4,6.2-1.6c0.8,0.2,1.3,0,1.5-0.1l1.2-5.4h3.3l0.1,0
				c0.2,0.1,0.3,0,0.5-0.1c0.2-0.1,0.3-0.4,0.4-0.4l-1.7-11.2l0.1-0.2C69.8,26,70.3,22.8,70,19.8z"/>
			<path id="Fill-252" class="st2" d="M61.3,5.1c-1.1-0.6-2.3-1.2-3.6-1.6C58.8,4,60,4.5,61.3,5.1"/>
			<path id="Fill-253" class="st2" d="M27.5,35.8c0.1,0.2,0.2,0.5,0.3,0.8c-0.9-3.7-1.7-8.1-1.7-12.4C25.8,27.3,26.2,30.7,27.5,35.8
				"/>
			<path id="Fill-254" class="st3" d="M30.2,44.2l-6.4,11.3c0.2-0.1,0.3-0.2,0.3-0.2c0.4,0.4,0.7,0.8,1.1,1.2L32,44.4l0-0.1
				c0-0.1,0.1-0.2,0.1-0.2c-0.9,0.6-1.6,1-1.6,1S30.4,44.8,30.2,44.2"/>
			<path id="Fill-255" class="st3" d="M70.2,29.9c1.4-3.7,1.8-7.4,1.3-10.7c-0.3,0.2-0.7,0.4-1.1,0.5c-0.1,0-0.3,0.1-0.5,0.1
				c0.3,3-0.1,6.2-1.4,9.7l-0.1,0.2l1.7,11.2c0,0.1-0.1,0.3-0.4,0.4c-0.2,0.1-0.3,0.1-0.5,0.1l-0.1,0h-3.3l-1.2,5.4
				c-0.2,0.1-0.7,0.2-1.5,0.1c-4-0.7-6.1,1.5-6.2,1.6l-0.8,0.8l5.3,2.8l-1.9,2.9l0,0.1c-0.6,1.7-2.4,2.7-4.1,2.2L48,53.4l-4.9,10.7
				l1,3.8c1.1,0.3,1.8,0.5,1.9,0.5l-1.1-4.1l3.9-8.5l6,3.1l0.1,0c2.6,0.8,5.3-0.6,6.2-3.2l2.8-4.3l-4.7-2.5c0.8-0.4,2-0.7,3.6-0.4
				c2.1,0.4,3.1-0.5,3.2-0.7l0.2-0.2l1.1-4.6h1.7c0.7,0.2,1.5-0.1,2.1-0.6c0.6-0.5,0.9-1.3,0.8-1.9L70.2,29.9"/>
			<path id="Fill-256" class="st3" d="M61.3,5.1C60,4.5,58.8,4,57.6,3.5c-1.8-0.8-3.4-1.4-4.5-1.7c-13-3.9-22.7,3.7-26,14.8
				c-0.7,2.4-1,5-1,7.6c0,4.4,0.8,8.8,1.7,12.4c0.9,3.5,1.8,6.2,2.4,7.6c0.2,0.6,0.4,1,0.4,1s0.7-0.5,1.6-1c0.8-0.6,1.8-1.2,2.4-1.8
				c2-1.7,8.2-6.9,8.2-6.9s-1.5-2.2-0.4-6.2c1.8-6.3,7.2-3.2,7.2-3.2s2.3-4.9,4.9-5.7c3.9-1.3,13-0.5,15.5-0.6c0.3,0,0.5,0,0.5-0.1
				c0.4-0.2,0.7-0.3,1.1-0.5c4-2.4,3.9-6.9,3.9-6.9S68,8.3,61.3,5.1"/>
			<path id="Fill-257" class="st3" d="M46,68.4L46,68.4c-0.1,0-0.8-0.2-1.9-0.5c-1.1-0.3-2.6-0.8-4.3-1.6c-1.3-0.7-2.8-1.5-4.3-2.3
				c-2.3-1.3-4-2.3-5.4-3.2c-1.6-1.2-3.3-2.7-4.8-4.3c-0.4-0.4-0.7-0.8-1.1-1.2c0,0-0.1,0.1-0.3,0.2C21.3,57,5.6,66.6,0.6,81.6
				c11,13.4,27.7,22,46.3,22c4,0,7.9-0.4,11.6-1.1C57.1,86.8,46,68.4,46,68.4"/>
			<path id="Fill-258" class="st1" d="M86.2,53.9c0.1,1.2,0.8,7.6,0,9.9c-2.2,6.7-5.5,9.5-5.6,9.6l-0.5,0.4l-0.5-0.3
				c-1.5-0.9-1.5-3-1.1-4.2c0.3-0.8,1.6-3.5,1.8-4c0.4-1.2,0.4-2.1,0-2.7c-0.1-0.2-0.2-0.3-0.4-0.4l-4.8,9.4
				c-1.2,1.9-1.7,4.5-1.6,6.1L74,85l-3,13.5c3.4-1.5,6.7-3.3,9.8-5.4l0.1-5.6l9-22.8l-2.5-12.7C86.6,52.5,86.3,53.6,86.2,53.9"/>
			<path id="Fill-259" class="st3" d="M88.1,50.2L88.1,50.2c-1.2,0-2.3,0.7-2.9,1.9c-0.5,0.8-0.6,1.6-0.6,1.7l0,0.1l0,0.1
				c0.2,2,0.7,7.6,0.1,9.3c-1.5,4.5-3.5,7.1-4.5,8.2c-0.2-0.5-0.1-1.3,0-1.7c0.2-0.5,1.2-2.6,1.8-3.9l0-0.1c0.6-1.8,0.5-3.2-0.2-4.2
				c-0.8-1.1-2-1.3-2.1-1.3l-0.6-0.1l-5.4,10.5c-1.4,2.3-1.9,5.2-1.8,7l0.4,7.1L69,99.3c0.7-0.3,1.3-0.5,1.9-0.8L74,85l-0.5-7.3
				c-0.1-1.6,0.4-4.1,1.6-6.1l4.8-9.4c0.1,0.1,0.3,0.2,0.4,0.4c0.4,0.6,0.4,1.5,0,2.7c-0.3,0.5-1.6,3.2-1.8,4
				c-0.4,1.2-0.4,3.3,1.1,4.2l0.5,0.3l0.5-0.4c0.1-0.1,3.4-2.9,5.6-9.6c0.8-2.3,0.1-8.7,0-9.9c0.1-0.3,0.4-1.4,1.2-1.9l2.5,12.7
				l-9,22.8l-0.1,5.6c0.6-0.4,1.2-0.8,1.7-1.2l0.1-4l9-23l-2.8-14.7H88.1"/>
			<path id="Fill-260" class="st4" d="M76.1,46.2l-7.5,0.9c-0.5,0.1-0.9,0.5-0.8,1.1c0.1,0.5,0.5,0.8,0.9,0.8c0,0,0.1,0,0.1,0
				l7.5-0.9c0.5-0.1,0.9-0.5,0.8-1.1C77.1,46.5,76.6,46.2,76.1,46.2"/>
			<path id="Fill-261" class="st4" d="M75.8,53.6l-6.2-2.4c-0.5-0.2-1,0.1-1.2,0.5c-0.2,0.5,0.1,1,0.5,1.2l6.2,2.4
				c0.1,0,0.2,0.1,0.3,0.1c0.4,0,0.7-0.2,0.9-0.6C76.5,54.4,76.3,53.8,75.8,53.6"/>
			<path id="Fill-262" class="st4" d="M66.6,54.9c-0.3-0.4-1-0.4-1.3-0.1c-0.4,0.3-0.4,0.9-0.1,1.3l4.9,5.7c0.2,0.2,0.5,0.3,0.7,0.3
				c0.2,0,0.4-0.1,0.6-0.2c0.4-0.3,0.4-0.9,0.1-1.3L66.6,54.9"/>
		</g>
		<path id="Fill-289" class="st2" d="M43,52c-0.5-2.4-0.9-5-1-7.7C42,46.5,42.3,48.9,43,52"/>
		<path id="Fill-293" class="st5" d="M54.8,71.9c-1.8,0-3.2,1.4-3.2,3.2c0,1.8,1.4,3.2,3.2,3.2s3.2-1.4,3.2-3.2
			C58,73.4,56.6,71.9,54.8,71.9"/>
		<path id="Fill-294" class="st5" d="M54.8,80.5c-3,0-5.4-2.4-5.4-5.4c0-3,2.4-5.4,5.4-5.4c3,0,5.4,2.4,5.4,5.4
			C60.2,78.1,57.8,80.5,54.8,80.5z M54.8,68.2c-3.8,0-6.9,3.1-6.9,6.9c0,3.8,3.1,6.9,6.9,6.9s6.9-3.1,6.9-6.9
			C61.7,71.3,58.6,68.2,54.8,68.2L54.8,68.2z"/>
		<path id="Fill-295" class="st5" d="M54.8,84.3c-5.1,0-9.2-4.1-9.2-9.2c0-5.1,4.1-9.2,9.2-9.2s9.2,4.1,9.2,9.2
			C64,80.2,59.9,84.3,54.8,84.3z M54.8,64.6c-5.8,0-10.5,4.7-10.5,10.5c0,5.8,4.7,10.5,10.5,10.5s10.5-4.7,10.5-10.5
			C65.3,69.3,60.6,64.6,54.8,64.6L54.8,64.6z"/>
		<path id="Fill-245" class="st6" d="M57.6,12.8c0.3-0.3,0.3-0.9,0-1.2c-0.3-0.3-0.9-0.3-1.2,0L55.1,13c-1.8,1.9-1.8,4.8,0,6.6
			c0.6,0.7,0.9,1.5,0.9,2.3c0,0.7-0.3,1.4-0.9,1.9l-1.7,1.7c-0.3,0.3-0.3,0.9,0,1.2C53.6,27,53.8,27,54,27c0.2,0,0.4-0.1,0.6-0.3
			l1.7-1.7c0.8-0.8,1.3-1.9,1.3-3c0.1-1.3-0.4-2.6-1.3-3.6c-1.2-1.2-1.2-3.1,0-4.3L57.6,12.8"/>
		<path id="Fill-246" class="st6" d="M64.1,12.8c0.3-0.3,0.3-0.9,0-1.2c-0.3-0.3-0.9-0.3-1.2,0L61.5,13c-1.8,1.9-1.8,4.8,0,6.6
			c0.9,0.9,1.1,2.2,0.6,3.3c-0.1,0.3-0.4,0.7-0.6,0.9l-1.7,1.7c-0.3,0.3-0.3,0.9,0,1.2C60,27,60.3,27,60.5,27c0.2,0,0.4-0.1,0.6-0.3
			l1.7-1.7c0.5-0.5,0.8-1.1,1.1-1.7c0.6-1.7,0.3-3.6-1.1-5c-1.2-1.2-1.2-3.1,0-4.3L64.1,12.8"/>
		<path id="Fill-247" class="st6" d="M70.5,12.8c0.3-0.3,0.3-0.9,0-1.2c-0.3-0.3-0.9-0.3-1.2,0L68,13c-1.8,1.9-1.8,4.8,0,6.6
			c1.2,1.2,1.2,3.1,0,4.3l-0.6,0.6l0,0l-1.1,1.1c-0.3,0.3-0.3,0.9,0,1.2c0.2,0.2,0.4,0.2,0.6,0.2c0.2,0,0.4-0.1,0.6-0.3l1.6-1.7l0,0
			c1.8-1.9,1.8-4.8,0-6.6c-1.2-1.2-1.2-3.1,0-4.3L70.5,12.8"/>
		<path id="Fill-248" class="st7" d="M65.6,45.5c0,1.2,1,2.2,2.2,2.2c1.2,0,2.2-1,2.2-2.2c0-1.2-2.2-4.1-2.2-4.1
			S65.6,44.3,65.6,45.5"/>
		<path id="Fill-249" class="st7" d="M60.1,52.2c0,1.2,1,2.2,2.2,2.2c1.2,0,2.2-1,2.2-2.2c0-1.2-2.2-4.1-2.2-4.1S60.1,51,60.1,52.2"
			/>
	</g>
</g>
</svg>
