<?xml version="1.0" encoding="utf-8"?>
<!-- Generator: Adobe Illustrator 22.0.0, SVG Export Plug-In . SVG Version: 6.00 Build 0)  -->
<svg version="1.1" id="Camada_1" xmlns="http://www.w3.org/2000/svg" xmlns:xlink="http://www.w3.org/1999/xlink" x="0px" y="0px"
	 viewBox="0 0 120 120" style="enable-background:new 0 0 120 120;" xml:space="preserve">
<style type="text/css">
	.st0{fill:#ABD8FF;}
	.st1{fill:#C9E1F6;}
	.st2{fill:#FFFFFF;}
	.st3{fill:#7BB6E9;}
	.st4{fill:#1C65A4;}
</style>
<g id="Existe-vacina_x2C_-medicamento-ou-tratamento_x3F_">
	<g id="Group-4">
		<g id="Group-2">
			<circle id="Oval-Copy" class="st0" cx="60" cy="60" r="60"/>
			
				<g id="Group" transform="translate(60.074839, 59.874233) rotate(14.000000) translate(-60.074839, -59.874233) translate(34.074839, 13.874233)">
				<path id="Fill-19" class="st1" d="M19.8,89.5c0.9-0.3,1.6-0.9,2-1.8c0.8-1.8,0.1-3.9-1.7-4.8l-2.2-1.1l-9.2-4.6l-2.2-1.1
					c-1.7-0.9-3.9-0.1-4.7,1.6c-0.8,1.8-0.1,3.9,1.7,4.8l13.7,6.8C18,89.8,19,89.8,19.8,89.5"/>
				<polygon id="Fill-21" class="st2" points="13.8,66.2 23.1,70.8 17.9,81.8 8.7,77.2 				"/>
				<polygon id="Fill-23" class="st1" points="23.1,70.8 31,74.7 33.9,68.4 29.9,66.4 12.9,57.9 8.9,55.9 5.9,62.2 				"/>
				<polygon id="Fill-25" class="st2" points="19.8,43.3 36.7,51.8 29.9,66.4 12.9,57.9 				"/>
				<polygon id="Fill-27" class="st1" points="19.8,43.3 36.7,51.8 39.9,45.1 22.9,36.6 				"/>
				<path id="Fill-29" class="st3" d="M39.9,45.1l4.8-10.3c0.9-1.8,0.1-4.1-1.7-5l-0.5-0.3l-9.3-4.7l-0.5-0.3
					c-1.8-0.9-4-0.1-4.9,1.7l-4.8,10.3L39.9,45.1z"/>
				<path id="Fill-31" class="st1" d="M44.9,24.3c1.2-2.6,0.1-5.8-2.5-7.1c-2.6-1.3-5.7-0.2-6.9,2.4l-2.5,5.3l9.3,4.7L44.9,24.3z"/>
				<g id="Group-35">
					<path id="Fill-33" class="st4" d="M17.7,88L4.1,81.2c-1-0.5-1.5-1.8-1-2.8c0.2-0.5,0.6-0.9,1.2-1.1c0.5-0.2,1.1-0.1,1.6,0.1
						l0,0l13.7,6.8c0.5,0.2,0.9,0.7,1.1,1.2v0c0.2,0.5,0.2,1.1-0.1,1.6c-0.2,0.5-0.6,0.9-1.2,1.1C18.8,88.3,18.2,88.3,17.7,88
						L17.7,88z M14.5,68.2l6.6,3.3l-3.9,8.4l-6.6-3.3L14.5,68.2z M7.9,61.6l1.7-3.6l2.7,1.3l0,0l0,0l2.6,1.3
						c0.7,0.4,1.6,0.1,1.9-0.7c0.3-0.7,0-1.6-0.7-2l-1.3-0.6l5.6-12l14.3,7.2l-5.6,12l-1.3-0.6c-0.7-0.4-1.6-0.1-1.9,0.7
						c-0.3,0.7,0,1.6,0.7,2l5.3,2.6l-1.7,3.6L7.9,61.6z M30.3,25.9c0.6-0.2,1.2-0.2,1.7,0.1l0.5,0.3l0,0l0,0l9.8,4.9
						c0.5,0.3,0.9,0.7,1.1,1.3l0,0c0.2,0.6,0.2,1.2-0.1,1.7l-4.2,8.9L24.8,36L29,27C29.3,26.5,29.7,26.1,30.3,25.9L30.3,25.9z
						 M41.8,18.5c0.9,0.4,1.6,1.2,1.9,2.2c0.3,1,0.3,2-0.1,2.9l-1.9,4L35,24.2l1.9-4C37.8,18.4,40,17.6,41.8,18.5L41.8,18.5z
						 M23.6,38.6l14.3,7.2l-1.9,4l-14.3-7.2L23.6,38.6z M23.1,88.4c0.6-1.2,0.6-2.6,0.2-3.9l0,0c-0.4-1.3-1.4-2.3-2.5-2.9l-0.9-0.4
						l3.9-8.4l6.6,3.3c0.7,0.4,1.6,0.1,1.9-0.7l3-6.3c0.2-0.4,0.2-0.8,0.1-1.1v0c-0.1-0.4-0.4-0.7-0.7-0.9l-2.7-1.4l6.2-13.3l0,0v0
						l3.1-6.6l0-0.1l0-0.1L46,35.5c0.6-1.2,0.7-2.7,0.2-4l0,0c-0.4-1-1-1.9-1.9-2.5l1.9-4.1c0.8-1.6,0.8-3.4,0.2-5.2
						c-0.4-1.2-1.2-2.3-2.1-3.1l6.8-14.4c0.3-0.7,0-1.6-0.7-2c-0.7-0.4-1.6-0.1-1.9,0.7l-6.8,14.4c-2.9-0.7-6.1,0.7-7.4,3.6L32.4,23
						c-1-0.3-2.1-0.3-3.1,0.1c-1.3,0.4-2.3,1.4-2.9,2.6l-4.8,10.2l0,0.1l0,0.1l-3.1,6.6L12.2,56l-2.7-1.4c-0.3-0.2-0.7-0.2-1.1-0.1
						c-0.4,0.1-0.7,0.4-0.8,0.7l-3,6.3c-0.2,0.4-0.2,0.8-0.1,1.1c0.1,0.4,0.4,0.7,0.7,0.9l6.6,3.3L8,75.2l-0.9-0.4
						c-1.2-0.6-2.5-0.7-3.8-0.3C2,75,1,75.9,0.5,77.1c-0.6,1.3-0.6,2.6-0.2,3.9c0.4,1.2,1.3,2.3,2.6,2.9l13.7,6.8
						c1.2,0.6,2.5,0.7,3.8,0.2C21.6,90.5,22.6,89.6,23.1,88.4L23.1,88.4z"/>
				</g>
			</g>
		</g>
	</g>
</g>
</svg>
