<?xml version="1.0" encoding="utf-8"?>
<!-- Generator: Adobe Illustrator 22.0.0, SVG Export Plug-In . SVG Version: 6.00 Build 0)  -->
<svg version="1.1" id="Camada_1" xmlns="http://www.w3.org/2000/svg" xmlns:xlink="http://www.w3.org/1999/xlink" x="0px" y="0px"
	 viewBox="0 0 120 120" style="enable-background:new 0 0 120 120;" xml:space="preserve">
<style type="text/css">
	.st0{fill:#ABD8FF;}
	.st1{fill:#DAE1E4;}
	.st2{fill:#7BB6E9;}
	.st3{fill:#C9E1F6;}
	.st4{fill:#FFFFFF;}
	.st5{fill:#CCD1D3;}
	.st6{fill:#1C65A4;}
</style>
<g id="Informações-para-viajantes-">
	<g id="Group">
		<circle id="Oval" class="st0" cx="60" cy="60" r="60"/>
		<g id="Group-2" transform="translate(21.000000, 24.600000)">
			<polyline id="Fill-1" class="st1" points="20.3,44.2 16.9,42.5 13.6,48.9 22.6,53.6 			"/>
			<polyline id="Fill-2" class="st1" points="46.1,8.6 37,3.9 33.7,10.3 37.1,12.1 			"/>
			<path id="Fill-3" class="st2" d="M62.2,38.7l12.1-3.8c1.4-0.4,2.6,1.2,1.6,2.4l-7.4,9.5l-1.8,3.4l-3.6,11.6
				c-0.4,1.4-2.4,1.4-2.9,0l-3.8-12.1"/>
			<path id="Fill-5" class="st3" d="M64.5,1.5c0.4-0.2,0.8-0.2,1.2-0.2c3-0.1,4.9,3.9,2.3,6.1L43.6,28.2l-6.3,12.1l-3.1,32
				c-0.3,3.4-4.7,4.2-6.3,1.6c-0.2-0.3-0.4-0.7-0.5-1.1L16.7,29.6l6.3-12L64.5,1.5z"/>
			<path id="Fill-7" class="st2" d="M64.5,1.5c0.4-0.2,0.8-0.2,1.2-0.2c0.9,1.3,1,3.3-0.6,4.6L40.7,26.8l-6.3,12.1l-3.1,32
				c-0.2,2-1.8,3.1-3.4,3.1c-0.2-0.3-0.4-0.7-0.5-1.1L16.7,29.6l6.3-12L64.5,1.5z"/>
			<path id="Fill-9" class="st4" d="M69.4,48.1l-3-4.5c-2.2-3.3-5.2-6.1-8.7-7.9L16,13.9c-3.8-2-7.2-2.5-9.9-2.3
				c-3.8,0.2-6,4.4-4,7.6c1.5,2.3,3.8,4.8,7.6,6.8l41.7,21.7c3.5,1.8,7.5,2.8,11.5,2.6l5.4-0.2l0,0"/>
			<path id="Fill-11" class="st3" d="M63.8,48.5l4.8,1.1l0,0l-0.3,0.6l0,0l-5.4,0.2c-4,0.1-7.9-0.8-11.5-2.6L9.7,25.9
				c-3.8-2-6.1-4.5-7.6-6.8c-1-1.6-1-3.5-0.2-4.9c-0.3,0.7,0,1.7,1.3,2.9c1.8,1.6,4.4,3.6,8.2,5.6l41.7,21.7
				C56.6,46.2,60.3,47.6,63.8,48.5"/>
			<polygon id="Fill-13" class="st5" points="68.8,49.1 68.6,49.6 68.6,49.6 			"/>
			<path id="Fill-15" class="st6" d="M67.7,3.6c0.4,0.7,0.6,1.9-0.5,2.8L43.4,26.7L26,17.7L65,2.7C66.2,2.2,67.2,2.9,67.7,3.6
				L67.7,3.6z M35.4,9.8l2.2-4.2L43,8.4l-5.9,2.3L35.4,9.8z M65,51.5l-3,9.9c0,0-0.1,0.2-0.2,0.2c-0.2,0-0.2-0.1-0.2-0.2l-3.2-10.1
				c1.5,0.2,3,0.3,4.5,0.3L65,51.5z M64.6,39.3l10.1-3.2c0,0,0.2-0.1,0.3,0.1c0.1,0.2,0,0.3,0,0.3l-6.4,8.2l-1.2-1.8
				C66.6,41.5,65.6,40.4,64.6,39.3L64.6,39.3z M15.3,48.4l2.2-4.2l1.8,0.9l1.5,6.1L15.3,48.4z M64.1,0.3L46.2,7.2l-8.6-4.5
				c-0.6-0.3-1.4-0.1-1.7,0.5l-3.4,6.4c-0.3,0.6-0.1,1.4,0.5,1.7l0.9,0.5l-11,4.2l-6.5-3.4c-3.5-1.8-7.1-2.7-10.7-2.5
				c-2.2,0.1-4.1,1.3-5.1,3.3l0,0c-1,2-0.9,4.2,0.2,6.1c1.9,3.1,4.7,5.5,8.1,7.3l6.5,3.4l2.8,11.4l-0.9-0.5
				c-0.6-0.3-1.4-0.1-1.7,0.5l-3.3,6.4c-0.3,0.6-0.1,1.4,0.5,1.7l8.6,4.5l4.6,18.6c0.7,2.7,3,3.7,4.9,3.6c1.5-0.1,3-0.9,3.8-2.4
				c0.3-0.5,0.5-1.1,0.5-1.8l0.6-6.6c0.1-0.7-0.4-1.3-1.1-1.4c-0.7-0.1-1.3,0.4-1.4,1.1l-0.6,6.6c-0.1,1.4-1.2,1.9-2,2
				c-0.9,0.1-2-0.3-2.3-1.7L18.6,32L35.9,41l-1.9,19.1c-0.1,0.7,0.4,1.3,1.1,1.4c0.7,0.1,1.3-0.4,1.4-1.1l1.8-18.1l12.4,6.5
				c1.5,0.8,3.1,1.4,4.7,1.9l3.6,11.5c0.4,1.2,1.4,1.9,2.6,1.9c1.1,0,2-0.6,2.4-1.5c0.1-0.2,0.1-0.3,0.2-0.5l3.3-10.7
				c0.5-0.1,1-0.3,1.4-0.7l5,2.6c0.6,0.3,1.4,0.1,1.7-0.5c0.3-0.6,0.1-1.4-0.5-1.7l-5.1-2.6c0-0.5,0-1.1-0.3-1.5L77,38
				c0.1-0.1,0.2-0.3,0.3-0.4c0.5-0.9,0.4-2-0.2-2.8c-0.7-1-1.9-1.4-3.1-1.1l-11.5,3.6c-1.3-1.1-2.7-2-4.2-2.8l-5.8-3
				c-0.6-0.3-1.4-0.1-1.7,0.5c-0.3,0.6-0.1,1.4,0.5,1.7l5.8,3c3.3,1.7,6.2,4.3,8.3,7.5l1.6,2.5l-6.5-3.4c-0.6-0.3-1.4-0.1-1.7,0.5
				c-0.3,0.6-0.1,1.4,0.5,1.7l6.5,3.4l-3,0.1c-3.8,0.1-7.5-0.7-10.9-2.5L10.3,24.8c-3.1-1.6-5.5-3.8-7.2-6.4
				c-0.7-1.1-0.7-2.5-0.1-3.6l0,0c0.6-1.2,1.7-1.9,3-2c3.1-0.2,6.3,0.6,9.4,2.2l30.7,16c0.6,0.3,1.4,0.1,1.7-0.5
				c0.3-0.6,0.1-1.4-0.5-1.7L45.8,28l23-19.6c0.5-0.5,0.9-1,1.2-1.5c0.8-1.5,0.6-3.3-0.2-4.5C68.8,0.6,66.6-0.6,64.1,0.3L64.1,0.3z"
				/>
			<path id="Fill-17" class="st6" d="M10.8,23c0.2,0.7,0.9,1,1.6,0.8c0.7-0.2,1-0.9,0.8-1.6c-0.5-1.5,0.4-3,1.8-3.5
				c0.3-0.1,0.6-0.3,0.7-0.6c0.1-0.3,0.2-0.6,0.1-1c-0.2-0.7-0.9-1-1.6-0.8C11.5,17.2,9.9,20.2,10.8,23"/>
		</g>
	</g>
</g>
</svg>
