<?xml version="1.0" encoding="utf-8"?>
<!-- Generator: Adobe Illustrator 22.0.0, SVG Export Plug-In . SVG Version: 6.00 Build 0)  -->
<svg version="1.1" id="Camada_1" xmlns="http://www.w3.org/2000/svg" xmlns:xlink="http://www.w3.org/1999/xlink" x="0px" y="0px"
	 viewBox="0 0 120 120" style="enable-background:new 0 0 120 120;" xml:space="preserve">
<style type="text/css">
	.st0{filter:url(#Adobe_OpacityMaskFilter);}
	.st1{fill:#FFFFFF;}
	.st2{mask:url(#mask-2_1_);fill:#ABD8FF;}
	.st3{fill:#1C65A4;}
</style>
<g id="Como-funciona-a-vigilância-e-notificação-de-casos-no-Brasil">
	<g id="Group-15">
		<g id="Group-14" transform="translate(0.000000, 0.152000)">
			<g id="Group-3">
				<g id="Clip-2">
				</g>
				<defs>
					<filter id="Adobe_OpacityMaskFilter" filterUnits="userSpaceOnUse" x="0" y="0.6" width="119.4" height="119.4">
						<feColorMatrix  type="matrix" values="1 0 0 0 0  0 1 0 0 0  0 0 1 0 0  0 0 0 1 0"/>
					</filter>
				</defs>
				<mask maskUnits="userSpaceOnUse" x="0" y="0.6" width="119.4" height="119.4" id="mask-2_1_">
					<g class="st0">
						<polygon id="path-1_1_" class="st1" points="0,0.6 119.4,0.6 119.4,120 0,120 						"/>
					</g>
				</mask>
				<path id="Fill-1" class="st2" d="M119.4,60.3c0,33-26.7,59.7-59.7,59.7C26.7,120,0,93.3,0,60.3c0-33,26.7-59.7,59.7-59.7
					C92.7,0.6,119.4,27.3,119.4,60.3"/>
			</g>
			<path id="Fill-4" class="st3" d="M88.4,28.9H21.8c-0.9,0-1.7,0.8-1.7,1.7v45.5h70V30.6C90.1,29.7,89.3,28.9,88.4,28.9"/>
			<path id="Fill-6" class="st1" d="M84.7,34.1H25.4c-0.8,0-1.5,0.7-1.5,1.5v40.5h62.3V35.6C86.2,34.8,85.6,34.1,84.7,34.1"/>
			<path id="Fill-8" class="st3" d="M15.2,81.6H95c3.1,0,5.5-2.5,5.5-5.5H9.6C9.6,79.2,12.1,81.6,15.2,81.6"/>
			<path id="Fill-10" class="st3" d="M103,49.5H82.2c-0.8,0-1.4,0.6-1.4,1.4v40.6c0,0.8,0.6,1.4,1.4,1.4H103c0.8,0,1.4-0.6,1.4-1.4
				V51C104.4,50.2,103.8,49.5,103,49.5"/>
			<polygon id="Fill-12" class="st1" points="83.2,88.1 102.1,88.1 102.1,54.5 83.2,54.5 			"/>
		</g>
		<polygon id="W" class="st3" points="37.5,55.2 39.6,49 41.7,55.2 43.6,55.2 46.8,45.6 44.6,45.6 42.7,52.1 40.5,45.6 38.7,45.6 
			36.6,52.1 34.6,45.6 32.4,45.6 35.6,55.2 		"/>
		<polygon id="W_1_" class="st3" points="53.1,55.2 55.2,49 57.3,55.2 59.2,55.2 62.4,45.6 60.2,45.6 58.3,52.1 56.1,45.6 
			54.3,45.6 52.2,52.1 50.2,45.6 48,45.6 51.2,55.2 		"/>
		<polygon id="W_2_" class="st3" points="68.7,55.2 70.8,49 72.9,55.2 74.8,55.2 78,45.6 75.8,45.6 73.9,52.1 71.7,45.6 69.9,45.6 
			67.8,52.1 65.8,45.6 63.6,45.6 66.8,55.2 		"/>
	</g>
</g>
</svg>
